G75*
%MOIN*%
%OFA0B0*%
%FSLAX25Y25*%
%IPPOS*%
%LPD*%
%AMOC8*
5,1,8,0,0,1.08239X$1,22.5*
%
%ADD10C,0.00394*%
%ADD11C,0.04362*%
%ADD12C,0.11811*%
%ADD13R,0.06693X0.06693*%
%ADD14R,0.14961X0.14961*%
%ADD15C,0.05937*%
%ADD16C,0.00787*%
%ADD17C,0.19685*%
%ADD18C,0.03562*%
%ADD19C,0.02400*%
%ADD20C,0.01600*%
%ADD21C,0.02775*%
D10*
X0027595Y0013833D02*
X0027595Y0183125D01*
X0027598Y0183410D01*
X0027609Y0183696D01*
X0027626Y0183981D01*
X0027650Y0184265D01*
X0027681Y0184549D01*
X0027719Y0184832D01*
X0027764Y0185113D01*
X0027815Y0185394D01*
X0027873Y0185674D01*
X0027938Y0185952D01*
X0028010Y0186228D01*
X0028088Y0186502D01*
X0028173Y0186775D01*
X0028265Y0187045D01*
X0028363Y0187313D01*
X0028467Y0187579D01*
X0028578Y0187842D01*
X0028695Y0188102D01*
X0028818Y0188360D01*
X0028948Y0188614D01*
X0029084Y0188865D01*
X0029225Y0189113D01*
X0029373Y0189357D01*
X0029526Y0189598D01*
X0029686Y0189834D01*
X0029851Y0190067D01*
X0030021Y0190296D01*
X0030197Y0190521D01*
X0030379Y0190741D01*
X0030565Y0190957D01*
X0030757Y0191168D01*
X0030954Y0191375D01*
X0031156Y0191577D01*
X0031363Y0191774D01*
X0031574Y0191966D01*
X0031790Y0192152D01*
X0032010Y0192334D01*
X0032235Y0192510D01*
X0032464Y0192680D01*
X0032697Y0192845D01*
X0032933Y0193005D01*
X0033174Y0193158D01*
X0033418Y0193306D01*
X0033666Y0193447D01*
X0033917Y0193583D01*
X0034171Y0193713D01*
X0034429Y0193836D01*
X0034689Y0193953D01*
X0034952Y0194064D01*
X0035218Y0194168D01*
X0035486Y0194266D01*
X0035756Y0194358D01*
X0036029Y0194443D01*
X0036303Y0194521D01*
X0036579Y0194593D01*
X0036857Y0194658D01*
X0037137Y0194716D01*
X0037418Y0194767D01*
X0037699Y0194812D01*
X0037982Y0194850D01*
X0038266Y0194881D01*
X0038550Y0194905D01*
X0038835Y0194922D01*
X0039121Y0194933D01*
X0039406Y0194936D01*
X0409485Y0194936D01*
X0409770Y0194933D01*
X0410056Y0194922D01*
X0410341Y0194905D01*
X0410625Y0194881D01*
X0410909Y0194850D01*
X0411192Y0194812D01*
X0411473Y0194767D01*
X0411754Y0194716D01*
X0412034Y0194658D01*
X0412312Y0194593D01*
X0412588Y0194521D01*
X0412862Y0194443D01*
X0413135Y0194358D01*
X0413405Y0194266D01*
X0413673Y0194168D01*
X0413939Y0194064D01*
X0414202Y0193953D01*
X0414462Y0193836D01*
X0414720Y0193713D01*
X0414974Y0193583D01*
X0415225Y0193447D01*
X0415473Y0193306D01*
X0415717Y0193158D01*
X0415958Y0193005D01*
X0416194Y0192845D01*
X0416427Y0192680D01*
X0416656Y0192510D01*
X0416881Y0192334D01*
X0417101Y0192152D01*
X0417317Y0191966D01*
X0417528Y0191774D01*
X0417735Y0191577D01*
X0417937Y0191375D01*
X0418134Y0191168D01*
X0418326Y0190957D01*
X0418512Y0190741D01*
X0418694Y0190521D01*
X0418870Y0190296D01*
X0419040Y0190067D01*
X0419205Y0189834D01*
X0419365Y0189598D01*
X0419518Y0189357D01*
X0419666Y0189113D01*
X0419807Y0188865D01*
X0419943Y0188614D01*
X0420073Y0188360D01*
X0420196Y0188102D01*
X0420313Y0187842D01*
X0420424Y0187579D01*
X0420528Y0187313D01*
X0420626Y0187045D01*
X0420718Y0186775D01*
X0420803Y0186502D01*
X0420881Y0186228D01*
X0420953Y0185952D01*
X0421018Y0185674D01*
X0421076Y0185394D01*
X0421127Y0185113D01*
X0421172Y0184832D01*
X0421210Y0184549D01*
X0421241Y0184265D01*
X0421265Y0183981D01*
X0421282Y0183696D01*
X0421293Y0183410D01*
X0421296Y0183125D01*
X0421296Y0013833D01*
X0421293Y0013548D01*
X0421282Y0013262D01*
X0421265Y0012977D01*
X0421241Y0012693D01*
X0421210Y0012409D01*
X0421172Y0012126D01*
X0421127Y0011845D01*
X0421076Y0011564D01*
X0421018Y0011284D01*
X0420953Y0011006D01*
X0420881Y0010730D01*
X0420803Y0010456D01*
X0420718Y0010183D01*
X0420626Y0009913D01*
X0420528Y0009645D01*
X0420424Y0009379D01*
X0420313Y0009116D01*
X0420196Y0008856D01*
X0420073Y0008598D01*
X0419943Y0008344D01*
X0419807Y0008093D01*
X0419666Y0007845D01*
X0419518Y0007601D01*
X0419365Y0007360D01*
X0419205Y0007124D01*
X0419040Y0006891D01*
X0418870Y0006662D01*
X0418694Y0006437D01*
X0418512Y0006217D01*
X0418326Y0006001D01*
X0418134Y0005790D01*
X0417937Y0005583D01*
X0417735Y0005381D01*
X0417528Y0005184D01*
X0417317Y0004992D01*
X0417101Y0004806D01*
X0416881Y0004624D01*
X0416656Y0004448D01*
X0416427Y0004278D01*
X0416194Y0004113D01*
X0415958Y0003953D01*
X0415717Y0003800D01*
X0415473Y0003652D01*
X0415225Y0003511D01*
X0414974Y0003375D01*
X0414720Y0003245D01*
X0414462Y0003122D01*
X0414202Y0003005D01*
X0413939Y0002894D01*
X0413673Y0002790D01*
X0413405Y0002692D01*
X0413135Y0002600D01*
X0412862Y0002515D01*
X0412588Y0002437D01*
X0412312Y0002365D01*
X0412034Y0002300D01*
X0411754Y0002242D01*
X0411473Y0002191D01*
X0411192Y0002146D01*
X0410909Y0002108D01*
X0410625Y0002077D01*
X0410341Y0002053D01*
X0410056Y0002036D01*
X0409770Y0002025D01*
X0409485Y0002022D01*
X0039406Y0002022D01*
X0039121Y0002025D01*
X0038835Y0002036D01*
X0038550Y0002053D01*
X0038266Y0002077D01*
X0037982Y0002108D01*
X0037699Y0002146D01*
X0037418Y0002191D01*
X0037137Y0002242D01*
X0036857Y0002300D01*
X0036579Y0002365D01*
X0036303Y0002437D01*
X0036029Y0002515D01*
X0035756Y0002600D01*
X0035486Y0002692D01*
X0035218Y0002790D01*
X0034952Y0002894D01*
X0034689Y0003005D01*
X0034429Y0003122D01*
X0034171Y0003245D01*
X0033917Y0003375D01*
X0033666Y0003511D01*
X0033418Y0003652D01*
X0033174Y0003800D01*
X0032933Y0003953D01*
X0032697Y0004113D01*
X0032464Y0004278D01*
X0032235Y0004448D01*
X0032010Y0004624D01*
X0031790Y0004806D01*
X0031574Y0004992D01*
X0031363Y0005184D01*
X0031156Y0005381D01*
X0030954Y0005583D01*
X0030757Y0005790D01*
X0030565Y0006001D01*
X0030379Y0006217D01*
X0030197Y0006437D01*
X0030021Y0006662D01*
X0029851Y0006891D01*
X0029686Y0007124D01*
X0029526Y0007360D01*
X0029373Y0007601D01*
X0029225Y0007845D01*
X0029084Y0008093D01*
X0028948Y0008344D01*
X0028818Y0008598D01*
X0028695Y0008856D01*
X0028578Y0009116D01*
X0028467Y0009379D01*
X0028363Y0009645D01*
X0028265Y0009913D01*
X0028173Y0010183D01*
X0028088Y0010456D01*
X0028010Y0010730D01*
X0027938Y0011006D01*
X0027873Y0011284D01*
X0027815Y0011564D01*
X0027764Y0011845D01*
X0027719Y0012126D01*
X0027681Y0012409D01*
X0027650Y0012693D01*
X0027626Y0012977D01*
X0027609Y0013262D01*
X0027598Y0013548D01*
X0027595Y0013833D01*
D11*
X0254879Y0028975D02*
X0254879Y0033337D01*
X0259879Y0033337D02*
X0259879Y0028975D01*
X0264879Y0028975D02*
X0264879Y0033337D01*
X0269879Y0033337D02*
X0269879Y0028975D01*
X0274879Y0028975D02*
X0274879Y0033337D01*
X0279879Y0033337D02*
X0279879Y0028975D01*
X0284879Y0028975D02*
X0284879Y0033337D01*
X0289879Y0033337D02*
X0289879Y0028975D01*
X0294879Y0028975D02*
X0294879Y0033337D01*
X0299879Y0033337D02*
X0299879Y0028975D01*
X0304879Y0028975D02*
X0304879Y0033337D01*
X0309879Y0033337D02*
X0309879Y0028975D01*
X0314879Y0028975D02*
X0314879Y0033337D01*
D12*
X0131335Y0063046D02*
X0131335Y0074857D01*
X0131335Y0122101D02*
X0131335Y0133912D01*
D13*
X0068934Y0138833D03*
X0049249Y0138833D03*
X0049249Y0081747D03*
X0059091Y0081747D03*
X0068934Y0081747D03*
D14*
X0081532Y0111274D03*
X0036650Y0111274D03*
D15*
X0095493Y0106274D02*
X0101430Y0106274D01*
X0101430Y0096274D02*
X0095493Y0096274D01*
X0095493Y0116274D02*
X0101430Y0116274D01*
X0101430Y0126274D02*
X0095493Y0126274D01*
X0162201Y0016802D02*
X0162201Y0010865D01*
X0172201Y0010865D02*
X0172201Y0016802D01*
X0182201Y0016802D02*
X0182201Y0010865D01*
X0192201Y0010865D02*
X0192201Y0016802D01*
X0213068Y0016802D02*
X0213068Y0010865D01*
X0223068Y0010865D02*
X0223068Y0016802D01*
X0233068Y0016802D02*
X0233068Y0010865D01*
X0243068Y0010865D02*
X0243068Y0016802D01*
X0253068Y0016802D02*
X0253068Y0010865D01*
X0263068Y0010865D02*
X0263068Y0016802D01*
X0273068Y0016802D02*
X0273068Y0010865D01*
X0283068Y0010865D02*
X0283068Y0016802D01*
D16*
X0287058Y0018526D02*
X0419705Y0018526D01*
X0419705Y0017741D02*
X0287383Y0017741D01*
X0287414Y0017666D02*
X0286752Y0019264D01*
X0285530Y0020487D01*
X0283932Y0021148D01*
X0282203Y0021148D01*
X0280606Y0020487D01*
X0279383Y0019264D01*
X0278721Y0017666D01*
X0278721Y0010000D01*
X0279383Y0008403D01*
X0280606Y0007180D01*
X0282203Y0006518D01*
X0283932Y0006518D01*
X0285530Y0007180D01*
X0286752Y0008403D01*
X0287414Y0010000D01*
X0287414Y0017666D01*
X0287414Y0016955D02*
X0419705Y0016955D01*
X0419705Y0016169D02*
X0287414Y0016169D01*
X0287414Y0015383D02*
X0419705Y0015383D01*
X0419705Y0014597D02*
X0287414Y0014597D01*
X0287414Y0013811D02*
X0419704Y0013811D01*
X0419705Y0013833D02*
X0419580Y0012234D01*
X0418591Y0009193D01*
X0416712Y0006606D01*
X0414125Y0004727D01*
X0411084Y0003739D01*
X0409485Y0003613D01*
X0039406Y0003613D01*
X0037807Y0003739D01*
X0034766Y0004727D01*
X0032179Y0006606D01*
X0030300Y0009193D01*
X0029312Y0012234D01*
X0029186Y0013833D01*
X0029186Y0183125D01*
X0029312Y0184723D01*
X0030300Y0187765D01*
X0032179Y0190352D01*
X0034766Y0192231D01*
X0037807Y0193219D01*
X0039406Y0193345D01*
X0409485Y0193345D01*
X0411084Y0193219D01*
X0414125Y0192231D01*
X0416712Y0190352D01*
X0418591Y0187765D01*
X0419580Y0184723D01*
X0419705Y0183125D01*
X0419705Y0013833D01*
X0419642Y0013025D02*
X0287414Y0013025D01*
X0287414Y0012239D02*
X0419580Y0012239D01*
X0419326Y0011453D02*
X0287414Y0011453D01*
X0287414Y0010667D02*
X0419070Y0010667D01*
X0418815Y0009881D02*
X0287365Y0009881D01*
X0287039Y0009096D02*
X0418520Y0009096D01*
X0417949Y0008310D02*
X0286659Y0008310D01*
X0285873Y0007524D02*
X0417378Y0007524D01*
X0416807Y0006738D02*
X0284462Y0006738D01*
X0281673Y0006738D02*
X0274462Y0006738D01*
X0273932Y0006518D02*
X0275530Y0007180D01*
X0276752Y0008403D01*
X0277414Y0010000D01*
X0277414Y0017666D01*
X0276752Y0019264D01*
X0275646Y0020371D01*
X0275646Y0020813D01*
X0275253Y0021760D01*
X0273531Y0023483D01*
X0272805Y0024208D01*
X0271858Y0024600D01*
X0254913Y0024600D01*
X0254045Y0025468D01*
X0254171Y0025416D01*
X0255587Y0025416D01*
X0256895Y0025958D01*
X0257379Y0026442D01*
X0257863Y0025958D01*
X0259171Y0025416D01*
X0260587Y0025416D01*
X0261895Y0025958D01*
X0262896Y0026959D01*
X0263438Y0028267D01*
X0263438Y0034045D01*
X0262896Y0035353D01*
X0262057Y0036193D01*
X0262057Y0039654D01*
X0277273Y0054870D01*
X0277273Y0069870D01*
X0278523Y0071120D01*
X0278523Y0074733D01*
X0279023Y0075233D01*
X0279325Y0075962D01*
X0282943Y0072344D01*
X0299612Y0072344D01*
X0299779Y0072178D01*
X0300795Y0071757D01*
X0301895Y0071757D01*
X0302912Y0072178D01*
X0303689Y0072956D01*
X0304110Y0073972D01*
X0304110Y0075072D01*
X0303689Y0076089D01*
X0302912Y0076867D01*
X0301895Y0077288D01*
X0300795Y0077288D01*
X0299779Y0076867D01*
X0299612Y0076700D01*
X0284747Y0076700D01*
X0276023Y0085424D01*
X0274747Y0086700D01*
X0252943Y0086700D01*
X0250174Y0083931D01*
X0249467Y0083931D01*
X0248306Y0083450D01*
X0247417Y0082562D01*
X0246936Y0081401D01*
X0246936Y0080144D01*
X0247417Y0078983D01*
X0248306Y0078094D01*
X0249467Y0077613D01*
X0250724Y0077613D01*
X0251885Y0078094D01*
X0252773Y0078983D01*
X0253254Y0080144D01*
X0253254Y0080851D01*
X0254747Y0082344D01*
X0272943Y0082344D01*
X0275285Y0080002D01*
X0274556Y0079700D01*
X0273667Y0078812D01*
X0273186Y0077651D01*
X0273186Y0076431D01*
X0271967Y0076431D01*
X0270806Y0075950D01*
X0269917Y0075062D01*
X0269436Y0073901D01*
X0269436Y0072644D01*
X0269917Y0071483D01*
X0270417Y0070983D01*
X0270417Y0057924D01*
X0261423Y0048930D01*
X0261423Y0071383D01*
X0261523Y0071483D01*
X0262004Y0072644D01*
X0262004Y0073901D01*
X0261523Y0075062D01*
X0260635Y0075950D01*
X0259474Y0076431D01*
X0258217Y0076431D01*
X0257056Y0075950D01*
X0256167Y0075062D01*
X0255686Y0073901D01*
X0255686Y0072644D01*
X0256036Y0071799D01*
X0255635Y0072200D01*
X0254474Y0072681D01*
X0253217Y0072681D01*
X0252056Y0072200D01*
X0251970Y0072115D01*
X0251885Y0072200D01*
X0250724Y0072681D01*
X0249467Y0072681D01*
X0248306Y0072200D01*
X0248205Y0072100D01*
X0218663Y0072100D01*
X0216423Y0074340D01*
X0216423Y0082633D01*
X0216523Y0082733D01*
X0217004Y0083894D01*
X0217004Y0085151D01*
X0216523Y0086312D01*
X0216423Y0086412D01*
X0216423Y0097633D01*
X0216523Y0097733D01*
X0217004Y0098894D01*
X0217004Y0100151D01*
X0216523Y0101312D01*
X0215635Y0102200D01*
X0214474Y0102681D01*
X0213217Y0102681D01*
X0212056Y0102200D01*
X0211955Y0102100D01*
X0165832Y0102100D01*
X0164885Y0101708D01*
X0164160Y0100983D01*
X0159160Y0095983D01*
X0158767Y0095035D01*
X0158767Y0090162D01*
X0158667Y0090062D01*
X0158186Y0088901D01*
X0158186Y0087644D01*
X0158667Y0086483D01*
X0158767Y0086383D01*
X0158767Y0075162D01*
X0158667Y0075062D01*
X0158186Y0073901D01*
X0158186Y0073759D01*
X0155956Y0071529D01*
X0138619Y0071529D01*
X0138619Y0076306D01*
X0137510Y0078983D01*
X0135461Y0081032D01*
X0132784Y0082140D01*
X0129887Y0082140D01*
X0127210Y0081032D01*
X0125161Y0078983D01*
X0124052Y0076306D01*
X0124052Y0061597D01*
X0125161Y0058920D01*
X0127210Y0056871D01*
X0129887Y0055762D01*
X0132784Y0055762D01*
X0135461Y0056871D01*
X0137510Y0058920D01*
X0138619Y0061597D01*
X0138619Y0066373D01*
X0157537Y0066373D01*
X0158485Y0066766D01*
X0161832Y0070113D01*
X0161974Y0070113D01*
X0163135Y0070594D01*
X0164023Y0071483D01*
X0164504Y0072644D01*
X0164504Y0073901D01*
X0164023Y0075062D01*
X0163923Y0075162D01*
X0163923Y0086383D01*
X0164023Y0086483D01*
X0164504Y0087644D01*
X0164504Y0088901D01*
X0164023Y0090062D01*
X0163923Y0090162D01*
X0163923Y0093454D01*
X0167413Y0096944D01*
X0211267Y0096944D01*
X0211267Y0086412D01*
X0211167Y0086312D01*
X0210686Y0085151D01*
X0210686Y0083894D01*
X0211167Y0082733D01*
X0211267Y0082633D01*
X0211267Y0072760D01*
X0211660Y0071812D01*
X0215410Y0068062D01*
X0216135Y0067337D01*
X0217082Y0066944D01*
X0248205Y0066944D01*
X0248306Y0066844D01*
X0249467Y0066363D01*
X0250724Y0066363D01*
X0251885Y0066844D01*
X0251970Y0066930D01*
X0252056Y0066844D01*
X0253217Y0066363D01*
X0254474Y0066363D01*
X0255635Y0066844D01*
X0256267Y0067477D01*
X0256267Y0049340D01*
X0247910Y0040983D01*
X0247517Y0040035D01*
X0247517Y0025260D01*
X0247910Y0024312D01*
X0248635Y0023587D01*
X0251404Y0020817D01*
X0250606Y0020487D01*
X0249383Y0019264D01*
X0248721Y0017666D01*
X0248721Y0010000D01*
X0249383Y0008403D01*
X0250606Y0007180D01*
X0252203Y0006518D01*
X0253932Y0006518D01*
X0255530Y0007180D01*
X0256752Y0008403D01*
X0257414Y0010000D01*
X0257414Y0017666D01*
X0256752Y0019264D01*
X0256572Y0019444D01*
X0259563Y0019444D01*
X0259383Y0019264D01*
X0258721Y0017666D01*
X0258721Y0010000D01*
X0259383Y0008403D01*
X0260606Y0007180D01*
X0262203Y0006518D01*
X0263932Y0006518D01*
X0265530Y0007180D01*
X0266752Y0008403D01*
X0267414Y0010000D01*
X0267414Y0017666D01*
X0266752Y0019264D01*
X0266572Y0019444D01*
X0269563Y0019444D01*
X0269383Y0019264D01*
X0268721Y0017666D01*
X0268721Y0010000D01*
X0269383Y0008403D01*
X0270606Y0007180D01*
X0272203Y0006518D01*
X0273932Y0006518D01*
X0275873Y0007524D02*
X0280262Y0007524D01*
X0279476Y0008310D02*
X0276659Y0008310D01*
X0277039Y0009096D02*
X0279096Y0009096D01*
X0278770Y0009881D02*
X0277365Y0009881D01*
X0277414Y0010667D02*
X0278721Y0010667D01*
X0278721Y0011453D02*
X0277414Y0011453D01*
X0277414Y0012239D02*
X0278721Y0012239D01*
X0278721Y0013025D02*
X0277414Y0013025D01*
X0277414Y0013811D02*
X0278721Y0013811D01*
X0278721Y0014597D02*
X0277414Y0014597D01*
X0277414Y0015383D02*
X0278721Y0015383D01*
X0278721Y0016169D02*
X0277414Y0016169D01*
X0277414Y0016955D02*
X0278721Y0016955D01*
X0278752Y0017741D02*
X0277383Y0017741D01*
X0277058Y0018526D02*
X0279077Y0018526D01*
X0279431Y0019312D02*
X0276704Y0019312D01*
X0275918Y0020098D02*
X0280217Y0020098D01*
X0281566Y0020884D02*
X0275616Y0020884D01*
X0275290Y0021670D02*
X0419705Y0021670D01*
X0419705Y0020884D02*
X0284570Y0020884D01*
X0285918Y0020098D02*
X0419705Y0020098D01*
X0419705Y0019312D02*
X0286704Y0019312D01*
X0285587Y0025416D02*
X0284171Y0025416D01*
X0282863Y0025958D01*
X0282379Y0026442D01*
X0281895Y0025958D01*
X0280587Y0025416D01*
X0279171Y0025416D01*
X0277863Y0025958D01*
X0277379Y0026442D01*
X0276895Y0025958D01*
X0275587Y0025416D01*
X0274171Y0025416D01*
X0272863Y0025958D01*
X0272379Y0026442D01*
X0271895Y0025958D01*
X0270587Y0025416D01*
X0269171Y0025416D01*
X0267863Y0025958D01*
X0266861Y0026959D01*
X0266320Y0028267D01*
X0266320Y0034045D01*
X0266861Y0035353D01*
X0267863Y0036354D01*
X0269171Y0036896D01*
X0270587Y0036896D01*
X0271895Y0036354D01*
X0272379Y0035871D01*
X0272863Y0036354D01*
X0274171Y0036896D01*
X0275587Y0036896D01*
X0276895Y0036354D01*
X0277379Y0035871D01*
X0277863Y0036354D01*
X0279171Y0036896D01*
X0280587Y0036896D01*
X0281895Y0036354D01*
X0282379Y0035871D01*
X0282863Y0036354D01*
X0284171Y0036896D01*
X0285587Y0036896D01*
X0286895Y0036354D01*
X0287379Y0035871D01*
X0287863Y0036354D01*
X0289171Y0036896D01*
X0290587Y0036896D01*
X0291895Y0036354D01*
X0292379Y0035871D01*
X0292863Y0036354D01*
X0294171Y0036896D01*
X0295587Y0036896D01*
X0296895Y0036354D01*
X0297379Y0035871D01*
X0297863Y0036354D01*
X0299171Y0036896D01*
X0300587Y0036896D01*
X0301895Y0036354D01*
X0302379Y0035871D01*
X0302863Y0036354D01*
X0304171Y0036896D01*
X0305587Y0036896D01*
X0306895Y0036354D01*
X0307379Y0035871D01*
X0307863Y0036354D01*
X0309171Y0036896D01*
X0310587Y0036896D01*
X0311895Y0036354D01*
X0312379Y0035871D01*
X0312863Y0036354D01*
X0314171Y0036896D01*
X0315587Y0036896D01*
X0316895Y0036354D01*
X0317896Y0035353D01*
X0318438Y0034045D01*
X0318438Y0028267D01*
X0317896Y0026959D01*
X0316895Y0025958D01*
X0315587Y0025416D01*
X0314171Y0025416D01*
X0312863Y0025958D01*
X0312379Y0026442D01*
X0311895Y0025958D01*
X0310587Y0025416D01*
X0309171Y0025416D01*
X0307863Y0025958D01*
X0307379Y0026442D01*
X0306895Y0025958D01*
X0305587Y0025416D01*
X0304171Y0025416D01*
X0302863Y0025958D01*
X0302379Y0026442D01*
X0301895Y0025958D01*
X0300587Y0025416D01*
X0299171Y0025416D01*
X0297863Y0025958D01*
X0297379Y0026442D01*
X0296895Y0025958D01*
X0295587Y0025416D01*
X0294171Y0025416D01*
X0292863Y0025958D01*
X0292379Y0026442D01*
X0291895Y0025958D01*
X0290587Y0025416D01*
X0289171Y0025416D01*
X0287863Y0025958D01*
X0287379Y0026442D01*
X0286895Y0025958D01*
X0285587Y0025416D01*
X0286030Y0025600D02*
X0288727Y0025600D01*
X0287435Y0026386D02*
X0287322Y0026386D01*
X0283727Y0025600D02*
X0281030Y0025600D01*
X0282322Y0026386D02*
X0282435Y0026386D01*
X0278727Y0025600D02*
X0276030Y0025600D01*
X0277322Y0026386D02*
X0277435Y0026386D01*
X0273727Y0025600D02*
X0271030Y0025600D01*
X0272322Y0026386D02*
X0272435Y0026386D01*
X0272985Y0024028D02*
X0419705Y0024028D01*
X0419705Y0024814D02*
X0254699Y0024814D01*
X0256030Y0025600D02*
X0258727Y0025600D01*
X0257435Y0026386D02*
X0257322Y0026386D01*
X0261030Y0025600D02*
X0268727Y0025600D01*
X0267435Y0026386D02*
X0262322Y0026386D01*
X0262984Y0027172D02*
X0266773Y0027172D01*
X0266448Y0027957D02*
X0263309Y0027957D01*
X0263438Y0028743D02*
X0266320Y0028743D01*
X0266320Y0029529D02*
X0263438Y0029529D01*
X0263438Y0030315D02*
X0266320Y0030315D01*
X0266320Y0031101D02*
X0263438Y0031101D01*
X0263438Y0031887D02*
X0266320Y0031887D01*
X0266320Y0032673D02*
X0263438Y0032673D01*
X0263438Y0033459D02*
X0266320Y0033459D01*
X0266402Y0034245D02*
X0263355Y0034245D01*
X0263029Y0035031D02*
X0266728Y0035031D01*
X0267325Y0035817D02*
X0262433Y0035817D01*
X0262057Y0036602D02*
X0268461Y0036602D01*
X0271296Y0036602D02*
X0273461Y0036602D01*
X0276296Y0036602D02*
X0278461Y0036602D01*
X0281296Y0036602D02*
X0283461Y0036602D01*
X0286296Y0036602D02*
X0288461Y0036602D01*
X0291296Y0036602D02*
X0293461Y0036602D01*
X0296296Y0036602D02*
X0298461Y0036602D01*
X0301296Y0036602D02*
X0303461Y0036602D01*
X0306296Y0036602D02*
X0308461Y0036602D01*
X0311296Y0036602D02*
X0313461Y0036602D01*
X0316296Y0036602D02*
X0419705Y0036602D01*
X0419705Y0035817D02*
X0317433Y0035817D01*
X0318029Y0035031D02*
X0419705Y0035031D01*
X0419705Y0034245D02*
X0318355Y0034245D01*
X0318438Y0033459D02*
X0419705Y0033459D01*
X0419705Y0032673D02*
X0318438Y0032673D01*
X0318438Y0031887D02*
X0419705Y0031887D01*
X0419705Y0031101D02*
X0318438Y0031101D01*
X0318438Y0030315D02*
X0419705Y0030315D01*
X0419705Y0029529D02*
X0318438Y0029529D01*
X0318438Y0028743D02*
X0419705Y0028743D01*
X0419705Y0027957D02*
X0318309Y0027957D01*
X0317984Y0027172D02*
X0419705Y0027172D01*
X0419705Y0026386D02*
X0317322Y0026386D01*
X0316030Y0025600D02*
X0419705Y0025600D01*
X0419705Y0023242D02*
X0273771Y0023242D01*
X0274557Y0022456D02*
X0419705Y0022456D01*
X0419705Y0037388D02*
X0262057Y0037388D01*
X0262057Y0038174D02*
X0419705Y0038174D01*
X0419705Y0038960D02*
X0262057Y0038960D01*
X0262149Y0039746D02*
X0419705Y0039746D01*
X0419705Y0040532D02*
X0262935Y0040532D01*
X0263721Y0041318D02*
X0419705Y0041318D01*
X0419705Y0042104D02*
X0264507Y0042104D01*
X0265293Y0042890D02*
X0419705Y0042890D01*
X0419705Y0043676D02*
X0266079Y0043676D01*
X0266865Y0044462D02*
X0419705Y0044462D01*
X0419705Y0045248D02*
X0267650Y0045248D01*
X0268436Y0046033D02*
X0419705Y0046033D01*
X0419705Y0046819D02*
X0269222Y0046819D01*
X0270008Y0047605D02*
X0419705Y0047605D01*
X0419705Y0048391D02*
X0270794Y0048391D01*
X0271580Y0049177D02*
X0419705Y0049177D01*
X0419705Y0049963D02*
X0272366Y0049963D01*
X0273152Y0050749D02*
X0419705Y0050749D01*
X0419705Y0051535D02*
X0273938Y0051535D01*
X0274724Y0052321D02*
X0419705Y0052321D01*
X0419705Y0053107D02*
X0275510Y0053107D01*
X0276295Y0053893D02*
X0419705Y0053893D01*
X0419705Y0054678D02*
X0277081Y0054678D01*
X0277273Y0055464D02*
X0419705Y0055464D01*
X0419705Y0056250D02*
X0277273Y0056250D01*
X0277273Y0057036D02*
X0419705Y0057036D01*
X0419705Y0057822D02*
X0277273Y0057822D01*
X0277273Y0058608D02*
X0419705Y0058608D01*
X0419705Y0059394D02*
X0277273Y0059394D01*
X0277273Y0060180D02*
X0419705Y0060180D01*
X0419705Y0060966D02*
X0277273Y0060966D01*
X0277273Y0061752D02*
X0419705Y0061752D01*
X0419705Y0062538D02*
X0277273Y0062538D01*
X0277273Y0063324D02*
X0419705Y0063324D01*
X0419705Y0064109D02*
X0277273Y0064109D01*
X0277273Y0064895D02*
X0419705Y0064895D01*
X0419705Y0065681D02*
X0277273Y0065681D01*
X0277273Y0066467D02*
X0419705Y0066467D01*
X0419705Y0067253D02*
X0277273Y0067253D01*
X0277273Y0068039D02*
X0419705Y0068039D01*
X0419705Y0068825D02*
X0277273Y0068825D01*
X0277273Y0069611D02*
X0419705Y0069611D01*
X0419705Y0070397D02*
X0277800Y0070397D01*
X0278523Y0071183D02*
X0419705Y0071183D01*
X0419705Y0071969D02*
X0302406Y0071969D01*
X0303488Y0072754D02*
X0419705Y0072754D01*
X0419705Y0073540D02*
X0303932Y0073540D01*
X0304110Y0074326D02*
X0419705Y0074326D01*
X0419705Y0075112D02*
X0304094Y0075112D01*
X0303768Y0075898D02*
X0419705Y0075898D01*
X0419705Y0076684D02*
X0303094Y0076684D01*
X0300284Y0071969D02*
X0278523Y0071969D01*
X0278523Y0072754D02*
X0282533Y0072754D01*
X0281747Y0073540D02*
X0278523Y0073540D01*
X0278523Y0074326D02*
X0280961Y0074326D01*
X0280175Y0075112D02*
X0278903Y0075112D01*
X0279299Y0075898D02*
X0279389Y0075898D01*
X0282406Y0079042D02*
X0419705Y0079042D01*
X0419705Y0079828D02*
X0281620Y0079828D01*
X0280834Y0080614D02*
X0419705Y0080614D01*
X0419705Y0081400D02*
X0280048Y0081400D01*
X0279262Y0082185D02*
X0419705Y0082185D01*
X0419705Y0082971D02*
X0278476Y0082971D01*
X0277690Y0083757D02*
X0419705Y0083757D01*
X0419705Y0084543D02*
X0276904Y0084543D01*
X0276118Y0085329D02*
X0419705Y0085329D01*
X0419705Y0086115D02*
X0275333Y0086115D01*
X0273102Y0082185D02*
X0254588Y0082185D01*
X0253802Y0081400D02*
X0273888Y0081400D01*
X0274674Y0080614D02*
X0253254Y0080614D01*
X0253123Y0079828D02*
X0274863Y0079828D01*
X0273897Y0079042D02*
X0252798Y0079042D01*
X0252046Y0078256D02*
X0273437Y0078256D01*
X0273186Y0077470D02*
X0216423Y0077470D01*
X0216423Y0078256D02*
X0248144Y0078256D01*
X0247393Y0079042D02*
X0216423Y0079042D01*
X0216423Y0079828D02*
X0247067Y0079828D01*
X0246936Y0080614D02*
X0216423Y0080614D01*
X0216423Y0081400D02*
X0246936Y0081400D01*
X0247261Y0082185D02*
X0216423Y0082185D01*
X0216622Y0082971D02*
X0247827Y0082971D01*
X0249046Y0083757D02*
X0216948Y0083757D01*
X0217004Y0084543D02*
X0250786Y0084543D01*
X0251572Y0085329D02*
X0216930Y0085329D01*
X0216605Y0086115D02*
X0252358Y0086115D01*
X0257003Y0075898D02*
X0216423Y0075898D01*
X0216423Y0075112D02*
X0256217Y0075112D01*
X0255862Y0074326D02*
X0216437Y0074326D01*
X0217223Y0073540D02*
X0255686Y0073540D01*
X0255686Y0072754D02*
X0218009Y0072754D01*
X0213861Y0069611D02*
X0161329Y0069611D01*
X0160544Y0068825D02*
X0214647Y0068825D01*
X0215433Y0068039D02*
X0159758Y0068039D01*
X0158972Y0067253D02*
X0216337Y0067253D01*
X0213075Y0070397D02*
X0162658Y0070397D01*
X0163723Y0071183D02*
X0212289Y0071183D01*
X0211595Y0071969D02*
X0164224Y0071969D01*
X0164504Y0072754D02*
X0211269Y0072754D01*
X0211267Y0073540D02*
X0164504Y0073540D01*
X0164328Y0074326D02*
X0211267Y0074326D01*
X0211267Y0075112D02*
X0163973Y0075112D01*
X0163923Y0075898D02*
X0211267Y0075898D01*
X0211267Y0076684D02*
X0163923Y0076684D01*
X0163923Y0077470D02*
X0211267Y0077470D01*
X0211267Y0078256D02*
X0163923Y0078256D01*
X0163923Y0079042D02*
X0211267Y0079042D01*
X0211267Y0079828D02*
X0163923Y0079828D01*
X0163923Y0080614D02*
X0211267Y0080614D01*
X0211267Y0081400D02*
X0163923Y0081400D01*
X0163923Y0082185D02*
X0211267Y0082185D01*
X0211068Y0082971D02*
X0163923Y0082971D01*
X0163923Y0083757D02*
X0210743Y0083757D01*
X0210686Y0084543D02*
X0163923Y0084543D01*
X0163923Y0085329D02*
X0210760Y0085329D01*
X0211086Y0086115D02*
X0163923Y0086115D01*
X0164196Y0086901D02*
X0211267Y0086901D01*
X0211267Y0087687D02*
X0164504Y0087687D01*
X0164504Y0088473D02*
X0211267Y0088473D01*
X0211267Y0089259D02*
X0164356Y0089259D01*
X0164030Y0090045D02*
X0211267Y0090045D01*
X0211267Y0090830D02*
X0163923Y0090830D01*
X0163923Y0091616D02*
X0211267Y0091616D01*
X0211267Y0092402D02*
X0163923Y0092402D01*
X0163923Y0093188D02*
X0211267Y0093188D01*
X0211267Y0093974D02*
X0164443Y0093974D01*
X0165229Y0094760D02*
X0211267Y0094760D01*
X0211267Y0095546D02*
X0166015Y0095546D01*
X0166800Y0096332D02*
X0211267Y0096332D01*
X0216423Y0096332D02*
X0419705Y0096332D01*
X0419705Y0097118D02*
X0216423Y0097118D01*
X0216594Y0097904D02*
X0419705Y0097904D01*
X0419705Y0098690D02*
X0216920Y0098690D01*
X0217004Y0099476D02*
X0419705Y0099476D01*
X0419705Y0100261D02*
X0216958Y0100261D01*
X0216633Y0101047D02*
X0419705Y0101047D01*
X0419705Y0101833D02*
X0216002Y0101833D01*
X0214624Y0102619D02*
X0419705Y0102619D01*
X0419705Y0103405D02*
X0104707Y0103405D01*
X0105115Y0103812D02*
X0105776Y0105410D01*
X0105776Y0107139D01*
X0105115Y0108736D01*
X0103892Y0109959D01*
X0102294Y0110621D01*
X0094628Y0110621D01*
X0093031Y0109959D01*
X0091808Y0108736D01*
X0091146Y0107139D01*
X0091146Y0105410D01*
X0091808Y0103812D01*
X0093031Y0102590D01*
X0094628Y0101928D01*
X0102294Y0101928D01*
X0103892Y0102590D01*
X0105115Y0103812D01*
X0105271Y0104191D02*
X0419705Y0104191D01*
X0419705Y0104977D02*
X0105597Y0104977D01*
X0105776Y0105763D02*
X0419705Y0105763D01*
X0419705Y0106549D02*
X0296171Y0106549D01*
X0295724Y0106363D02*
X0296885Y0106844D01*
X0297773Y0107733D01*
X0298254Y0108894D01*
X0298254Y0110151D01*
X0297773Y0111312D01*
X0296885Y0112200D01*
X0295724Y0112681D01*
X0294467Y0112681D01*
X0293306Y0112200D01*
X0292806Y0111700D01*
X0286135Y0111700D01*
X0285635Y0112200D01*
X0284474Y0112681D01*
X0283217Y0112681D01*
X0282056Y0112200D01*
X0281167Y0111312D01*
X0280686Y0110151D01*
X0280686Y0108894D01*
X0281167Y0107733D01*
X0282056Y0106844D01*
X0283217Y0106363D01*
X0284474Y0106363D01*
X0285635Y0106844D01*
X0286135Y0107344D01*
X0292806Y0107344D01*
X0293306Y0106844D01*
X0294467Y0106363D01*
X0295724Y0106363D01*
X0294019Y0106549D02*
X0284921Y0106549D01*
X0286125Y0107335D02*
X0292815Y0107335D01*
X0297375Y0107335D02*
X0419705Y0107335D01*
X0419705Y0108121D02*
X0297934Y0108121D01*
X0298254Y0108906D02*
X0419705Y0108906D01*
X0419705Y0109692D02*
X0298254Y0109692D01*
X0298118Y0110478D02*
X0419705Y0110478D01*
X0419705Y0111264D02*
X0297793Y0111264D01*
X0297035Y0112050D02*
X0419705Y0112050D01*
X0419705Y0112836D02*
X0104138Y0112836D01*
X0103892Y0112590D02*
X0105115Y0113812D01*
X0105776Y0115410D01*
X0105776Y0117139D01*
X0105115Y0118736D01*
X0103892Y0119959D01*
X0102294Y0120621D01*
X0094628Y0120621D01*
X0093031Y0119959D01*
X0091808Y0118736D01*
X0091146Y0117139D01*
X0091146Y0115410D01*
X0091808Y0113812D01*
X0093031Y0112590D01*
X0094628Y0111928D01*
X0102294Y0111928D01*
X0103892Y0112590D01*
X0102590Y0112050D02*
X0281905Y0112050D01*
X0281147Y0111264D02*
X0029186Y0111264D01*
X0029186Y0110478D02*
X0094284Y0110478D01*
X0094333Y0112050D02*
X0029186Y0112050D01*
X0029186Y0112836D02*
X0092784Y0112836D01*
X0091998Y0113622D02*
X0029186Y0113622D01*
X0029186Y0114408D02*
X0091561Y0114408D01*
X0091236Y0115194D02*
X0029186Y0115194D01*
X0029186Y0115980D02*
X0091146Y0115980D01*
X0091146Y0116766D02*
X0029186Y0116766D01*
X0029186Y0117552D02*
X0091317Y0117552D01*
X0091643Y0118337D02*
X0029186Y0118337D01*
X0029186Y0119123D02*
X0092195Y0119123D01*
X0092981Y0119909D02*
X0029186Y0119909D01*
X0029186Y0120695D02*
X0124052Y0120695D01*
X0124052Y0120652D02*
X0125161Y0117975D01*
X0127210Y0115926D01*
X0129887Y0114818D01*
X0132784Y0114818D01*
X0135461Y0115926D01*
X0137510Y0117975D01*
X0138619Y0120652D01*
X0138619Y0135361D01*
X0137510Y0138038D01*
X0135461Y0140087D01*
X0132784Y0141196D01*
X0129887Y0141196D01*
X0127210Y0140087D01*
X0125161Y0138038D01*
X0124052Y0135361D01*
X0124052Y0120652D01*
X0124360Y0119909D02*
X0103942Y0119909D01*
X0104728Y0119123D02*
X0124685Y0119123D01*
X0125011Y0118337D02*
X0105280Y0118337D01*
X0105605Y0117552D02*
X0125584Y0117552D01*
X0126370Y0116766D02*
X0105776Y0116766D01*
X0105776Y0115980D02*
X0127156Y0115980D01*
X0128978Y0115194D02*
X0105687Y0115194D01*
X0105361Y0114408D02*
X0419705Y0114408D01*
X0419705Y0115194D02*
X0133692Y0115194D01*
X0135514Y0115980D02*
X0419705Y0115980D01*
X0419705Y0116766D02*
X0136300Y0116766D01*
X0137086Y0117552D02*
X0419705Y0117552D01*
X0419705Y0118337D02*
X0137660Y0118337D01*
X0137985Y0119123D02*
X0419705Y0119123D01*
X0419705Y0119909D02*
X0138311Y0119909D01*
X0138619Y0120695D02*
X0419705Y0120695D01*
X0419705Y0121481D02*
X0138619Y0121481D01*
X0138619Y0122267D02*
X0419705Y0122267D01*
X0419705Y0123053D02*
X0138619Y0123053D01*
X0138619Y0123839D02*
X0419705Y0123839D01*
X0419705Y0124625D02*
X0138619Y0124625D01*
X0138619Y0125411D02*
X0419705Y0125411D01*
X0419705Y0126197D02*
X0138619Y0126197D01*
X0138619Y0126982D02*
X0419705Y0126982D01*
X0419705Y0127768D02*
X0138619Y0127768D01*
X0138619Y0128554D02*
X0419705Y0128554D01*
X0419705Y0129340D02*
X0138619Y0129340D01*
X0138619Y0130126D02*
X0419705Y0130126D01*
X0419705Y0130912D02*
X0138619Y0130912D01*
X0138619Y0131698D02*
X0419705Y0131698D01*
X0419705Y0132484D02*
X0138619Y0132484D01*
X0138619Y0133270D02*
X0419705Y0133270D01*
X0419705Y0134056D02*
X0138619Y0134056D01*
X0138619Y0134842D02*
X0419705Y0134842D01*
X0419705Y0135627D02*
X0138508Y0135627D01*
X0138183Y0136413D02*
X0419705Y0136413D01*
X0419705Y0137199D02*
X0137857Y0137199D01*
X0137532Y0137985D02*
X0419705Y0137985D01*
X0419705Y0138771D02*
X0136777Y0138771D01*
X0135991Y0139557D02*
X0419705Y0139557D01*
X0419705Y0140343D02*
X0134842Y0140343D01*
X0132945Y0141129D02*
X0419705Y0141129D01*
X0419705Y0141915D02*
X0073658Y0141915D01*
X0073658Y0142701D02*
X0419705Y0142701D01*
X0419705Y0143487D02*
X0072922Y0143487D01*
X0072851Y0143558D02*
X0065016Y0143558D01*
X0064209Y0142751D01*
X0064209Y0134916D01*
X0065016Y0134109D01*
X0072851Y0134109D01*
X0073658Y0134916D01*
X0073658Y0142751D01*
X0072851Y0143558D01*
X0073658Y0141129D02*
X0129726Y0141129D01*
X0127828Y0140343D02*
X0073658Y0140343D01*
X0073658Y0139557D02*
X0126680Y0139557D01*
X0125894Y0138771D02*
X0073658Y0138771D01*
X0073658Y0137985D02*
X0125139Y0137985D01*
X0124813Y0137199D02*
X0073658Y0137199D01*
X0073658Y0136413D02*
X0124488Y0136413D01*
X0124162Y0135627D02*
X0073658Y0135627D01*
X0073584Y0134842D02*
X0124052Y0134842D01*
X0124052Y0134056D02*
X0029186Y0134056D01*
X0029186Y0134842D02*
X0064284Y0134842D01*
X0064209Y0135627D02*
X0029186Y0135627D01*
X0029186Y0136413D02*
X0064209Y0136413D01*
X0064209Y0137199D02*
X0029186Y0137199D01*
X0029186Y0137985D02*
X0064209Y0137985D01*
X0064209Y0138771D02*
X0029186Y0138771D01*
X0029186Y0139557D02*
X0064209Y0139557D01*
X0064209Y0140343D02*
X0029186Y0140343D01*
X0029186Y0141129D02*
X0064209Y0141129D01*
X0064209Y0141915D02*
X0029186Y0141915D01*
X0029186Y0142701D02*
X0064209Y0142701D01*
X0064945Y0143487D02*
X0029186Y0143487D01*
X0029186Y0144273D02*
X0419705Y0144273D01*
X0419705Y0145058D02*
X0029186Y0145058D01*
X0029186Y0145844D02*
X0419705Y0145844D01*
X0419705Y0146630D02*
X0029186Y0146630D01*
X0029186Y0147416D02*
X0419705Y0147416D01*
X0419705Y0148202D02*
X0029186Y0148202D01*
X0029186Y0148988D02*
X0419705Y0148988D01*
X0419705Y0149774D02*
X0029186Y0149774D01*
X0029186Y0150560D02*
X0419705Y0150560D01*
X0419705Y0151346D02*
X0029186Y0151346D01*
X0029186Y0152132D02*
X0419705Y0152132D01*
X0419705Y0152918D02*
X0029186Y0152918D01*
X0029186Y0153703D02*
X0419705Y0153703D01*
X0419705Y0154489D02*
X0029186Y0154489D01*
X0029186Y0155275D02*
X0419705Y0155275D01*
X0419705Y0156061D02*
X0029186Y0156061D01*
X0029186Y0156847D02*
X0419705Y0156847D01*
X0419705Y0157633D02*
X0029186Y0157633D01*
X0029186Y0158419D02*
X0419705Y0158419D01*
X0419705Y0159205D02*
X0029186Y0159205D01*
X0029186Y0159991D02*
X0419705Y0159991D01*
X0419705Y0160777D02*
X0029186Y0160777D01*
X0029186Y0161563D02*
X0419705Y0161563D01*
X0419705Y0162349D02*
X0029186Y0162349D01*
X0029186Y0163134D02*
X0419705Y0163134D01*
X0419705Y0163920D02*
X0029186Y0163920D01*
X0029186Y0164706D02*
X0419705Y0164706D01*
X0419705Y0165492D02*
X0029186Y0165492D01*
X0029186Y0166278D02*
X0419705Y0166278D01*
X0419705Y0167064D02*
X0029186Y0167064D01*
X0029186Y0167850D02*
X0419705Y0167850D01*
X0419705Y0168636D02*
X0029186Y0168636D01*
X0029186Y0169422D02*
X0419705Y0169422D01*
X0419705Y0170208D02*
X0029186Y0170208D01*
X0029186Y0170994D02*
X0419705Y0170994D01*
X0419705Y0171779D02*
X0029186Y0171779D01*
X0029186Y0172565D02*
X0419705Y0172565D01*
X0419705Y0173351D02*
X0029186Y0173351D01*
X0029186Y0174137D02*
X0419705Y0174137D01*
X0419705Y0174923D02*
X0029186Y0174923D01*
X0029186Y0175709D02*
X0419705Y0175709D01*
X0419705Y0176495D02*
X0029186Y0176495D01*
X0029186Y0177281D02*
X0419705Y0177281D01*
X0419705Y0178067D02*
X0029186Y0178067D01*
X0029186Y0178853D02*
X0419705Y0178853D01*
X0419705Y0179639D02*
X0029186Y0179639D01*
X0029186Y0180425D02*
X0419705Y0180425D01*
X0419705Y0181210D02*
X0029186Y0181210D01*
X0029186Y0181996D02*
X0419705Y0181996D01*
X0419705Y0182782D02*
X0029186Y0182782D01*
X0029221Y0183568D02*
X0419670Y0183568D01*
X0419609Y0184354D02*
X0029282Y0184354D01*
X0029447Y0185140D02*
X0419444Y0185140D01*
X0419189Y0185926D02*
X0029702Y0185926D01*
X0029958Y0186712D02*
X0418933Y0186712D01*
X0418678Y0187498D02*
X0030213Y0187498D01*
X0030677Y0188284D02*
X0418214Y0188284D01*
X0417643Y0189070D02*
X0031248Y0189070D01*
X0031819Y0189855D02*
X0417072Y0189855D01*
X0416313Y0190641D02*
X0032578Y0190641D01*
X0033660Y0191427D02*
X0415231Y0191427D01*
X0414150Y0192213D02*
X0034741Y0192213D01*
X0037130Y0192999D02*
X0411761Y0192999D01*
X0419705Y0113622D02*
X0104924Y0113622D01*
X0102638Y0110478D02*
X0280822Y0110478D01*
X0280686Y0109692D02*
X0104158Y0109692D01*
X0104944Y0108906D02*
X0280686Y0108906D01*
X0281006Y0108121D02*
X0105370Y0108121D01*
X0105695Y0107335D02*
X0281565Y0107335D01*
X0282769Y0106549D02*
X0105776Y0106549D01*
X0103921Y0102619D02*
X0213067Y0102619D01*
X0216423Y0095546D02*
X0419705Y0095546D01*
X0419705Y0094760D02*
X0216423Y0094760D01*
X0216423Y0093974D02*
X0419705Y0093974D01*
X0419705Y0093188D02*
X0216423Y0093188D01*
X0216423Y0092402D02*
X0419705Y0092402D01*
X0419705Y0091616D02*
X0216423Y0091616D01*
X0216423Y0090830D02*
X0419705Y0090830D01*
X0419705Y0090045D02*
X0216423Y0090045D01*
X0216423Y0089259D02*
X0419705Y0089259D01*
X0419705Y0088473D02*
X0216423Y0088473D01*
X0216423Y0087687D02*
X0419705Y0087687D01*
X0419705Y0086901D02*
X0216423Y0086901D01*
X0216423Y0076684D02*
X0273186Y0076684D01*
X0270753Y0075898D02*
X0260687Y0075898D01*
X0261473Y0075112D02*
X0269967Y0075112D01*
X0269612Y0074326D02*
X0261828Y0074326D01*
X0262004Y0073540D02*
X0269436Y0073540D01*
X0269436Y0072754D02*
X0262004Y0072754D01*
X0261724Y0071969D02*
X0269716Y0071969D01*
X0270217Y0071183D02*
X0261423Y0071183D01*
X0261423Y0070397D02*
X0270417Y0070397D01*
X0270417Y0069611D02*
X0261423Y0069611D01*
X0261423Y0068825D02*
X0270417Y0068825D01*
X0270417Y0068039D02*
X0261423Y0068039D01*
X0261423Y0067253D02*
X0270417Y0067253D01*
X0270417Y0066467D02*
X0261423Y0066467D01*
X0261423Y0065681D02*
X0270417Y0065681D01*
X0270417Y0064895D02*
X0261423Y0064895D01*
X0261423Y0064109D02*
X0270417Y0064109D01*
X0270417Y0063324D02*
X0261423Y0063324D01*
X0261423Y0062538D02*
X0270417Y0062538D01*
X0270417Y0061752D02*
X0261423Y0061752D01*
X0261423Y0060966D02*
X0270417Y0060966D01*
X0270417Y0060180D02*
X0261423Y0060180D01*
X0261423Y0059394D02*
X0270417Y0059394D01*
X0270417Y0058608D02*
X0261423Y0058608D01*
X0261423Y0057822D02*
X0270315Y0057822D01*
X0269529Y0057036D02*
X0261423Y0057036D01*
X0261423Y0056250D02*
X0268743Y0056250D01*
X0267957Y0055464D02*
X0261423Y0055464D01*
X0261423Y0054678D02*
X0267171Y0054678D01*
X0266385Y0053893D02*
X0261423Y0053893D01*
X0261423Y0053107D02*
X0265599Y0053107D01*
X0264813Y0052321D02*
X0261423Y0052321D01*
X0261423Y0051535D02*
X0264028Y0051535D01*
X0263242Y0050749D02*
X0261423Y0050749D01*
X0261423Y0049963D02*
X0262456Y0049963D01*
X0261670Y0049177D02*
X0261423Y0049177D01*
X0256267Y0049963D02*
X0029186Y0049963D01*
X0029186Y0050749D02*
X0256267Y0050749D01*
X0256267Y0051535D02*
X0029186Y0051535D01*
X0029186Y0052321D02*
X0256267Y0052321D01*
X0256267Y0053107D02*
X0029186Y0053107D01*
X0029186Y0053893D02*
X0256267Y0053893D01*
X0256267Y0054678D02*
X0029186Y0054678D01*
X0029186Y0055464D02*
X0256267Y0055464D01*
X0256267Y0056250D02*
X0133962Y0056250D01*
X0135626Y0057036D02*
X0256267Y0057036D01*
X0256267Y0057822D02*
X0136412Y0057822D01*
X0137198Y0058608D02*
X0256267Y0058608D01*
X0256267Y0059394D02*
X0137706Y0059394D01*
X0138032Y0060180D02*
X0256267Y0060180D01*
X0256267Y0060966D02*
X0138357Y0060966D01*
X0138619Y0061752D02*
X0256267Y0061752D01*
X0256267Y0062538D02*
X0138619Y0062538D01*
X0138619Y0063324D02*
X0256267Y0063324D01*
X0256267Y0064109D02*
X0138619Y0064109D01*
X0138619Y0064895D02*
X0256267Y0064895D01*
X0256267Y0065681D02*
X0138619Y0065681D01*
X0138619Y0071969D02*
X0156396Y0071969D01*
X0157182Y0072754D02*
X0138619Y0072754D01*
X0138619Y0073540D02*
X0157967Y0073540D01*
X0158362Y0074326D02*
X0138619Y0074326D01*
X0138619Y0075112D02*
X0158717Y0075112D01*
X0158767Y0075898D02*
X0138619Y0075898D01*
X0138462Y0076684D02*
X0158767Y0076684D01*
X0158767Y0077470D02*
X0138137Y0077470D01*
X0137811Y0078256D02*
X0141894Y0078256D01*
X0142056Y0078094D02*
X0143217Y0077613D01*
X0144474Y0077613D01*
X0145635Y0078094D01*
X0146135Y0078594D01*
X0151555Y0078594D01*
X0152056Y0078094D01*
X0153217Y0077613D01*
X0154474Y0077613D01*
X0155635Y0078094D01*
X0156523Y0078983D01*
X0157004Y0080144D01*
X0157004Y0081401D01*
X0156523Y0082562D01*
X0155635Y0083450D01*
X0154474Y0083931D01*
X0153217Y0083931D01*
X0152056Y0083450D01*
X0151555Y0082950D01*
X0146135Y0082950D01*
X0145635Y0083450D01*
X0144474Y0083931D01*
X0143217Y0083931D01*
X0142056Y0083450D01*
X0141167Y0082562D01*
X0140686Y0081401D01*
X0140686Y0080144D01*
X0141167Y0078983D01*
X0142056Y0078094D01*
X0141143Y0079042D02*
X0137451Y0079042D01*
X0136665Y0079828D02*
X0140817Y0079828D01*
X0140686Y0080614D02*
X0135879Y0080614D01*
X0134573Y0081400D02*
X0140686Y0081400D01*
X0141011Y0082185D02*
X0073658Y0082185D01*
X0073658Y0081400D02*
X0128098Y0081400D01*
X0126792Y0080614D02*
X0073658Y0080614D01*
X0073658Y0079828D02*
X0126006Y0079828D01*
X0125220Y0079042D02*
X0073658Y0079042D01*
X0073658Y0078256D02*
X0124860Y0078256D01*
X0124534Y0077470D02*
X0073299Y0077470D01*
X0073658Y0077829D02*
X0072851Y0077022D01*
X0065016Y0077022D01*
X0064209Y0077829D01*
X0064209Y0085664D01*
X0065016Y0086471D01*
X0072851Y0086471D01*
X0073658Y0085664D01*
X0073658Y0077829D01*
X0073658Y0082971D02*
X0141577Y0082971D01*
X0142796Y0083757D02*
X0073658Y0083757D01*
X0073658Y0084543D02*
X0158767Y0084543D01*
X0158767Y0083757D02*
X0154894Y0083757D01*
X0156114Y0082971D02*
X0158767Y0082971D01*
X0158767Y0082185D02*
X0156679Y0082185D01*
X0157004Y0081400D02*
X0158767Y0081400D01*
X0158767Y0080614D02*
X0157004Y0080614D01*
X0156873Y0079828D02*
X0158767Y0079828D01*
X0158767Y0079042D02*
X0156548Y0079042D01*
X0155796Y0078256D02*
X0158767Y0078256D01*
X0151894Y0078256D02*
X0145796Y0078256D01*
X0146114Y0082971D02*
X0151577Y0082971D01*
X0152796Y0083757D02*
X0144894Y0083757D01*
X0136983Y0090830D02*
X0158767Y0090830D01*
X0158767Y0091616D02*
X0137769Y0091616D01*
X0138555Y0092402D02*
X0158767Y0092402D01*
X0158767Y0093188D02*
X0140729Y0093188D01*
X0140635Y0093094D02*
X0141523Y0093983D01*
X0142004Y0095144D01*
X0142004Y0096401D01*
X0141523Y0097562D01*
X0140635Y0098450D01*
X0139474Y0098931D01*
X0138217Y0098931D01*
X0137056Y0098450D01*
X0136167Y0097562D01*
X0135686Y0096401D01*
X0135686Y0095693D01*
X0131424Y0091431D01*
X0130717Y0091431D01*
X0129556Y0090950D01*
X0128667Y0090062D01*
X0128186Y0088901D01*
X0128186Y0087644D01*
X0128667Y0086483D01*
X0129556Y0085594D01*
X0130717Y0085113D01*
X0131974Y0085113D01*
X0133135Y0085594D01*
X0134023Y0086483D01*
X0134504Y0087644D01*
X0134504Y0088351D01*
X0138766Y0092613D01*
X0139474Y0092613D01*
X0140635Y0093094D01*
X0141515Y0093974D02*
X0158767Y0093974D01*
X0158767Y0094760D02*
X0141845Y0094760D01*
X0142004Y0095546D02*
X0158979Y0095546D01*
X0159509Y0096332D02*
X0142004Y0096332D01*
X0141707Y0097118D02*
X0160295Y0097118D01*
X0161081Y0097904D02*
X0141181Y0097904D01*
X0140057Y0098690D02*
X0161867Y0098690D01*
X0162653Y0099476D02*
X0104375Y0099476D01*
X0103892Y0099959D02*
X0105115Y0098736D01*
X0105776Y0097139D01*
X0105776Y0095410D01*
X0105115Y0093812D01*
X0103892Y0092590D01*
X0102294Y0091928D01*
X0094628Y0091928D01*
X0093031Y0092590D01*
X0091808Y0093812D01*
X0091146Y0095410D01*
X0091146Y0097139D01*
X0091808Y0098736D01*
X0093031Y0099959D01*
X0094628Y0100621D01*
X0102294Y0100621D01*
X0103892Y0099959D01*
X0103162Y0100261D02*
X0163438Y0100261D01*
X0164224Y0101047D02*
X0029186Y0101047D01*
X0029186Y0100261D02*
X0093761Y0100261D01*
X0092547Y0099476D02*
X0029186Y0099476D01*
X0029186Y0098690D02*
X0091789Y0098690D01*
X0091463Y0097904D02*
X0029186Y0097904D01*
X0029186Y0097118D02*
X0091146Y0097118D01*
X0091146Y0096332D02*
X0029186Y0096332D01*
X0029186Y0095546D02*
X0091146Y0095546D01*
X0091415Y0094760D02*
X0029186Y0094760D01*
X0029186Y0093974D02*
X0091741Y0093974D01*
X0092432Y0093188D02*
X0029186Y0093188D01*
X0029186Y0092402D02*
X0093483Y0092402D01*
X0103440Y0092402D02*
X0132395Y0092402D01*
X0131609Y0091616D02*
X0029186Y0091616D01*
X0029186Y0090830D02*
X0129436Y0090830D01*
X0128660Y0090045D02*
X0029186Y0090045D01*
X0029186Y0089259D02*
X0128334Y0089259D01*
X0128186Y0088473D02*
X0029186Y0088473D01*
X0029186Y0087687D02*
X0128186Y0087687D01*
X0128494Y0086901D02*
X0029186Y0086901D01*
X0029186Y0086115D02*
X0044975Y0086115D01*
X0045331Y0086471D02*
X0044524Y0085664D01*
X0044524Y0077829D01*
X0045331Y0077022D01*
X0053166Y0077022D01*
X0053973Y0077829D01*
X0053973Y0085664D01*
X0053166Y0086471D01*
X0045331Y0086471D01*
X0044524Y0085329D02*
X0029186Y0085329D01*
X0029186Y0084543D02*
X0044524Y0084543D01*
X0044524Y0083757D02*
X0029186Y0083757D01*
X0029186Y0082971D02*
X0044524Y0082971D01*
X0044524Y0082185D02*
X0029186Y0082185D01*
X0029186Y0081400D02*
X0044524Y0081400D01*
X0044524Y0080614D02*
X0029186Y0080614D01*
X0029186Y0079828D02*
X0044524Y0079828D01*
X0044524Y0079042D02*
X0029186Y0079042D01*
X0029186Y0078256D02*
X0044524Y0078256D01*
X0044884Y0077470D02*
X0029186Y0077470D01*
X0029186Y0076684D02*
X0124209Y0076684D01*
X0124052Y0075898D02*
X0029186Y0075898D01*
X0029186Y0075112D02*
X0124052Y0075112D01*
X0124052Y0074326D02*
X0029186Y0074326D01*
X0029186Y0073540D02*
X0124052Y0073540D01*
X0124052Y0072754D02*
X0029186Y0072754D01*
X0029186Y0071969D02*
X0124052Y0071969D01*
X0124052Y0071183D02*
X0029186Y0071183D01*
X0029186Y0070397D02*
X0124052Y0070397D01*
X0124052Y0069611D02*
X0029186Y0069611D01*
X0029186Y0068825D02*
X0124052Y0068825D01*
X0124052Y0068039D02*
X0029186Y0068039D01*
X0029186Y0067253D02*
X0124052Y0067253D01*
X0124052Y0066467D02*
X0029186Y0066467D01*
X0029186Y0065681D02*
X0124052Y0065681D01*
X0124052Y0064895D02*
X0029186Y0064895D01*
X0029186Y0064109D02*
X0124052Y0064109D01*
X0124052Y0063324D02*
X0029186Y0063324D01*
X0029186Y0062538D02*
X0124052Y0062538D01*
X0124052Y0061752D02*
X0029186Y0061752D01*
X0029186Y0060966D02*
X0124313Y0060966D01*
X0124639Y0060180D02*
X0029186Y0060180D01*
X0029186Y0059394D02*
X0124964Y0059394D01*
X0125473Y0058608D02*
X0029186Y0058608D01*
X0029186Y0057822D02*
X0126259Y0057822D01*
X0127045Y0057036D02*
X0029186Y0057036D01*
X0029186Y0056250D02*
X0128709Y0056250D01*
X0157763Y0066467D02*
X0249216Y0066467D01*
X0250974Y0066467D02*
X0252966Y0066467D01*
X0254724Y0066467D02*
X0256267Y0066467D01*
X0256267Y0067253D02*
X0256043Y0067253D01*
X0255966Y0071969D02*
X0255866Y0071969D01*
X0283192Y0078256D02*
X0419705Y0078256D01*
X0419705Y0077470D02*
X0283978Y0077470D01*
X0256104Y0049177D02*
X0029186Y0049177D01*
X0029186Y0048391D02*
X0255318Y0048391D01*
X0254532Y0047605D02*
X0029186Y0047605D01*
X0029186Y0046819D02*
X0253746Y0046819D01*
X0252960Y0046033D02*
X0029186Y0046033D01*
X0029186Y0045248D02*
X0252175Y0045248D01*
X0251389Y0044462D02*
X0029186Y0044462D01*
X0029186Y0043676D02*
X0250603Y0043676D01*
X0249817Y0042890D02*
X0029186Y0042890D01*
X0029186Y0042104D02*
X0249031Y0042104D01*
X0248245Y0041318D02*
X0029186Y0041318D01*
X0029186Y0040532D02*
X0247723Y0040532D01*
X0247517Y0039746D02*
X0029186Y0039746D01*
X0029186Y0038960D02*
X0247517Y0038960D01*
X0247517Y0038174D02*
X0029186Y0038174D01*
X0029186Y0037388D02*
X0247517Y0037388D01*
X0247517Y0036602D02*
X0029186Y0036602D01*
X0029186Y0035817D02*
X0247517Y0035817D01*
X0247517Y0035031D02*
X0029186Y0035031D01*
X0029186Y0034245D02*
X0247517Y0034245D01*
X0247517Y0033459D02*
X0029186Y0033459D01*
X0029186Y0032673D02*
X0247517Y0032673D01*
X0247517Y0031887D02*
X0029186Y0031887D01*
X0029186Y0031101D02*
X0247517Y0031101D01*
X0247517Y0030315D02*
X0029186Y0030315D01*
X0029186Y0029529D02*
X0247517Y0029529D01*
X0247517Y0028743D02*
X0029186Y0028743D01*
X0029186Y0027957D02*
X0247517Y0027957D01*
X0247517Y0027172D02*
X0029186Y0027172D01*
X0029186Y0026386D02*
X0247517Y0026386D01*
X0247517Y0025600D02*
X0029186Y0025600D01*
X0029186Y0024814D02*
X0247702Y0024814D01*
X0248194Y0024028D02*
X0029186Y0024028D01*
X0029186Y0023242D02*
X0248980Y0023242D01*
X0249766Y0022456D02*
X0029186Y0022456D01*
X0029186Y0021670D02*
X0250552Y0021670D01*
X0251337Y0020884D02*
X0234570Y0020884D01*
X0233932Y0021148D02*
X0232203Y0021148D01*
X0230606Y0020487D01*
X0229383Y0019264D01*
X0228721Y0017666D01*
X0228721Y0010000D01*
X0229383Y0008403D01*
X0230606Y0007180D01*
X0232203Y0006518D01*
X0233932Y0006518D01*
X0235530Y0007180D01*
X0236752Y0008403D01*
X0237414Y0010000D01*
X0237414Y0017666D01*
X0236752Y0019264D01*
X0235530Y0020487D01*
X0233932Y0021148D01*
X0235918Y0020098D02*
X0250217Y0020098D01*
X0249431Y0019312D02*
X0236704Y0019312D01*
X0237058Y0018526D02*
X0249077Y0018526D01*
X0248752Y0017741D02*
X0237383Y0017741D01*
X0237414Y0016955D02*
X0248721Y0016955D01*
X0248721Y0016169D02*
X0237414Y0016169D01*
X0237414Y0015383D02*
X0248721Y0015383D01*
X0248721Y0014597D02*
X0237414Y0014597D01*
X0237414Y0013811D02*
X0248721Y0013811D01*
X0248721Y0013025D02*
X0237414Y0013025D01*
X0237414Y0012239D02*
X0248721Y0012239D01*
X0248721Y0011453D02*
X0237414Y0011453D01*
X0237414Y0010667D02*
X0248721Y0010667D01*
X0248770Y0009881D02*
X0237365Y0009881D01*
X0237039Y0009096D02*
X0249096Y0009096D01*
X0249476Y0008310D02*
X0236659Y0008310D01*
X0235873Y0007524D02*
X0250262Y0007524D01*
X0251673Y0006738D02*
X0234462Y0006738D01*
X0231673Y0006738D02*
X0224462Y0006738D01*
X0223932Y0006518D02*
X0225530Y0007180D01*
X0226752Y0008403D01*
X0227414Y0010000D01*
X0227414Y0017666D01*
X0226752Y0019264D01*
X0225530Y0020487D01*
X0223932Y0021148D01*
X0222203Y0021148D01*
X0220606Y0020487D01*
X0219383Y0019264D01*
X0218721Y0017666D01*
X0218721Y0010000D01*
X0219383Y0008403D01*
X0220606Y0007180D01*
X0222203Y0006518D01*
X0223932Y0006518D01*
X0225873Y0007524D02*
X0230262Y0007524D01*
X0229476Y0008310D02*
X0226659Y0008310D01*
X0227039Y0009096D02*
X0229096Y0009096D01*
X0228770Y0009881D02*
X0227365Y0009881D01*
X0227414Y0010667D02*
X0228721Y0010667D01*
X0228721Y0011453D02*
X0227414Y0011453D01*
X0227414Y0012239D02*
X0228721Y0012239D01*
X0228721Y0013025D02*
X0227414Y0013025D01*
X0227414Y0013811D02*
X0228721Y0013811D01*
X0228721Y0014597D02*
X0227414Y0014597D01*
X0227414Y0015383D02*
X0228721Y0015383D01*
X0228721Y0016169D02*
X0227414Y0016169D01*
X0227414Y0016955D02*
X0228721Y0016955D01*
X0228752Y0017741D02*
X0227383Y0017741D01*
X0227058Y0018526D02*
X0229077Y0018526D01*
X0229431Y0019312D02*
X0226704Y0019312D01*
X0225918Y0020098D02*
X0230217Y0020098D01*
X0231566Y0020884D02*
X0224570Y0020884D01*
X0221566Y0020884D02*
X0214570Y0020884D01*
X0213932Y0021148D02*
X0212203Y0021148D01*
X0210606Y0020487D01*
X0209383Y0019264D01*
X0208721Y0017666D01*
X0208721Y0010000D01*
X0209383Y0008403D01*
X0210606Y0007180D01*
X0212203Y0006518D01*
X0213932Y0006518D01*
X0215530Y0007180D01*
X0216752Y0008403D01*
X0217414Y0010000D01*
X0217414Y0017666D01*
X0216752Y0019264D01*
X0215530Y0020487D01*
X0213932Y0021148D01*
X0215918Y0020098D02*
X0220217Y0020098D01*
X0219431Y0019312D02*
X0216704Y0019312D01*
X0217058Y0018526D02*
X0219077Y0018526D01*
X0218752Y0017741D02*
X0217383Y0017741D01*
X0217414Y0016955D02*
X0218721Y0016955D01*
X0218721Y0016169D02*
X0217414Y0016169D01*
X0217414Y0015383D02*
X0218721Y0015383D01*
X0218721Y0014597D02*
X0217414Y0014597D01*
X0217414Y0013811D02*
X0218721Y0013811D01*
X0218721Y0013025D02*
X0217414Y0013025D01*
X0217414Y0012239D02*
X0218721Y0012239D01*
X0218721Y0011453D02*
X0217414Y0011453D01*
X0217414Y0010667D02*
X0218721Y0010667D01*
X0218770Y0009881D02*
X0217365Y0009881D01*
X0217039Y0009096D02*
X0219096Y0009096D01*
X0219476Y0008310D02*
X0216659Y0008310D01*
X0215873Y0007524D02*
X0220262Y0007524D01*
X0221673Y0006738D02*
X0214462Y0006738D01*
X0211673Y0006738D02*
X0183596Y0006738D01*
X0183066Y0006518D02*
X0184663Y0007180D01*
X0185886Y0008403D01*
X0186548Y0010000D01*
X0186548Y0017666D01*
X0185886Y0019264D01*
X0184663Y0020487D01*
X0183066Y0021148D01*
X0181337Y0021148D01*
X0179739Y0020487D01*
X0178517Y0019264D01*
X0177855Y0017666D01*
X0177855Y0010000D01*
X0178517Y0008403D01*
X0179739Y0007180D01*
X0181337Y0006518D01*
X0183066Y0006518D01*
X0185007Y0007524D02*
X0210262Y0007524D01*
X0209476Y0008310D02*
X0185793Y0008310D01*
X0186173Y0009096D02*
X0209096Y0009096D01*
X0208770Y0009881D02*
X0186499Y0009881D01*
X0186548Y0010667D02*
X0208721Y0010667D01*
X0208721Y0011453D02*
X0186548Y0011453D01*
X0186548Y0012239D02*
X0208721Y0012239D01*
X0208721Y0013025D02*
X0186548Y0013025D01*
X0186548Y0013811D02*
X0208721Y0013811D01*
X0208721Y0014597D02*
X0186548Y0014597D01*
X0186548Y0015383D02*
X0208721Y0015383D01*
X0208721Y0016169D02*
X0186548Y0016169D01*
X0186548Y0016955D02*
X0208721Y0016955D01*
X0208752Y0017741D02*
X0186517Y0017741D01*
X0186192Y0018526D02*
X0209077Y0018526D01*
X0209431Y0019312D02*
X0185838Y0019312D01*
X0185052Y0020098D02*
X0210217Y0020098D01*
X0211566Y0020884D02*
X0183704Y0020884D01*
X0180699Y0020884D02*
X0173704Y0020884D01*
X0173066Y0021148D02*
X0171337Y0021148D01*
X0169739Y0020487D01*
X0168517Y0019264D01*
X0167855Y0017666D01*
X0167855Y0010000D01*
X0168517Y0008403D01*
X0169739Y0007180D01*
X0171337Y0006518D01*
X0173066Y0006518D01*
X0174663Y0007180D01*
X0175886Y0008403D01*
X0176548Y0010000D01*
X0176548Y0017666D01*
X0175886Y0019264D01*
X0174663Y0020487D01*
X0173066Y0021148D01*
X0175052Y0020098D02*
X0179351Y0020098D01*
X0178565Y0019312D02*
X0175838Y0019312D01*
X0176192Y0018526D02*
X0178211Y0018526D01*
X0177886Y0017741D02*
X0176517Y0017741D01*
X0176548Y0016955D02*
X0177855Y0016955D01*
X0177855Y0016169D02*
X0176548Y0016169D01*
X0176548Y0015383D02*
X0177855Y0015383D01*
X0177855Y0014597D02*
X0176548Y0014597D01*
X0176548Y0013811D02*
X0177855Y0013811D01*
X0177855Y0013025D02*
X0176548Y0013025D01*
X0176548Y0012239D02*
X0177855Y0012239D01*
X0177855Y0011453D02*
X0176548Y0011453D01*
X0176548Y0010667D02*
X0177855Y0010667D01*
X0177904Y0009881D02*
X0176499Y0009881D01*
X0176173Y0009096D02*
X0178230Y0009096D01*
X0178610Y0008310D02*
X0175793Y0008310D01*
X0175007Y0007524D02*
X0179396Y0007524D01*
X0180807Y0006738D02*
X0173596Y0006738D01*
X0170807Y0006738D02*
X0163596Y0006738D01*
X0163066Y0006518D02*
X0164663Y0007180D01*
X0165886Y0008403D01*
X0166548Y0010000D01*
X0166548Y0017666D01*
X0165886Y0019264D01*
X0164663Y0020487D01*
X0163066Y0021148D01*
X0161337Y0021148D01*
X0159739Y0020487D01*
X0158517Y0019264D01*
X0157855Y0017666D01*
X0157855Y0010000D01*
X0158517Y0008403D01*
X0159739Y0007180D01*
X0161337Y0006518D01*
X0163066Y0006518D01*
X0165007Y0007524D02*
X0169396Y0007524D01*
X0168610Y0008310D02*
X0165793Y0008310D01*
X0166173Y0009096D02*
X0168230Y0009096D01*
X0167904Y0009881D02*
X0166499Y0009881D01*
X0166548Y0010667D02*
X0167855Y0010667D01*
X0167855Y0011453D02*
X0166548Y0011453D01*
X0166548Y0012239D02*
X0167855Y0012239D01*
X0167855Y0013025D02*
X0166548Y0013025D01*
X0166548Y0013811D02*
X0167855Y0013811D01*
X0167855Y0014597D02*
X0166548Y0014597D01*
X0166548Y0015383D02*
X0167855Y0015383D01*
X0167855Y0016169D02*
X0166548Y0016169D01*
X0166548Y0016955D02*
X0167855Y0016955D01*
X0167886Y0017741D02*
X0166517Y0017741D01*
X0166192Y0018526D02*
X0168211Y0018526D01*
X0168565Y0019312D02*
X0165838Y0019312D01*
X0165052Y0020098D02*
X0169351Y0020098D01*
X0170699Y0020884D02*
X0163704Y0020884D01*
X0160699Y0020884D02*
X0029186Y0020884D01*
X0029186Y0020098D02*
X0159351Y0020098D01*
X0158565Y0019312D02*
X0029186Y0019312D01*
X0029186Y0018526D02*
X0158211Y0018526D01*
X0157886Y0017741D02*
X0029186Y0017741D01*
X0029186Y0016955D02*
X0157855Y0016955D01*
X0157855Y0016169D02*
X0029186Y0016169D01*
X0029186Y0015383D02*
X0157855Y0015383D01*
X0157855Y0014597D02*
X0029186Y0014597D01*
X0029187Y0013811D02*
X0157855Y0013811D01*
X0157855Y0013025D02*
X0029249Y0013025D01*
X0029311Y0012239D02*
X0157855Y0012239D01*
X0157855Y0011453D02*
X0029565Y0011453D01*
X0029821Y0010667D02*
X0157855Y0010667D01*
X0157904Y0009881D02*
X0030076Y0009881D01*
X0030371Y0009096D02*
X0158230Y0009096D01*
X0158610Y0008310D02*
X0030942Y0008310D01*
X0031513Y0007524D02*
X0159396Y0007524D01*
X0160807Y0006738D02*
X0032084Y0006738D01*
X0033080Y0005952D02*
X0415811Y0005952D01*
X0414729Y0005166D02*
X0034162Y0005166D01*
X0035833Y0004380D02*
X0413058Y0004380D01*
X0313727Y0025600D02*
X0311030Y0025600D01*
X0312322Y0026386D02*
X0312435Y0026386D01*
X0308727Y0025600D02*
X0306030Y0025600D01*
X0307322Y0026386D02*
X0307435Y0026386D01*
X0303727Y0025600D02*
X0301030Y0025600D01*
X0302322Y0026386D02*
X0302435Y0026386D01*
X0298727Y0025600D02*
X0296030Y0025600D01*
X0297322Y0026386D02*
X0297435Y0026386D01*
X0293727Y0025600D02*
X0291030Y0025600D01*
X0292322Y0026386D02*
X0292435Y0026386D01*
X0269431Y0019312D02*
X0266704Y0019312D01*
X0267058Y0018526D02*
X0269077Y0018526D01*
X0268752Y0017741D02*
X0267383Y0017741D01*
X0267414Y0016955D02*
X0268721Y0016955D01*
X0268721Y0016169D02*
X0267414Y0016169D01*
X0267414Y0015383D02*
X0268721Y0015383D01*
X0268721Y0014597D02*
X0267414Y0014597D01*
X0267414Y0013811D02*
X0268721Y0013811D01*
X0268721Y0013025D02*
X0267414Y0013025D01*
X0267414Y0012239D02*
X0268721Y0012239D01*
X0268721Y0011453D02*
X0267414Y0011453D01*
X0267414Y0010667D02*
X0268721Y0010667D01*
X0268770Y0009881D02*
X0267365Y0009881D01*
X0267039Y0009096D02*
X0269096Y0009096D01*
X0269476Y0008310D02*
X0266659Y0008310D01*
X0265873Y0007524D02*
X0270262Y0007524D01*
X0271673Y0006738D02*
X0264462Y0006738D01*
X0261673Y0006738D02*
X0254462Y0006738D01*
X0255873Y0007524D02*
X0260262Y0007524D01*
X0259476Y0008310D02*
X0256659Y0008310D01*
X0257039Y0009096D02*
X0259096Y0009096D01*
X0258770Y0009881D02*
X0257365Y0009881D01*
X0257414Y0010667D02*
X0258721Y0010667D01*
X0258721Y0011453D02*
X0257414Y0011453D01*
X0257414Y0012239D02*
X0258721Y0012239D01*
X0258721Y0013025D02*
X0257414Y0013025D01*
X0257414Y0013811D02*
X0258721Y0013811D01*
X0258721Y0014597D02*
X0257414Y0014597D01*
X0257414Y0015383D02*
X0258721Y0015383D01*
X0258721Y0016169D02*
X0257414Y0016169D01*
X0257414Y0016955D02*
X0258721Y0016955D01*
X0258752Y0017741D02*
X0257383Y0017741D01*
X0257058Y0018526D02*
X0259077Y0018526D01*
X0259431Y0019312D02*
X0256704Y0019312D01*
X0158767Y0085329D02*
X0132495Y0085329D01*
X0133655Y0086115D02*
X0158767Y0086115D01*
X0158494Y0086901D02*
X0134196Y0086901D01*
X0134504Y0087687D02*
X0158186Y0087687D01*
X0158186Y0088473D02*
X0134626Y0088473D01*
X0135412Y0089259D02*
X0158334Y0089259D01*
X0158660Y0090045D02*
X0136197Y0090045D01*
X0133181Y0093188D02*
X0104491Y0093188D01*
X0105182Y0093974D02*
X0133967Y0093974D01*
X0134753Y0094760D02*
X0105507Y0094760D01*
X0105776Y0095546D02*
X0135539Y0095546D01*
X0135686Y0096332D02*
X0105776Y0096332D01*
X0105776Y0097118D02*
X0135983Y0097118D01*
X0136509Y0097904D02*
X0105459Y0097904D01*
X0105134Y0098690D02*
X0137633Y0098690D01*
X0129035Y0086115D02*
X0073207Y0086115D01*
X0073658Y0085329D02*
X0130196Y0085329D01*
X0165188Y0101833D02*
X0029186Y0101833D01*
X0029186Y0102619D02*
X0093001Y0102619D01*
X0092215Y0103405D02*
X0029186Y0103405D01*
X0029186Y0104191D02*
X0091651Y0104191D01*
X0091326Y0104977D02*
X0029186Y0104977D01*
X0029186Y0105763D02*
X0091146Y0105763D01*
X0091146Y0106549D02*
X0029186Y0106549D01*
X0029186Y0107335D02*
X0091227Y0107335D01*
X0091553Y0108121D02*
X0029186Y0108121D01*
X0029186Y0108906D02*
X0091978Y0108906D01*
X0092764Y0109692D02*
X0029186Y0109692D01*
X0029186Y0121481D02*
X0124052Y0121481D01*
X0124052Y0122267D02*
X0029186Y0122267D01*
X0029186Y0123053D02*
X0124052Y0123053D01*
X0124052Y0123839D02*
X0029186Y0123839D01*
X0029186Y0124625D02*
X0124052Y0124625D01*
X0124052Y0125411D02*
X0029186Y0125411D01*
X0029186Y0126197D02*
X0124052Y0126197D01*
X0124052Y0126982D02*
X0029186Y0126982D01*
X0029186Y0127768D02*
X0124052Y0127768D01*
X0124052Y0128554D02*
X0029186Y0128554D01*
X0029186Y0129340D02*
X0124052Y0129340D01*
X0124052Y0130126D02*
X0029186Y0130126D01*
X0029186Y0130912D02*
X0124052Y0130912D01*
X0124052Y0131698D02*
X0029186Y0131698D01*
X0029186Y0132484D02*
X0124052Y0132484D01*
X0124052Y0133270D02*
X0029186Y0133270D01*
X0053522Y0086115D02*
X0064660Y0086115D01*
X0064209Y0085329D02*
X0053973Y0085329D01*
X0053973Y0084543D02*
X0064209Y0084543D01*
X0064209Y0083757D02*
X0053973Y0083757D01*
X0053973Y0082971D02*
X0064209Y0082971D01*
X0064209Y0082185D02*
X0053973Y0082185D01*
X0053973Y0081400D02*
X0064209Y0081400D01*
X0064209Y0080614D02*
X0053973Y0080614D01*
X0053973Y0079828D02*
X0064209Y0079828D01*
X0064209Y0079042D02*
X0053973Y0079042D01*
X0053973Y0078256D02*
X0064209Y0078256D01*
X0064569Y0077470D02*
X0053614Y0077470D01*
X0285785Y0112050D02*
X0293155Y0112050D01*
D17*
X0409485Y0183125D03*
X0137831Y0183125D03*
X0039406Y0183125D03*
X0039406Y0013833D03*
X0137831Y0013833D03*
X0409485Y0013833D03*
D18*
X0323845Y0067022D03*
X0323845Y0072022D03*
X0305095Y0067022D03*
X0295095Y0067022D03*
X0285095Y0067022D03*
X0272595Y0073272D03*
X0276345Y0077022D03*
X0263845Y0074522D03*
X0258845Y0073272D03*
X0253845Y0069522D03*
X0250095Y0069522D03*
X0263845Y0064522D03*
X0266345Y0060772D03*
X0263845Y0079522D03*
X0250095Y0080772D03*
X0263845Y0089522D03*
X0263845Y0094522D03*
X0283845Y0102022D03*
X0288845Y0102022D03*
X0283845Y0109522D03*
X0295095Y0109522D03*
X0310095Y0114522D03*
X0310095Y0120772D03*
X0310095Y0127022D03*
X0288845Y0148272D03*
X0260095Y0112022D03*
X0255095Y0112022D03*
X0250095Y0112022D03*
X0213845Y0099522D03*
X0197595Y0104522D03*
X0177595Y0104522D03*
X0177595Y0089522D03*
X0161345Y0088272D03*
X0153845Y0080772D03*
X0143845Y0080772D03*
X0131345Y0088272D03*
X0138845Y0095772D03*
X0177595Y0074522D03*
X0161345Y0073272D03*
X0197595Y0074522D03*
X0213845Y0084522D03*
X0197595Y0089522D03*
X0217595Y0064522D03*
X0222595Y0064522D03*
X0298845Y0090772D03*
X0313845Y0084522D03*
D19*
X0258845Y0073272D02*
X0258845Y0048272D01*
X0250095Y0039522D01*
X0250095Y0025772D01*
X0253845Y0022022D01*
X0271345Y0022022D01*
X0273068Y0020300D01*
X0273068Y0013833D01*
X0253845Y0069522D02*
X0250095Y0069522D01*
X0217595Y0069522D01*
X0213845Y0073272D01*
X0213845Y0084522D01*
X0213845Y0099522D01*
X0166345Y0099522D01*
X0161345Y0094522D01*
X0161345Y0088272D01*
X0161345Y0073272D01*
X0157024Y0068951D01*
X0131335Y0068951D01*
D20*
X0143845Y0080772D02*
X0153845Y0080772D01*
X0138845Y0095772D02*
X0131345Y0088272D01*
X0250095Y0080772D02*
X0253845Y0084522D01*
X0273845Y0084522D01*
X0283845Y0074522D01*
X0301345Y0074522D01*
X0276345Y0072022D02*
X0275095Y0070772D01*
X0275095Y0055772D01*
X0259879Y0040556D01*
X0259879Y0031156D01*
X0254879Y0031156D02*
X0254879Y0039306D01*
X0272595Y0057022D01*
X0272595Y0073272D01*
X0276345Y0072022D02*
X0276345Y0077022D01*
X0283845Y0109522D02*
X0295095Y0109522D01*
X0295105Y0109512D01*
D21*
X0301345Y0074522D03*
M02*
