G75*
%MOIN*%
%OFA0B0*%
%FSLAX25Y25*%
%IPPOS*%
%LPD*%
%AMOC8*
5,1,8,0,0,1.08239X$1,22.5*
%
%ADD10C,0.00591*%
%ADD11C,0.00600*%
%ADD12C,0.00800*%
D10*
X0124470Y0008750D02*
X0131970Y0008750D01*
X0131970Y0023750D01*
X0139470Y0023750D01*
X0139470Y0008750D01*
X0131970Y0008750D01*
X0124470Y0008750D02*
X0124470Y0023750D01*
X0131970Y0023750D01*
X0139470Y0023750D02*
X0146970Y0023750D01*
X0146970Y0008750D01*
X0139470Y0008750D01*
X0146970Y0008750D02*
X0154470Y0008750D01*
X0154470Y0023750D01*
X0146970Y0023750D01*
X0126808Y0029803D02*
X0419327Y0029803D01*
X0419327Y0173110D01*
X0126808Y0173110D01*
X0126808Y0029803D01*
X0165784Y0070591D02*
X0403973Y0070591D01*
X0403973Y0157913D01*
X0165784Y0157913D01*
X0165784Y0070591D01*
X0083698Y0087874D02*
X0083698Y0140630D01*
X0034485Y0140630D01*
X0034485Y0087874D01*
X0083698Y0087874D01*
X0292408Y0023750D02*
X0292408Y0008750D01*
X0299908Y0008750D01*
X0299908Y0023750D01*
X0292408Y0023750D01*
X0299908Y0023750D02*
X0307408Y0023750D01*
X0307408Y0008750D01*
X0314908Y0008750D01*
X0314908Y0023750D01*
X0307408Y0023750D01*
X0314908Y0023750D02*
X0322408Y0023750D01*
X0322408Y0008750D01*
X0329908Y0008750D01*
X0329908Y0023750D01*
X0322408Y0023750D01*
X0329908Y0023750D02*
X0337408Y0023750D01*
X0337408Y0008750D01*
X0344908Y0008750D01*
X0344908Y0023750D01*
X0337408Y0023750D01*
X0344908Y0023750D02*
X0352408Y0023750D01*
X0352408Y0008750D01*
X0344908Y0008750D01*
X0337408Y0008750D02*
X0329908Y0008750D01*
X0322408Y0008750D02*
X0314908Y0008750D01*
X0307408Y0008750D02*
X0299908Y0008750D01*
D11*
X0298362Y0010300D02*
X0298362Y0012502D01*
X0297628Y0013236D01*
X0296894Y0013236D01*
X0296160Y0012502D01*
X0296160Y0010300D01*
X0293958Y0010300D02*
X0298362Y0010300D01*
X0301458Y0010300D02*
X0304394Y0010300D01*
X0305862Y0011768D01*
X0304394Y0013236D01*
X0301458Y0013236D01*
X0303660Y0013236D02*
X0303660Y0010300D01*
X0308958Y0010300D02*
X0313362Y0010300D01*
X0313362Y0012502D01*
X0312628Y0013236D01*
X0311160Y0013236D01*
X0310426Y0012502D01*
X0310426Y0010300D01*
X0311160Y0014904D02*
X0311160Y0017106D01*
X0310426Y0017840D01*
X0309692Y0017840D01*
X0308958Y0017106D01*
X0308958Y0014904D01*
X0313362Y0014904D01*
X0313362Y0017106D01*
X0312628Y0017840D01*
X0311894Y0017840D01*
X0311160Y0017106D01*
X0316458Y0017840D02*
X0320862Y0017840D01*
X0320862Y0019508D02*
X0316458Y0019508D01*
X0316458Y0021710D01*
X0317192Y0022444D01*
X0320128Y0022444D01*
X0320862Y0021710D01*
X0320862Y0019508D01*
X0323958Y0019508D02*
X0326894Y0019508D01*
X0328362Y0020976D01*
X0326894Y0022444D01*
X0323958Y0022444D01*
X0326160Y0022444D02*
X0326160Y0019508D01*
X0324692Y0017840D02*
X0323958Y0017106D01*
X0323958Y0014904D01*
X0328362Y0014904D01*
X0328362Y0017106D01*
X0327628Y0017840D01*
X0324692Y0017840D01*
X0320862Y0014904D02*
X0316458Y0017840D01*
X0316458Y0014904D02*
X0320862Y0014904D01*
X0320128Y0013236D02*
X0320862Y0012502D01*
X0320862Y0011034D01*
X0320128Y0010300D01*
X0317192Y0010300D01*
X0316458Y0011034D01*
X0316458Y0012502D01*
X0317192Y0013236D01*
X0318660Y0013236D01*
X0318660Y0011768D01*
X0323958Y0012502D02*
X0323958Y0011034D01*
X0324692Y0010300D01*
X0326160Y0011034D02*
X0326160Y0012502D01*
X0325426Y0013236D01*
X0324692Y0013236D01*
X0323958Y0012502D01*
X0326160Y0011034D02*
X0326894Y0010300D01*
X0327628Y0010300D01*
X0328362Y0011034D01*
X0328362Y0012502D01*
X0327628Y0013236D01*
X0331458Y0012502D02*
X0331458Y0011034D01*
X0332192Y0010300D01*
X0333660Y0011034D02*
X0333660Y0012502D01*
X0332926Y0013236D01*
X0332192Y0013236D01*
X0331458Y0012502D01*
X0332192Y0014904D02*
X0331458Y0015638D01*
X0331458Y0017106D01*
X0332192Y0017840D01*
X0331458Y0019508D02*
X0331458Y0022444D01*
X0331458Y0019508D02*
X0335862Y0019508D01*
X0335128Y0017840D02*
X0335862Y0017106D01*
X0335862Y0015638D01*
X0335128Y0014904D01*
X0332192Y0014904D01*
X0335128Y0013236D02*
X0335862Y0012502D01*
X0335862Y0011034D01*
X0335128Y0010300D01*
X0334394Y0010300D01*
X0333660Y0011034D01*
X0338958Y0011768D02*
X0340426Y0013236D01*
X0343362Y0013236D01*
X0342628Y0014904D02*
X0339692Y0014904D01*
X0338958Y0015638D01*
X0338958Y0017106D01*
X0339692Y0017840D01*
X0339692Y0019508D02*
X0338958Y0020242D01*
X0338958Y0021710D01*
X0339692Y0022444D01*
X0342628Y0022444D02*
X0343362Y0021710D01*
X0343362Y0020242D01*
X0342628Y0019508D01*
X0339692Y0019508D01*
X0342628Y0017840D02*
X0343362Y0017106D01*
X0343362Y0015638D01*
X0342628Y0014904D01*
X0346458Y0014904D02*
X0350862Y0014904D01*
X0346458Y0017840D01*
X0350862Y0017840D01*
X0350862Y0013236D02*
X0350862Y0010300D01*
X0346458Y0010300D01*
X0346458Y0013236D01*
X0348660Y0011768D02*
X0348660Y0010300D01*
X0343362Y0010300D02*
X0340426Y0010300D01*
X0338958Y0011768D01*
X0296160Y0012502D02*
X0295426Y0013236D01*
X0294692Y0013236D01*
X0293958Y0012502D01*
X0293958Y0010300D01*
X0314756Y0077603D02*
X0314756Y0082007D01*
X0317691Y0082007D02*
X0317691Y0077603D01*
X0316224Y0079071D01*
X0314756Y0077603D01*
X0319360Y0078337D02*
X0319360Y0079071D01*
X0320093Y0079805D01*
X0322295Y0079805D01*
X0322295Y0078337D01*
X0321561Y0077603D01*
X0320093Y0077603D01*
X0319360Y0078337D01*
X0322295Y0079805D02*
X0320827Y0081273D01*
X0319360Y0082007D01*
X0323963Y0080539D02*
X0323963Y0077603D01*
X0323963Y0079805D02*
X0326899Y0079805D01*
X0326899Y0080539D02*
X0325431Y0082007D01*
X0323963Y0080539D01*
X0326899Y0080539D02*
X0326899Y0077603D01*
X0328567Y0078337D02*
X0328567Y0079805D01*
X0329301Y0080539D01*
X0330035Y0080539D01*
X0331503Y0079805D01*
X0331503Y0082007D01*
X0328567Y0082007D01*
X0333171Y0081273D02*
X0336107Y0078337D01*
X0335373Y0077603D01*
X0333905Y0077603D01*
X0333171Y0078337D01*
X0333171Y0081273D01*
X0333905Y0082007D01*
X0335373Y0082007D01*
X0336107Y0081273D01*
X0336107Y0078337D01*
X0337775Y0078337D02*
X0338509Y0077603D01*
X0339977Y0077603D01*
X0340711Y0078337D01*
X0337775Y0081273D01*
X0337775Y0078337D01*
X0340711Y0078337D02*
X0340711Y0081273D01*
X0339977Y0082007D01*
X0338509Y0082007D01*
X0337775Y0081273D01*
X0342379Y0081273D02*
X0342379Y0080539D01*
X0345315Y0077603D01*
X0342379Y0077603D01*
X0346983Y0079805D02*
X0349919Y0079805D01*
X0347717Y0082007D01*
X0347717Y0077603D01*
X0351587Y0078337D02*
X0351587Y0079805D01*
X0353055Y0079805D01*
X0354523Y0078337D02*
X0353789Y0077603D01*
X0352321Y0077603D01*
X0351587Y0078337D01*
X0354523Y0078337D02*
X0354523Y0081273D01*
X0353789Y0082007D01*
X0352321Y0082007D01*
X0351587Y0081273D01*
X0356191Y0081273D02*
X0356925Y0082007D01*
X0358393Y0082007D01*
X0359127Y0081273D01*
X0359127Y0078337D01*
X0358393Y0077603D01*
X0356925Y0077603D01*
X0356191Y0078337D01*
X0356191Y0081273D01*
X0360795Y0081273D02*
X0361529Y0082007D01*
X0362997Y0082007D01*
X0363731Y0081273D01*
X0363731Y0078337D01*
X0362997Y0077603D01*
X0361529Y0077603D01*
X0360795Y0078337D01*
X0365399Y0078337D02*
X0366133Y0077603D01*
X0367601Y0077603D01*
X0368335Y0078337D01*
X0368335Y0081273D01*
X0367601Y0082007D01*
X0366133Y0082007D01*
X0365399Y0081273D01*
X0370003Y0082007D02*
X0370003Y0077603D01*
X0372939Y0077603D02*
X0372939Y0082007D01*
X0371471Y0080539D01*
X0370003Y0082007D01*
X0371471Y0087603D02*
X0371471Y0089805D01*
X0370003Y0091273D01*
X0370003Y0092007D01*
X0371471Y0089805D02*
X0372939Y0091273D01*
X0372939Y0092007D01*
X0374607Y0090539D02*
X0374607Y0087603D01*
X0374607Y0089805D02*
X0377542Y0089805D01*
X0377542Y0090539D02*
X0377542Y0087603D01*
X0379211Y0087603D02*
X0382146Y0087603D01*
X0382146Y0092007D01*
X0383814Y0091273D02*
X0383814Y0089805D01*
X0384548Y0089071D01*
X0386750Y0089071D01*
X0386750Y0087603D02*
X0386750Y0092007D01*
X0384548Y0092007D01*
X0383814Y0091273D01*
X0388418Y0091273D02*
X0389152Y0092007D01*
X0390620Y0092007D01*
X0391354Y0091273D01*
X0391354Y0090539D01*
X0390620Y0089805D01*
X0389152Y0089805D01*
X0388418Y0089071D01*
X0388418Y0088337D01*
X0389152Y0087603D01*
X0390620Y0087603D01*
X0391354Y0088337D01*
X0392956Y0087603D02*
X0394423Y0087603D01*
X0393690Y0087603D02*
X0393690Y0092007D01*
X0394423Y0092007D02*
X0392956Y0092007D01*
X0396092Y0091273D02*
X0396826Y0092007D01*
X0399027Y0092007D01*
X0399027Y0087603D01*
X0396826Y0087603D01*
X0396092Y0088337D01*
X0396092Y0091273D01*
X0396092Y0082007D02*
X0396092Y0077603D01*
X0394423Y0077603D02*
X0392956Y0077603D01*
X0393690Y0077603D02*
X0393690Y0082007D01*
X0394423Y0082007D02*
X0392956Y0082007D01*
X0391354Y0082007D02*
X0389152Y0082007D01*
X0388418Y0081273D01*
X0388418Y0078337D01*
X0389152Y0077603D01*
X0391354Y0077603D01*
X0391354Y0082007D01*
X0396092Y0082007D02*
X0397560Y0080539D01*
X0399027Y0082007D01*
X0399027Y0077603D01*
X0386750Y0077603D02*
X0386750Y0080539D01*
X0385282Y0082007D01*
X0383814Y0080539D01*
X0383814Y0077603D01*
X0382146Y0078337D02*
X0381412Y0077603D01*
X0379945Y0077603D01*
X0379211Y0078337D01*
X0379211Y0079071D01*
X0379945Y0079805D01*
X0381412Y0079805D01*
X0382146Y0080539D01*
X0382146Y0081273D01*
X0381412Y0082007D01*
X0379945Y0082007D01*
X0379211Y0081273D01*
X0383814Y0079805D02*
X0386750Y0079805D01*
X0377542Y0090539D02*
X0376075Y0092007D01*
X0374607Y0090539D01*
X0345315Y0081273D02*
X0344581Y0082007D01*
X0343113Y0082007D01*
X0342379Y0081273D01*
X0331503Y0078337D02*
X0330769Y0077603D01*
X0329301Y0077603D01*
X0328567Y0078337D01*
X0152924Y0021648D02*
X0152924Y0019446D01*
X0148520Y0019446D01*
X0148520Y0021648D01*
X0149254Y0022382D01*
X0152190Y0022382D01*
X0152924Y0021648D01*
X0145424Y0021648D02*
X0145424Y0020180D01*
X0144690Y0019446D01*
X0141754Y0019446D01*
X0144690Y0022382D01*
X0141754Y0022382D01*
X0141020Y0021648D01*
X0141020Y0020180D01*
X0141754Y0019446D01*
X0141754Y0017778D02*
X0141020Y0017044D01*
X0141020Y0014842D01*
X0145424Y0014842D01*
X0145424Y0017044D01*
X0144690Y0017778D01*
X0143956Y0017778D01*
X0143222Y0017044D01*
X0143222Y0014842D01*
X0143222Y0013174D02*
X0142488Y0012440D01*
X0142488Y0010238D01*
X0141020Y0010238D02*
X0145424Y0010238D01*
X0145424Y0012440D01*
X0144690Y0013174D01*
X0143222Y0013174D01*
X0148520Y0012440D02*
X0148520Y0010972D01*
X0149254Y0010238D01*
X0152190Y0010238D01*
X0152924Y0010972D01*
X0152924Y0012440D01*
X0152190Y0013174D01*
X0150722Y0013174D02*
X0150722Y0011706D01*
X0150722Y0013174D02*
X0149254Y0013174D01*
X0148520Y0012440D01*
X0148520Y0014842D02*
X0152924Y0014842D01*
X0148520Y0017778D01*
X0152924Y0017778D01*
X0145424Y0021648D02*
X0144690Y0022382D01*
X0137924Y0021648D02*
X0137924Y0020180D01*
X0137190Y0019446D01*
X0134254Y0019446D01*
X0137190Y0022382D01*
X0134254Y0022382D01*
X0133520Y0021648D01*
X0133520Y0020180D01*
X0134254Y0019446D01*
X0134254Y0017778D02*
X0133520Y0017044D01*
X0133520Y0014842D01*
X0137924Y0014842D01*
X0137924Y0017044D01*
X0137190Y0017778D01*
X0136456Y0017778D01*
X0135722Y0017044D01*
X0135722Y0014842D01*
X0135722Y0017044D02*
X0134988Y0017778D01*
X0134254Y0017778D01*
X0130424Y0016310D02*
X0128956Y0014842D01*
X0126020Y0014842D01*
X0128222Y0014842D02*
X0128222Y0017778D01*
X0128956Y0017778D02*
X0126020Y0017778D01*
X0126754Y0019446D02*
X0129690Y0022382D01*
X0126754Y0022382D01*
X0126020Y0021648D01*
X0126020Y0020180D01*
X0126754Y0019446D01*
X0129690Y0019446D01*
X0130424Y0020180D01*
X0130424Y0021648D01*
X0129690Y0022382D01*
X0128956Y0017778D02*
X0130424Y0016310D01*
X0137190Y0022382D02*
X0137924Y0021648D01*
X0141754Y0017778D02*
X0142488Y0017778D01*
X0143222Y0017044D01*
X0072603Y0090398D02*
X0072603Y0094802D01*
X0070401Y0094802D01*
X0069667Y0094068D01*
X0069667Y0092600D01*
X0070401Y0091866D01*
X0072603Y0091866D01*
X0072603Y0096304D02*
X0070401Y0096304D01*
X0069667Y0097038D01*
X0069667Y0097772D01*
X0070401Y0098506D01*
X0072603Y0098506D01*
X0072603Y0100708D02*
X0070401Y0100708D01*
X0069667Y0099974D01*
X0069667Y0099240D01*
X0070401Y0098506D01*
X0067999Y0099974D02*
X0067999Y0097038D01*
X0067265Y0096304D01*
X0065797Y0096304D01*
X0065063Y0097038D01*
X0065063Y0099974D01*
X0065797Y0100708D01*
X0067265Y0100708D01*
X0067999Y0099974D01*
X0063395Y0100708D02*
X0063395Y0097038D01*
X0062661Y0096304D01*
X0061193Y0096304D01*
X0060459Y0097038D01*
X0060459Y0100708D01*
X0058791Y0100708D02*
X0056589Y0100708D01*
X0055855Y0099974D01*
X0055855Y0098506D01*
X0056589Y0097772D01*
X0058791Y0097772D01*
X0057323Y0097772D02*
X0055855Y0096304D01*
X0054187Y0096304D02*
X0054187Y0100708D01*
X0051251Y0096304D01*
X0051251Y0100708D01*
X0049583Y0099974D02*
X0049583Y0099240D01*
X0048849Y0098506D01*
X0047382Y0098506D01*
X0046648Y0097772D01*
X0046648Y0097038D01*
X0047382Y0096304D01*
X0048849Y0096304D01*
X0049583Y0097038D01*
X0049583Y0094802D02*
X0047382Y0094802D01*
X0046648Y0094068D01*
X0046648Y0092600D01*
X0047382Y0091866D01*
X0049583Y0091866D01*
X0048115Y0091866D02*
X0046648Y0090398D01*
X0049583Y0090398D02*
X0049583Y0094802D01*
X0052719Y0094802D02*
X0054187Y0093334D01*
X0052719Y0094802D02*
X0052719Y0090398D01*
X0054187Y0090398D02*
X0051251Y0090398D01*
X0055855Y0090398D02*
X0058791Y0090398D01*
X0057323Y0090398D02*
X0057323Y0094802D01*
X0058791Y0093334D01*
X0060459Y0094068D02*
X0061193Y0094802D01*
X0062661Y0094802D01*
X0063395Y0094068D01*
X0063395Y0091132D01*
X0062661Y0090398D01*
X0061193Y0090398D01*
X0060459Y0091132D01*
X0065063Y0090398D02*
X0067999Y0090398D01*
X0067999Y0094802D01*
X0065063Y0094802D01*
X0066531Y0092600D02*
X0067999Y0092600D01*
X0072603Y0096304D02*
X0072603Y0100708D01*
X0058791Y0100708D02*
X0058791Y0096304D01*
X0049583Y0099974D02*
X0048849Y0100708D01*
X0047382Y0100708D01*
X0046648Y0099974D01*
X0047281Y0129769D02*
X0047281Y0134172D01*
X0045080Y0134172D01*
X0044346Y0133438D01*
X0044346Y0131970D01*
X0045080Y0131236D01*
X0047281Y0131236D01*
X0045814Y0131236D02*
X0044346Y0129769D01*
X0048950Y0129769D02*
X0051885Y0129769D01*
X0051885Y0134172D01*
X0048950Y0134172D01*
X0050417Y0131970D02*
X0051885Y0131970D01*
X0053553Y0130502D02*
X0053553Y0133438D01*
X0054287Y0134172D01*
X0056489Y0134172D01*
X0056489Y0129769D01*
X0054287Y0129769D01*
X0053553Y0130502D01*
X0058157Y0130502D02*
X0058157Y0133438D01*
X0058891Y0134172D01*
X0060359Y0134172D01*
X0061093Y0133438D01*
X0061093Y0130502D01*
X0060359Y0129769D01*
X0058891Y0129769D01*
X0058157Y0130502D01*
X0062761Y0130502D02*
X0063495Y0129769D01*
X0064963Y0129769D01*
X0065697Y0130502D01*
X0065697Y0133438D01*
X0064963Y0134172D01*
X0063495Y0134172D01*
X0062761Y0133438D01*
X0067365Y0134172D02*
X0067365Y0129769D01*
X0070301Y0134172D01*
X0070301Y0129769D01*
X0071969Y0129769D02*
X0074905Y0129769D01*
X0074905Y0134172D01*
X0071969Y0134172D01*
X0073437Y0131970D02*
X0074905Y0131970D01*
D12*
X0187257Y0183202D02*
X0187257Y0186105D01*
X0188225Y0187072D01*
X0189192Y0186105D01*
X0189192Y0183202D01*
X0191127Y0183202D02*
X0191127Y0187072D01*
X0190160Y0187072D01*
X0189192Y0186105D01*
X0193335Y0186105D02*
X0193335Y0184170D01*
X0194302Y0183202D01*
X0196237Y0183202D01*
X0197205Y0184170D01*
X0197205Y0186105D01*
X0196237Y0187072D01*
X0194302Y0187072D01*
X0193335Y0186105D01*
X0199412Y0187072D02*
X0202314Y0187072D01*
X0203282Y0186105D01*
X0203282Y0184170D01*
X0202314Y0183202D01*
X0199412Y0183202D01*
X0205353Y0183202D02*
X0206320Y0183202D01*
X0206320Y0184170D01*
X0205353Y0184170D01*
X0205353Y0183202D01*
X0208528Y0183202D02*
X0211430Y0183202D01*
X0212398Y0184170D01*
X0212398Y0186105D01*
X0211430Y0187072D01*
X0208528Y0187072D01*
X0208528Y0189007D02*
X0208528Y0183202D01*
X0214559Y0187072D02*
X0215527Y0187072D01*
X0217462Y0185137D01*
X0217462Y0183202D02*
X0217462Y0187072D01*
X0219669Y0186105D02*
X0220637Y0187072D01*
X0222572Y0187072D01*
X0223539Y0186105D01*
X0223539Y0184170D01*
X0222572Y0183202D01*
X0220637Y0183202D01*
X0219669Y0185137D02*
X0223539Y0185137D01*
X0225746Y0186105D02*
X0225746Y0183202D01*
X0225746Y0186105D02*
X0226714Y0187072D01*
X0229616Y0187072D01*
X0229616Y0183202D01*
X0231778Y0187072D02*
X0232746Y0187072D01*
X0234681Y0185137D01*
X0234681Y0183202D02*
X0234681Y0187072D01*
X0236888Y0186105D02*
X0237855Y0187072D01*
X0239790Y0187072D01*
X0240758Y0186105D01*
X0240758Y0184170D01*
X0239790Y0183202D01*
X0237855Y0183202D01*
X0236888Y0185137D02*
X0240758Y0185137D01*
X0242965Y0183202D02*
X0245868Y0183202D01*
X0246835Y0184170D01*
X0246835Y0186105D01*
X0245868Y0187072D01*
X0242965Y0187072D01*
X0242965Y0189007D02*
X0242965Y0183202D01*
X0236888Y0185137D02*
X0236888Y0186105D01*
X0248952Y0183202D02*
X0250886Y0183202D01*
X0249919Y0183202D02*
X0249919Y0189007D01*
X0250886Y0189007D01*
X0253094Y0186105D02*
X0254061Y0187072D01*
X0255996Y0187072D01*
X0256964Y0186105D01*
X0256964Y0184170D01*
X0255996Y0183202D01*
X0254061Y0183202D01*
X0253094Y0184170D01*
X0253094Y0186105D01*
X0259171Y0187072D02*
X0262073Y0187072D01*
X0263041Y0186105D01*
X0262073Y0185137D01*
X0260138Y0185137D01*
X0259171Y0184170D01*
X0260138Y0183202D01*
X0263041Y0183202D01*
X0219669Y0185137D02*
X0219669Y0186105D01*
M02*
