G75*
%MOIN*%
%OFA0B0*%
%FSLAX25Y25*%
%IPPOS*%
%LPD*%
%AMOC8*
5,1,8,0,0,1.08239X$1,22.5*
%
%ADD10C,0.00394*%
%ADD11C,0.03962*%
%ADD12C,0.11811*%
%ADD13R,0.05118X0.04331*%
%ADD14R,0.04331X0.05118*%
%ADD15R,0.03937X0.03150*%
%ADD16R,0.06693X0.06693*%
%ADD17R,0.14961X0.14961*%
%ADD18R,0.06890X0.02756*%
%ADD19R,0.05315X0.01575*%
%ADD20C,0.05906*%
%ADD21R,0.04331X0.02362*%
%ADD22R,0.03150X0.03937*%
%ADD23C,0.19685*%
%ADD24R,0.04724X0.01181*%
%ADD25C,0.03562*%
%ADD26C,0.02775*%
%ADD27C,0.01600*%
%ADD28C,0.02400*%
%ADD29C,0.01200*%
%ADD30R,0.05906X0.05906*%
D10*
X0034677Y0025246D02*
X0037777Y0024238D01*
X0039406Y0024110D01*
X0051340Y0024110D01*
X0055318Y0022818D01*
X0055318Y0022818D01*
X0058702Y0020359D01*
X0058702Y0020359D01*
X0058702Y0020359D01*
X0061161Y0016975D01*
X0061161Y0016975D01*
X0062453Y0012997D01*
X0062453Y0010905D01*
X0062540Y0010025D01*
X0063214Y0008399D01*
X0064459Y0007154D01*
X0066085Y0006480D01*
X0066965Y0006394D01*
X0381926Y0006394D01*
X0382806Y0006480D01*
X0384432Y0007154D01*
X0385677Y0008399D01*
X0386351Y0010025D01*
X0386438Y0010906D01*
X0386438Y0012997D01*
X0387730Y0016975D01*
X0387730Y0016975D01*
X0390189Y0020359D01*
X0390189Y0020359D01*
X0393573Y0022818D01*
X0393573Y0022818D01*
X0397551Y0024110D01*
X0409485Y0024110D01*
X0411115Y0024238D01*
X0414214Y0025246D01*
X0416851Y0027161D01*
X0418767Y0029798D01*
X0419774Y0032898D01*
X0419902Y0034528D01*
X0419902Y0168386D01*
X0419774Y0170015D01*
X0418767Y0173115D01*
X0416851Y0175752D01*
X0414214Y0177668D01*
X0411115Y0178675D01*
X0409485Y0178803D01*
X0397551Y0178803D01*
X0393573Y0180096D01*
X0390189Y0182554D01*
X0390189Y0182554D01*
X0390189Y0182554D01*
X0387730Y0185938D01*
X0387730Y0185938D01*
X0386438Y0189916D01*
X0386438Y0192008D01*
X0386351Y0192888D01*
X0385677Y0194514D01*
X0384432Y0195759D01*
X0382806Y0196433D01*
X0381926Y0196520D01*
X0066965Y0196520D01*
X0066085Y0196433D01*
X0064459Y0195759D01*
X0063214Y0194514D01*
X0062540Y0192888D01*
X0062453Y0192008D01*
X0062453Y0189916D01*
X0061161Y0185938D01*
X0061161Y0185938D01*
X0058702Y0182554D01*
X0058702Y0182554D01*
X0058702Y0182554D01*
X0055318Y0180096D01*
X0055318Y0180096D01*
X0051340Y0178803D01*
X0039406Y0178803D01*
X0037777Y0178675D01*
X0034677Y0177668D01*
X0032040Y0175752D01*
X0030124Y0173115D01*
X0029117Y0170015D01*
X0028989Y0168386D01*
X0028989Y0034528D01*
X0029117Y0032898D01*
X0030124Y0029798D01*
X0032040Y0027161D01*
X0034677Y0025246D01*
X0034471Y0025395D02*
X0160405Y0025395D01*
X0160405Y0025003D02*
X0035424Y0025003D01*
X0036631Y0024611D02*
X0160405Y0024611D01*
X0160405Y0024218D02*
X0038032Y0024218D01*
X0039406Y0022717D02*
X0049249Y0022717D01*
X0052214Y0023826D02*
X0160405Y0023826D01*
X0160405Y0023511D02*
X0159851Y0023282D01*
X0158684Y0022114D01*
X0158052Y0020589D01*
X0158052Y0013033D01*
X0158684Y0011508D01*
X0159851Y0010340D01*
X0161376Y0009709D01*
X0163027Y0009709D01*
X0164552Y0010340D01*
X0165719Y0011508D01*
X0166351Y0013033D01*
X0166351Y0020589D01*
X0165719Y0022114D01*
X0164552Y0023282D01*
X0163998Y0023511D01*
X0163998Y0029806D01*
X0164351Y0029453D01*
X0170326Y0023478D01*
X0169851Y0023282D01*
X0168684Y0022114D01*
X0168052Y0020589D01*
X0168052Y0013033D01*
X0168684Y0011508D01*
X0169851Y0010340D01*
X0171376Y0009709D01*
X0173027Y0009709D01*
X0174552Y0010340D01*
X0175719Y0011508D01*
X0176351Y0013033D01*
X0176351Y0020589D01*
X0175719Y0022114D01*
X0174552Y0023282D01*
X0173998Y0023511D01*
X0173998Y0024806D01*
X0178100Y0020704D01*
X0178052Y0020589D01*
X0178052Y0013033D01*
X0178684Y0011508D01*
X0179851Y0010340D01*
X0181376Y0009709D01*
X0183027Y0009709D01*
X0184552Y0010340D01*
X0185719Y0011508D01*
X0186351Y0013033D01*
X0186351Y0020589D01*
X0185719Y0022114D01*
X0184552Y0023282D01*
X0183027Y0023913D01*
X0181376Y0023913D01*
X0180384Y0023502D01*
X0170017Y0033869D01*
X0170017Y0065119D01*
X0168964Y0066172D01*
X0161864Y0073272D01*
X0161937Y0073272D01*
X0163032Y0073725D01*
X0163570Y0074263D01*
X0163839Y0074263D01*
X0163839Y0074189D01*
X0164540Y0073488D01*
X0170650Y0073488D01*
X0171351Y0074189D01*
X0171351Y0079511D01*
X0170863Y0080000D01*
X0171321Y0080458D01*
X0171784Y0079994D01*
X0177107Y0079994D01*
X0177595Y0080483D01*
X0178084Y0079994D01*
X0183406Y0079994D01*
X0183870Y0080458D01*
X0184540Y0079787D01*
X0190650Y0079787D01*
X0191321Y0080458D01*
X0191784Y0079994D01*
X0197107Y0079994D01*
X0197595Y0080483D01*
X0198084Y0079994D01*
X0203406Y0079994D01*
X0203870Y0080458D01*
X0204328Y0080000D01*
X0203839Y0079511D01*
X0203839Y0074189D01*
X0204357Y0073672D01*
X0198101Y0073672D01*
X0197048Y0072619D01*
X0182048Y0057619D01*
X0182048Y0033631D01*
X0183101Y0032578D01*
X0189976Y0025703D01*
X0202476Y0025703D01*
X0208918Y0019261D01*
X0208918Y0013033D01*
X0209550Y0011508D01*
X0210717Y0010340D01*
X0212242Y0009709D01*
X0213893Y0009709D01*
X0215418Y0010340D01*
X0216585Y0011508D01*
X0217217Y0013033D01*
X0217217Y0020589D01*
X0216585Y0022114D01*
X0216122Y0022578D01*
X0220014Y0022578D01*
X0219550Y0022114D01*
X0218918Y0020589D01*
X0218918Y0013033D01*
X0219550Y0011508D01*
X0220717Y0010340D01*
X0222242Y0009709D01*
X0223893Y0009709D01*
X0225418Y0010340D01*
X0226585Y0011508D01*
X0227217Y0013033D01*
X0227217Y0020589D01*
X0226585Y0022114D01*
X0225418Y0023282D01*
X0224670Y0023592D01*
X0223183Y0025078D01*
X0230601Y0025078D01*
X0231271Y0024408D01*
X0231271Y0023511D01*
X0230717Y0023282D01*
X0229550Y0022114D01*
X0228918Y0020589D01*
X0228918Y0013033D01*
X0229550Y0011508D01*
X0230717Y0010340D01*
X0232242Y0009709D01*
X0233893Y0009709D01*
X0235418Y0010340D01*
X0236585Y0011508D01*
X0237217Y0013033D01*
X0237217Y0020589D01*
X0236585Y0022114D01*
X0235418Y0023282D01*
X0234864Y0023511D01*
X0234864Y0025897D01*
X0233812Y0026949D01*
X0233812Y0026949D01*
X0233183Y0027578D01*
X0239399Y0027578D01*
X0239779Y0026661D01*
X0240506Y0025934D01*
X0241456Y0025541D01*
X0242484Y0025541D01*
X0243434Y0025934D01*
X0244161Y0026661D01*
X0244554Y0027611D01*
X0244554Y0028000D01*
X0249995Y0022559D01*
X0249550Y0022114D01*
X0248918Y0020589D01*
X0248918Y0013033D01*
X0249550Y0011508D01*
X0250717Y0010340D01*
X0252242Y0009709D01*
X0253893Y0009709D01*
X0255418Y0010340D01*
X0256585Y0011508D01*
X0257217Y0013033D01*
X0257217Y0020589D01*
X0256585Y0022114D01*
X0255418Y0023282D01*
X0254099Y0023828D01*
X0260601Y0023828D01*
X0261021Y0023408D01*
X0260717Y0023282D01*
X0259550Y0022114D01*
X0258918Y0020589D01*
X0258918Y0013033D01*
X0259550Y0011508D01*
X0260717Y0010340D01*
X0262242Y0009709D01*
X0263893Y0009709D01*
X0265418Y0010340D01*
X0266585Y0011508D01*
X0267217Y0013033D01*
X0267217Y0020589D01*
X0266585Y0022114D01*
X0265418Y0023282D01*
X0264864Y0023511D01*
X0264864Y0024647D01*
X0263142Y0026369D01*
X0262089Y0027422D01*
X0260058Y0027422D01*
X0260623Y0027987D01*
X0261675Y0029039D01*
X0261675Y0029457D01*
X0261679Y0029459D01*
X0262573Y0030353D01*
X0263057Y0031521D01*
X0263057Y0036747D01*
X0262573Y0037915D01*
X0261679Y0038809D01*
X0261675Y0038810D01*
X0261675Y0039711D01*
X0257133Y0044253D01*
X0263018Y0044253D01*
X0267882Y0039389D01*
X0267882Y0038612D01*
X0267184Y0037915D01*
X0266701Y0036747D01*
X0266701Y0031521D01*
X0267184Y0030353D01*
X0268078Y0029459D01*
X0269246Y0028975D01*
X0270511Y0028975D01*
X0271679Y0029459D01*
X0272379Y0030158D01*
X0273078Y0029459D01*
X0274246Y0028975D01*
X0275511Y0028975D01*
X0276679Y0029459D01*
X0277379Y0030158D01*
X0278078Y0029459D01*
X0279246Y0028975D01*
X0280511Y0028975D01*
X0281679Y0029459D01*
X0282379Y0030158D01*
X0283078Y0029459D01*
X0284246Y0028975D01*
X0285511Y0028975D01*
X0286679Y0029459D01*
X0287379Y0030158D01*
X0287615Y0029922D01*
X0287476Y0029922D01*
X0286423Y0028869D01*
X0283068Y0025514D01*
X0281784Y0026797D01*
X0274453Y0026797D01*
X0274059Y0027191D01*
X0273109Y0027584D01*
X0272081Y0027584D01*
X0271131Y0027191D01*
X0270404Y0026464D01*
X0270011Y0025514D01*
X0270011Y0024486D01*
X0270404Y0023536D01*
X0270688Y0023253D01*
X0269550Y0022114D01*
X0268918Y0020589D01*
X0268918Y0013033D01*
X0269550Y0011508D01*
X0270717Y0010340D01*
X0272242Y0009709D01*
X0273893Y0009709D01*
X0275418Y0010340D01*
X0276585Y0011508D01*
X0277217Y0013033D01*
X0277217Y0020589D01*
X0276585Y0022114D01*
X0275497Y0023203D01*
X0280296Y0023203D01*
X0280467Y0023032D01*
X0279550Y0022114D01*
X0278918Y0020589D01*
X0278918Y0013033D01*
X0279550Y0011508D01*
X0280717Y0010340D01*
X0282242Y0009709D01*
X0283893Y0009709D01*
X0285418Y0010340D01*
X0286585Y0011508D01*
X0287217Y0013033D01*
X0287217Y0020589D01*
X0286585Y0022114D01*
X0285668Y0023032D01*
X0288964Y0026328D01*
X0321464Y0026328D01*
X0323196Y0028059D01*
X0323874Y0027381D01*
X0323874Y0027381D01*
X0324927Y0026328D01*
X0332714Y0026328D01*
X0333583Y0027197D01*
X0333583Y0026945D01*
X0334284Y0026244D01*
X0339607Y0026244D01*
X0340308Y0026945D01*
X0340308Y0033055D01*
X0339607Y0033756D01*
X0334284Y0033756D01*
X0333583Y0033055D01*
X0333583Y0031797D01*
X0333101Y0031797D01*
X0333073Y0031769D01*
X0333073Y0032467D01*
X0332620Y0033562D01*
X0332297Y0033885D01*
X0332857Y0034445D01*
X0332857Y0040555D01*
X0332156Y0041256D01*
X0332082Y0041256D01*
X0332082Y0042898D01*
X0332156Y0042898D01*
X0332857Y0043599D01*
X0332857Y0048527D01*
X0332156Y0049228D01*
X0328015Y0049228D01*
X0327314Y0048527D01*
X0327314Y0043599D01*
X0328015Y0042898D01*
X0328088Y0042898D01*
X0328088Y0041256D01*
X0326834Y0041256D01*
X0326345Y0040767D01*
X0325857Y0041256D01*
X0324992Y0041256D01*
X0324992Y0043214D01*
X0325377Y0043599D01*
X0325377Y0048527D01*
X0324676Y0049228D01*
X0320534Y0049228D01*
X0319833Y0048527D01*
X0319833Y0043599D01*
X0320534Y0042898D01*
X0321399Y0042898D01*
X0321399Y0041256D01*
X0320534Y0041256D01*
X0319833Y0040555D01*
X0319833Y0034445D01*
X0320534Y0033744D01*
X0321399Y0033744D01*
X0321399Y0031345D01*
X0319976Y0029922D01*
X0317142Y0029922D01*
X0317573Y0030353D01*
X0318057Y0031521D01*
X0318057Y0036747D01*
X0317573Y0037915D01*
X0316875Y0038612D01*
X0316875Y0053350D01*
X0321044Y0053350D01*
X0321745Y0054051D01*
X0321745Y0060526D01*
X0321768Y0060503D01*
X0322333Y0060503D01*
X0322333Y0059445D01*
X0323034Y0058744D01*
X0324348Y0058744D01*
X0324348Y0057102D01*
X0324275Y0057102D01*
X0323573Y0056401D01*
X0323573Y0051473D01*
X0324275Y0050772D01*
X0328416Y0050772D01*
X0329117Y0051473D01*
X0329117Y0056401D01*
X0328416Y0057102D01*
X0328342Y0057102D01*
X0328342Y0058744D01*
X0328357Y0058744D01*
X0329058Y0059445D01*
X0329058Y0065555D01*
X0328357Y0066256D01*
X0323342Y0066256D01*
X0323342Y0068350D01*
X0324794Y0068350D01*
X0325495Y0069051D01*
X0325495Y0073826D01*
X0328342Y0076673D01*
X0328342Y0089577D01*
X0327092Y0090827D01*
X0325922Y0091997D01*
X0325101Y0091997D01*
X0325101Y0092061D01*
X0324400Y0092762D01*
X0318290Y0092762D01*
X0317589Y0092061D01*
X0317589Y0091997D01*
X0317172Y0091997D01*
X0314672Y0094497D01*
X0314633Y0094497D01*
X0315839Y0095703D01*
X0316083Y0095703D01*
X0316083Y0094445D01*
X0316784Y0093744D01*
X0322107Y0093744D01*
X0322808Y0094445D01*
X0322808Y0100555D01*
X0322113Y0101250D01*
X0322808Y0101945D01*
X0322808Y0108055D01*
X0322107Y0108756D01*
X0316784Y0108756D01*
X0316083Y0108055D01*
X0316083Y0106797D01*
X0314351Y0106797D01*
X0313298Y0105744D01*
X0312048Y0104494D01*
X0312048Y0100744D01*
X0311715Y0100411D01*
X0311715Y0101460D01*
X0311014Y0102161D01*
X0309858Y0102161D01*
X0309858Y0103744D01*
X0310906Y0103744D01*
X0311607Y0104445D01*
X0311607Y0110555D01*
X0310906Y0111256D01*
X0310242Y0111256D01*
X0310242Y0116072D01*
X0320922Y0126753D01*
X0322092Y0127923D01*
X0322092Y0143952D01*
X0317717Y0148327D01*
X0316547Y0149497D01*
X0311607Y0149497D01*
X0311607Y0150555D01*
X0310906Y0151256D01*
X0305584Y0151256D01*
X0304883Y0150555D01*
X0304883Y0144445D01*
X0305584Y0143744D01*
X0305598Y0143744D01*
X0305598Y0137923D01*
X0306768Y0136753D01*
X0308018Y0135503D01*
X0308561Y0135503D01*
X0308495Y0135437D01*
X0308495Y0132083D01*
X0309196Y0131382D01*
X0310060Y0131382D01*
X0310060Y0130006D01*
X0309351Y0129297D01*
X0293339Y0129297D01*
X0291892Y0130744D01*
X0291892Y0130988D01*
X0293150Y0130988D01*
X0293851Y0131689D01*
X0293851Y0137011D01*
X0293363Y0137500D01*
X0293851Y0137988D01*
X0293851Y0139443D01*
X0297591Y0139443D01*
X0298172Y0138862D01*
X0303494Y0138862D01*
X0304196Y0139563D01*
X0304196Y0142917D01*
X0303494Y0143618D01*
X0298172Y0143618D01*
X0297591Y0143037D01*
X0293851Y0143037D01*
X0293851Y0143311D01*
X0293150Y0144012D01*
X0287040Y0144012D01*
X0286339Y0143311D01*
X0286339Y0143047D01*
X0285357Y0143047D01*
X0285357Y0144305D01*
X0284656Y0145006D01*
X0279334Y0145006D01*
X0278845Y0144517D01*
X0278363Y0145000D01*
X0279058Y0145695D01*
X0279058Y0151805D01*
X0278357Y0152506D01*
X0273034Y0152506D01*
X0272333Y0151805D01*
X0272333Y0145695D01*
X0273029Y0145000D01*
X0272333Y0144305D01*
X0272333Y0143237D01*
X0270947Y0143237D01*
X0270947Y0143311D01*
X0270246Y0144012D01*
X0265318Y0144012D01*
X0264617Y0143311D01*
X0264617Y0139170D01*
X0265318Y0138469D01*
X0270246Y0138469D01*
X0270947Y0139170D01*
X0270947Y0139243D01*
X0272333Y0139243D01*
X0272333Y0138195D01*
X0273029Y0137500D01*
X0272333Y0136805D01*
X0272333Y0135557D01*
X0270947Y0135557D01*
X0270947Y0135830D01*
X0270246Y0136531D01*
X0265318Y0136531D01*
X0264617Y0135830D01*
X0264617Y0131689D01*
X0265318Y0130988D01*
X0270246Y0130988D01*
X0270947Y0131689D01*
X0270947Y0131963D01*
X0272333Y0131963D01*
X0272333Y0130695D01*
X0273034Y0129994D01*
X0278357Y0129994D01*
X0278845Y0130483D01*
X0279334Y0129994D01*
X0284656Y0129994D01*
X0285357Y0130695D01*
X0285357Y0131953D01*
X0286339Y0131953D01*
X0286339Y0131689D01*
X0287040Y0130988D01*
X0288298Y0130988D01*
X0288298Y0129256D01*
X0289351Y0128203D01*
X0290904Y0126650D01*
X0290397Y0126650D01*
X0289696Y0125948D01*
X0289696Y0119051D01*
X0290397Y0118350D01*
X0292048Y0118350D01*
X0292048Y0091756D01*
X0293101Y0090703D01*
X0294625Y0089179D01*
X0288170Y0089179D01*
X0287983Y0089366D01*
X0281892Y0089366D01*
X0281892Y0093006D01*
X0281961Y0093075D01*
X0287983Y0093075D01*
X0288684Y0093776D01*
X0288684Y0098901D01*
X0287983Y0099602D01*
X0281676Y0099602D01*
X0281489Y0099415D01*
X0278219Y0099415D01*
X0275601Y0096797D01*
X0274548Y0095744D01*
X0274548Y0085608D01*
X0274154Y0085214D01*
X0273761Y0084264D01*
X0273761Y0083236D01*
X0274154Y0082286D01*
X0274644Y0081797D01*
X0274453Y0081797D01*
X0274059Y0082191D01*
X0273109Y0082584D01*
X0272081Y0082584D01*
X0271131Y0082191D01*
X0270404Y0081464D01*
X0270011Y0080514D01*
X0270011Y0079486D01*
X0270404Y0078536D01*
X0270894Y0078047D01*
X0261103Y0078047D01*
X0261370Y0078313D01*
X0261823Y0079408D01*
X0261823Y0080592D01*
X0261370Y0081687D01*
X0260842Y0082215D01*
X0260842Y0099738D01*
X0261900Y0099738D01*
X0262601Y0100439D01*
X0262601Y0105761D01*
X0261900Y0106463D01*
X0255790Y0106463D01*
X0255095Y0105767D01*
X0254400Y0106463D01*
X0248290Y0106463D01*
X0247589Y0105761D01*
X0247589Y0104625D01*
X0246858Y0104625D01*
X0246408Y0105075D01*
X0244592Y0105075D01*
X0244592Y0105827D01*
X0243422Y0106997D01*
X0229672Y0120747D01*
X0175922Y0120747D01*
X0174023Y0122646D01*
X0171351Y0122646D01*
X0171351Y0123311D01*
X0170650Y0124012D01*
X0164540Y0124012D01*
X0163839Y0123311D01*
X0163839Y0117988D01*
X0164328Y0117500D01*
X0163839Y0117011D01*
X0163839Y0116147D01*
X0148701Y0116147D01*
X0133845Y0101291D01*
X0114087Y0121049D01*
X0105161Y0121049D01*
X0104932Y0121603D01*
X0103765Y0122770D01*
X0102239Y0123402D01*
X0094683Y0123402D01*
X0093482Y0122904D01*
X0073831Y0142555D01*
X0073477Y0142909D01*
X0073477Y0145653D01*
X0072776Y0146354D01*
X0065092Y0146354D01*
X0064390Y0145653D01*
X0064390Y0137969D01*
X0065092Y0137268D01*
X0072776Y0137268D01*
X0073406Y0137898D01*
X0091359Y0119945D01*
X0091359Y0118427D01*
X0091991Y0116901D01*
X0093158Y0115734D01*
X0094683Y0115102D01*
X0102239Y0115102D01*
X0103765Y0115734D01*
X0104932Y0116901D01*
X0105161Y0117455D01*
X0112599Y0117455D01*
X0119005Y0111049D01*
X0105161Y0111049D01*
X0104932Y0111603D01*
X0103765Y0112770D01*
X0102239Y0113402D01*
X0094683Y0113402D01*
X0093158Y0112770D01*
X0091991Y0111603D01*
X0091359Y0110077D01*
X0091359Y0108805D01*
X0081851Y0099297D01*
X0054351Y0099297D01*
X0048504Y0093450D01*
X0047452Y0092398D01*
X0047452Y0089268D01*
X0045406Y0089268D01*
X0044705Y0088567D01*
X0044705Y0080882D01*
X0045406Y0080181D01*
X0053091Y0080181D01*
X0053792Y0080882D01*
X0053792Y0088567D01*
X0053091Y0089268D01*
X0051046Y0089268D01*
X0051046Y0090909D01*
X0055839Y0095703D01*
X0083257Y0095703D01*
X0083101Y0095547D01*
X0070601Y0095547D01*
X0069548Y0094494D01*
X0067137Y0092083D01*
X0067137Y0089268D01*
X0065092Y0089268D01*
X0064390Y0088567D01*
X0064390Y0080882D01*
X0065092Y0080181D01*
X0072776Y0080181D01*
X0073477Y0080882D01*
X0073477Y0088567D01*
X0072776Y0089268D01*
X0070731Y0089268D01*
X0070731Y0090594D01*
X0072089Y0091953D01*
X0084589Y0091953D01*
X0090091Y0097455D01*
X0091761Y0097455D01*
X0091991Y0096901D01*
X0093158Y0095734D01*
X0094683Y0095102D01*
X0102239Y0095102D01*
X0103765Y0095734D01*
X0104932Y0096901D01*
X0105161Y0097455D01*
X0122599Y0097455D01*
X0128761Y0091293D01*
X0128761Y0090736D01*
X0129154Y0089786D01*
X0129881Y0089059D01*
X0130831Y0088666D01*
X0131388Y0088666D01*
X0160405Y0059649D01*
X0160405Y0023511D01*
X0160219Y0023434D02*
X0053421Y0023434D01*
X0054629Y0023042D02*
X0159611Y0023042D01*
X0159219Y0022650D02*
X0055550Y0022650D01*
X0056089Y0022257D02*
X0158827Y0022257D01*
X0158580Y0021865D02*
X0056629Y0021865D01*
X0057169Y0021473D02*
X0158418Y0021473D01*
X0158255Y0021081D02*
X0057709Y0021081D01*
X0058249Y0020688D02*
X0158093Y0020688D01*
X0158052Y0020296D02*
X0058748Y0020296D01*
X0059033Y0019904D02*
X0158052Y0019904D01*
X0158052Y0019512D02*
X0059318Y0019512D01*
X0059603Y0019120D02*
X0158052Y0019120D01*
X0158052Y0018727D02*
X0059888Y0018727D01*
X0060173Y0018335D02*
X0158052Y0018335D01*
X0158052Y0017943D02*
X0060458Y0017943D01*
X0060743Y0017551D02*
X0158052Y0017551D01*
X0158052Y0017159D02*
X0061027Y0017159D01*
X0061229Y0016766D02*
X0158052Y0016766D01*
X0158052Y0016374D02*
X0061356Y0016374D01*
X0061484Y0015982D02*
X0158052Y0015982D01*
X0158052Y0015590D02*
X0061611Y0015590D01*
X0061738Y0015198D02*
X0158052Y0015198D01*
X0158052Y0014805D02*
X0061866Y0014805D01*
X0061993Y0014413D02*
X0158052Y0014413D01*
X0158052Y0014021D02*
X0062121Y0014021D01*
X0062248Y0013629D02*
X0158052Y0013629D01*
X0158052Y0013236D02*
X0062376Y0013236D01*
X0062453Y0012844D02*
X0158130Y0012844D01*
X0158292Y0012452D02*
X0062453Y0012452D01*
X0062453Y0012060D02*
X0158455Y0012060D01*
X0158617Y0011668D02*
X0062453Y0011668D01*
X0062453Y0011275D02*
X0158916Y0011275D01*
X0159308Y0010883D02*
X0062456Y0010883D01*
X0062494Y0010491D02*
X0159700Y0010491D01*
X0160434Y0010099D02*
X0062533Y0010099D01*
X0062672Y0009707D02*
X0386219Y0009707D01*
X0386358Y0010099D02*
X0284835Y0010099D01*
X0285569Y0010491D02*
X0386397Y0010491D01*
X0386435Y0010883D02*
X0285961Y0010883D01*
X0286353Y0011275D02*
X0386438Y0011275D01*
X0386438Y0011668D02*
X0286652Y0011668D01*
X0286814Y0012060D02*
X0386438Y0012060D01*
X0386438Y0012452D02*
X0286977Y0012452D01*
X0287139Y0012844D02*
X0386438Y0012844D01*
X0386515Y0013236D02*
X0287217Y0013236D01*
X0287217Y0013629D02*
X0386643Y0013629D01*
X0386770Y0014021D02*
X0287217Y0014021D01*
X0287217Y0014413D02*
X0386898Y0014413D01*
X0387025Y0014805D02*
X0287217Y0014805D01*
X0287217Y0015198D02*
X0387153Y0015198D01*
X0387280Y0015590D02*
X0287217Y0015590D01*
X0287217Y0015982D02*
X0387408Y0015982D01*
X0387535Y0016374D02*
X0287217Y0016374D01*
X0287217Y0016766D02*
X0387662Y0016766D01*
X0387864Y0017159D02*
X0287217Y0017159D01*
X0287217Y0017551D02*
X0388149Y0017551D01*
X0388433Y0017943D02*
X0287217Y0017943D01*
X0287217Y0018335D02*
X0388718Y0018335D01*
X0389003Y0018727D02*
X0287217Y0018727D01*
X0287217Y0019120D02*
X0389288Y0019120D01*
X0389573Y0019512D02*
X0287217Y0019512D01*
X0287217Y0019904D02*
X0389858Y0019904D01*
X0390143Y0020296D02*
X0287217Y0020296D01*
X0287176Y0020688D02*
X0390642Y0020688D01*
X0390189Y0020359D02*
X0390189Y0020359D01*
X0391182Y0021081D02*
X0287014Y0021081D01*
X0286851Y0021473D02*
X0391722Y0021473D01*
X0392262Y0021865D02*
X0286689Y0021865D01*
X0286442Y0022257D02*
X0392802Y0022257D01*
X0393341Y0022650D02*
X0286050Y0022650D01*
X0285678Y0023042D02*
X0394263Y0023042D01*
X0395470Y0023434D02*
X0286070Y0023434D01*
X0286462Y0023826D02*
X0396677Y0023826D01*
X0399642Y0022717D02*
X0409485Y0022717D01*
X0410859Y0024218D02*
X0286855Y0024218D01*
X0287247Y0024611D02*
X0412260Y0024611D01*
X0413467Y0025003D02*
X0287639Y0025003D01*
X0288031Y0025395D02*
X0414420Y0025395D01*
X0414960Y0025787D02*
X0288424Y0025787D01*
X0288816Y0026179D02*
X0415500Y0026179D01*
X0416039Y0026572D02*
X0339934Y0026572D01*
X0340308Y0026964D02*
X0416579Y0026964D01*
X0416993Y0027356D02*
X0340308Y0027356D01*
X0340308Y0027748D02*
X0417277Y0027748D01*
X0417562Y0028141D02*
X0340308Y0028141D01*
X0340308Y0028533D02*
X0417847Y0028533D01*
X0418132Y0028925D02*
X0340308Y0028925D01*
X0340308Y0029317D02*
X0418417Y0029317D01*
X0418702Y0029709D02*
X0340308Y0029709D01*
X0340308Y0030102D02*
X0418865Y0030102D01*
X0418993Y0030494D02*
X0340308Y0030494D01*
X0340308Y0030886D02*
X0419120Y0030886D01*
X0419248Y0031278D02*
X0340308Y0031278D01*
X0340308Y0031670D02*
X0419375Y0031670D01*
X0419503Y0032063D02*
X0340308Y0032063D01*
X0340308Y0032455D02*
X0419630Y0032455D01*
X0419757Y0032847D02*
X0340308Y0032847D01*
X0340123Y0033239D02*
X0419801Y0033239D01*
X0419832Y0033631D02*
X0339731Y0033631D01*
X0334160Y0033631D02*
X0332550Y0033631D01*
X0332435Y0034024D02*
X0419863Y0034024D01*
X0419893Y0034416D02*
X0332828Y0034416D01*
X0332857Y0034808D02*
X0419902Y0034808D01*
X0419902Y0035200D02*
X0332857Y0035200D01*
X0332857Y0035593D02*
X0419902Y0035593D01*
X0419902Y0035985D02*
X0332857Y0035985D01*
X0332857Y0036377D02*
X0419902Y0036377D01*
X0419902Y0036769D02*
X0332857Y0036769D01*
X0332857Y0037161D02*
X0419902Y0037161D01*
X0419902Y0037554D02*
X0332857Y0037554D01*
X0332857Y0037946D02*
X0419902Y0037946D01*
X0419902Y0038338D02*
X0332857Y0038338D01*
X0332857Y0038730D02*
X0419902Y0038730D01*
X0419902Y0039122D02*
X0332857Y0039122D01*
X0332857Y0039515D02*
X0419902Y0039515D01*
X0419902Y0039907D02*
X0332857Y0039907D01*
X0332857Y0040299D02*
X0419902Y0040299D01*
X0419902Y0040691D02*
X0332720Y0040691D01*
X0332328Y0041084D02*
X0419902Y0041084D01*
X0419902Y0041476D02*
X0332082Y0041476D01*
X0332082Y0041868D02*
X0419902Y0041868D01*
X0419902Y0042260D02*
X0332082Y0042260D01*
X0332082Y0042652D02*
X0419902Y0042652D01*
X0419902Y0043045D02*
X0332303Y0043045D01*
X0332695Y0043437D02*
X0419902Y0043437D01*
X0419902Y0043829D02*
X0332857Y0043829D01*
X0332857Y0044221D02*
X0419902Y0044221D01*
X0419902Y0044613D02*
X0332857Y0044613D01*
X0332857Y0045006D02*
X0419902Y0045006D01*
X0419902Y0045398D02*
X0332857Y0045398D01*
X0332857Y0045790D02*
X0419902Y0045790D01*
X0419902Y0046182D02*
X0332857Y0046182D01*
X0332857Y0046574D02*
X0419902Y0046574D01*
X0419902Y0046967D02*
X0332857Y0046967D01*
X0332857Y0047359D02*
X0419902Y0047359D01*
X0419902Y0047751D02*
X0332857Y0047751D01*
X0332857Y0048143D02*
X0419902Y0048143D01*
X0419902Y0048536D02*
X0332849Y0048536D01*
X0332456Y0048928D02*
X0419902Y0048928D01*
X0419902Y0049320D02*
X0316875Y0049320D01*
X0316875Y0049712D02*
X0419902Y0049712D01*
X0419902Y0050104D02*
X0316875Y0050104D01*
X0316875Y0050497D02*
X0419902Y0050497D01*
X0419902Y0050889D02*
X0328533Y0050889D01*
X0328925Y0051281D02*
X0419902Y0051281D01*
X0419902Y0051673D02*
X0329117Y0051673D01*
X0329117Y0052065D02*
X0419902Y0052065D01*
X0419902Y0052458D02*
X0329117Y0052458D01*
X0329117Y0052850D02*
X0419902Y0052850D01*
X0419902Y0053242D02*
X0329117Y0053242D01*
X0329117Y0053634D02*
X0419902Y0053634D01*
X0419902Y0054027D02*
X0329117Y0054027D01*
X0329117Y0054419D02*
X0419902Y0054419D01*
X0419902Y0054811D02*
X0329117Y0054811D01*
X0329117Y0055203D02*
X0419902Y0055203D01*
X0419902Y0055595D02*
X0329117Y0055595D01*
X0329117Y0055988D02*
X0419902Y0055988D01*
X0419902Y0056380D02*
X0329117Y0056380D01*
X0328746Y0056772D02*
X0419902Y0056772D01*
X0419902Y0057164D02*
X0328342Y0057164D01*
X0328342Y0057556D02*
X0419902Y0057556D01*
X0419902Y0057949D02*
X0328342Y0057949D01*
X0328342Y0058341D02*
X0419902Y0058341D01*
X0419902Y0058733D02*
X0328342Y0058733D01*
X0328738Y0059125D02*
X0419902Y0059125D01*
X0419902Y0059517D02*
X0329058Y0059517D01*
X0329058Y0059910D02*
X0419902Y0059910D01*
X0419902Y0060302D02*
X0329058Y0060302D01*
X0329058Y0060694D02*
X0419902Y0060694D01*
X0419902Y0061086D02*
X0329058Y0061086D01*
X0329058Y0061479D02*
X0419902Y0061479D01*
X0419902Y0061871D02*
X0329058Y0061871D01*
X0329058Y0062263D02*
X0419902Y0062263D01*
X0419902Y0062655D02*
X0329058Y0062655D01*
X0329058Y0063047D02*
X0419902Y0063047D01*
X0419902Y0063440D02*
X0329058Y0063440D01*
X0329058Y0063832D02*
X0419902Y0063832D01*
X0419902Y0064224D02*
X0329058Y0064224D01*
X0329058Y0064616D02*
X0419902Y0064616D01*
X0419902Y0065008D02*
X0329058Y0065008D01*
X0329058Y0065401D02*
X0419902Y0065401D01*
X0419902Y0065793D02*
X0328820Y0065793D01*
X0328427Y0066185D02*
X0419902Y0066185D01*
X0419902Y0066577D02*
X0323342Y0066577D01*
X0323342Y0066970D02*
X0419902Y0066970D01*
X0419902Y0067362D02*
X0323342Y0067362D01*
X0323342Y0067754D02*
X0419902Y0067754D01*
X0419902Y0068146D02*
X0323342Y0068146D01*
X0324982Y0068538D02*
X0419902Y0068538D01*
X0419902Y0068931D02*
X0325374Y0068931D01*
X0325495Y0069323D02*
X0419902Y0069323D01*
X0419902Y0069715D02*
X0325495Y0069715D01*
X0325495Y0070107D02*
X0419902Y0070107D01*
X0419902Y0070499D02*
X0325495Y0070499D01*
X0325495Y0070892D02*
X0419902Y0070892D01*
X0419902Y0071284D02*
X0325495Y0071284D01*
X0325495Y0071676D02*
X0419902Y0071676D01*
X0419902Y0072068D02*
X0325495Y0072068D01*
X0325495Y0072460D02*
X0419902Y0072460D01*
X0419902Y0072853D02*
X0325495Y0072853D01*
X0325495Y0073245D02*
X0419902Y0073245D01*
X0419902Y0073637D02*
X0325495Y0073637D01*
X0325698Y0074029D02*
X0419902Y0074029D01*
X0419902Y0074422D02*
X0326091Y0074422D01*
X0326483Y0074814D02*
X0419902Y0074814D01*
X0419902Y0075206D02*
X0326875Y0075206D01*
X0327267Y0075598D02*
X0419902Y0075598D01*
X0419902Y0075990D02*
X0327659Y0075990D01*
X0328052Y0076383D02*
X0419902Y0076383D01*
X0419902Y0076775D02*
X0328342Y0076775D01*
X0328342Y0077167D02*
X0419902Y0077167D01*
X0419902Y0077559D02*
X0328342Y0077559D01*
X0328342Y0077951D02*
X0419902Y0077951D01*
X0419902Y0078344D02*
X0328342Y0078344D01*
X0328342Y0078736D02*
X0419902Y0078736D01*
X0419902Y0079128D02*
X0328342Y0079128D01*
X0328342Y0079520D02*
X0419902Y0079520D01*
X0419902Y0079913D02*
X0328342Y0079913D01*
X0328342Y0080305D02*
X0419902Y0080305D01*
X0419902Y0080697D02*
X0328342Y0080697D01*
X0328342Y0081089D02*
X0419902Y0081089D01*
X0419902Y0081481D02*
X0328342Y0081481D01*
X0328342Y0081874D02*
X0419902Y0081874D01*
X0419902Y0082266D02*
X0328342Y0082266D01*
X0328342Y0082658D02*
X0419902Y0082658D01*
X0419902Y0083050D02*
X0328342Y0083050D01*
X0328342Y0083442D02*
X0419902Y0083442D01*
X0419902Y0083835D02*
X0328342Y0083835D01*
X0328342Y0084227D02*
X0419902Y0084227D01*
X0419902Y0084619D02*
X0328342Y0084619D01*
X0328342Y0085011D02*
X0419902Y0085011D01*
X0419902Y0085403D02*
X0328342Y0085403D01*
X0328342Y0085796D02*
X0419902Y0085796D01*
X0419902Y0086188D02*
X0328342Y0086188D01*
X0328342Y0086580D02*
X0419902Y0086580D01*
X0419902Y0086972D02*
X0328342Y0086972D01*
X0328342Y0087365D02*
X0419902Y0087365D01*
X0419902Y0087757D02*
X0328342Y0087757D01*
X0328342Y0088149D02*
X0419902Y0088149D01*
X0419902Y0088541D02*
X0328342Y0088541D01*
X0328342Y0088933D02*
X0419902Y0088933D01*
X0419902Y0089326D02*
X0328342Y0089326D01*
X0328201Y0089718D02*
X0419902Y0089718D01*
X0419902Y0090110D02*
X0327809Y0090110D01*
X0327417Y0090502D02*
X0419902Y0090502D01*
X0419902Y0090894D02*
X0327025Y0090894D01*
X0326632Y0091287D02*
X0419902Y0091287D01*
X0419902Y0091679D02*
X0326240Y0091679D01*
X0325091Y0092071D02*
X0419902Y0092071D01*
X0419902Y0092463D02*
X0324698Y0092463D01*
X0322787Y0094424D02*
X0419902Y0094424D01*
X0419902Y0094032D02*
X0322395Y0094032D01*
X0322808Y0094817D02*
X0419902Y0094817D01*
X0419902Y0095209D02*
X0322808Y0095209D01*
X0322808Y0095601D02*
X0419902Y0095601D01*
X0419902Y0095993D02*
X0322808Y0095993D01*
X0322808Y0096385D02*
X0419902Y0096385D01*
X0419902Y0096778D02*
X0322808Y0096778D01*
X0322808Y0097170D02*
X0419902Y0097170D01*
X0419902Y0097562D02*
X0322808Y0097562D01*
X0322808Y0097954D02*
X0419902Y0097954D01*
X0419902Y0098346D02*
X0322808Y0098346D01*
X0322808Y0098739D02*
X0419902Y0098739D01*
X0419902Y0099131D02*
X0322808Y0099131D01*
X0322808Y0099523D02*
X0419902Y0099523D01*
X0419902Y0099915D02*
X0322808Y0099915D01*
X0322808Y0100308D02*
X0419902Y0100308D01*
X0419902Y0100700D02*
X0322663Y0100700D01*
X0322271Y0101092D02*
X0419902Y0101092D01*
X0419902Y0101484D02*
X0322347Y0101484D01*
X0322739Y0101876D02*
X0419902Y0101876D01*
X0419902Y0102269D02*
X0322808Y0102269D01*
X0322808Y0102661D02*
X0419902Y0102661D01*
X0419902Y0103053D02*
X0322808Y0103053D01*
X0322808Y0103445D02*
X0419902Y0103445D01*
X0419902Y0103837D02*
X0322808Y0103837D01*
X0322808Y0104230D02*
X0419902Y0104230D01*
X0419902Y0104622D02*
X0322808Y0104622D01*
X0322808Y0105014D02*
X0419902Y0105014D01*
X0419902Y0105406D02*
X0322808Y0105406D01*
X0322808Y0105799D02*
X0419902Y0105799D01*
X0419902Y0106191D02*
X0322808Y0106191D01*
X0322808Y0106583D02*
X0419902Y0106583D01*
X0419902Y0106975D02*
X0322808Y0106975D01*
X0322808Y0107367D02*
X0419902Y0107367D01*
X0419902Y0107760D02*
X0322808Y0107760D01*
X0322711Y0108152D02*
X0419902Y0108152D01*
X0419902Y0108544D02*
X0322319Y0108544D01*
X0316573Y0108544D02*
X0311607Y0108544D01*
X0311607Y0108936D02*
X0419902Y0108936D01*
X0419902Y0109328D02*
X0311607Y0109328D01*
X0311607Y0109721D02*
X0419902Y0109721D01*
X0419902Y0110113D02*
X0311607Y0110113D01*
X0311607Y0110505D02*
X0419902Y0110505D01*
X0419902Y0110897D02*
X0311264Y0110897D01*
X0310242Y0111289D02*
X0419902Y0111289D01*
X0419902Y0111682D02*
X0310242Y0111682D01*
X0310242Y0112074D02*
X0419902Y0112074D01*
X0419902Y0112466D02*
X0310242Y0112466D01*
X0310242Y0112858D02*
X0419902Y0112858D01*
X0419902Y0113251D02*
X0310242Y0113251D01*
X0310242Y0113643D02*
X0419902Y0113643D01*
X0419902Y0114035D02*
X0310242Y0114035D01*
X0310242Y0114427D02*
X0419902Y0114427D01*
X0419902Y0114819D02*
X0310242Y0114819D01*
X0310242Y0115212D02*
X0419902Y0115212D01*
X0419902Y0115604D02*
X0310242Y0115604D01*
X0310242Y0115996D02*
X0419902Y0115996D01*
X0419902Y0116388D02*
X0310557Y0116388D01*
X0310950Y0116780D02*
X0419902Y0116780D01*
X0419902Y0117173D02*
X0311342Y0117173D01*
X0311734Y0117565D02*
X0419902Y0117565D01*
X0419902Y0117957D02*
X0312126Y0117957D01*
X0312518Y0118349D02*
X0419902Y0118349D01*
X0419902Y0118742D02*
X0312911Y0118742D01*
X0313303Y0119134D02*
X0419902Y0119134D01*
X0419902Y0119526D02*
X0313695Y0119526D01*
X0314087Y0119918D02*
X0419902Y0119918D01*
X0419902Y0120310D02*
X0314479Y0120310D01*
X0314872Y0120703D02*
X0419902Y0120703D01*
X0419902Y0121095D02*
X0315264Y0121095D01*
X0315656Y0121487D02*
X0419902Y0121487D01*
X0419902Y0121879D02*
X0316048Y0121879D01*
X0316441Y0122271D02*
X0419902Y0122271D01*
X0419902Y0122664D02*
X0316833Y0122664D01*
X0317225Y0123056D02*
X0419902Y0123056D01*
X0419902Y0123448D02*
X0317617Y0123448D01*
X0318009Y0123840D02*
X0419902Y0123840D01*
X0419902Y0124232D02*
X0318402Y0124232D01*
X0318794Y0124625D02*
X0419902Y0124625D01*
X0419902Y0125017D02*
X0319186Y0125017D01*
X0319578Y0125409D02*
X0419902Y0125409D01*
X0419902Y0125801D02*
X0319970Y0125801D01*
X0320363Y0126194D02*
X0419902Y0126194D01*
X0419902Y0126586D02*
X0320755Y0126586D01*
X0321147Y0126978D02*
X0419902Y0126978D01*
X0419902Y0127370D02*
X0321539Y0127370D01*
X0321931Y0127762D02*
X0419902Y0127762D01*
X0419902Y0128155D02*
X0322092Y0128155D01*
X0322092Y0128547D02*
X0419902Y0128547D01*
X0419902Y0128939D02*
X0322092Y0128939D01*
X0322092Y0129331D02*
X0419902Y0129331D01*
X0419902Y0129723D02*
X0322092Y0129723D01*
X0322092Y0130116D02*
X0419902Y0130116D01*
X0419902Y0130508D02*
X0322092Y0130508D01*
X0322092Y0130900D02*
X0419902Y0130900D01*
X0419902Y0131292D02*
X0322092Y0131292D01*
X0322092Y0131685D02*
X0419902Y0131685D01*
X0419902Y0132077D02*
X0322092Y0132077D01*
X0322092Y0132469D02*
X0419902Y0132469D01*
X0419902Y0132861D02*
X0322092Y0132861D01*
X0322092Y0133253D02*
X0419902Y0133253D01*
X0419902Y0133646D02*
X0322092Y0133646D01*
X0322092Y0134038D02*
X0419902Y0134038D01*
X0419902Y0134430D02*
X0322092Y0134430D01*
X0322092Y0134822D02*
X0419902Y0134822D01*
X0419902Y0135214D02*
X0322092Y0135214D01*
X0322092Y0135607D02*
X0419902Y0135607D01*
X0419902Y0135999D02*
X0322092Y0135999D01*
X0322092Y0136391D02*
X0419902Y0136391D01*
X0419902Y0136783D02*
X0322092Y0136783D01*
X0322092Y0137175D02*
X0419902Y0137175D01*
X0419902Y0137568D02*
X0322092Y0137568D01*
X0322092Y0137960D02*
X0419902Y0137960D01*
X0419902Y0138352D02*
X0322092Y0138352D01*
X0322092Y0138744D02*
X0419902Y0138744D01*
X0419902Y0139137D02*
X0322092Y0139137D01*
X0322092Y0139529D02*
X0419902Y0139529D01*
X0419902Y0139921D02*
X0322092Y0139921D01*
X0322092Y0140313D02*
X0419902Y0140313D01*
X0419902Y0140705D02*
X0322092Y0140705D01*
X0322092Y0141098D02*
X0419902Y0141098D01*
X0419902Y0141490D02*
X0322092Y0141490D01*
X0322092Y0141882D02*
X0419902Y0141882D01*
X0419902Y0142274D02*
X0322092Y0142274D01*
X0322092Y0142666D02*
X0419902Y0142666D01*
X0419902Y0143059D02*
X0322092Y0143059D01*
X0322092Y0143451D02*
X0419902Y0143451D01*
X0419902Y0143843D02*
X0322092Y0143843D01*
X0321809Y0144235D02*
X0419902Y0144235D01*
X0419902Y0144628D02*
X0321417Y0144628D01*
X0321024Y0145020D02*
X0419902Y0145020D01*
X0419902Y0145412D02*
X0320632Y0145412D01*
X0320240Y0145804D02*
X0419902Y0145804D01*
X0419902Y0146196D02*
X0319848Y0146196D01*
X0319456Y0146589D02*
X0419902Y0146589D01*
X0419902Y0146981D02*
X0319063Y0146981D01*
X0318671Y0147373D02*
X0419902Y0147373D01*
X0419902Y0147765D02*
X0318279Y0147765D01*
X0317887Y0148157D02*
X0419902Y0148157D01*
X0419902Y0148550D02*
X0317494Y0148550D01*
X0317102Y0148942D02*
X0419902Y0148942D01*
X0419902Y0149334D02*
X0316710Y0149334D01*
X0311607Y0149726D02*
X0419902Y0149726D01*
X0419902Y0150118D02*
X0311607Y0150118D01*
X0311607Y0150511D02*
X0419902Y0150511D01*
X0419902Y0150903D02*
X0311259Y0150903D01*
X0305231Y0150903D02*
X0279058Y0150903D01*
X0279058Y0151295D02*
X0419902Y0151295D01*
X0419902Y0151687D02*
X0279058Y0151687D01*
X0278783Y0152080D02*
X0419902Y0152080D01*
X0419902Y0152472D02*
X0278391Y0152472D01*
X0279058Y0150511D02*
X0304883Y0150511D01*
X0304883Y0150118D02*
X0279058Y0150118D01*
X0279058Y0149726D02*
X0304883Y0149726D01*
X0304883Y0149334D02*
X0279058Y0149334D01*
X0279058Y0148942D02*
X0304883Y0148942D01*
X0304883Y0148550D02*
X0279058Y0148550D01*
X0279058Y0148157D02*
X0304883Y0148157D01*
X0304883Y0147765D02*
X0279058Y0147765D01*
X0279058Y0147373D02*
X0304883Y0147373D01*
X0304883Y0146981D02*
X0279058Y0146981D01*
X0279058Y0146589D02*
X0304883Y0146589D01*
X0304883Y0146196D02*
X0279058Y0146196D01*
X0279058Y0145804D02*
X0304883Y0145804D01*
X0304883Y0145412D02*
X0278774Y0145412D01*
X0278382Y0145020D02*
X0304883Y0145020D01*
X0304883Y0144628D02*
X0285034Y0144628D01*
X0285357Y0144235D02*
X0305092Y0144235D01*
X0305485Y0143843D02*
X0293319Y0143843D01*
X0293711Y0143451D02*
X0298005Y0143451D01*
X0297613Y0143059D02*
X0293851Y0143059D01*
X0286872Y0143843D02*
X0285357Y0143843D01*
X0285357Y0143451D02*
X0286479Y0143451D01*
X0286339Y0143059D02*
X0285357Y0143059D01*
X0278955Y0144628D02*
X0278735Y0144628D01*
X0273009Y0145020D02*
X0073477Y0145020D01*
X0073477Y0145412D02*
X0272617Y0145412D01*
X0272333Y0145804D02*
X0073326Y0145804D01*
X0072934Y0146196D02*
X0272333Y0146196D01*
X0272333Y0146589D02*
X0028989Y0146589D01*
X0028989Y0146981D02*
X0272333Y0146981D01*
X0272333Y0147373D02*
X0028989Y0147373D01*
X0028989Y0147765D02*
X0272333Y0147765D01*
X0272333Y0148157D02*
X0028989Y0148157D01*
X0028989Y0148550D02*
X0272333Y0148550D01*
X0272333Y0148942D02*
X0028989Y0148942D01*
X0028989Y0149334D02*
X0272333Y0149334D01*
X0272333Y0149726D02*
X0028989Y0149726D01*
X0028989Y0150118D02*
X0272333Y0150118D01*
X0272333Y0150511D02*
X0028989Y0150511D01*
X0028989Y0150903D02*
X0272333Y0150903D01*
X0272333Y0151295D02*
X0028989Y0151295D01*
X0028989Y0151687D02*
X0272333Y0151687D01*
X0272608Y0152080D02*
X0028989Y0152080D01*
X0028989Y0152472D02*
X0273000Y0152472D01*
X0272656Y0144628D02*
X0073477Y0144628D01*
X0073477Y0144235D02*
X0272333Y0144235D01*
X0272333Y0143843D02*
X0270415Y0143843D01*
X0270807Y0143451D02*
X0272333Y0143451D01*
X0265149Y0143843D02*
X0133108Y0143843D01*
X0132748Y0143992D02*
X0129923Y0143992D01*
X0127312Y0142911D01*
X0125314Y0140913D01*
X0124233Y0138303D01*
X0124233Y0123666D01*
X0125314Y0121056D01*
X0127312Y0119058D01*
X0129923Y0117976D01*
X0132748Y0117976D01*
X0135358Y0119058D01*
X0137356Y0121056D01*
X0138438Y0123666D01*
X0138438Y0128987D01*
X0243446Y0128987D01*
X0243446Y0127801D01*
X0244147Y0127100D01*
X0251044Y0127100D01*
X0251745Y0127801D01*
X0251745Y0132576D01*
X0254672Y0135503D01*
X0256743Y0135503D01*
X0256743Y0135429D01*
X0257444Y0134728D01*
X0262372Y0134728D01*
X0263073Y0135429D01*
X0263073Y0139571D01*
X0262372Y0140272D01*
X0257444Y0140272D01*
X0256743Y0139571D01*
X0256743Y0139497D01*
X0253018Y0139497D01*
X0248921Y0135400D01*
X0244147Y0135400D01*
X0243446Y0134698D01*
X0243446Y0132981D01*
X0138438Y0132981D01*
X0138438Y0138303D01*
X0137356Y0140913D01*
X0135358Y0142911D01*
X0132748Y0143992D01*
X0134055Y0143451D02*
X0264757Y0143451D01*
X0264617Y0143059D02*
X0135002Y0143059D01*
X0135603Y0142666D02*
X0264617Y0142666D01*
X0264617Y0142274D02*
X0135995Y0142274D01*
X0136387Y0141882D02*
X0264617Y0141882D01*
X0264617Y0141490D02*
X0136779Y0141490D01*
X0137172Y0141098D02*
X0264617Y0141098D01*
X0264617Y0140705D02*
X0137442Y0140705D01*
X0137605Y0140313D02*
X0264617Y0140313D01*
X0264617Y0139921D02*
X0262723Y0139921D01*
X0263073Y0139529D02*
X0264617Y0139529D01*
X0264650Y0139137D02*
X0263073Y0139137D01*
X0263073Y0138744D02*
X0265042Y0138744D01*
X0263073Y0138352D02*
X0272333Y0138352D01*
X0272333Y0138744D02*
X0270522Y0138744D01*
X0270914Y0139137D02*
X0272333Y0139137D01*
X0272569Y0137960D02*
X0263073Y0137960D01*
X0263073Y0137568D02*
X0272961Y0137568D01*
X0272704Y0137175D02*
X0263073Y0137175D01*
X0263073Y0136783D02*
X0272333Y0136783D01*
X0272333Y0136391D02*
X0270387Y0136391D01*
X0270779Y0135999D02*
X0272333Y0135999D01*
X0272333Y0135607D02*
X0270947Y0135607D01*
X0265177Y0136391D02*
X0263073Y0136391D01*
X0263073Y0135999D02*
X0264785Y0135999D01*
X0264617Y0135607D02*
X0263073Y0135607D01*
X0262858Y0135214D02*
X0264617Y0135214D01*
X0264617Y0134822D02*
X0262466Y0134822D01*
X0264617Y0134430D02*
X0253599Y0134430D01*
X0253207Y0134038D02*
X0264617Y0134038D01*
X0264617Y0133646D02*
X0252815Y0133646D01*
X0252422Y0133253D02*
X0264617Y0133253D01*
X0264617Y0132861D02*
X0252030Y0132861D01*
X0251745Y0132469D02*
X0264617Y0132469D01*
X0264617Y0132077D02*
X0251745Y0132077D01*
X0251745Y0131685D02*
X0264622Y0131685D01*
X0265014Y0131292D02*
X0251745Y0131292D01*
X0251745Y0130900D02*
X0272333Y0130900D01*
X0272333Y0131292D02*
X0270551Y0131292D01*
X0270943Y0131685D02*
X0272333Y0131685D01*
X0272521Y0130508D02*
X0251745Y0130508D01*
X0251745Y0130116D02*
X0272913Y0130116D01*
X0278478Y0130116D02*
X0279212Y0130116D01*
X0284777Y0130116D02*
X0288298Y0130116D01*
X0288298Y0130508D02*
X0285170Y0130508D01*
X0285357Y0130900D02*
X0288298Y0130900D01*
X0288298Y0129723D02*
X0251745Y0129723D01*
X0251745Y0129331D02*
X0288298Y0129331D01*
X0288615Y0128939D02*
X0251745Y0128939D01*
X0251745Y0128547D02*
X0289007Y0128547D01*
X0289399Y0128155D02*
X0251745Y0128155D01*
X0251706Y0127762D02*
X0289792Y0127762D01*
X0290184Y0127370D02*
X0251313Y0127370D01*
X0243877Y0127370D02*
X0138438Y0127370D01*
X0138438Y0126978D02*
X0290576Y0126978D01*
X0290333Y0126586D02*
X0138438Y0126586D01*
X0138438Y0126194D02*
X0289941Y0126194D01*
X0289696Y0125801D02*
X0138438Y0125801D01*
X0138438Y0125409D02*
X0289696Y0125409D01*
X0289696Y0125017D02*
X0138438Y0125017D01*
X0138438Y0124625D02*
X0289696Y0124625D01*
X0289696Y0124232D02*
X0138438Y0124232D01*
X0138438Y0123840D02*
X0164369Y0123840D01*
X0163977Y0123448D02*
X0138347Y0123448D01*
X0138185Y0123056D02*
X0163839Y0123056D01*
X0163839Y0122664D02*
X0138022Y0122664D01*
X0137860Y0122271D02*
X0163839Y0122271D01*
X0163839Y0121879D02*
X0137698Y0121879D01*
X0137535Y0121487D02*
X0163839Y0121487D01*
X0163839Y0121095D02*
X0137373Y0121095D01*
X0137003Y0120703D02*
X0163839Y0120703D01*
X0163839Y0120310D02*
X0136611Y0120310D01*
X0136219Y0119918D02*
X0163839Y0119918D01*
X0163839Y0119526D02*
X0135827Y0119526D01*
X0135435Y0119134D02*
X0163839Y0119134D01*
X0163839Y0118742D02*
X0134595Y0118742D01*
X0133648Y0118349D02*
X0163839Y0118349D01*
X0163871Y0117957D02*
X0117179Y0117957D01*
X0116787Y0118349D02*
X0129022Y0118349D01*
X0128075Y0118742D02*
X0116395Y0118742D01*
X0116003Y0119134D02*
X0127236Y0119134D01*
X0126844Y0119526D02*
X0115610Y0119526D01*
X0115218Y0119918D02*
X0126452Y0119918D01*
X0126059Y0120310D02*
X0114826Y0120310D01*
X0114434Y0120703D02*
X0125667Y0120703D01*
X0125298Y0121095D02*
X0105142Y0121095D01*
X0104980Y0121487D02*
X0125135Y0121487D01*
X0124973Y0121879D02*
X0104655Y0121879D01*
X0104263Y0122271D02*
X0124811Y0122271D01*
X0124648Y0122664D02*
X0103871Y0122664D01*
X0103074Y0123056D02*
X0124486Y0123056D01*
X0124323Y0123448D02*
X0092938Y0123448D01*
X0092546Y0123840D02*
X0124233Y0123840D01*
X0124233Y0124232D02*
X0092154Y0124232D01*
X0091762Y0124625D02*
X0124233Y0124625D01*
X0124233Y0125017D02*
X0091369Y0125017D01*
X0090977Y0125409D02*
X0124233Y0125409D01*
X0124233Y0125801D02*
X0090585Y0125801D01*
X0090193Y0126194D02*
X0124233Y0126194D01*
X0124233Y0126586D02*
X0089801Y0126586D01*
X0089408Y0126978D02*
X0124233Y0126978D01*
X0124233Y0127370D02*
X0089016Y0127370D01*
X0088624Y0127762D02*
X0124233Y0127762D01*
X0124233Y0128155D02*
X0088232Y0128155D01*
X0087839Y0128547D02*
X0124233Y0128547D01*
X0124233Y0128939D02*
X0087447Y0128939D01*
X0087055Y0129331D02*
X0124233Y0129331D01*
X0124233Y0129723D02*
X0086663Y0129723D01*
X0086271Y0130116D02*
X0124233Y0130116D01*
X0124233Y0130508D02*
X0085878Y0130508D01*
X0085486Y0130900D02*
X0124233Y0130900D01*
X0124233Y0131292D02*
X0085094Y0131292D01*
X0084702Y0131685D02*
X0124233Y0131685D01*
X0124233Y0132077D02*
X0084310Y0132077D01*
X0083917Y0132469D02*
X0124233Y0132469D01*
X0124233Y0132861D02*
X0083525Y0132861D01*
X0083133Y0133253D02*
X0124233Y0133253D01*
X0124233Y0133646D02*
X0082741Y0133646D01*
X0082348Y0134038D02*
X0124233Y0134038D01*
X0124233Y0134430D02*
X0081956Y0134430D01*
X0081564Y0134822D02*
X0124233Y0134822D01*
X0124233Y0135214D02*
X0081172Y0135214D01*
X0080780Y0135607D02*
X0124233Y0135607D01*
X0124233Y0135999D02*
X0080387Y0135999D01*
X0079995Y0136391D02*
X0124233Y0136391D01*
X0124233Y0136783D02*
X0079603Y0136783D01*
X0079211Y0137175D02*
X0124233Y0137175D01*
X0124233Y0137568D02*
X0078819Y0137568D01*
X0078426Y0137960D02*
X0124233Y0137960D01*
X0124253Y0138352D02*
X0078034Y0138352D01*
X0077642Y0138744D02*
X0124416Y0138744D01*
X0124578Y0139137D02*
X0077250Y0139137D01*
X0076858Y0139529D02*
X0124741Y0139529D01*
X0124903Y0139921D02*
X0076465Y0139921D01*
X0076073Y0140313D02*
X0125066Y0140313D01*
X0125228Y0140705D02*
X0075681Y0140705D01*
X0075289Y0141098D02*
X0125499Y0141098D01*
X0125891Y0141490D02*
X0074896Y0141490D01*
X0074504Y0141882D02*
X0126283Y0141882D01*
X0126676Y0142274D02*
X0074112Y0142274D01*
X0073720Y0142666D02*
X0127068Y0142666D01*
X0127669Y0143059D02*
X0073477Y0143059D01*
X0073477Y0143451D02*
X0128616Y0143451D01*
X0129563Y0143843D02*
X0073477Y0143843D01*
X0073736Y0137568D02*
X0073076Y0137568D01*
X0074129Y0137175D02*
X0028989Y0137175D01*
X0028989Y0136783D02*
X0074521Y0136783D01*
X0074913Y0136391D02*
X0028989Y0136391D01*
X0028989Y0135999D02*
X0075305Y0135999D01*
X0075697Y0135607D02*
X0028989Y0135607D01*
X0028989Y0135214D02*
X0076090Y0135214D01*
X0076482Y0134822D02*
X0028989Y0134822D01*
X0028989Y0134430D02*
X0076874Y0134430D01*
X0077266Y0134038D02*
X0028989Y0134038D01*
X0028989Y0133646D02*
X0077658Y0133646D01*
X0078051Y0133253D02*
X0028989Y0133253D01*
X0028989Y0132861D02*
X0078443Y0132861D01*
X0078835Y0132469D02*
X0028989Y0132469D01*
X0028989Y0132077D02*
X0079227Y0132077D01*
X0079620Y0131685D02*
X0028989Y0131685D01*
X0028989Y0131292D02*
X0080012Y0131292D01*
X0080404Y0130900D02*
X0028989Y0130900D01*
X0028989Y0130508D02*
X0080796Y0130508D01*
X0081188Y0130116D02*
X0028989Y0130116D01*
X0028989Y0129723D02*
X0081581Y0129723D01*
X0081973Y0129331D02*
X0028989Y0129331D01*
X0028989Y0128939D02*
X0082365Y0128939D01*
X0082757Y0128547D02*
X0028989Y0128547D01*
X0028989Y0128155D02*
X0083149Y0128155D01*
X0083542Y0127762D02*
X0028989Y0127762D01*
X0028989Y0127370D02*
X0083934Y0127370D01*
X0084326Y0126978D02*
X0028989Y0126978D01*
X0028989Y0126586D02*
X0084718Y0126586D01*
X0085110Y0126194D02*
X0028989Y0126194D01*
X0028989Y0125801D02*
X0085503Y0125801D01*
X0085895Y0125409D02*
X0028989Y0125409D01*
X0028989Y0125017D02*
X0086287Y0125017D01*
X0086679Y0124625D02*
X0028989Y0124625D01*
X0028989Y0124232D02*
X0087072Y0124232D01*
X0087464Y0123840D02*
X0028989Y0123840D01*
X0028989Y0123448D02*
X0087856Y0123448D01*
X0088248Y0123056D02*
X0028989Y0123056D01*
X0028989Y0122664D02*
X0088640Y0122664D01*
X0089033Y0122271D02*
X0028989Y0122271D01*
X0028989Y0121879D02*
X0089425Y0121879D01*
X0089817Y0121487D02*
X0028989Y0121487D01*
X0028989Y0121095D02*
X0090209Y0121095D01*
X0090601Y0120703D02*
X0028989Y0120703D01*
X0028989Y0120310D02*
X0090994Y0120310D01*
X0091359Y0119918D02*
X0028989Y0119918D01*
X0028989Y0119526D02*
X0091359Y0119526D01*
X0091359Y0119134D02*
X0028989Y0119134D01*
X0028989Y0118742D02*
X0091359Y0118742D01*
X0091391Y0118349D02*
X0028989Y0118349D01*
X0028989Y0117957D02*
X0091553Y0117957D01*
X0091716Y0117565D02*
X0028989Y0117565D01*
X0028989Y0117173D02*
X0091878Y0117173D01*
X0092112Y0116780D02*
X0028989Y0116780D01*
X0028989Y0116388D02*
X0092504Y0116388D01*
X0092896Y0115996D02*
X0028989Y0115996D01*
X0028989Y0115604D02*
X0093473Y0115604D01*
X0094419Y0115212D02*
X0028989Y0115212D01*
X0028989Y0114819D02*
X0115235Y0114819D01*
X0115627Y0114427D02*
X0028989Y0114427D01*
X0028989Y0114035D02*
X0116019Y0114035D01*
X0116411Y0113643D02*
X0028989Y0113643D01*
X0028989Y0113251D02*
X0094319Y0113251D01*
X0093372Y0112858D02*
X0028989Y0112858D01*
X0028989Y0112466D02*
X0092854Y0112466D01*
X0092462Y0112074D02*
X0028989Y0112074D01*
X0028989Y0111682D02*
X0092070Y0111682D01*
X0091861Y0111289D02*
X0028989Y0111289D01*
X0028989Y0110897D02*
X0091699Y0110897D01*
X0091536Y0110505D02*
X0028989Y0110505D01*
X0028989Y0110113D02*
X0091374Y0110113D01*
X0091359Y0109721D02*
X0028989Y0109721D01*
X0028989Y0109328D02*
X0091359Y0109328D01*
X0091359Y0108936D02*
X0028989Y0108936D01*
X0028989Y0108544D02*
X0091098Y0108544D01*
X0090706Y0108152D02*
X0028989Y0108152D01*
X0028989Y0107760D02*
X0090314Y0107760D01*
X0089921Y0107367D02*
X0028989Y0107367D01*
X0028989Y0106975D02*
X0089529Y0106975D01*
X0089137Y0106583D02*
X0028989Y0106583D01*
X0028989Y0106191D02*
X0088745Y0106191D01*
X0088353Y0105799D02*
X0028989Y0105799D01*
X0028989Y0105406D02*
X0087960Y0105406D01*
X0087568Y0105014D02*
X0028989Y0105014D01*
X0028989Y0104622D02*
X0087176Y0104622D01*
X0086784Y0104230D02*
X0028989Y0104230D01*
X0028989Y0103837D02*
X0086391Y0103837D01*
X0085999Y0103445D02*
X0028989Y0103445D01*
X0028989Y0103053D02*
X0085607Y0103053D01*
X0085215Y0102661D02*
X0028989Y0102661D01*
X0028989Y0102269D02*
X0084823Y0102269D01*
X0084430Y0101876D02*
X0028989Y0101876D01*
X0028989Y0101484D02*
X0084038Y0101484D01*
X0083646Y0101092D02*
X0028989Y0101092D01*
X0028989Y0100700D02*
X0083254Y0100700D01*
X0082862Y0100308D02*
X0028989Y0100308D01*
X0028989Y0099915D02*
X0082469Y0099915D01*
X0082077Y0099523D02*
X0028989Y0099523D01*
X0028989Y0099131D02*
X0054185Y0099131D01*
X0053793Y0098739D02*
X0028989Y0098739D01*
X0028989Y0098346D02*
X0053400Y0098346D01*
X0053008Y0097954D02*
X0028989Y0097954D01*
X0028989Y0097562D02*
X0052616Y0097562D01*
X0052224Y0097170D02*
X0028989Y0097170D01*
X0028989Y0096778D02*
X0051832Y0096778D01*
X0051439Y0096385D02*
X0028989Y0096385D01*
X0028989Y0095993D02*
X0051047Y0095993D01*
X0050655Y0095601D02*
X0028989Y0095601D01*
X0028989Y0095209D02*
X0050263Y0095209D01*
X0049871Y0094817D02*
X0028989Y0094817D01*
X0028989Y0094424D02*
X0049478Y0094424D01*
X0049086Y0094032D02*
X0028989Y0094032D01*
X0028989Y0093640D02*
X0048694Y0093640D01*
X0048302Y0093248D02*
X0028989Y0093248D01*
X0028989Y0092856D02*
X0047910Y0092856D01*
X0047517Y0092463D02*
X0028989Y0092463D01*
X0028989Y0092071D02*
X0047452Y0092071D01*
X0047452Y0091679D02*
X0028989Y0091679D01*
X0028989Y0091287D02*
X0047452Y0091287D01*
X0047452Y0090894D02*
X0028989Y0090894D01*
X0028989Y0090502D02*
X0047452Y0090502D01*
X0047452Y0090110D02*
X0028989Y0090110D01*
X0028989Y0089718D02*
X0047452Y0089718D01*
X0047452Y0089326D02*
X0028989Y0089326D01*
X0028989Y0088933D02*
X0045072Y0088933D01*
X0044705Y0088541D02*
X0028989Y0088541D01*
X0028989Y0088149D02*
X0044705Y0088149D01*
X0044705Y0087757D02*
X0028989Y0087757D01*
X0028989Y0087365D02*
X0044705Y0087365D01*
X0044705Y0086972D02*
X0028989Y0086972D01*
X0028989Y0086580D02*
X0044705Y0086580D01*
X0044705Y0086188D02*
X0028989Y0086188D01*
X0028989Y0085796D02*
X0044705Y0085796D01*
X0044705Y0085403D02*
X0028989Y0085403D01*
X0028989Y0085011D02*
X0044705Y0085011D01*
X0044705Y0084619D02*
X0028989Y0084619D01*
X0028989Y0084227D02*
X0044705Y0084227D01*
X0044705Y0083835D02*
X0028989Y0083835D01*
X0028989Y0083442D02*
X0044705Y0083442D01*
X0044705Y0083050D02*
X0028989Y0083050D01*
X0028989Y0082658D02*
X0044705Y0082658D01*
X0044705Y0082266D02*
X0028989Y0082266D01*
X0028989Y0081874D02*
X0044705Y0081874D01*
X0044705Y0081481D02*
X0028989Y0081481D01*
X0028989Y0081089D02*
X0044705Y0081089D01*
X0044891Y0080697D02*
X0028989Y0080697D01*
X0028989Y0080305D02*
X0045283Y0080305D01*
X0053215Y0080305D02*
X0064968Y0080305D01*
X0064576Y0080697D02*
X0053607Y0080697D01*
X0053792Y0081089D02*
X0064390Y0081089D01*
X0064390Y0081481D02*
X0053792Y0081481D01*
X0053792Y0081874D02*
X0064390Y0081874D01*
X0064390Y0082266D02*
X0053792Y0082266D01*
X0053792Y0082658D02*
X0064390Y0082658D01*
X0064390Y0083050D02*
X0053792Y0083050D01*
X0053792Y0083442D02*
X0064390Y0083442D01*
X0064390Y0083835D02*
X0053792Y0083835D01*
X0053792Y0084227D02*
X0064390Y0084227D01*
X0064390Y0084619D02*
X0053792Y0084619D01*
X0053792Y0085011D02*
X0064390Y0085011D01*
X0064390Y0085403D02*
X0053792Y0085403D01*
X0053792Y0085796D02*
X0064390Y0085796D01*
X0064390Y0086188D02*
X0053792Y0086188D01*
X0053792Y0086580D02*
X0064390Y0086580D01*
X0064390Y0086972D02*
X0053792Y0086972D01*
X0053792Y0087365D02*
X0064390Y0087365D01*
X0064390Y0087757D02*
X0053792Y0087757D01*
X0053792Y0088149D02*
X0064390Y0088149D01*
X0064390Y0088541D02*
X0053792Y0088541D01*
X0053425Y0088933D02*
X0064757Y0088933D01*
X0067137Y0089326D02*
X0051046Y0089326D01*
X0051046Y0089718D02*
X0067137Y0089718D01*
X0067137Y0090110D02*
X0051046Y0090110D01*
X0051046Y0090502D02*
X0067137Y0090502D01*
X0067137Y0090894D02*
X0051046Y0090894D01*
X0051423Y0091287D02*
X0067137Y0091287D01*
X0067137Y0091679D02*
X0051815Y0091679D01*
X0052207Y0092071D02*
X0067137Y0092071D01*
X0067517Y0092463D02*
X0052600Y0092463D01*
X0052992Y0092856D02*
X0067910Y0092856D01*
X0068302Y0093248D02*
X0053384Y0093248D01*
X0053776Y0093640D02*
X0068694Y0093640D01*
X0069086Y0094032D02*
X0054168Y0094032D01*
X0054561Y0094424D02*
X0069478Y0094424D01*
X0069871Y0094817D02*
X0054953Y0094817D01*
X0055345Y0095209D02*
X0070263Y0095209D01*
X0071815Y0091679D02*
X0128375Y0091679D01*
X0128761Y0091287D02*
X0071423Y0091287D01*
X0071031Y0090894D02*
X0128761Y0090894D01*
X0128858Y0090502D02*
X0070731Y0090502D01*
X0070731Y0090110D02*
X0129020Y0090110D01*
X0129223Y0089718D02*
X0070731Y0089718D01*
X0070731Y0089326D02*
X0129615Y0089326D01*
X0130185Y0088933D02*
X0073110Y0088933D01*
X0073477Y0088541D02*
X0131513Y0088541D01*
X0131905Y0088149D02*
X0073477Y0088149D01*
X0073477Y0087757D02*
X0132297Y0087757D01*
X0132689Y0087365D02*
X0073477Y0087365D01*
X0073477Y0086972D02*
X0133082Y0086972D01*
X0133474Y0086580D02*
X0073477Y0086580D01*
X0073477Y0086188D02*
X0133866Y0086188D01*
X0134258Y0085796D02*
X0073477Y0085796D01*
X0073477Y0085403D02*
X0134651Y0085403D01*
X0135043Y0085011D02*
X0073477Y0085011D01*
X0073477Y0084619D02*
X0129155Y0084619D01*
X0129923Y0084937D02*
X0127312Y0083856D01*
X0125314Y0081858D01*
X0124233Y0079247D01*
X0124233Y0064611D01*
X0125314Y0062000D01*
X0127312Y0060003D01*
X0129923Y0058921D01*
X0132748Y0058921D01*
X0135358Y0060003D01*
X0137356Y0062000D01*
X0138438Y0064611D01*
X0138438Y0079247D01*
X0137356Y0081858D01*
X0135358Y0083856D01*
X0132748Y0084937D01*
X0129923Y0084937D01*
X0128208Y0084227D02*
X0073477Y0084227D01*
X0073477Y0083835D02*
X0127291Y0083835D01*
X0126899Y0083442D02*
X0073477Y0083442D01*
X0073477Y0083050D02*
X0126507Y0083050D01*
X0126114Y0082658D02*
X0073477Y0082658D01*
X0073477Y0082266D02*
X0125722Y0082266D01*
X0125330Y0081874D02*
X0073477Y0081874D01*
X0073477Y0081481D02*
X0125158Y0081481D01*
X0124996Y0081089D02*
X0073477Y0081089D01*
X0073292Y0080697D02*
X0124833Y0080697D01*
X0124671Y0080305D02*
X0072900Y0080305D01*
X0084707Y0092071D02*
X0127983Y0092071D01*
X0127591Y0092463D02*
X0085100Y0092463D01*
X0085492Y0092856D02*
X0127198Y0092856D01*
X0126806Y0093248D02*
X0085884Y0093248D01*
X0086276Y0093640D02*
X0126414Y0093640D01*
X0126022Y0094032D02*
X0086668Y0094032D01*
X0087061Y0094424D02*
X0125630Y0094424D01*
X0125237Y0094817D02*
X0087453Y0094817D01*
X0087845Y0095209D02*
X0094426Y0095209D01*
X0093479Y0095601D02*
X0088237Y0095601D01*
X0088629Y0095993D02*
X0092899Y0095993D01*
X0092507Y0096385D02*
X0089022Y0096385D01*
X0089414Y0096778D02*
X0092114Y0096778D01*
X0091879Y0097170D02*
X0089806Y0097170D01*
X0083155Y0095601D02*
X0055737Y0095601D01*
X0028989Y0079913D02*
X0124508Y0079913D01*
X0124346Y0079520D02*
X0028989Y0079520D01*
X0028989Y0079128D02*
X0124233Y0079128D01*
X0124233Y0078736D02*
X0028989Y0078736D01*
X0028989Y0078344D02*
X0124233Y0078344D01*
X0124233Y0077951D02*
X0028989Y0077951D01*
X0028989Y0077559D02*
X0124233Y0077559D01*
X0124233Y0077167D02*
X0028989Y0077167D01*
X0028989Y0076775D02*
X0124233Y0076775D01*
X0124233Y0076383D02*
X0028989Y0076383D01*
X0028989Y0075990D02*
X0124233Y0075990D01*
X0124233Y0075598D02*
X0028989Y0075598D01*
X0028989Y0075206D02*
X0124233Y0075206D01*
X0124233Y0074814D02*
X0028989Y0074814D01*
X0028989Y0074422D02*
X0124233Y0074422D01*
X0124233Y0074029D02*
X0028989Y0074029D01*
X0028989Y0073637D02*
X0124233Y0073637D01*
X0124233Y0073245D02*
X0028989Y0073245D01*
X0028989Y0072853D02*
X0124233Y0072853D01*
X0124233Y0072460D02*
X0028989Y0072460D01*
X0028989Y0072068D02*
X0124233Y0072068D01*
X0124233Y0071676D02*
X0028989Y0071676D01*
X0028989Y0071284D02*
X0124233Y0071284D01*
X0124233Y0070892D02*
X0028989Y0070892D01*
X0028989Y0070499D02*
X0124233Y0070499D01*
X0124233Y0070107D02*
X0028989Y0070107D01*
X0028989Y0069715D02*
X0124233Y0069715D01*
X0124233Y0069323D02*
X0028989Y0069323D01*
X0028989Y0068931D02*
X0124233Y0068931D01*
X0124233Y0068538D02*
X0028989Y0068538D01*
X0028989Y0068146D02*
X0124233Y0068146D01*
X0124233Y0067754D02*
X0028989Y0067754D01*
X0028989Y0067362D02*
X0124233Y0067362D01*
X0124233Y0066970D02*
X0028989Y0066970D01*
X0028989Y0066577D02*
X0124233Y0066577D01*
X0124233Y0066185D02*
X0028989Y0066185D01*
X0028989Y0065793D02*
X0124233Y0065793D01*
X0124233Y0065401D02*
X0028989Y0065401D01*
X0028989Y0065008D02*
X0124233Y0065008D01*
X0124233Y0064616D02*
X0028989Y0064616D01*
X0028989Y0064224D02*
X0124393Y0064224D01*
X0124556Y0063832D02*
X0028989Y0063832D01*
X0028989Y0063440D02*
X0124718Y0063440D01*
X0124881Y0063047D02*
X0028989Y0063047D01*
X0028989Y0062655D02*
X0125043Y0062655D01*
X0125205Y0062263D02*
X0028989Y0062263D01*
X0028989Y0061871D02*
X0125444Y0061871D01*
X0125836Y0061479D02*
X0028989Y0061479D01*
X0028989Y0061086D02*
X0126228Y0061086D01*
X0126621Y0060694D02*
X0028989Y0060694D01*
X0028989Y0060302D02*
X0127013Y0060302D01*
X0127536Y0059910D02*
X0028989Y0059910D01*
X0028989Y0059517D02*
X0128483Y0059517D01*
X0129430Y0059125D02*
X0028989Y0059125D01*
X0028989Y0058733D02*
X0160405Y0058733D01*
X0160405Y0058341D02*
X0028989Y0058341D01*
X0028989Y0057949D02*
X0160405Y0057949D01*
X0160405Y0057556D02*
X0028989Y0057556D01*
X0028989Y0057164D02*
X0160405Y0057164D01*
X0160405Y0056772D02*
X0028989Y0056772D01*
X0028989Y0056380D02*
X0160405Y0056380D01*
X0160405Y0055988D02*
X0028989Y0055988D01*
X0028989Y0055595D02*
X0160405Y0055595D01*
X0160405Y0055203D02*
X0028989Y0055203D01*
X0028989Y0054811D02*
X0160405Y0054811D01*
X0160405Y0054419D02*
X0028989Y0054419D01*
X0028989Y0054027D02*
X0160405Y0054027D01*
X0160405Y0053634D02*
X0028989Y0053634D01*
X0028989Y0053242D02*
X0160405Y0053242D01*
X0160405Y0052850D02*
X0028989Y0052850D01*
X0028989Y0052458D02*
X0160405Y0052458D01*
X0160405Y0052065D02*
X0028989Y0052065D01*
X0028989Y0051673D02*
X0160405Y0051673D01*
X0160405Y0051281D02*
X0028989Y0051281D01*
X0028989Y0050889D02*
X0160405Y0050889D01*
X0160405Y0050497D02*
X0028989Y0050497D01*
X0028989Y0050104D02*
X0160405Y0050104D01*
X0160405Y0049712D02*
X0028989Y0049712D01*
X0028989Y0049320D02*
X0160405Y0049320D01*
X0160405Y0048928D02*
X0028989Y0048928D01*
X0028989Y0048536D02*
X0160405Y0048536D01*
X0160405Y0048143D02*
X0028989Y0048143D01*
X0028989Y0047751D02*
X0160405Y0047751D01*
X0160405Y0047359D02*
X0028989Y0047359D01*
X0028989Y0046967D02*
X0160405Y0046967D01*
X0160405Y0046574D02*
X0028989Y0046574D01*
X0028989Y0046182D02*
X0160405Y0046182D01*
X0160405Y0045790D02*
X0028989Y0045790D01*
X0028989Y0045398D02*
X0160405Y0045398D01*
X0160405Y0045006D02*
X0028989Y0045006D01*
X0028989Y0044613D02*
X0160405Y0044613D01*
X0160405Y0044221D02*
X0028989Y0044221D01*
X0028989Y0043829D02*
X0160405Y0043829D01*
X0160405Y0043437D02*
X0028989Y0043437D01*
X0028989Y0043045D02*
X0160405Y0043045D01*
X0160405Y0042652D02*
X0028989Y0042652D01*
X0028989Y0042260D02*
X0160405Y0042260D01*
X0160405Y0041868D02*
X0028989Y0041868D01*
X0028989Y0041476D02*
X0160405Y0041476D01*
X0160405Y0041084D02*
X0028989Y0041084D01*
X0028989Y0040691D02*
X0160405Y0040691D01*
X0160405Y0040299D02*
X0028989Y0040299D01*
X0028989Y0039907D02*
X0160405Y0039907D01*
X0160405Y0039515D02*
X0028989Y0039515D01*
X0028989Y0039122D02*
X0160405Y0039122D01*
X0160405Y0038730D02*
X0028989Y0038730D01*
X0028989Y0038338D02*
X0160405Y0038338D01*
X0160405Y0037946D02*
X0028989Y0037946D01*
X0028989Y0037554D02*
X0160405Y0037554D01*
X0160405Y0037161D02*
X0028989Y0037161D01*
X0028989Y0036769D02*
X0160405Y0036769D01*
X0160405Y0036377D02*
X0028989Y0036377D01*
X0028989Y0035985D02*
X0160405Y0035985D01*
X0160405Y0035593D02*
X0028989Y0035593D01*
X0028989Y0035200D02*
X0160405Y0035200D01*
X0160405Y0034808D02*
X0028989Y0034808D01*
X0028998Y0034416D02*
X0160405Y0034416D01*
X0160405Y0034024D02*
X0029028Y0034024D01*
X0029059Y0033631D02*
X0160405Y0033631D01*
X0160405Y0033239D02*
X0029090Y0033239D01*
X0029134Y0032847D02*
X0160405Y0032847D01*
X0160405Y0032455D02*
X0029261Y0032455D01*
X0029388Y0032063D02*
X0160405Y0032063D01*
X0160405Y0031670D02*
X0029516Y0031670D01*
X0029643Y0031278D02*
X0160405Y0031278D01*
X0160405Y0030886D02*
X0029771Y0030886D01*
X0029898Y0030494D02*
X0160405Y0030494D01*
X0160405Y0030102D02*
X0030026Y0030102D01*
X0030189Y0029709D02*
X0160405Y0029709D01*
X0160405Y0029317D02*
X0030474Y0029317D01*
X0030759Y0028925D02*
X0160405Y0028925D01*
X0160405Y0028533D02*
X0031044Y0028533D01*
X0031329Y0028141D02*
X0160405Y0028141D01*
X0160405Y0027748D02*
X0031614Y0027748D01*
X0031899Y0027356D02*
X0160405Y0027356D01*
X0160405Y0026964D02*
X0032312Y0026964D01*
X0032852Y0026572D02*
X0160405Y0026572D01*
X0160405Y0026179D02*
X0033392Y0026179D01*
X0033931Y0025787D02*
X0160405Y0025787D01*
X0163998Y0025787D02*
X0168017Y0025787D01*
X0168409Y0025395D02*
X0163998Y0025395D01*
X0163998Y0025003D02*
X0168801Y0025003D01*
X0169193Y0024611D02*
X0163998Y0024611D01*
X0163998Y0024218D02*
X0169586Y0024218D01*
X0169978Y0023826D02*
X0163998Y0023826D01*
X0164184Y0023434D02*
X0170219Y0023434D01*
X0169611Y0023042D02*
X0164792Y0023042D01*
X0165184Y0022650D02*
X0169219Y0022650D01*
X0168827Y0022257D02*
X0165576Y0022257D01*
X0165823Y0021865D02*
X0168580Y0021865D01*
X0168418Y0021473D02*
X0165985Y0021473D01*
X0166147Y0021081D02*
X0168255Y0021081D01*
X0168093Y0020688D02*
X0166310Y0020688D01*
X0166351Y0020296D02*
X0168052Y0020296D01*
X0168052Y0019904D02*
X0166351Y0019904D01*
X0166351Y0019512D02*
X0168052Y0019512D01*
X0168052Y0019120D02*
X0166351Y0019120D01*
X0166351Y0018727D02*
X0168052Y0018727D01*
X0168052Y0018335D02*
X0166351Y0018335D01*
X0166351Y0017943D02*
X0168052Y0017943D01*
X0168052Y0017551D02*
X0166351Y0017551D01*
X0166351Y0017159D02*
X0168052Y0017159D01*
X0168052Y0016766D02*
X0166351Y0016766D01*
X0166351Y0016374D02*
X0168052Y0016374D01*
X0168052Y0015982D02*
X0166351Y0015982D01*
X0166351Y0015590D02*
X0168052Y0015590D01*
X0168052Y0015198D02*
X0166351Y0015198D01*
X0166351Y0014805D02*
X0168052Y0014805D01*
X0168052Y0014413D02*
X0166351Y0014413D01*
X0166351Y0014021D02*
X0168052Y0014021D01*
X0168052Y0013629D02*
X0166351Y0013629D01*
X0166351Y0013236D02*
X0168052Y0013236D01*
X0168130Y0012844D02*
X0166273Y0012844D01*
X0166110Y0012452D02*
X0168292Y0012452D01*
X0168455Y0012060D02*
X0165948Y0012060D01*
X0165786Y0011668D02*
X0168617Y0011668D01*
X0168916Y0011275D02*
X0165487Y0011275D01*
X0165095Y0010883D02*
X0169308Y0010883D01*
X0169700Y0010491D02*
X0164703Y0010491D01*
X0163969Y0010099D02*
X0170434Y0010099D01*
X0173969Y0010099D02*
X0180434Y0010099D01*
X0179700Y0010491D02*
X0174703Y0010491D01*
X0175095Y0010883D02*
X0179308Y0010883D01*
X0178916Y0011275D02*
X0175487Y0011275D01*
X0175786Y0011668D02*
X0178617Y0011668D01*
X0178455Y0012060D02*
X0175948Y0012060D01*
X0176110Y0012452D02*
X0178292Y0012452D01*
X0178130Y0012844D02*
X0176273Y0012844D01*
X0176351Y0013236D02*
X0178052Y0013236D01*
X0178052Y0013629D02*
X0176351Y0013629D01*
X0176351Y0014021D02*
X0178052Y0014021D01*
X0178052Y0014413D02*
X0176351Y0014413D01*
X0176351Y0014805D02*
X0178052Y0014805D01*
X0178052Y0015198D02*
X0176351Y0015198D01*
X0176351Y0015590D02*
X0178052Y0015590D01*
X0178052Y0015982D02*
X0176351Y0015982D01*
X0176351Y0016374D02*
X0178052Y0016374D01*
X0178052Y0016766D02*
X0176351Y0016766D01*
X0176351Y0017159D02*
X0178052Y0017159D01*
X0178052Y0017551D02*
X0176351Y0017551D01*
X0176351Y0017943D02*
X0178052Y0017943D01*
X0178052Y0018335D02*
X0176351Y0018335D01*
X0176351Y0018727D02*
X0178052Y0018727D01*
X0178052Y0019120D02*
X0176351Y0019120D01*
X0176351Y0019512D02*
X0178052Y0019512D01*
X0178052Y0019904D02*
X0176351Y0019904D01*
X0176351Y0020296D02*
X0178052Y0020296D01*
X0178093Y0020688D02*
X0176310Y0020688D01*
X0176147Y0021081D02*
X0177723Y0021081D01*
X0177331Y0021473D02*
X0175985Y0021473D01*
X0175823Y0021865D02*
X0176939Y0021865D01*
X0176547Y0022257D02*
X0175576Y0022257D01*
X0175184Y0022650D02*
X0176154Y0022650D01*
X0175762Y0023042D02*
X0174792Y0023042D01*
X0175370Y0023434D02*
X0174184Y0023434D01*
X0173998Y0023826D02*
X0174978Y0023826D01*
X0174586Y0024218D02*
X0173998Y0024218D01*
X0173998Y0024611D02*
X0174193Y0024611D01*
X0176922Y0026964D02*
X0188715Y0026964D01*
X0188323Y0027356D02*
X0176530Y0027356D01*
X0176138Y0027748D02*
X0187931Y0027748D01*
X0187538Y0028141D02*
X0175746Y0028141D01*
X0175354Y0028533D02*
X0187146Y0028533D01*
X0186754Y0028925D02*
X0174961Y0028925D01*
X0174569Y0029317D02*
X0186362Y0029317D01*
X0185970Y0029709D02*
X0174177Y0029709D01*
X0173785Y0030102D02*
X0185577Y0030102D01*
X0185185Y0030494D02*
X0173392Y0030494D01*
X0173000Y0030886D02*
X0184793Y0030886D01*
X0184401Y0031278D02*
X0172608Y0031278D01*
X0172216Y0031670D02*
X0184009Y0031670D01*
X0183616Y0032063D02*
X0171824Y0032063D01*
X0171431Y0032455D02*
X0183224Y0032455D01*
X0182832Y0032847D02*
X0171039Y0032847D01*
X0170647Y0033239D02*
X0182440Y0033239D01*
X0182048Y0033631D02*
X0170255Y0033631D01*
X0170017Y0034024D02*
X0182048Y0034024D01*
X0182048Y0034416D02*
X0170017Y0034416D01*
X0170017Y0034808D02*
X0182048Y0034808D01*
X0182048Y0035200D02*
X0170017Y0035200D01*
X0170017Y0035593D02*
X0182048Y0035593D01*
X0182048Y0035985D02*
X0170017Y0035985D01*
X0170017Y0036377D02*
X0182048Y0036377D01*
X0182048Y0036769D02*
X0170017Y0036769D01*
X0170017Y0037161D02*
X0182048Y0037161D01*
X0182048Y0037554D02*
X0170017Y0037554D01*
X0170017Y0037946D02*
X0182048Y0037946D01*
X0182048Y0038338D02*
X0170017Y0038338D01*
X0170017Y0038730D02*
X0182048Y0038730D01*
X0182048Y0039122D02*
X0170017Y0039122D01*
X0170017Y0039515D02*
X0182048Y0039515D01*
X0182048Y0039907D02*
X0170017Y0039907D01*
X0170017Y0040299D02*
X0182048Y0040299D01*
X0182048Y0040691D02*
X0170017Y0040691D01*
X0170017Y0041084D02*
X0182048Y0041084D01*
X0182048Y0041476D02*
X0170017Y0041476D01*
X0170017Y0041868D02*
X0182048Y0041868D01*
X0182048Y0042260D02*
X0170017Y0042260D01*
X0170017Y0042652D02*
X0182048Y0042652D01*
X0182048Y0043045D02*
X0170017Y0043045D01*
X0170017Y0043437D02*
X0182048Y0043437D01*
X0182048Y0043829D02*
X0170017Y0043829D01*
X0170017Y0044221D02*
X0182048Y0044221D01*
X0182048Y0044613D02*
X0170017Y0044613D01*
X0170017Y0045006D02*
X0182048Y0045006D01*
X0182048Y0045398D02*
X0170017Y0045398D01*
X0170017Y0045790D02*
X0182048Y0045790D01*
X0182048Y0046182D02*
X0170017Y0046182D01*
X0170017Y0046574D02*
X0182048Y0046574D01*
X0182048Y0046967D02*
X0170017Y0046967D01*
X0170017Y0047359D02*
X0182048Y0047359D01*
X0182048Y0047751D02*
X0170017Y0047751D01*
X0170017Y0048143D02*
X0182048Y0048143D01*
X0182048Y0048536D02*
X0170017Y0048536D01*
X0170017Y0048928D02*
X0182048Y0048928D01*
X0182048Y0049320D02*
X0170017Y0049320D01*
X0170017Y0049712D02*
X0182048Y0049712D01*
X0182048Y0050104D02*
X0170017Y0050104D01*
X0170017Y0050497D02*
X0182048Y0050497D01*
X0182048Y0050889D02*
X0170017Y0050889D01*
X0170017Y0051281D02*
X0182048Y0051281D01*
X0182048Y0051673D02*
X0170017Y0051673D01*
X0170017Y0052065D02*
X0182048Y0052065D01*
X0182048Y0052458D02*
X0170017Y0052458D01*
X0170017Y0052850D02*
X0182048Y0052850D01*
X0182048Y0053242D02*
X0170017Y0053242D01*
X0170017Y0053634D02*
X0182048Y0053634D01*
X0182048Y0054027D02*
X0170017Y0054027D01*
X0170017Y0054419D02*
X0182048Y0054419D01*
X0182048Y0054811D02*
X0170017Y0054811D01*
X0170017Y0055203D02*
X0182048Y0055203D01*
X0182048Y0055595D02*
X0170017Y0055595D01*
X0170017Y0055988D02*
X0182048Y0055988D01*
X0182048Y0056380D02*
X0170017Y0056380D01*
X0170017Y0056772D02*
X0182048Y0056772D01*
X0182048Y0057164D02*
X0170017Y0057164D01*
X0170017Y0057556D02*
X0182048Y0057556D01*
X0182378Y0057949D02*
X0170017Y0057949D01*
X0170017Y0058341D02*
X0182770Y0058341D01*
X0183162Y0058733D02*
X0170017Y0058733D01*
X0170017Y0059125D02*
X0183554Y0059125D01*
X0183946Y0059517D02*
X0170017Y0059517D01*
X0170017Y0059910D02*
X0184339Y0059910D01*
X0184731Y0060302D02*
X0170017Y0060302D01*
X0170017Y0060694D02*
X0185123Y0060694D01*
X0185515Y0061086D02*
X0170017Y0061086D01*
X0170017Y0061479D02*
X0185908Y0061479D01*
X0186300Y0061871D02*
X0170017Y0061871D01*
X0170017Y0062263D02*
X0186692Y0062263D01*
X0187084Y0062655D02*
X0170017Y0062655D01*
X0170017Y0063047D02*
X0187476Y0063047D01*
X0187869Y0063440D02*
X0170017Y0063440D01*
X0170017Y0063832D02*
X0188261Y0063832D01*
X0188653Y0064224D02*
X0170017Y0064224D01*
X0170017Y0064616D02*
X0189045Y0064616D01*
X0189437Y0065008D02*
X0170017Y0065008D01*
X0169736Y0065401D02*
X0189830Y0065401D01*
X0190222Y0065793D02*
X0169343Y0065793D01*
X0168964Y0066172D02*
X0168964Y0066172D01*
X0168951Y0066185D02*
X0190614Y0066185D01*
X0191006Y0066577D02*
X0168559Y0066577D01*
X0168167Y0066970D02*
X0191399Y0066970D01*
X0191791Y0067362D02*
X0167775Y0067362D01*
X0167382Y0067754D02*
X0192183Y0067754D01*
X0192575Y0068146D02*
X0166990Y0068146D01*
X0166598Y0068538D02*
X0192967Y0068538D01*
X0193360Y0068931D02*
X0166206Y0068931D01*
X0165813Y0069323D02*
X0193752Y0069323D01*
X0194144Y0069715D02*
X0165421Y0069715D01*
X0165029Y0070107D02*
X0194536Y0070107D01*
X0194928Y0070499D02*
X0164637Y0070499D01*
X0164245Y0070892D02*
X0195321Y0070892D01*
X0195713Y0071284D02*
X0163852Y0071284D01*
X0163460Y0071676D02*
X0196105Y0071676D01*
X0196497Y0072068D02*
X0163068Y0072068D01*
X0162676Y0072460D02*
X0196889Y0072460D01*
X0197282Y0072853D02*
X0162284Y0072853D01*
X0161891Y0073245D02*
X0197674Y0073245D01*
X0198066Y0073637D02*
X0170799Y0073637D01*
X0171191Y0074029D02*
X0203999Y0074029D01*
X0203839Y0074422D02*
X0171351Y0074422D01*
X0171351Y0074814D02*
X0203839Y0074814D01*
X0203839Y0075206D02*
X0171351Y0075206D01*
X0171351Y0075598D02*
X0203839Y0075598D01*
X0203839Y0075990D02*
X0171351Y0075990D01*
X0171351Y0076383D02*
X0203839Y0076383D01*
X0203839Y0076775D02*
X0171351Y0076775D01*
X0171351Y0077167D02*
X0203839Y0077167D01*
X0203839Y0077559D02*
X0171351Y0077559D01*
X0171351Y0077951D02*
X0203839Y0077951D01*
X0203839Y0078344D02*
X0171351Y0078344D01*
X0171351Y0078736D02*
X0203839Y0078736D01*
X0203839Y0079128D02*
X0171351Y0079128D01*
X0171342Y0079520D02*
X0203848Y0079520D01*
X0204240Y0079913D02*
X0190775Y0079913D01*
X0191167Y0080305D02*
X0191474Y0080305D01*
X0184415Y0079913D02*
X0170950Y0079913D01*
X0171167Y0080305D02*
X0171474Y0080305D01*
X0177417Y0080305D02*
X0177773Y0080305D01*
X0183716Y0080305D02*
X0184023Y0080305D01*
X0184107Y0086078D02*
X0184107Y0086805D01*
X0183406Y0087506D01*
X0178084Y0087506D01*
X0177595Y0087017D01*
X0177107Y0087506D01*
X0171784Y0087506D01*
X0171083Y0086805D01*
X0171083Y0086078D01*
X0170650Y0086512D01*
X0164540Y0086512D01*
X0163839Y0085811D01*
X0163839Y0085547D01*
X0155703Y0085547D01*
X0155309Y0085941D01*
X0154359Y0086334D01*
X0153331Y0086334D01*
X0152381Y0085941D01*
X0151654Y0085214D01*
X0151261Y0084264D01*
X0151261Y0083875D01*
X0138970Y0096166D01*
X0139359Y0096166D01*
X0140309Y0096559D01*
X0140703Y0096953D01*
X0163839Y0096953D01*
X0163839Y0095488D01*
X0164328Y0095000D01*
X0163839Y0094511D01*
X0163839Y0093247D01*
X0163560Y0093247D01*
X0163032Y0093775D01*
X0161937Y0094228D01*
X0160753Y0094228D01*
X0159658Y0093775D01*
X0158821Y0092937D01*
X0158367Y0091842D01*
X0158367Y0090658D01*
X0158821Y0089563D01*
X0159658Y0088725D01*
X0160753Y0088272D01*
X0161937Y0088272D01*
X0163032Y0088725D01*
X0163560Y0089253D01*
X0163839Y0089253D01*
X0163839Y0089189D01*
X0164540Y0088488D01*
X0170650Y0088488D01*
X0171351Y0089189D01*
X0171351Y0094511D01*
X0170863Y0095000D01*
X0171321Y0095458D01*
X0171784Y0094994D01*
X0177107Y0094994D01*
X0177595Y0095483D01*
X0178084Y0094994D01*
X0183406Y0094994D01*
X0183870Y0095458D01*
X0184540Y0094787D01*
X0190650Y0094787D01*
X0191321Y0095458D01*
X0191784Y0094994D01*
X0197107Y0094994D01*
X0197595Y0095483D01*
X0198084Y0094994D01*
X0203406Y0094994D01*
X0203870Y0095458D01*
X0204328Y0095000D01*
X0203839Y0094511D01*
X0203839Y0089189D01*
X0204540Y0088488D01*
X0210650Y0088488D01*
X0211301Y0089139D01*
X0210867Y0088092D01*
X0210867Y0086908D01*
X0211301Y0085861D01*
X0210650Y0086512D01*
X0204540Y0086512D01*
X0204107Y0086078D01*
X0204107Y0086805D01*
X0203406Y0087506D01*
X0198084Y0087506D01*
X0197595Y0087017D01*
X0197107Y0087506D01*
X0191784Y0087506D01*
X0191083Y0086805D01*
X0191083Y0086078D01*
X0190650Y0086512D01*
X0184540Y0086512D01*
X0184107Y0086078D01*
X0184107Y0086188D02*
X0184216Y0086188D01*
X0184107Y0086580D02*
X0191083Y0086580D01*
X0191083Y0086188D02*
X0190974Y0086188D01*
X0191251Y0086972D02*
X0183939Y0086972D01*
X0183547Y0087365D02*
X0191643Y0087365D01*
X0197248Y0087365D02*
X0197942Y0087365D01*
X0203547Y0087365D02*
X0210867Y0087365D01*
X0210867Y0087757D02*
X0147379Y0087757D01*
X0146987Y0088149D02*
X0210891Y0088149D01*
X0211053Y0088541D02*
X0210703Y0088541D01*
X0211095Y0088933D02*
X0211216Y0088933D01*
X0210867Y0086972D02*
X0203939Y0086972D01*
X0204107Y0086580D02*
X0211003Y0086580D01*
X0210974Y0086188D02*
X0211165Y0086188D01*
X0204216Y0086188D02*
X0204107Y0086188D01*
X0204487Y0088541D02*
X0170703Y0088541D01*
X0171095Y0088933D02*
X0204095Y0088933D01*
X0203839Y0089326D02*
X0171351Y0089326D01*
X0171351Y0089718D02*
X0203839Y0089718D01*
X0203839Y0090110D02*
X0171351Y0090110D01*
X0171351Y0090502D02*
X0203839Y0090502D01*
X0203839Y0090894D02*
X0171351Y0090894D01*
X0171351Y0091287D02*
X0203839Y0091287D01*
X0203839Y0091679D02*
X0171351Y0091679D01*
X0171351Y0092071D02*
X0203839Y0092071D01*
X0203839Y0092463D02*
X0171351Y0092463D01*
X0171351Y0092856D02*
X0203839Y0092856D01*
X0203839Y0093248D02*
X0171351Y0093248D01*
X0171351Y0093640D02*
X0203839Y0093640D01*
X0203839Y0094032D02*
X0171351Y0094032D01*
X0171351Y0094424D02*
X0203839Y0094424D01*
X0204144Y0094817D02*
X0190679Y0094817D01*
X0191071Y0095209D02*
X0191570Y0095209D01*
X0184511Y0094817D02*
X0171046Y0094817D01*
X0171071Y0095209D02*
X0171570Y0095209D01*
X0177321Y0095209D02*
X0177869Y0095209D01*
X0183621Y0095209D02*
X0184119Y0095209D01*
X0184107Y0101078D02*
X0184107Y0101805D01*
X0183406Y0102506D01*
X0178084Y0102506D01*
X0177595Y0102017D01*
X0177107Y0102506D01*
X0171784Y0102506D01*
X0171083Y0101805D01*
X0171083Y0101078D01*
X0170650Y0101512D01*
X0164540Y0101512D01*
X0163839Y0100811D01*
X0163839Y0100547D01*
X0140703Y0100547D01*
X0140309Y0100941D01*
X0139359Y0101334D01*
X0138970Y0101334D01*
X0150190Y0112554D01*
X0163839Y0112554D01*
X0163839Y0111689D01*
X0164540Y0110988D01*
X0170650Y0110988D01*
X0171083Y0111422D01*
X0171083Y0110695D01*
X0171784Y0109994D01*
X0177107Y0109994D01*
X0177595Y0110483D01*
X0178084Y0109994D01*
X0183406Y0109994D01*
X0183870Y0110458D01*
X0184540Y0109787D01*
X0190650Y0109787D01*
X0191321Y0110458D01*
X0191784Y0109994D01*
X0197107Y0109994D01*
X0197595Y0110483D01*
X0198084Y0109994D01*
X0203406Y0109994D01*
X0203870Y0110458D01*
X0204328Y0110000D01*
X0203839Y0109511D01*
X0203839Y0104189D01*
X0204540Y0103488D01*
X0210650Y0103488D01*
X0211301Y0104139D01*
X0210867Y0103092D01*
X0210867Y0101908D01*
X0211301Y0100861D01*
X0210650Y0101512D01*
X0204540Y0101512D01*
X0204107Y0101078D01*
X0204107Y0101805D01*
X0203406Y0102506D01*
X0198084Y0102506D01*
X0197595Y0102017D01*
X0197107Y0102506D01*
X0191784Y0102506D01*
X0191083Y0101805D01*
X0191083Y0101078D01*
X0190650Y0101512D01*
X0184540Y0101512D01*
X0184107Y0101078D01*
X0184107Y0101092D02*
X0184121Y0101092D01*
X0184107Y0101484D02*
X0184513Y0101484D01*
X0184035Y0101876D02*
X0191155Y0101876D01*
X0191083Y0101484D02*
X0190678Y0101484D01*
X0191070Y0101092D02*
X0191083Y0101092D01*
X0191547Y0102269D02*
X0183643Y0102269D01*
X0177846Y0102269D02*
X0177344Y0102269D01*
X0171547Y0102269D02*
X0139905Y0102269D01*
X0140297Y0102661D02*
X0210867Y0102661D01*
X0210867Y0103053D02*
X0140689Y0103053D01*
X0141081Y0103445D02*
X0211013Y0103445D01*
X0210999Y0103837D02*
X0211176Y0103837D01*
X0210867Y0102269D02*
X0203643Y0102269D01*
X0204035Y0101876D02*
X0210880Y0101876D01*
X0211043Y0101484D02*
X0210678Y0101484D01*
X0211070Y0101092D02*
X0211205Y0101092D01*
X0204513Y0101484D02*
X0204107Y0101484D01*
X0204107Y0101092D02*
X0204121Y0101092D01*
X0197846Y0102269D02*
X0197344Y0102269D01*
X0203839Y0104230D02*
X0141866Y0104230D01*
X0142258Y0104622D02*
X0203839Y0104622D01*
X0203839Y0105014D02*
X0142650Y0105014D01*
X0143043Y0105406D02*
X0203839Y0105406D01*
X0203839Y0105799D02*
X0143435Y0105799D01*
X0143827Y0106191D02*
X0203839Y0106191D01*
X0203839Y0106583D02*
X0144219Y0106583D01*
X0144611Y0106975D02*
X0203839Y0106975D01*
X0203839Y0107367D02*
X0145004Y0107367D01*
X0145396Y0107760D02*
X0203839Y0107760D01*
X0203839Y0108152D02*
X0145788Y0108152D01*
X0146180Y0108544D02*
X0203839Y0108544D01*
X0203839Y0108936D02*
X0146572Y0108936D01*
X0146965Y0109328D02*
X0203839Y0109328D01*
X0204048Y0109721D02*
X0147357Y0109721D01*
X0147749Y0110113D02*
X0171666Y0110113D01*
X0171273Y0110505D02*
X0148141Y0110505D01*
X0148534Y0110897D02*
X0171083Y0110897D01*
X0171083Y0111289D02*
X0170951Y0111289D01*
X0177225Y0110113D02*
X0177965Y0110113D01*
X0183525Y0110113D02*
X0184215Y0110113D01*
X0190975Y0110113D02*
X0191666Y0110113D01*
X0197225Y0110113D02*
X0197965Y0110113D01*
X0203525Y0110113D02*
X0204215Y0110113D01*
X0204191Y0103837D02*
X0141474Y0103837D01*
X0139513Y0101876D02*
X0171155Y0101876D01*
X0171083Y0101484D02*
X0170678Y0101484D01*
X0171070Y0101092D02*
X0171083Y0101092D01*
X0164513Y0101484D02*
X0139120Y0101484D01*
X0139944Y0101092D02*
X0164120Y0101092D01*
X0163839Y0100700D02*
X0140550Y0100700D01*
X0135999Y0103445D02*
X0131691Y0103445D01*
X0132083Y0103053D02*
X0135607Y0103053D01*
X0135215Y0102661D02*
X0132475Y0102661D01*
X0132868Y0102269D02*
X0134823Y0102269D01*
X0134430Y0101876D02*
X0133260Y0101876D01*
X0133652Y0101484D02*
X0134038Y0101484D01*
X0136391Y0103837D02*
X0131299Y0103837D01*
X0130907Y0104230D02*
X0136784Y0104230D01*
X0137176Y0104622D02*
X0130514Y0104622D01*
X0130122Y0105014D02*
X0137568Y0105014D01*
X0137960Y0105406D02*
X0129730Y0105406D01*
X0129338Y0105799D02*
X0138353Y0105799D01*
X0138745Y0106191D02*
X0128946Y0106191D01*
X0128553Y0106583D02*
X0139137Y0106583D01*
X0139529Y0106975D02*
X0128161Y0106975D01*
X0127769Y0107367D02*
X0139921Y0107367D01*
X0140314Y0107760D02*
X0127377Y0107760D01*
X0126984Y0108152D02*
X0140706Y0108152D01*
X0141098Y0108544D02*
X0126592Y0108544D01*
X0126200Y0108936D02*
X0141490Y0108936D01*
X0141882Y0109328D02*
X0125808Y0109328D01*
X0125416Y0109721D02*
X0142275Y0109721D01*
X0142667Y0110113D02*
X0125023Y0110113D01*
X0124631Y0110505D02*
X0143059Y0110505D01*
X0143451Y0110897D02*
X0124239Y0110897D01*
X0123847Y0111289D02*
X0143844Y0111289D01*
X0144236Y0111682D02*
X0123455Y0111682D01*
X0123062Y0112074D02*
X0144628Y0112074D01*
X0145020Y0112466D02*
X0122670Y0112466D01*
X0122278Y0112858D02*
X0145412Y0112858D01*
X0145805Y0113251D02*
X0121886Y0113251D01*
X0121494Y0113643D02*
X0146197Y0113643D01*
X0146589Y0114035D02*
X0121101Y0114035D01*
X0120709Y0114427D02*
X0146981Y0114427D01*
X0147373Y0114819D02*
X0120317Y0114819D01*
X0119925Y0115212D02*
X0147766Y0115212D01*
X0148158Y0115604D02*
X0119532Y0115604D01*
X0119140Y0115996D02*
X0148550Y0115996D01*
X0150102Y0112466D02*
X0163839Y0112466D01*
X0163839Y0112074D02*
X0149710Y0112074D01*
X0149318Y0111682D02*
X0163847Y0111682D01*
X0164239Y0111289D02*
X0148926Y0111289D01*
X0163839Y0116388D02*
X0118748Y0116388D01*
X0118356Y0116780D02*
X0163839Y0116780D01*
X0164000Y0117173D02*
X0117964Y0117173D01*
X0117571Y0117565D02*
X0164263Y0117565D01*
X0171351Y0122664D02*
X0289696Y0122664D01*
X0289696Y0123056D02*
X0171351Y0123056D01*
X0171214Y0123448D02*
X0289696Y0123448D01*
X0289696Y0123840D02*
X0170821Y0123840D01*
X0174398Y0122271D02*
X0289696Y0122271D01*
X0289696Y0121879D02*
X0174790Y0121879D01*
X0175182Y0121487D02*
X0289696Y0121487D01*
X0289696Y0121095D02*
X0175574Y0121095D01*
X0138438Y0127762D02*
X0243485Y0127762D01*
X0243446Y0128155D02*
X0138438Y0128155D01*
X0138438Y0128547D02*
X0243446Y0128547D01*
X0243446Y0128939D02*
X0138438Y0128939D01*
X0138438Y0133253D02*
X0243446Y0133253D01*
X0243446Y0133646D02*
X0138438Y0133646D01*
X0138438Y0134038D02*
X0243446Y0134038D01*
X0243446Y0134430D02*
X0138438Y0134430D01*
X0138438Y0134822D02*
X0243569Y0134822D01*
X0243961Y0135214D02*
X0138438Y0135214D01*
X0138438Y0135607D02*
X0249128Y0135607D01*
X0249520Y0135999D02*
X0138438Y0135999D01*
X0138438Y0136391D02*
X0249912Y0136391D01*
X0250304Y0136783D02*
X0138438Y0136783D01*
X0138438Y0137175D02*
X0250697Y0137175D01*
X0251089Y0137568D02*
X0138438Y0137568D01*
X0138438Y0137960D02*
X0251481Y0137960D01*
X0251873Y0138352D02*
X0138417Y0138352D01*
X0138255Y0138744D02*
X0252266Y0138744D01*
X0252658Y0139137D02*
X0138092Y0139137D01*
X0137930Y0139529D02*
X0256743Y0139529D01*
X0257093Y0139921D02*
X0137767Y0139921D01*
X0112881Y0117173D02*
X0105044Y0117173D01*
X0104811Y0116780D02*
X0113274Y0116780D01*
X0113666Y0116388D02*
X0104419Y0116388D01*
X0104027Y0115996D02*
X0114058Y0115996D01*
X0114450Y0115604D02*
X0103450Y0115604D01*
X0102503Y0115212D02*
X0114842Y0115212D01*
X0116803Y0113251D02*
X0102604Y0113251D01*
X0103551Y0112858D02*
X0117196Y0112858D01*
X0117588Y0112466D02*
X0104068Y0112466D01*
X0104461Y0112074D02*
X0117980Y0112074D01*
X0118372Y0111682D02*
X0104853Y0111682D01*
X0105062Y0111289D02*
X0118765Y0111289D01*
X0093848Y0123056D02*
X0093330Y0123056D01*
X0064792Y0137568D02*
X0028989Y0137568D01*
X0028989Y0137960D02*
X0064399Y0137960D01*
X0064390Y0138352D02*
X0028989Y0138352D01*
X0028989Y0138744D02*
X0064390Y0138744D01*
X0064390Y0139137D02*
X0028989Y0139137D01*
X0028989Y0139529D02*
X0064390Y0139529D01*
X0064390Y0139921D02*
X0028989Y0139921D01*
X0028989Y0140313D02*
X0064390Y0140313D01*
X0064390Y0140705D02*
X0028989Y0140705D01*
X0028989Y0141098D02*
X0064390Y0141098D01*
X0064390Y0141490D02*
X0028989Y0141490D01*
X0028989Y0141882D02*
X0064390Y0141882D01*
X0064390Y0142274D02*
X0028989Y0142274D01*
X0028989Y0142666D02*
X0064390Y0142666D01*
X0064390Y0143059D02*
X0028989Y0143059D01*
X0028989Y0143451D02*
X0064390Y0143451D01*
X0064390Y0143843D02*
X0028989Y0143843D01*
X0028989Y0144235D02*
X0064390Y0144235D01*
X0064390Y0144628D02*
X0028989Y0144628D01*
X0028989Y0145020D02*
X0064390Y0145020D01*
X0064390Y0145412D02*
X0028989Y0145412D01*
X0028989Y0145804D02*
X0064541Y0145804D01*
X0064934Y0146196D02*
X0028989Y0146196D01*
X0028989Y0152864D02*
X0419902Y0152864D01*
X0419902Y0153256D02*
X0028989Y0153256D01*
X0028989Y0153648D02*
X0419902Y0153648D01*
X0419902Y0154041D02*
X0028989Y0154041D01*
X0028989Y0154433D02*
X0419902Y0154433D01*
X0419902Y0154825D02*
X0028989Y0154825D01*
X0028989Y0155217D02*
X0419902Y0155217D01*
X0419902Y0155609D02*
X0028989Y0155609D01*
X0028989Y0156002D02*
X0419902Y0156002D01*
X0419902Y0156394D02*
X0028989Y0156394D01*
X0028989Y0156786D02*
X0419902Y0156786D01*
X0419902Y0157178D02*
X0028989Y0157178D01*
X0028989Y0157571D02*
X0419902Y0157571D01*
X0419902Y0157963D02*
X0028989Y0157963D01*
X0028989Y0158355D02*
X0419902Y0158355D01*
X0419902Y0158747D02*
X0028989Y0158747D01*
X0028989Y0159139D02*
X0419902Y0159139D01*
X0419902Y0159532D02*
X0028989Y0159532D01*
X0028989Y0159924D02*
X0419902Y0159924D01*
X0419902Y0160316D02*
X0028989Y0160316D01*
X0028989Y0160708D02*
X0419902Y0160708D01*
X0419902Y0161100D02*
X0028989Y0161100D01*
X0028989Y0161493D02*
X0419902Y0161493D01*
X0419902Y0161885D02*
X0028989Y0161885D01*
X0028989Y0162277D02*
X0419902Y0162277D01*
X0419902Y0162669D02*
X0028989Y0162669D01*
X0028989Y0163061D02*
X0419902Y0163061D01*
X0419902Y0163454D02*
X0028989Y0163454D01*
X0028989Y0163846D02*
X0419902Y0163846D01*
X0419902Y0164238D02*
X0028989Y0164238D01*
X0028989Y0164630D02*
X0419902Y0164630D01*
X0419902Y0165023D02*
X0028989Y0165023D01*
X0028989Y0165415D02*
X0419902Y0165415D01*
X0419902Y0165807D02*
X0028989Y0165807D01*
X0028989Y0166199D02*
X0419902Y0166199D01*
X0419902Y0166591D02*
X0028989Y0166591D01*
X0028989Y0166984D02*
X0419902Y0166984D01*
X0419902Y0167376D02*
X0028989Y0167376D01*
X0028989Y0167768D02*
X0419902Y0167768D01*
X0419902Y0168160D02*
X0028989Y0168160D01*
X0029002Y0168552D02*
X0419889Y0168552D01*
X0419858Y0168945D02*
X0029033Y0168945D01*
X0029064Y0169337D02*
X0419827Y0169337D01*
X0419796Y0169729D02*
X0029095Y0169729D01*
X0029151Y0170121D02*
X0419740Y0170121D01*
X0419612Y0170514D02*
X0029279Y0170514D01*
X0029406Y0170906D02*
X0419485Y0170906D01*
X0419357Y0171298D02*
X0029534Y0171298D01*
X0029661Y0171690D02*
X0419230Y0171690D01*
X0419102Y0172082D02*
X0029789Y0172082D01*
X0029916Y0172475D02*
X0418975Y0172475D01*
X0418848Y0172867D02*
X0030044Y0172867D01*
X0030229Y0173259D02*
X0418662Y0173259D01*
X0418377Y0173651D02*
X0030514Y0173651D01*
X0030799Y0174043D02*
X0418092Y0174043D01*
X0417807Y0174436D02*
X0031084Y0174436D01*
X0031369Y0174828D02*
X0417522Y0174828D01*
X0417238Y0175220D02*
X0031654Y0175220D01*
X0031938Y0175612D02*
X0416953Y0175612D01*
X0416504Y0176004D02*
X0032388Y0176004D01*
X0032927Y0176397D02*
X0415964Y0176397D01*
X0415424Y0176789D02*
X0033467Y0176789D01*
X0034007Y0177181D02*
X0414884Y0177181D01*
X0414344Y0177573D02*
X0034547Y0177573D01*
X0035593Y0177966D02*
X0413298Y0177966D01*
X0412091Y0178358D02*
X0036800Y0178358D01*
X0038730Y0178750D02*
X0410161Y0178750D01*
X0409485Y0180197D02*
X0399642Y0180197D01*
X0396508Y0179142D02*
X0052384Y0179142D01*
X0053591Y0179534D02*
X0395300Y0179534D01*
X0394093Y0179927D02*
X0054798Y0179927D01*
X0055625Y0180319D02*
X0393266Y0180319D01*
X0392726Y0180711D02*
X0056165Y0180711D01*
X0056705Y0181103D02*
X0392186Y0181103D01*
X0391646Y0181495D02*
X0057245Y0181495D01*
X0057785Y0181888D02*
X0391106Y0181888D01*
X0390567Y0182280D02*
X0058324Y0182280D01*
X0058788Y0182672D02*
X0390103Y0182672D01*
X0389818Y0183064D02*
X0059073Y0183064D01*
X0059358Y0183457D02*
X0389533Y0183457D01*
X0389248Y0183849D02*
X0059643Y0183849D01*
X0059928Y0184241D02*
X0388963Y0184241D01*
X0388678Y0184633D02*
X0060213Y0184633D01*
X0060498Y0185025D02*
X0388394Y0185025D01*
X0388109Y0185418D02*
X0060782Y0185418D01*
X0061067Y0185810D02*
X0387824Y0185810D01*
X0387645Y0186202D02*
X0061246Y0186202D01*
X0061374Y0186594D02*
X0387517Y0186594D01*
X0387390Y0186986D02*
X0061501Y0186986D01*
X0061629Y0187379D02*
X0387262Y0187379D01*
X0387135Y0187771D02*
X0061756Y0187771D01*
X0061884Y0188163D02*
X0387007Y0188163D01*
X0386880Y0188555D02*
X0062011Y0188555D01*
X0062139Y0188947D02*
X0386752Y0188947D01*
X0386625Y0189340D02*
X0062266Y0189340D01*
X0062393Y0189732D02*
X0386498Y0189732D01*
X0386438Y0190124D02*
X0062453Y0190124D01*
X0062453Y0190516D02*
X0386438Y0190516D01*
X0386438Y0190909D02*
X0062453Y0190909D01*
X0062453Y0191301D02*
X0386438Y0191301D01*
X0386438Y0191693D02*
X0062453Y0191693D01*
X0062461Y0192085D02*
X0386430Y0192085D01*
X0386391Y0192477D02*
X0062500Y0192477D01*
X0062538Y0192870D02*
X0386353Y0192870D01*
X0386196Y0193262D02*
X0062695Y0193262D01*
X0062857Y0193654D02*
X0386034Y0193654D01*
X0385871Y0194046D02*
X0063020Y0194046D01*
X0063182Y0194438D02*
X0385709Y0194438D01*
X0385361Y0194831D02*
X0063530Y0194831D01*
X0063922Y0195223D02*
X0384969Y0195223D01*
X0384577Y0195615D02*
X0064314Y0195615D01*
X0065057Y0196007D02*
X0383834Y0196007D01*
X0382887Y0196400D02*
X0066004Y0196400D01*
X0066965Y0197913D02*
X0381926Y0197913D01*
X0381926Y0197914D02*
X0382078Y0197912D01*
X0382230Y0197906D01*
X0382382Y0197896D01*
X0382533Y0197883D01*
X0382684Y0197865D01*
X0382835Y0197844D01*
X0382985Y0197818D01*
X0383134Y0197789D01*
X0383283Y0197756D01*
X0383430Y0197719D01*
X0383577Y0197679D01*
X0383722Y0197634D01*
X0383866Y0197586D01*
X0384009Y0197534D01*
X0384151Y0197479D01*
X0384291Y0197420D01*
X0384430Y0197357D01*
X0384567Y0197291D01*
X0384702Y0197221D01*
X0384835Y0197148D01*
X0384966Y0197071D01*
X0385096Y0196991D01*
X0385223Y0196908D01*
X0385348Y0196822D01*
X0385471Y0196732D01*
X0385591Y0196639D01*
X0385709Y0196543D01*
X0385825Y0196444D01*
X0385938Y0196342D01*
X0386048Y0196238D01*
X0386156Y0196130D01*
X0386260Y0196020D01*
X0386362Y0195907D01*
X0386461Y0195791D01*
X0386557Y0195673D01*
X0386650Y0195553D01*
X0386740Y0195430D01*
X0386826Y0195305D01*
X0386909Y0195178D01*
X0386989Y0195048D01*
X0387066Y0194917D01*
X0387139Y0194784D01*
X0387209Y0194649D01*
X0387275Y0194512D01*
X0387338Y0194373D01*
X0387397Y0194233D01*
X0387452Y0194091D01*
X0387504Y0193948D01*
X0387552Y0193804D01*
X0387597Y0193659D01*
X0387637Y0193512D01*
X0387674Y0193365D01*
X0387707Y0193216D01*
X0387736Y0193067D01*
X0387762Y0192917D01*
X0387783Y0192766D01*
X0387801Y0192615D01*
X0387814Y0192464D01*
X0387824Y0192312D01*
X0387830Y0192160D01*
X0387832Y0192008D01*
X0387831Y0192008D02*
X0387834Y0191723D01*
X0387845Y0191437D01*
X0387862Y0191152D01*
X0387886Y0190868D01*
X0387917Y0190584D01*
X0387955Y0190301D01*
X0388000Y0190020D01*
X0388051Y0189739D01*
X0388109Y0189459D01*
X0388174Y0189181D01*
X0388246Y0188905D01*
X0388324Y0188631D01*
X0388409Y0188358D01*
X0388501Y0188088D01*
X0388599Y0187820D01*
X0388703Y0187554D01*
X0388814Y0187291D01*
X0388931Y0187031D01*
X0389054Y0186773D01*
X0389184Y0186519D01*
X0389320Y0186268D01*
X0389461Y0186020D01*
X0389609Y0185776D01*
X0389762Y0185535D01*
X0389922Y0185299D01*
X0390087Y0185066D01*
X0390257Y0184837D01*
X0390433Y0184612D01*
X0390615Y0184392D01*
X0390801Y0184176D01*
X0390993Y0183965D01*
X0391190Y0183758D01*
X0391392Y0183556D01*
X0391599Y0183359D01*
X0391810Y0183167D01*
X0392026Y0182981D01*
X0392246Y0182799D01*
X0392471Y0182623D01*
X0392700Y0182453D01*
X0392933Y0182288D01*
X0393169Y0182128D01*
X0393410Y0181975D01*
X0393654Y0181827D01*
X0393902Y0181686D01*
X0394153Y0181550D01*
X0394407Y0181420D01*
X0394665Y0181297D01*
X0394925Y0181180D01*
X0395188Y0181069D01*
X0395454Y0180965D01*
X0395722Y0180867D01*
X0395992Y0180775D01*
X0396265Y0180690D01*
X0396539Y0180612D01*
X0396815Y0180540D01*
X0397093Y0180475D01*
X0397373Y0180417D01*
X0397654Y0180366D01*
X0397935Y0180321D01*
X0398218Y0180283D01*
X0398502Y0180252D01*
X0398786Y0180228D01*
X0399071Y0180211D01*
X0399357Y0180200D01*
X0399642Y0180197D01*
X0409485Y0180197D02*
X0409770Y0180194D01*
X0410056Y0180183D01*
X0410341Y0180166D01*
X0410625Y0180142D01*
X0410909Y0180111D01*
X0411192Y0180073D01*
X0411473Y0180028D01*
X0411754Y0179977D01*
X0412034Y0179919D01*
X0412312Y0179854D01*
X0412588Y0179782D01*
X0412862Y0179704D01*
X0413135Y0179619D01*
X0413405Y0179527D01*
X0413673Y0179429D01*
X0413939Y0179325D01*
X0414202Y0179214D01*
X0414462Y0179097D01*
X0414720Y0178974D01*
X0414974Y0178844D01*
X0415225Y0178708D01*
X0415473Y0178567D01*
X0415717Y0178419D01*
X0415958Y0178266D01*
X0416194Y0178106D01*
X0416427Y0177941D01*
X0416656Y0177771D01*
X0416881Y0177595D01*
X0417101Y0177413D01*
X0417317Y0177227D01*
X0417528Y0177035D01*
X0417735Y0176838D01*
X0417937Y0176636D01*
X0418134Y0176429D01*
X0418326Y0176218D01*
X0418512Y0176002D01*
X0418694Y0175782D01*
X0418870Y0175557D01*
X0419040Y0175328D01*
X0419205Y0175095D01*
X0419365Y0174859D01*
X0419518Y0174618D01*
X0419666Y0174374D01*
X0419807Y0174126D01*
X0419943Y0173875D01*
X0420073Y0173621D01*
X0420196Y0173363D01*
X0420313Y0173103D01*
X0420424Y0172840D01*
X0420528Y0172574D01*
X0420626Y0172306D01*
X0420718Y0172036D01*
X0420803Y0171763D01*
X0420881Y0171489D01*
X0420953Y0171213D01*
X0421018Y0170935D01*
X0421076Y0170655D01*
X0421127Y0170374D01*
X0421172Y0170093D01*
X0421210Y0169810D01*
X0421241Y0169526D01*
X0421265Y0169242D01*
X0421282Y0168957D01*
X0421293Y0168671D01*
X0421296Y0168386D01*
X0421296Y0034528D01*
X0421293Y0034243D01*
X0421282Y0033957D01*
X0421265Y0033672D01*
X0421241Y0033388D01*
X0421210Y0033104D01*
X0421172Y0032821D01*
X0421127Y0032540D01*
X0421076Y0032259D01*
X0421018Y0031979D01*
X0420953Y0031701D01*
X0420881Y0031425D01*
X0420803Y0031151D01*
X0420718Y0030878D01*
X0420626Y0030608D01*
X0420528Y0030340D01*
X0420424Y0030074D01*
X0420313Y0029811D01*
X0420196Y0029551D01*
X0420073Y0029293D01*
X0419943Y0029039D01*
X0419807Y0028788D01*
X0419666Y0028540D01*
X0419518Y0028296D01*
X0419365Y0028055D01*
X0419205Y0027819D01*
X0419040Y0027586D01*
X0418870Y0027357D01*
X0418694Y0027132D01*
X0418512Y0026912D01*
X0418326Y0026696D01*
X0418134Y0026485D01*
X0417937Y0026278D01*
X0417735Y0026076D01*
X0417528Y0025879D01*
X0417317Y0025687D01*
X0417101Y0025501D01*
X0416881Y0025319D01*
X0416656Y0025143D01*
X0416427Y0024973D01*
X0416194Y0024808D01*
X0415958Y0024648D01*
X0415717Y0024495D01*
X0415473Y0024347D01*
X0415225Y0024206D01*
X0414974Y0024070D01*
X0414720Y0023940D01*
X0414462Y0023817D01*
X0414202Y0023700D01*
X0413939Y0023589D01*
X0413673Y0023485D01*
X0413405Y0023387D01*
X0413135Y0023295D01*
X0412862Y0023210D01*
X0412588Y0023132D01*
X0412312Y0023060D01*
X0412034Y0022995D01*
X0411754Y0022937D01*
X0411473Y0022886D01*
X0411192Y0022841D01*
X0410909Y0022803D01*
X0410625Y0022772D01*
X0410341Y0022748D01*
X0410056Y0022731D01*
X0409770Y0022720D01*
X0409485Y0022717D01*
X0399642Y0022717D02*
X0399357Y0022714D01*
X0399071Y0022703D01*
X0398786Y0022686D01*
X0398502Y0022662D01*
X0398218Y0022631D01*
X0397935Y0022593D01*
X0397654Y0022548D01*
X0397373Y0022497D01*
X0397093Y0022439D01*
X0396815Y0022374D01*
X0396539Y0022302D01*
X0396265Y0022224D01*
X0395992Y0022139D01*
X0395722Y0022047D01*
X0395454Y0021949D01*
X0395188Y0021845D01*
X0394925Y0021734D01*
X0394665Y0021617D01*
X0394407Y0021494D01*
X0394153Y0021364D01*
X0393902Y0021228D01*
X0393654Y0021087D01*
X0393410Y0020939D01*
X0393169Y0020786D01*
X0392933Y0020626D01*
X0392700Y0020461D01*
X0392471Y0020291D01*
X0392246Y0020115D01*
X0392026Y0019933D01*
X0391810Y0019747D01*
X0391599Y0019555D01*
X0391392Y0019358D01*
X0391190Y0019156D01*
X0390993Y0018949D01*
X0390801Y0018738D01*
X0390615Y0018522D01*
X0390433Y0018302D01*
X0390257Y0018077D01*
X0390087Y0017848D01*
X0389922Y0017615D01*
X0389762Y0017379D01*
X0389609Y0017138D01*
X0389461Y0016894D01*
X0389320Y0016646D01*
X0389184Y0016395D01*
X0389054Y0016141D01*
X0388931Y0015883D01*
X0388814Y0015623D01*
X0388703Y0015360D01*
X0388599Y0015094D01*
X0388501Y0014826D01*
X0388409Y0014556D01*
X0388324Y0014283D01*
X0388246Y0014009D01*
X0388174Y0013733D01*
X0388109Y0013455D01*
X0388051Y0013175D01*
X0388000Y0012894D01*
X0387955Y0012613D01*
X0387917Y0012330D01*
X0387886Y0012046D01*
X0387862Y0011762D01*
X0387845Y0011477D01*
X0387834Y0011191D01*
X0387831Y0010906D01*
X0386056Y0009314D02*
X0062835Y0009314D01*
X0062997Y0008922D02*
X0385894Y0008922D01*
X0385732Y0008530D02*
X0063160Y0008530D01*
X0063475Y0008138D02*
X0385416Y0008138D01*
X0385024Y0007745D02*
X0063867Y0007745D01*
X0064259Y0007353D02*
X0384632Y0007353D01*
X0383967Y0006961D02*
X0064925Y0006961D01*
X0065871Y0006569D02*
X0383020Y0006569D01*
X0381926Y0005000D02*
X0066965Y0005000D01*
X0066813Y0005002D01*
X0066661Y0005008D01*
X0066509Y0005018D01*
X0066358Y0005031D01*
X0066207Y0005049D01*
X0066056Y0005070D01*
X0065906Y0005096D01*
X0065757Y0005125D01*
X0065608Y0005158D01*
X0065461Y0005195D01*
X0065314Y0005235D01*
X0065169Y0005280D01*
X0065025Y0005328D01*
X0064882Y0005380D01*
X0064740Y0005435D01*
X0064600Y0005494D01*
X0064461Y0005557D01*
X0064324Y0005623D01*
X0064189Y0005693D01*
X0064056Y0005766D01*
X0063925Y0005843D01*
X0063795Y0005923D01*
X0063668Y0006006D01*
X0063543Y0006092D01*
X0063420Y0006182D01*
X0063300Y0006275D01*
X0063182Y0006371D01*
X0063066Y0006470D01*
X0062953Y0006572D01*
X0062843Y0006676D01*
X0062735Y0006784D01*
X0062631Y0006894D01*
X0062529Y0007007D01*
X0062430Y0007123D01*
X0062334Y0007241D01*
X0062241Y0007361D01*
X0062151Y0007484D01*
X0062065Y0007609D01*
X0061982Y0007736D01*
X0061902Y0007866D01*
X0061825Y0007997D01*
X0061752Y0008130D01*
X0061682Y0008265D01*
X0061616Y0008402D01*
X0061553Y0008541D01*
X0061494Y0008681D01*
X0061439Y0008823D01*
X0061387Y0008966D01*
X0061339Y0009110D01*
X0061294Y0009255D01*
X0061254Y0009402D01*
X0061217Y0009549D01*
X0061184Y0009698D01*
X0061155Y0009847D01*
X0061129Y0009997D01*
X0061108Y0010148D01*
X0061090Y0010299D01*
X0061077Y0010450D01*
X0061067Y0010602D01*
X0061061Y0010754D01*
X0061059Y0010906D01*
X0061060Y0010906D02*
X0061057Y0011191D01*
X0061046Y0011477D01*
X0061029Y0011762D01*
X0061005Y0012046D01*
X0060974Y0012330D01*
X0060936Y0012613D01*
X0060891Y0012894D01*
X0060840Y0013175D01*
X0060782Y0013455D01*
X0060717Y0013733D01*
X0060645Y0014009D01*
X0060567Y0014283D01*
X0060482Y0014556D01*
X0060390Y0014826D01*
X0060292Y0015094D01*
X0060188Y0015360D01*
X0060077Y0015623D01*
X0059960Y0015883D01*
X0059837Y0016141D01*
X0059707Y0016395D01*
X0059571Y0016646D01*
X0059430Y0016894D01*
X0059282Y0017138D01*
X0059129Y0017379D01*
X0058969Y0017615D01*
X0058804Y0017848D01*
X0058634Y0018077D01*
X0058458Y0018302D01*
X0058276Y0018522D01*
X0058090Y0018738D01*
X0057898Y0018949D01*
X0057701Y0019156D01*
X0057499Y0019358D01*
X0057292Y0019555D01*
X0057081Y0019747D01*
X0056865Y0019933D01*
X0056645Y0020115D01*
X0056420Y0020291D01*
X0056191Y0020461D01*
X0055958Y0020626D01*
X0055722Y0020786D01*
X0055481Y0020939D01*
X0055237Y0021087D01*
X0054989Y0021228D01*
X0054738Y0021364D01*
X0054484Y0021494D01*
X0054226Y0021617D01*
X0053966Y0021734D01*
X0053703Y0021845D01*
X0053437Y0021949D01*
X0053169Y0022047D01*
X0052899Y0022139D01*
X0052626Y0022224D01*
X0052352Y0022302D01*
X0052076Y0022374D01*
X0051798Y0022439D01*
X0051518Y0022497D01*
X0051237Y0022548D01*
X0050956Y0022593D01*
X0050673Y0022631D01*
X0050389Y0022662D01*
X0050105Y0022686D01*
X0049820Y0022703D01*
X0049534Y0022714D01*
X0049249Y0022717D01*
X0039406Y0022717D02*
X0039121Y0022720D01*
X0038835Y0022731D01*
X0038550Y0022748D01*
X0038266Y0022772D01*
X0037982Y0022803D01*
X0037699Y0022841D01*
X0037418Y0022886D01*
X0037137Y0022937D01*
X0036857Y0022995D01*
X0036579Y0023060D01*
X0036303Y0023132D01*
X0036029Y0023210D01*
X0035756Y0023295D01*
X0035486Y0023387D01*
X0035218Y0023485D01*
X0034952Y0023589D01*
X0034689Y0023700D01*
X0034429Y0023817D01*
X0034171Y0023940D01*
X0033917Y0024070D01*
X0033666Y0024206D01*
X0033418Y0024347D01*
X0033174Y0024495D01*
X0032933Y0024648D01*
X0032697Y0024808D01*
X0032464Y0024973D01*
X0032235Y0025143D01*
X0032010Y0025319D01*
X0031790Y0025501D01*
X0031574Y0025687D01*
X0031363Y0025879D01*
X0031156Y0026076D01*
X0030954Y0026278D01*
X0030757Y0026485D01*
X0030565Y0026696D01*
X0030379Y0026912D01*
X0030197Y0027132D01*
X0030021Y0027357D01*
X0029851Y0027586D01*
X0029686Y0027819D01*
X0029526Y0028055D01*
X0029373Y0028296D01*
X0029225Y0028540D01*
X0029084Y0028788D01*
X0028948Y0029039D01*
X0028818Y0029293D01*
X0028695Y0029551D01*
X0028578Y0029811D01*
X0028467Y0030074D01*
X0028363Y0030340D01*
X0028265Y0030608D01*
X0028173Y0030878D01*
X0028088Y0031151D01*
X0028010Y0031425D01*
X0027938Y0031701D01*
X0027873Y0031979D01*
X0027815Y0032259D01*
X0027764Y0032540D01*
X0027719Y0032821D01*
X0027681Y0033104D01*
X0027650Y0033388D01*
X0027626Y0033672D01*
X0027609Y0033957D01*
X0027598Y0034243D01*
X0027595Y0034528D01*
X0027595Y0168386D01*
X0027598Y0168671D01*
X0027609Y0168957D01*
X0027626Y0169242D01*
X0027650Y0169526D01*
X0027681Y0169810D01*
X0027719Y0170093D01*
X0027764Y0170374D01*
X0027815Y0170655D01*
X0027873Y0170935D01*
X0027938Y0171213D01*
X0028010Y0171489D01*
X0028088Y0171763D01*
X0028173Y0172036D01*
X0028265Y0172306D01*
X0028363Y0172574D01*
X0028467Y0172840D01*
X0028578Y0173103D01*
X0028695Y0173363D01*
X0028818Y0173621D01*
X0028948Y0173875D01*
X0029084Y0174126D01*
X0029225Y0174374D01*
X0029373Y0174618D01*
X0029526Y0174859D01*
X0029686Y0175095D01*
X0029851Y0175328D01*
X0030021Y0175557D01*
X0030197Y0175782D01*
X0030379Y0176002D01*
X0030565Y0176218D01*
X0030757Y0176429D01*
X0030954Y0176636D01*
X0031156Y0176838D01*
X0031363Y0177035D01*
X0031574Y0177227D01*
X0031790Y0177413D01*
X0032010Y0177595D01*
X0032235Y0177771D01*
X0032464Y0177941D01*
X0032697Y0178106D01*
X0032933Y0178266D01*
X0033174Y0178419D01*
X0033418Y0178567D01*
X0033666Y0178708D01*
X0033917Y0178844D01*
X0034171Y0178974D01*
X0034429Y0179097D01*
X0034689Y0179214D01*
X0034952Y0179325D01*
X0035218Y0179429D01*
X0035486Y0179527D01*
X0035756Y0179619D01*
X0036029Y0179704D01*
X0036303Y0179782D01*
X0036579Y0179854D01*
X0036857Y0179919D01*
X0037137Y0179977D01*
X0037418Y0180028D01*
X0037699Y0180073D01*
X0037982Y0180111D01*
X0038266Y0180142D01*
X0038550Y0180166D01*
X0038835Y0180183D01*
X0039121Y0180194D01*
X0039406Y0180197D01*
X0049249Y0180197D01*
X0049534Y0180200D01*
X0049820Y0180211D01*
X0050105Y0180228D01*
X0050389Y0180252D01*
X0050673Y0180283D01*
X0050956Y0180321D01*
X0051237Y0180366D01*
X0051518Y0180417D01*
X0051798Y0180475D01*
X0052076Y0180540D01*
X0052352Y0180612D01*
X0052626Y0180690D01*
X0052899Y0180775D01*
X0053169Y0180867D01*
X0053437Y0180965D01*
X0053703Y0181069D01*
X0053966Y0181180D01*
X0054226Y0181297D01*
X0054484Y0181420D01*
X0054738Y0181550D01*
X0054989Y0181686D01*
X0055237Y0181827D01*
X0055481Y0181975D01*
X0055722Y0182128D01*
X0055958Y0182288D01*
X0056191Y0182453D01*
X0056420Y0182623D01*
X0056645Y0182799D01*
X0056865Y0182981D01*
X0057081Y0183167D01*
X0057292Y0183359D01*
X0057499Y0183556D01*
X0057701Y0183758D01*
X0057898Y0183965D01*
X0058090Y0184176D01*
X0058276Y0184392D01*
X0058458Y0184612D01*
X0058634Y0184837D01*
X0058804Y0185066D01*
X0058969Y0185299D01*
X0059129Y0185535D01*
X0059282Y0185776D01*
X0059430Y0186020D01*
X0059571Y0186268D01*
X0059707Y0186519D01*
X0059837Y0186773D01*
X0059960Y0187031D01*
X0060077Y0187291D01*
X0060188Y0187554D01*
X0060292Y0187820D01*
X0060390Y0188088D01*
X0060482Y0188358D01*
X0060567Y0188631D01*
X0060645Y0188905D01*
X0060717Y0189181D01*
X0060782Y0189459D01*
X0060840Y0189739D01*
X0060891Y0190020D01*
X0060936Y0190301D01*
X0060974Y0190584D01*
X0061005Y0190868D01*
X0061029Y0191152D01*
X0061046Y0191437D01*
X0061057Y0191723D01*
X0061060Y0192008D01*
X0061059Y0192008D02*
X0061061Y0192160D01*
X0061067Y0192312D01*
X0061077Y0192464D01*
X0061090Y0192615D01*
X0061108Y0192766D01*
X0061129Y0192917D01*
X0061155Y0193067D01*
X0061184Y0193216D01*
X0061217Y0193365D01*
X0061254Y0193512D01*
X0061294Y0193659D01*
X0061339Y0193804D01*
X0061387Y0193948D01*
X0061439Y0194091D01*
X0061494Y0194233D01*
X0061553Y0194373D01*
X0061616Y0194512D01*
X0061682Y0194649D01*
X0061752Y0194784D01*
X0061825Y0194917D01*
X0061902Y0195048D01*
X0061982Y0195178D01*
X0062065Y0195305D01*
X0062151Y0195430D01*
X0062241Y0195553D01*
X0062334Y0195673D01*
X0062430Y0195791D01*
X0062529Y0195907D01*
X0062631Y0196020D01*
X0062735Y0196130D01*
X0062843Y0196238D01*
X0062953Y0196342D01*
X0063066Y0196444D01*
X0063182Y0196543D01*
X0063300Y0196639D01*
X0063420Y0196732D01*
X0063543Y0196822D01*
X0063668Y0196908D01*
X0063795Y0196991D01*
X0063925Y0197071D01*
X0064056Y0197148D01*
X0064189Y0197221D01*
X0064324Y0197291D01*
X0064461Y0197357D01*
X0064600Y0197420D01*
X0064740Y0197479D01*
X0064882Y0197534D01*
X0065025Y0197586D01*
X0065169Y0197634D01*
X0065314Y0197679D01*
X0065461Y0197719D01*
X0065608Y0197756D01*
X0065757Y0197789D01*
X0065906Y0197818D01*
X0066056Y0197844D01*
X0066207Y0197865D01*
X0066358Y0197883D01*
X0066509Y0197896D01*
X0066661Y0197906D01*
X0066813Y0197912D01*
X0066965Y0197914D01*
X0229717Y0120703D02*
X0289696Y0120703D01*
X0289696Y0120310D02*
X0230109Y0120310D01*
X0230501Y0119918D02*
X0289696Y0119918D01*
X0289696Y0119526D02*
X0230893Y0119526D01*
X0231285Y0119134D02*
X0289696Y0119134D01*
X0290006Y0118742D02*
X0231678Y0118742D01*
X0232070Y0118349D02*
X0292048Y0118349D01*
X0292048Y0117957D02*
X0232462Y0117957D01*
X0232854Y0117565D02*
X0292048Y0117565D01*
X0292048Y0117173D02*
X0233246Y0117173D01*
X0233639Y0116780D02*
X0292048Y0116780D01*
X0292048Y0116388D02*
X0234031Y0116388D01*
X0234423Y0115996D02*
X0292048Y0115996D01*
X0292048Y0115604D02*
X0234815Y0115604D01*
X0235207Y0115212D02*
X0292048Y0115212D01*
X0292048Y0114819D02*
X0235600Y0114819D01*
X0235992Y0114427D02*
X0292048Y0114427D01*
X0292048Y0114035D02*
X0236384Y0114035D01*
X0236776Y0113643D02*
X0292048Y0113643D01*
X0292048Y0113251D02*
X0237169Y0113251D01*
X0237561Y0112858D02*
X0292048Y0112858D01*
X0292048Y0112466D02*
X0237953Y0112466D01*
X0238345Y0112074D02*
X0292048Y0112074D01*
X0292048Y0111682D02*
X0238737Y0111682D01*
X0239130Y0111289D02*
X0292048Y0111289D01*
X0292048Y0110897D02*
X0239522Y0110897D01*
X0239914Y0110505D02*
X0292048Y0110505D01*
X0292048Y0110113D02*
X0240306Y0110113D01*
X0240698Y0109721D02*
X0292048Y0109721D01*
X0292048Y0109328D02*
X0241091Y0109328D01*
X0241483Y0108936D02*
X0292048Y0108936D01*
X0292048Y0108544D02*
X0241875Y0108544D01*
X0242267Y0108152D02*
X0292048Y0108152D01*
X0292048Y0107760D02*
X0242660Y0107760D01*
X0243052Y0107367D02*
X0292048Y0107367D01*
X0292048Y0106975D02*
X0243444Y0106975D01*
X0243836Y0106583D02*
X0292048Y0106583D01*
X0292048Y0106191D02*
X0262172Y0106191D01*
X0262564Y0105799D02*
X0292048Y0105799D01*
X0292048Y0105406D02*
X0262601Y0105406D01*
X0262601Y0105014D02*
X0292048Y0105014D01*
X0292048Y0104622D02*
X0262601Y0104622D01*
X0262601Y0104230D02*
X0292048Y0104230D01*
X0292048Y0103837D02*
X0262601Y0103837D01*
X0262601Y0103445D02*
X0292048Y0103445D01*
X0292048Y0103053D02*
X0262601Y0103053D01*
X0262601Y0102661D02*
X0292048Y0102661D01*
X0292048Y0102269D02*
X0262601Y0102269D01*
X0262601Y0101876D02*
X0292048Y0101876D01*
X0292048Y0101484D02*
X0262601Y0101484D01*
X0262601Y0101092D02*
X0292048Y0101092D01*
X0292048Y0100700D02*
X0262601Y0100700D01*
X0262469Y0100308D02*
X0292048Y0100308D01*
X0292048Y0099915D02*
X0262077Y0099915D01*
X0260842Y0099523D02*
X0281597Y0099523D01*
X0277935Y0099131D02*
X0260842Y0099131D01*
X0260842Y0098739D02*
X0277543Y0098739D01*
X0277150Y0098346D02*
X0260842Y0098346D01*
X0260842Y0097954D02*
X0276758Y0097954D01*
X0276366Y0097562D02*
X0260842Y0097562D01*
X0260842Y0097170D02*
X0275974Y0097170D01*
X0275582Y0096778D02*
X0260842Y0096778D01*
X0260842Y0096385D02*
X0275189Y0096385D01*
X0274797Y0095993D02*
X0260842Y0095993D01*
X0260842Y0095601D02*
X0274548Y0095601D01*
X0274548Y0095209D02*
X0260842Y0095209D01*
X0260842Y0094817D02*
X0274548Y0094817D01*
X0274548Y0094424D02*
X0260842Y0094424D01*
X0260842Y0094032D02*
X0274548Y0094032D01*
X0274548Y0093640D02*
X0260842Y0093640D01*
X0260842Y0093248D02*
X0274548Y0093248D01*
X0274548Y0092856D02*
X0260842Y0092856D01*
X0260842Y0092463D02*
X0274548Y0092463D01*
X0274548Y0092071D02*
X0260842Y0092071D01*
X0260842Y0091679D02*
X0274548Y0091679D01*
X0274548Y0091287D02*
X0260842Y0091287D01*
X0260842Y0090894D02*
X0274548Y0090894D01*
X0274548Y0090502D02*
X0260842Y0090502D01*
X0260842Y0090110D02*
X0274548Y0090110D01*
X0274548Y0089718D02*
X0260842Y0089718D01*
X0260842Y0089326D02*
X0274548Y0089326D01*
X0274548Y0088933D02*
X0260842Y0088933D01*
X0260842Y0088541D02*
X0274548Y0088541D01*
X0274548Y0088149D02*
X0260842Y0088149D01*
X0260842Y0087757D02*
X0274548Y0087757D01*
X0274548Y0087365D02*
X0260842Y0087365D01*
X0260842Y0086972D02*
X0274548Y0086972D01*
X0274548Y0086580D02*
X0260842Y0086580D01*
X0260842Y0086188D02*
X0274548Y0086188D01*
X0274548Y0085796D02*
X0260842Y0085796D01*
X0260842Y0085403D02*
X0274344Y0085403D01*
X0274070Y0085011D02*
X0260842Y0085011D01*
X0260842Y0084619D02*
X0273908Y0084619D01*
X0273761Y0084227D02*
X0260842Y0084227D01*
X0260842Y0083835D02*
X0273761Y0083835D01*
X0273761Y0083442D02*
X0260842Y0083442D01*
X0260842Y0083050D02*
X0273838Y0083050D01*
X0274000Y0082658D02*
X0260842Y0082658D01*
X0260842Y0082266D02*
X0271312Y0082266D01*
X0270814Y0081874D02*
X0261183Y0081874D01*
X0261455Y0081481D02*
X0270422Y0081481D01*
X0270249Y0081089D02*
X0261617Y0081089D01*
X0261780Y0080697D02*
X0270087Y0080697D01*
X0270011Y0080305D02*
X0261823Y0080305D01*
X0261823Y0079913D02*
X0270011Y0079913D01*
X0270011Y0079520D02*
X0261823Y0079520D01*
X0261707Y0079128D02*
X0270159Y0079128D01*
X0270322Y0078736D02*
X0261545Y0078736D01*
X0261382Y0078344D02*
X0270597Y0078344D01*
X0273878Y0082266D02*
X0274175Y0082266D01*
X0274376Y0081874D02*
X0274567Y0081874D01*
X0281892Y0089718D02*
X0294086Y0089718D01*
X0293694Y0090110D02*
X0281892Y0090110D01*
X0281892Y0090502D02*
X0293302Y0090502D01*
X0293101Y0090703D02*
X0293101Y0090703D01*
X0292910Y0090894D02*
X0281892Y0090894D01*
X0281892Y0091287D02*
X0292517Y0091287D01*
X0292125Y0091679D02*
X0281892Y0091679D01*
X0281892Y0092071D02*
X0292048Y0092071D01*
X0292048Y0092463D02*
X0281892Y0092463D01*
X0281892Y0092856D02*
X0292048Y0092856D01*
X0292048Y0093248D02*
X0288156Y0093248D01*
X0288548Y0093640D02*
X0292048Y0093640D01*
X0292048Y0094032D02*
X0288684Y0094032D01*
X0288684Y0094424D02*
X0292048Y0094424D01*
X0292048Y0094817D02*
X0288684Y0094817D01*
X0288684Y0095209D02*
X0292048Y0095209D01*
X0292048Y0095601D02*
X0288684Y0095601D01*
X0288684Y0095993D02*
X0292048Y0095993D01*
X0292048Y0096385D02*
X0288684Y0096385D01*
X0288684Y0096778D02*
X0292048Y0096778D01*
X0292048Y0097170D02*
X0288684Y0097170D01*
X0288684Y0097562D02*
X0292048Y0097562D01*
X0292048Y0097954D02*
X0288684Y0097954D01*
X0288684Y0098346D02*
X0292048Y0098346D01*
X0292048Y0098739D02*
X0288684Y0098739D01*
X0288454Y0099131D02*
X0292048Y0099131D01*
X0292048Y0099523D02*
X0288062Y0099523D01*
X0295642Y0099523D02*
X0300598Y0099523D01*
X0300598Y0099577D02*
X0300598Y0092923D01*
X0301768Y0091753D01*
X0303018Y0090503D01*
X0313018Y0090503D01*
X0314348Y0089173D01*
X0314348Y0089173D01*
X0315518Y0088003D01*
X0317589Y0088003D01*
X0317589Y0086738D01*
X0318078Y0086250D01*
X0317589Y0085761D01*
X0317589Y0084497D01*
X0314672Y0084497D01*
X0312349Y0086820D01*
X0311715Y0086820D01*
X0311715Y0088665D01*
X0311014Y0089366D01*
X0304708Y0089366D01*
X0304520Y0089179D01*
X0299708Y0089179D01*
X0295642Y0093244D01*
X0295642Y0118350D01*
X0297294Y0118350D01*
X0297995Y0119051D01*
X0297995Y0123203D01*
X0311724Y0123203D01*
X0307418Y0118896D01*
X0307418Y0118896D01*
X0306248Y0117727D01*
X0306248Y0111256D01*
X0305584Y0111256D01*
X0304883Y0110555D01*
X0304883Y0104445D01*
X0305584Y0103744D01*
X0305864Y0103744D01*
X0305864Y0102174D01*
X0303195Y0102174D01*
X0300598Y0099577D01*
X0300598Y0099131D02*
X0295642Y0099131D01*
X0295642Y0098739D02*
X0300598Y0098739D01*
X0300598Y0098346D02*
X0295642Y0098346D01*
X0295642Y0097954D02*
X0300598Y0097954D01*
X0300598Y0097562D02*
X0295642Y0097562D01*
X0295642Y0097170D02*
X0300598Y0097170D01*
X0300598Y0096778D02*
X0295642Y0096778D01*
X0295642Y0096385D02*
X0300598Y0096385D01*
X0300598Y0095993D02*
X0295642Y0095993D01*
X0295642Y0095601D02*
X0300598Y0095601D01*
X0300598Y0095209D02*
X0295642Y0095209D01*
X0295642Y0094817D02*
X0300598Y0094817D01*
X0300598Y0094424D02*
X0295642Y0094424D01*
X0295642Y0094032D02*
X0300598Y0094032D01*
X0300598Y0093640D02*
X0295642Y0093640D01*
X0295642Y0093248D02*
X0300598Y0093248D01*
X0300666Y0092856D02*
X0296031Y0092856D01*
X0296423Y0092463D02*
X0301058Y0092463D01*
X0301450Y0092071D02*
X0296815Y0092071D01*
X0297207Y0091679D02*
X0301842Y0091679D01*
X0302234Y0091287D02*
X0297600Y0091287D01*
X0297992Y0090894D02*
X0302627Y0090894D01*
X0304667Y0089326D02*
X0299561Y0089326D01*
X0299168Y0089718D02*
X0313803Y0089718D01*
X0313411Y0090110D02*
X0298776Y0090110D01*
X0298384Y0090502D02*
X0313019Y0090502D01*
X0314196Y0089326D02*
X0311055Y0089326D01*
X0311447Y0088933D02*
X0314588Y0088933D01*
X0314980Y0088541D02*
X0311715Y0088541D01*
X0311715Y0088149D02*
X0315372Y0088149D01*
X0317589Y0087757D02*
X0311715Y0087757D01*
X0311715Y0087365D02*
X0317589Y0087365D01*
X0317589Y0086972D02*
X0311715Y0086972D01*
X0312589Y0086580D02*
X0317748Y0086580D01*
X0318016Y0086188D02*
X0312981Y0086188D01*
X0313373Y0085796D02*
X0317623Y0085796D01*
X0317589Y0085403D02*
X0313766Y0085403D01*
X0314158Y0085011D02*
X0317589Y0085011D01*
X0317589Y0084619D02*
X0314550Y0084619D01*
X0317098Y0092071D02*
X0317600Y0092071D01*
X0317992Y0092463D02*
X0316706Y0092463D01*
X0316314Y0092856D02*
X0419902Y0092856D01*
X0419902Y0093248D02*
X0315921Y0093248D01*
X0315529Y0093640D02*
X0419902Y0093640D01*
X0324348Y0058733D02*
X0321745Y0058733D01*
X0321745Y0058341D02*
X0324348Y0058341D01*
X0324348Y0057949D02*
X0321745Y0057949D01*
X0321745Y0057556D02*
X0324348Y0057556D01*
X0324348Y0057164D02*
X0321745Y0057164D01*
X0321745Y0056772D02*
X0323944Y0056772D01*
X0323573Y0056380D02*
X0321745Y0056380D01*
X0321745Y0055988D02*
X0323573Y0055988D01*
X0323573Y0055595D02*
X0321745Y0055595D01*
X0321745Y0055203D02*
X0323573Y0055203D01*
X0323573Y0054811D02*
X0321745Y0054811D01*
X0321745Y0054419D02*
X0323573Y0054419D01*
X0323573Y0054027D02*
X0321720Y0054027D01*
X0321328Y0053634D02*
X0323573Y0053634D01*
X0323573Y0053242D02*
X0316875Y0053242D01*
X0316875Y0052850D02*
X0323573Y0052850D01*
X0323573Y0052458D02*
X0316875Y0052458D01*
X0316875Y0052065D02*
X0323573Y0052065D01*
X0323573Y0051673D02*
X0316875Y0051673D01*
X0316875Y0051281D02*
X0323765Y0051281D01*
X0324157Y0050889D02*
X0316875Y0050889D01*
X0316875Y0048928D02*
X0320234Y0048928D01*
X0319842Y0048536D02*
X0316875Y0048536D01*
X0316875Y0048143D02*
X0319833Y0048143D01*
X0319833Y0047751D02*
X0316875Y0047751D01*
X0316875Y0047359D02*
X0319833Y0047359D01*
X0319833Y0046967D02*
X0316875Y0046967D01*
X0316875Y0046574D02*
X0319833Y0046574D01*
X0319833Y0046182D02*
X0316875Y0046182D01*
X0316875Y0045790D02*
X0319833Y0045790D01*
X0319833Y0045398D02*
X0316875Y0045398D01*
X0316875Y0045006D02*
X0319833Y0045006D01*
X0319833Y0044613D02*
X0316875Y0044613D01*
X0316875Y0044221D02*
X0319833Y0044221D01*
X0319833Y0043829D02*
X0316875Y0043829D01*
X0316875Y0043437D02*
X0319995Y0043437D01*
X0320387Y0043045D02*
X0316875Y0043045D01*
X0316875Y0042652D02*
X0321399Y0042652D01*
X0321399Y0042260D02*
X0316875Y0042260D01*
X0316875Y0041868D02*
X0321399Y0041868D01*
X0321399Y0041476D02*
X0316875Y0041476D01*
X0316875Y0041084D02*
X0320362Y0041084D01*
X0319970Y0040691D02*
X0316875Y0040691D01*
X0316875Y0040299D02*
X0319833Y0040299D01*
X0319833Y0039907D02*
X0316875Y0039907D01*
X0316875Y0039515D02*
X0319833Y0039515D01*
X0319833Y0039122D02*
X0316875Y0039122D01*
X0316875Y0038730D02*
X0319833Y0038730D01*
X0319833Y0038338D02*
X0317150Y0038338D01*
X0317542Y0037946D02*
X0319833Y0037946D01*
X0319833Y0037554D02*
X0317722Y0037554D01*
X0317885Y0037161D02*
X0319833Y0037161D01*
X0319833Y0036769D02*
X0318047Y0036769D01*
X0318057Y0036377D02*
X0319833Y0036377D01*
X0319833Y0035985D02*
X0318057Y0035985D01*
X0318057Y0035593D02*
X0319833Y0035593D01*
X0319833Y0035200D02*
X0318057Y0035200D01*
X0318057Y0034808D02*
X0319833Y0034808D01*
X0319863Y0034416D02*
X0318057Y0034416D01*
X0318057Y0034024D02*
X0320255Y0034024D01*
X0321399Y0033631D02*
X0318057Y0033631D01*
X0318057Y0033239D02*
X0321399Y0033239D01*
X0321399Y0032847D02*
X0318057Y0032847D01*
X0318057Y0032455D02*
X0321399Y0032455D01*
X0321399Y0032063D02*
X0318057Y0032063D01*
X0318057Y0031670D02*
X0321399Y0031670D01*
X0321332Y0031278D02*
X0317956Y0031278D01*
X0317794Y0030886D02*
X0320940Y0030886D01*
X0320548Y0030494D02*
X0317631Y0030494D01*
X0317322Y0030102D02*
X0320156Y0030102D01*
X0322885Y0027748D02*
X0323506Y0027748D01*
X0323899Y0027356D02*
X0322492Y0027356D01*
X0322100Y0026964D02*
X0324291Y0026964D01*
X0324683Y0026572D02*
X0321708Y0026572D01*
X0332958Y0026572D02*
X0333957Y0026572D01*
X0333583Y0026964D02*
X0333350Y0026964D01*
X0333583Y0032063D02*
X0333073Y0032063D01*
X0333073Y0032455D02*
X0333583Y0032455D01*
X0333583Y0032847D02*
X0332916Y0032847D01*
X0332753Y0033239D02*
X0333768Y0033239D01*
X0328088Y0041476D02*
X0324992Y0041476D01*
X0324992Y0041868D02*
X0328088Y0041868D01*
X0328088Y0042260D02*
X0324992Y0042260D01*
X0324992Y0042652D02*
X0328088Y0042652D01*
X0327868Y0043045D02*
X0324992Y0043045D01*
X0325215Y0043437D02*
X0327476Y0043437D01*
X0327314Y0043829D02*
X0325377Y0043829D01*
X0325377Y0044221D02*
X0327314Y0044221D01*
X0327314Y0044613D02*
X0325377Y0044613D01*
X0325377Y0045006D02*
X0327314Y0045006D01*
X0327314Y0045398D02*
X0325377Y0045398D01*
X0325377Y0045790D02*
X0327314Y0045790D01*
X0327314Y0046182D02*
X0325377Y0046182D01*
X0325377Y0046574D02*
X0327314Y0046574D01*
X0327314Y0046967D02*
X0325377Y0046967D01*
X0325377Y0047359D02*
X0327314Y0047359D01*
X0327314Y0047751D02*
X0325377Y0047751D01*
X0325377Y0048143D02*
X0327314Y0048143D01*
X0327322Y0048536D02*
X0325368Y0048536D01*
X0324976Y0048928D02*
X0327714Y0048928D01*
X0326661Y0041084D02*
X0326029Y0041084D01*
X0312882Y0047713D02*
X0307040Y0047713D01*
X0306875Y0047548D01*
X0306875Y0054738D01*
X0308150Y0054738D01*
X0308851Y0055439D01*
X0308851Y0060761D01*
X0308150Y0061463D01*
X0302040Y0061463D01*
X0301339Y0060761D01*
X0301339Y0055439D01*
X0302040Y0054738D01*
X0302882Y0054738D01*
X0302882Y0047713D01*
X0297040Y0047713D01*
X0296875Y0047548D01*
X0296875Y0054738D01*
X0298150Y0054738D01*
X0298851Y0055439D01*
X0298851Y0060761D01*
X0298150Y0061463D01*
X0292040Y0061463D01*
X0291339Y0060761D01*
X0291339Y0055439D01*
X0292040Y0054738D01*
X0292882Y0054738D01*
X0292882Y0047713D01*
X0287040Y0047713D01*
X0286875Y0047548D01*
X0286875Y0054738D01*
X0288150Y0054738D01*
X0288851Y0055439D01*
X0288851Y0060761D01*
X0288150Y0061463D01*
X0282040Y0061463D01*
X0281339Y0060761D01*
X0281339Y0055439D01*
X0282040Y0054738D01*
X0282882Y0054738D01*
X0282882Y0047713D01*
X0277040Y0047713D01*
X0276339Y0047011D01*
X0276339Y0046580D01*
X0275842Y0047077D01*
X0275842Y0054738D01*
X0276900Y0054738D01*
X0277601Y0055439D01*
X0277601Y0060761D01*
X0277113Y0061250D01*
X0277601Y0061738D01*
X0277601Y0067061D01*
X0276900Y0067762D01*
X0275842Y0067762D01*
X0275842Y0070827D01*
X0274916Y0071753D01*
X0311768Y0071753D01*
X0312882Y0070639D01*
X0312882Y0047713D01*
X0312882Y0047751D02*
X0306875Y0047751D01*
X0306875Y0048143D02*
X0312882Y0048143D01*
X0312882Y0048536D02*
X0306875Y0048536D01*
X0306875Y0048928D02*
X0312882Y0048928D01*
X0312882Y0049320D02*
X0306875Y0049320D01*
X0306875Y0049712D02*
X0312882Y0049712D01*
X0312882Y0050104D02*
X0306875Y0050104D01*
X0306875Y0050497D02*
X0312882Y0050497D01*
X0312882Y0050889D02*
X0306875Y0050889D01*
X0306875Y0051281D02*
X0312882Y0051281D01*
X0312882Y0051673D02*
X0306875Y0051673D01*
X0306875Y0052065D02*
X0312882Y0052065D01*
X0312882Y0052458D02*
X0306875Y0052458D01*
X0306875Y0052850D02*
X0312882Y0052850D01*
X0312882Y0053242D02*
X0306875Y0053242D01*
X0306875Y0053634D02*
X0312882Y0053634D01*
X0312882Y0054027D02*
X0306875Y0054027D01*
X0306875Y0054419D02*
X0312882Y0054419D01*
X0312882Y0054811D02*
X0308223Y0054811D01*
X0308615Y0055203D02*
X0312882Y0055203D01*
X0312882Y0055595D02*
X0308851Y0055595D01*
X0308851Y0055988D02*
X0312882Y0055988D01*
X0312882Y0056380D02*
X0308851Y0056380D01*
X0308851Y0056772D02*
X0312882Y0056772D01*
X0312882Y0057164D02*
X0308851Y0057164D01*
X0308851Y0057556D02*
X0312882Y0057556D01*
X0312882Y0057949D02*
X0308851Y0057949D01*
X0308851Y0058341D02*
X0312882Y0058341D01*
X0312882Y0058733D02*
X0308851Y0058733D01*
X0308851Y0059125D02*
X0312882Y0059125D01*
X0312882Y0059517D02*
X0308851Y0059517D01*
X0308851Y0059910D02*
X0312882Y0059910D01*
X0312882Y0060302D02*
X0308851Y0060302D01*
X0308851Y0060694D02*
X0312882Y0060694D01*
X0312882Y0061086D02*
X0308526Y0061086D01*
X0312882Y0061479D02*
X0277341Y0061479D01*
X0277276Y0061086D02*
X0281664Y0061086D01*
X0281339Y0060694D02*
X0277601Y0060694D01*
X0277601Y0060302D02*
X0281339Y0060302D01*
X0281339Y0059910D02*
X0277601Y0059910D01*
X0277601Y0059517D02*
X0281339Y0059517D01*
X0281339Y0059125D02*
X0277601Y0059125D01*
X0277601Y0058733D02*
X0281339Y0058733D01*
X0281339Y0058341D02*
X0277601Y0058341D01*
X0277601Y0057949D02*
X0281339Y0057949D01*
X0281339Y0057556D02*
X0277601Y0057556D01*
X0277601Y0057164D02*
X0281339Y0057164D01*
X0281339Y0056772D02*
X0277601Y0056772D01*
X0277601Y0056380D02*
X0281339Y0056380D01*
X0281339Y0055988D02*
X0277601Y0055988D01*
X0277601Y0055595D02*
X0281339Y0055595D01*
X0281575Y0055203D02*
X0277365Y0055203D01*
X0276973Y0054811D02*
X0281968Y0054811D01*
X0282882Y0054419D02*
X0275842Y0054419D01*
X0275842Y0054027D02*
X0282882Y0054027D01*
X0282882Y0053634D02*
X0275842Y0053634D01*
X0275842Y0053242D02*
X0282882Y0053242D01*
X0282882Y0052850D02*
X0275842Y0052850D01*
X0275842Y0052458D02*
X0282882Y0052458D01*
X0282882Y0052065D02*
X0275842Y0052065D01*
X0275842Y0051673D02*
X0282882Y0051673D01*
X0282882Y0051281D02*
X0275842Y0051281D01*
X0275842Y0050889D02*
X0282882Y0050889D01*
X0282882Y0050497D02*
X0275842Y0050497D01*
X0275842Y0050104D02*
X0282882Y0050104D01*
X0282882Y0049712D02*
X0275842Y0049712D01*
X0275842Y0049320D02*
X0282882Y0049320D01*
X0282882Y0048928D02*
X0275842Y0048928D01*
X0275842Y0048536D02*
X0282882Y0048536D01*
X0282882Y0048143D02*
X0275842Y0048143D01*
X0275842Y0047751D02*
X0282882Y0047751D01*
X0286875Y0047751D02*
X0292882Y0047751D01*
X0292882Y0048143D02*
X0286875Y0048143D01*
X0286875Y0048536D02*
X0292882Y0048536D01*
X0292882Y0048928D02*
X0286875Y0048928D01*
X0286875Y0049320D02*
X0292882Y0049320D01*
X0292882Y0049712D02*
X0286875Y0049712D01*
X0286875Y0050104D02*
X0292882Y0050104D01*
X0292882Y0050497D02*
X0286875Y0050497D01*
X0286875Y0050889D02*
X0292882Y0050889D01*
X0292882Y0051281D02*
X0286875Y0051281D01*
X0286875Y0051673D02*
X0292882Y0051673D01*
X0292882Y0052065D02*
X0286875Y0052065D01*
X0286875Y0052458D02*
X0292882Y0052458D01*
X0292882Y0052850D02*
X0286875Y0052850D01*
X0286875Y0053242D02*
X0292882Y0053242D01*
X0292882Y0053634D02*
X0286875Y0053634D01*
X0286875Y0054027D02*
X0292882Y0054027D01*
X0292882Y0054419D02*
X0286875Y0054419D01*
X0288223Y0054811D02*
X0291968Y0054811D01*
X0291575Y0055203D02*
X0288615Y0055203D01*
X0288851Y0055595D02*
X0291339Y0055595D01*
X0291339Y0055988D02*
X0288851Y0055988D01*
X0288851Y0056380D02*
X0291339Y0056380D01*
X0291339Y0056772D02*
X0288851Y0056772D01*
X0288851Y0057164D02*
X0291339Y0057164D01*
X0291339Y0057556D02*
X0288851Y0057556D01*
X0288851Y0057949D02*
X0291339Y0057949D01*
X0291339Y0058341D02*
X0288851Y0058341D01*
X0288851Y0058733D02*
X0291339Y0058733D01*
X0291339Y0059125D02*
X0288851Y0059125D01*
X0288851Y0059517D02*
X0291339Y0059517D01*
X0291339Y0059910D02*
X0288851Y0059910D01*
X0288851Y0060302D02*
X0291339Y0060302D01*
X0291339Y0060694D02*
X0288851Y0060694D01*
X0288526Y0061086D02*
X0291664Y0061086D01*
X0298526Y0061086D02*
X0301664Y0061086D01*
X0301339Y0060694D02*
X0298851Y0060694D01*
X0298851Y0060302D02*
X0301339Y0060302D01*
X0301339Y0059910D02*
X0298851Y0059910D01*
X0298851Y0059517D02*
X0301339Y0059517D01*
X0301339Y0059125D02*
X0298851Y0059125D01*
X0298851Y0058733D02*
X0301339Y0058733D01*
X0301339Y0058341D02*
X0298851Y0058341D01*
X0298851Y0057949D02*
X0301339Y0057949D01*
X0301339Y0057556D02*
X0298851Y0057556D01*
X0298851Y0057164D02*
X0301339Y0057164D01*
X0301339Y0056772D02*
X0298851Y0056772D01*
X0298851Y0056380D02*
X0301339Y0056380D01*
X0301339Y0055988D02*
X0298851Y0055988D01*
X0298851Y0055595D02*
X0301339Y0055595D01*
X0301575Y0055203D02*
X0298615Y0055203D01*
X0298223Y0054811D02*
X0301968Y0054811D01*
X0302882Y0054419D02*
X0296875Y0054419D01*
X0296875Y0054027D02*
X0302882Y0054027D01*
X0302882Y0053634D02*
X0296875Y0053634D01*
X0296875Y0053242D02*
X0302882Y0053242D01*
X0302882Y0052850D02*
X0296875Y0052850D01*
X0296875Y0052458D02*
X0302882Y0052458D01*
X0302882Y0052065D02*
X0296875Y0052065D01*
X0296875Y0051673D02*
X0302882Y0051673D01*
X0302882Y0051281D02*
X0296875Y0051281D01*
X0296875Y0050889D02*
X0302882Y0050889D01*
X0302882Y0050497D02*
X0296875Y0050497D01*
X0296875Y0050104D02*
X0302882Y0050104D01*
X0302882Y0049712D02*
X0296875Y0049712D01*
X0296875Y0049320D02*
X0302882Y0049320D01*
X0302882Y0048928D02*
X0296875Y0048928D01*
X0296875Y0048536D02*
X0302882Y0048536D01*
X0302882Y0048143D02*
X0296875Y0048143D01*
X0296875Y0047751D02*
X0302882Y0047751D01*
X0321745Y0059125D02*
X0322653Y0059125D01*
X0322333Y0059517D02*
X0321745Y0059517D01*
X0321745Y0059910D02*
X0322333Y0059910D01*
X0322333Y0060302D02*
X0321745Y0060302D01*
X0312882Y0061871D02*
X0277601Y0061871D01*
X0277601Y0062263D02*
X0312882Y0062263D01*
X0312882Y0062655D02*
X0277601Y0062655D01*
X0277601Y0063047D02*
X0312882Y0063047D01*
X0312882Y0063440D02*
X0277601Y0063440D01*
X0277601Y0063832D02*
X0312882Y0063832D01*
X0312882Y0064224D02*
X0277601Y0064224D01*
X0277601Y0064616D02*
X0312882Y0064616D01*
X0312882Y0065008D02*
X0277601Y0065008D01*
X0277601Y0065401D02*
X0312882Y0065401D01*
X0312882Y0065793D02*
X0277601Y0065793D01*
X0277601Y0066185D02*
X0312882Y0066185D01*
X0312882Y0066577D02*
X0277601Y0066577D01*
X0277601Y0066970D02*
X0312882Y0066970D01*
X0312882Y0067362D02*
X0277300Y0067362D01*
X0276908Y0067754D02*
X0312882Y0067754D01*
X0312882Y0068146D02*
X0275842Y0068146D01*
X0275842Y0068538D02*
X0312882Y0068538D01*
X0312882Y0068931D02*
X0275842Y0068931D01*
X0275842Y0069323D02*
X0312882Y0069323D01*
X0312882Y0069715D02*
X0275842Y0069715D01*
X0275842Y0070107D02*
X0312882Y0070107D01*
X0312882Y0070499D02*
X0275842Y0070499D01*
X0275777Y0070892D02*
X0312630Y0070892D01*
X0312237Y0071284D02*
X0275385Y0071284D01*
X0274993Y0071676D02*
X0311845Y0071676D01*
X0294478Y0089326D02*
X0288023Y0089326D01*
X0295642Y0099915D02*
X0300937Y0099915D01*
X0301329Y0100308D02*
X0295642Y0100308D01*
X0295642Y0100700D02*
X0301721Y0100700D01*
X0302113Y0101092D02*
X0295642Y0101092D01*
X0295642Y0101484D02*
X0302505Y0101484D01*
X0302898Y0101876D02*
X0295642Y0101876D01*
X0295642Y0102269D02*
X0305864Y0102269D01*
X0305864Y0102661D02*
X0295642Y0102661D01*
X0295642Y0103053D02*
X0305864Y0103053D01*
X0305864Y0103445D02*
X0295642Y0103445D01*
X0295642Y0103837D02*
X0305490Y0103837D01*
X0305098Y0104230D02*
X0295642Y0104230D01*
X0295642Y0104622D02*
X0304883Y0104622D01*
X0304883Y0105014D02*
X0295642Y0105014D01*
X0295642Y0105406D02*
X0304883Y0105406D01*
X0304883Y0105799D02*
X0295642Y0105799D01*
X0295642Y0106191D02*
X0304883Y0106191D01*
X0304883Y0106583D02*
X0295642Y0106583D01*
X0295642Y0106975D02*
X0304883Y0106975D01*
X0304883Y0107367D02*
X0295642Y0107367D01*
X0295642Y0107760D02*
X0304883Y0107760D01*
X0304883Y0108152D02*
X0295642Y0108152D01*
X0295642Y0108544D02*
X0304883Y0108544D01*
X0304883Y0108936D02*
X0295642Y0108936D01*
X0295642Y0109328D02*
X0304883Y0109328D01*
X0304883Y0109721D02*
X0295642Y0109721D01*
X0295642Y0110113D02*
X0304883Y0110113D01*
X0304883Y0110505D02*
X0295642Y0110505D01*
X0295642Y0110897D02*
X0305225Y0110897D01*
X0306248Y0111289D02*
X0295642Y0111289D01*
X0295642Y0111682D02*
X0306248Y0111682D01*
X0306248Y0112074D02*
X0295642Y0112074D01*
X0295642Y0112466D02*
X0306248Y0112466D01*
X0306248Y0112858D02*
X0295642Y0112858D01*
X0295642Y0113251D02*
X0306248Y0113251D01*
X0306248Y0113643D02*
X0295642Y0113643D01*
X0295642Y0114035D02*
X0306248Y0114035D01*
X0306248Y0114427D02*
X0295642Y0114427D01*
X0295642Y0114819D02*
X0306248Y0114819D01*
X0306248Y0115212D02*
X0295642Y0115212D01*
X0295642Y0115604D02*
X0306248Y0115604D01*
X0306248Y0115996D02*
X0295642Y0115996D01*
X0295642Y0116388D02*
X0306248Y0116388D01*
X0306248Y0116780D02*
X0295642Y0116780D01*
X0295642Y0117173D02*
X0306248Y0117173D01*
X0306248Y0117565D02*
X0295642Y0117565D01*
X0295642Y0117957D02*
X0306478Y0117957D01*
X0306870Y0118349D02*
X0295642Y0118349D01*
X0297685Y0118742D02*
X0307263Y0118742D01*
X0307655Y0119134D02*
X0297995Y0119134D01*
X0297995Y0119526D02*
X0308047Y0119526D01*
X0308439Y0119918D02*
X0297995Y0119918D01*
X0297995Y0120310D02*
X0308832Y0120310D01*
X0309224Y0120703D02*
X0297995Y0120703D01*
X0297995Y0121095D02*
X0309616Y0121095D01*
X0310008Y0121487D02*
X0297995Y0121487D01*
X0297995Y0121879D02*
X0310400Y0121879D01*
X0310793Y0122271D02*
X0297995Y0122271D01*
X0297995Y0122664D02*
X0311185Y0122664D01*
X0311577Y0123056D02*
X0297995Y0123056D01*
X0293305Y0129331D02*
X0309385Y0129331D01*
X0309777Y0129723D02*
X0292913Y0129723D01*
X0292521Y0130116D02*
X0310060Y0130116D01*
X0310060Y0130508D02*
X0292128Y0130508D01*
X0291892Y0130900D02*
X0310060Y0130900D01*
X0310060Y0131292D02*
X0293454Y0131292D01*
X0293846Y0131685D02*
X0308893Y0131685D01*
X0308501Y0132077D02*
X0293851Y0132077D01*
X0293851Y0132469D02*
X0308495Y0132469D01*
X0308495Y0132861D02*
X0293851Y0132861D01*
X0293851Y0133253D02*
X0308495Y0133253D01*
X0308495Y0133646D02*
X0293851Y0133646D01*
X0293851Y0134038D02*
X0308495Y0134038D01*
X0308495Y0134430D02*
X0293851Y0134430D01*
X0293851Y0134822D02*
X0308495Y0134822D01*
X0308495Y0135214D02*
X0293851Y0135214D01*
X0293851Y0135607D02*
X0307915Y0135607D01*
X0307522Y0135999D02*
X0293851Y0135999D01*
X0293851Y0136391D02*
X0307130Y0136391D01*
X0306768Y0136753D02*
X0306768Y0136753D01*
X0306738Y0136783D02*
X0293851Y0136783D01*
X0293687Y0137175D02*
X0306346Y0137175D01*
X0305953Y0137568D02*
X0293430Y0137568D01*
X0293822Y0137960D02*
X0305598Y0137960D01*
X0305598Y0138352D02*
X0293851Y0138352D01*
X0293851Y0138744D02*
X0305598Y0138744D01*
X0305598Y0139137D02*
X0303769Y0139137D01*
X0304161Y0139529D02*
X0305598Y0139529D01*
X0305598Y0139921D02*
X0304196Y0139921D01*
X0304196Y0140313D02*
X0305598Y0140313D01*
X0305598Y0140705D02*
X0304196Y0140705D01*
X0304196Y0141098D02*
X0305598Y0141098D01*
X0305598Y0141490D02*
X0304196Y0141490D01*
X0304196Y0141882D02*
X0305598Y0141882D01*
X0305598Y0142274D02*
X0304196Y0142274D01*
X0304196Y0142666D02*
X0305598Y0142666D01*
X0305598Y0143059D02*
X0304054Y0143059D01*
X0303662Y0143451D02*
X0305598Y0143451D01*
X0297898Y0139137D02*
X0293851Y0139137D01*
X0286344Y0131685D02*
X0285357Y0131685D01*
X0285357Y0131292D02*
X0286736Y0131292D01*
X0257350Y0134822D02*
X0253991Y0134822D01*
X0254384Y0135214D02*
X0256958Y0135214D01*
X0255518Y0106191D02*
X0254672Y0106191D01*
X0255064Y0105799D02*
X0255126Y0105799D01*
X0248018Y0106191D02*
X0244228Y0106191D01*
X0244592Y0105799D02*
X0247626Y0105799D01*
X0247589Y0105406D02*
X0244592Y0105406D01*
X0246469Y0105014D02*
X0247589Y0105014D01*
X0229548Y0086756D02*
X0225601Y0090703D01*
X0224865Y0090703D01*
X0224865Y0090626D01*
X0224239Y0090000D01*
X0224865Y0089374D01*
X0224865Y0085626D01*
X0224239Y0085000D01*
X0224865Y0084374D01*
X0224865Y0080626D01*
X0224239Y0080000D01*
X0224865Y0079374D01*
X0224865Y0075626D01*
X0224164Y0074925D01*
X0216282Y0074925D01*
X0215581Y0075626D01*
X0215581Y0075703D01*
X0211351Y0075703D01*
X0211351Y0074189D01*
X0210650Y0073488D01*
X0209392Y0073488D01*
X0209392Y0073006D01*
X0208339Y0071953D01*
X0207558Y0071172D01*
X0228726Y0071172D01*
X0229548Y0071994D01*
X0229548Y0086756D01*
X0229548Y0086580D02*
X0224865Y0086580D01*
X0224865Y0086188D02*
X0229548Y0086188D01*
X0229548Y0085796D02*
X0224865Y0085796D01*
X0224642Y0085403D02*
X0229548Y0085403D01*
X0229548Y0085011D02*
X0224250Y0085011D01*
X0224619Y0084619D02*
X0229548Y0084619D01*
X0229548Y0084227D02*
X0224865Y0084227D01*
X0224865Y0083835D02*
X0229548Y0083835D01*
X0229548Y0083442D02*
X0224865Y0083442D01*
X0224865Y0083050D02*
X0229548Y0083050D01*
X0229548Y0082658D02*
X0224865Y0082658D01*
X0224865Y0082266D02*
X0229548Y0082266D01*
X0229548Y0081874D02*
X0224865Y0081874D01*
X0224865Y0081481D02*
X0229548Y0081481D01*
X0229548Y0081089D02*
X0224865Y0081089D01*
X0224865Y0080697D02*
X0229548Y0080697D01*
X0229548Y0080305D02*
X0224543Y0080305D01*
X0224326Y0079913D02*
X0229548Y0079913D01*
X0229548Y0079520D02*
X0224718Y0079520D01*
X0224865Y0079128D02*
X0229548Y0079128D01*
X0229548Y0078736D02*
X0224865Y0078736D01*
X0224865Y0078344D02*
X0229548Y0078344D01*
X0229548Y0077951D02*
X0224865Y0077951D01*
X0224865Y0077559D02*
X0229548Y0077559D01*
X0229548Y0077167D02*
X0224865Y0077167D01*
X0224865Y0076775D02*
X0229548Y0076775D01*
X0229548Y0076383D02*
X0224865Y0076383D01*
X0224865Y0075990D02*
X0229548Y0075990D01*
X0229548Y0075598D02*
X0224837Y0075598D01*
X0224444Y0075206D02*
X0229548Y0075206D01*
X0229548Y0074814D02*
X0211351Y0074814D01*
X0211351Y0075206D02*
X0216002Y0075206D01*
X0215609Y0075598D02*
X0211351Y0075598D01*
X0211351Y0074422D02*
X0229548Y0074422D01*
X0229548Y0074029D02*
X0211191Y0074029D01*
X0210799Y0073637D02*
X0229548Y0073637D01*
X0229548Y0073245D02*
X0209392Y0073245D01*
X0209239Y0072853D02*
X0229548Y0072853D01*
X0229548Y0072460D02*
X0208847Y0072460D01*
X0208455Y0072068D02*
X0229548Y0072068D01*
X0229230Y0071676D02*
X0208062Y0071676D01*
X0207670Y0071284D02*
X0228838Y0071284D01*
X0234912Y0065401D02*
X0252556Y0065401D01*
X0252571Y0065437D02*
X0252117Y0064342D01*
X0252117Y0063158D01*
X0252538Y0062142D01*
X0251143Y0060747D01*
X0237393Y0060747D01*
X0233107Y0056460D01*
X0229584Y0056460D01*
X0229078Y0056966D01*
X0229683Y0057570D01*
X0229683Y0063203D01*
X0232714Y0063203D01*
X0236204Y0066692D01*
X0236223Y0066673D01*
X0237393Y0065503D01*
X0252637Y0065503D01*
X0252571Y0065437D01*
X0252393Y0065008D02*
X0234520Y0065008D01*
X0234127Y0064616D02*
X0252231Y0064616D01*
X0252117Y0064224D02*
X0233735Y0064224D01*
X0233343Y0063832D02*
X0252117Y0063832D01*
X0252117Y0063440D02*
X0232951Y0063440D01*
X0229683Y0063047D02*
X0252163Y0063047D01*
X0252325Y0062655D02*
X0229683Y0062655D01*
X0229683Y0062263D02*
X0252488Y0062263D01*
X0252267Y0061871D02*
X0229683Y0061871D01*
X0229683Y0061479D02*
X0251875Y0061479D01*
X0251483Y0061086D02*
X0229683Y0061086D01*
X0229683Y0060694D02*
X0237340Y0060694D01*
X0236948Y0060302D02*
X0229683Y0060302D01*
X0229683Y0059910D02*
X0236556Y0059910D01*
X0236164Y0059517D02*
X0229683Y0059517D01*
X0229683Y0059125D02*
X0235771Y0059125D01*
X0235379Y0058733D02*
X0229683Y0058733D01*
X0229683Y0058341D02*
X0234987Y0058341D01*
X0234595Y0057949D02*
X0229683Y0057949D01*
X0229669Y0057556D02*
X0234203Y0057556D01*
X0233810Y0057164D02*
X0229277Y0057164D01*
X0229272Y0056772D02*
X0233418Y0056772D01*
X0225173Y0049256D02*
X0223860Y0050569D01*
X0223536Y0049786D01*
X0222809Y0049059D01*
X0221859Y0048666D01*
X0220831Y0048666D01*
X0219924Y0049042D01*
X0219924Y0048259D01*
X0219223Y0047558D01*
X0217119Y0047558D01*
X0217109Y0047549D01*
X0210726Y0047549D01*
X0210726Y0046113D01*
X0210025Y0045412D01*
X0203915Y0045412D01*
X0203214Y0046113D01*
X0203214Y0046515D01*
X0199117Y0046515D01*
X0199117Y0045848D01*
X0198416Y0045147D01*
X0194275Y0045147D01*
X0193573Y0045848D01*
X0193573Y0050776D01*
X0194275Y0051477D01*
X0198416Y0051477D01*
X0199117Y0050776D01*
X0199117Y0050109D01*
X0203214Y0050109D01*
X0203214Y0051436D01*
X0203915Y0052137D01*
X0205173Y0052137D01*
X0205173Y0052238D01*
X0203915Y0052238D01*
X0203214Y0052939D01*
X0203214Y0058261D01*
X0203703Y0058750D01*
X0203214Y0059238D01*
X0203214Y0064561D01*
X0203915Y0065262D01*
X0210025Y0065262D01*
X0210726Y0064561D01*
X0210726Y0063797D01*
X0212320Y0065391D01*
X0201152Y0065391D01*
X0190642Y0054881D01*
X0190642Y0043603D01*
X0194676Y0043603D01*
X0195377Y0042902D01*
X0195377Y0037974D01*
X0194676Y0037273D01*
X0194402Y0037273D01*
X0194402Y0036984D01*
X0194589Y0036797D01*
X0205839Y0036797D01*
X0211464Y0031172D01*
X0215132Y0031172D01*
X0213726Y0032578D01*
X0212673Y0033631D01*
X0212673Y0034994D01*
X0211784Y0034994D01*
X0211083Y0035695D01*
X0211083Y0041805D01*
X0211784Y0042506D01*
X0212649Y0042506D01*
X0212649Y0042595D01*
X0213923Y0043869D01*
X0214976Y0044922D01*
X0224351Y0044922D01*
X0225173Y0045744D01*
X0225173Y0049256D01*
X0225109Y0049320D02*
X0223070Y0049320D01*
X0223462Y0049712D02*
X0224717Y0049712D01*
X0224325Y0050104D02*
X0223668Y0050104D01*
X0223830Y0050497D02*
X0223932Y0050497D01*
X0225173Y0048928D02*
X0222492Y0048928D01*
X0220199Y0048928D02*
X0219924Y0048928D01*
X0219924Y0048536D02*
X0225173Y0048536D01*
X0225173Y0048143D02*
X0219808Y0048143D01*
X0219416Y0047751D02*
X0225173Y0047751D01*
X0225173Y0047359D02*
X0210726Y0047359D01*
X0210726Y0046967D02*
X0225173Y0046967D01*
X0225173Y0046574D02*
X0210726Y0046574D01*
X0210726Y0046182D02*
X0225173Y0046182D01*
X0225173Y0045790D02*
X0210403Y0045790D01*
X0213099Y0043045D02*
X0195234Y0043045D01*
X0195377Y0042652D02*
X0212706Y0042652D01*
X0213491Y0043437D02*
X0194842Y0043437D01*
X0195377Y0042260D02*
X0211539Y0042260D01*
X0211146Y0041868D02*
X0195377Y0041868D01*
X0195377Y0041476D02*
X0211083Y0041476D01*
X0211083Y0041084D02*
X0195377Y0041084D01*
X0195377Y0040691D02*
X0211083Y0040691D01*
X0211083Y0040299D02*
X0195377Y0040299D01*
X0195377Y0039907D02*
X0211083Y0039907D01*
X0211083Y0039515D02*
X0195377Y0039515D01*
X0195377Y0039122D02*
X0211083Y0039122D01*
X0211083Y0038730D02*
X0195377Y0038730D01*
X0195377Y0038338D02*
X0211083Y0038338D01*
X0211083Y0037946D02*
X0195349Y0037946D01*
X0194956Y0037554D02*
X0211083Y0037554D01*
X0211083Y0037161D02*
X0194402Y0037161D01*
X0190642Y0043829D02*
X0213883Y0043829D01*
X0214275Y0044221D02*
X0190642Y0044221D01*
X0190642Y0044613D02*
X0214667Y0044613D01*
X0224435Y0045006D02*
X0190642Y0045006D01*
X0190642Y0045398D02*
X0194023Y0045398D01*
X0193631Y0045790D02*
X0190642Y0045790D01*
X0190642Y0046182D02*
X0193573Y0046182D01*
X0193573Y0046574D02*
X0190642Y0046574D01*
X0190642Y0046967D02*
X0193573Y0046967D01*
X0193573Y0047359D02*
X0190642Y0047359D01*
X0190642Y0047751D02*
X0193573Y0047751D01*
X0193573Y0048143D02*
X0190642Y0048143D01*
X0190642Y0048536D02*
X0193573Y0048536D01*
X0193573Y0048928D02*
X0190642Y0048928D01*
X0190642Y0049320D02*
X0193573Y0049320D01*
X0193573Y0049712D02*
X0190642Y0049712D01*
X0190642Y0050104D02*
X0193573Y0050104D01*
X0193573Y0050497D02*
X0190642Y0050497D01*
X0190642Y0050889D02*
X0193686Y0050889D01*
X0194078Y0051281D02*
X0190642Y0051281D01*
X0190642Y0051673D02*
X0203452Y0051673D01*
X0203214Y0051281D02*
X0198612Y0051281D01*
X0199004Y0050889D02*
X0203214Y0050889D01*
X0203214Y0050497D02*
X0199117Y0050497D01*
X0203304Y0052850D02*
X0190642Y0052850D01*
X0190642Y0053242D02*
X0203214Y0053242D01*
X0203214Y0053634D02*
X0190642Y0053634D01*
X0190642Y0054027D02*
X0203214Y0054027D01*
X0203214Y0054419D02*
X0190642Y0054419D01*
X0190642Y0054811D02*
X0203214Y0054811D01*
X0203214Y0055203D02*
X0190964Y0055203D01*
X0191357Y0055595D02*
X0203214Y0055595D01*
X0203214Y0055988D02*
X0191749Y0055988D01*
X0192141Y0056380D02*
X0203214Y0056380D01*
X0203214Y0056772D02*
X0192533Y0056772D01*
X0192925Y0057164D02*
X0203214Y0057164D01*
X0203214Y0057556D02*
X0193318Y0057556D01*
X0193710Y0057949D02*
X0203214Y0057949D01*
X0203294Y0058341D02*
X0194102Y0058341D01*
X0194494Y0058733D02*
X0203686Y0058733D01*
X0203327Y0059125D02*
X0194887Y0059125D01*
X0195279Y0059517D02*
X0203214Y0059517D01*
X0203214Y0059910D02*
X0195671Y0059910D01*
X0196063Y0060302D02*
X0203214Y0060302D01*
X0203214Y0060694D02*
X0196455Y0060694D01*
X0196848Y0061086D02*
X0203214Y0061086D01*
X0203214Y0061479D02*
X0197240Y0061479D01*
X0197632Y0061871D02*
X0203214Y0061871D01*
X0203214Y0062263D02*
X0198024Y0062263D01*
X0198416Y0062655D02*
X0203214Y0062655D01*
X0203214Y0063047D02*
X0198809Y0063047D01*
X0199201Y0063440D02*
X0203214Y0063440D01*
X0203214Y0063832D02*
X0199593Y0063832D01*
X0199985Y0064224D02*
X0203214Y0064224D01*
X0203270Y0064616D02*
X0200377Y0064616D01*
X0200770Y0065008D02*
X0203662Y0065008D01*
X0210278Y0065008D02*
X0211937Y0065008D01*
X0211545Y0064616D02*
X0210670Y0064616D01*
X0210726Y0064224D02*
X0211153Y0064224D01*
X0210761Y0063832D02*
X0210726Y0063832D01*
X0203696Y0052458D02*
X0190642Y0052458D01*
X0190642Y0052065D02*
X0203844Y0052065D01*
X0203214Y0046182D02*
X0199117Y0046182D01*
X0199059Y0045790D02*
X0203538Y0045790D01*
X0198667Y0045398D02*
X0224827Y0045398D01*
X0211083Y0036769D02*
X0205867Y0036769D01*
X0206259Y0036377D02*
X0211083Y0036377D01*
X0211083Y0035985D02*
X0206652Y0035985D01*
X0207044Y0035593D02*
X0211186Y0035593D01*
X0211578Y0035200D02*
X0207436Y0035200D01*
X0207828Y0034808D02*
X0212673Y0034808D01*
X0212673Y0034416D02*
X0208220Y0034416D01*
X0208613Y0034024D02*
X0212673Y0034024D01*
X0212673Y0033631D02*
X0209005Y0033631D01*
X0209397Y0033239D02*
X0213065Y0033239D01*
X0213457Y0032847D02*
X0209789Y0032847D01*
X0210181Y0032455D02*
X0213849Y0032455D01*
X0214241Y0032063D02*
X0210574Y0032063D01*
X0210966Y0031670D02*
X0214634Y0031670D01*
X0215026Y0031278D02*
X0211358Y0031278D01*
X0203176Y0025003D02*
X0178883Y0025003D01*
X0178491Y0025395D02*
X0202784Y0025395D01*
X0203568Y0024611D02*
X0179276Y0024611D01*
X0179668Y0024218D02*
X0203961Y0024218D01*
X0204353Y0023826D02*
X0183237Y0023826D01*
X0184184Y0023434D02*
X0204745Y0023434D01*
X0205137Y0023042D02*
X0184792Y0023042D01*
X0185184Y0022650D02*
X0205529Y0022650D01*
X0205922Y0022257D02*
X0185576Y0022257D01*
X0185823Y0021865D02*
X0206314Y0021865D01*
X0206706Y0021473D02*
X0185985Y0021473D01*
X0186147Y0021081D02*
X0207098Y0021081D01*
X0207491Y0020688D02*
X0186310Y0020688D01*
X0186351Y0020296D02*
X0207883Y0020296D01*
X0208275Y0019904D02*
X0186351Y0019904D01*
X0186351Y0019512D02*
X0208667Y0019512D01*
X0208918Y0019120D02*
X0186351Y0019120D01*
X0186351Y0018727D02*
X0208918Y0018727D01*
X0208918Y0018335D02*
X0186351Y0018335D01*
X0186351Y0017943D02*
X0208918Y0017943D01*
X0208918Y0017551D02*
X0186351Y0017551D01*
X0186351Y0017159D02*
X0208918Y0017159D01*
X0208918Y0016766D02*
X0186351Y0016766D01*
X0186351Y0016374D02*
X0208918Y0016374D01*
X0208918Y0015982D02*
X0186351Y0015982D01*
X0186351Y0015590D02*
X0208918Y0015590D01*
X0208918Y0015198D02*
X0186351Y0015198D01*
X0186351Y0014805D02*
X0208918Y0014805D01*
X0208918Y0014413D02*
X0186351Y0014413D01*
X0186351Y0014021D02*
X0208918Y0014021D01*
X0208918Y0013629D02*
X0186351Y0013629D01*
X0186351Y0013236D02*
X0208918Y0013236D01*
X0208996Y0012844D02*
X0186273Y0012844D01*
X0186110Y0012452D02*
X0209159Y0012452D01*
X0209321Y0012060D02*
X0185948Y0012060D01*
X0185786Y0011668D02*
X0209483Y0011668D01*
X0209782Y0011275D02*
X0185487Y0011275D01*
X0185095Y0010883D02*
X0210174Y0010883D01*
X0210566Y0010491D02*
X0184703Y0010491D01*
X0183969Y0010099D02*
X0211300Y0010099D01*
X0214835Y0010099D02*
X0221300Y0010099D01*
X0220566Y0010491D02*
X0215569Y0010491D01*
X0215961Y0010883D02*
X0220174Y0010883D01*
X0219782Y0011275D02*
X0216353Y0011275D01*
X0216652Y0011668D02*
X0219483Y0011668D01*
X0219321Y0012060D02*
X0216814Y0012060D01*
X0216977Y0012452D02*
X0219159Y0012452D01*
X0218996Y0012844D02*
X0217139Y0012844D01*
X0217217Y0013236D02*
X0218918Y0013236D01*
X0218918Y0013629D02*
X0217217Y0013629D01*
X0217217Y0014021D02*
X0218918Y0014021D01*
X0218918Y0014413D02*
X0217217Y0014413D01*
X0217217Y0014805D02*
X0218918Y0014805D01*
X0218918Y0015198D02*
X0217217Y0015198D01*
X0217217Y0015590D02*
X0218918Y0015590D01*
X0218918Y0015982D02*
X0217217Y0015982D01*
X0217217Y0016374D02*
X0218918Y0016374D01*
X0218918Y0016766D02*
X0217217Y0016766D01*
X0217217Y0017159D02*
X0218918Y0017159D01*
X0218918Y0017551D02*
X0217217Y0017551D01*
X0217217Y0017943D02*
X0218918Y0017943D01*
X0218918Y0018335D02*
X0217217Y0018335D01*
X0217217Y0018727D02*
X0218918Y0018727D01*
X0218918Y0019120D02*
X0217217Y0019120D01*
X0217217Y0019512D02*
X0218918Y0019512D01*
X0218918Y0019904D02*
X0217217Y0019904D01*
X0217217Y0020296D02*
X0218918Y0020296D01*
X0218959Y0020688D02*
X0217176Y0020688D01*
X0217014Y0021081D02*
X0219122Y0021081D01*
X0219284Y0021473D02*
X0216851Y0021473D01*
X0216689Y0021865D02*
X0219446Y0021865D01*
X0219693Y0022257D02*
X0216442Y0022257D01*
X0223258Y0025003D02*
X0230676Y0025003D01*
X0231068Y0024611D02*
X0223651Y0024611D01*
X0224043Y0024218D02*
X0231271Y0024218D01*
X0231271Y0023826D02*
X0224435Y0023826D01*
X0225050Y0023434D02*
X0231085Y0023434D01*
X0230477Y0023042D02*
X0225658Y0023042D01*
X0226050Y0022650D02*
X0230085Y0022650D01*
X0229693Y0022257D02*
X0226442Y0022257D01*
X0226689Y0021865D02*
X0229446Y0021865D01*
X0229284Y0021473D02*
X0226851Y0021473D01*
X0227014Y0021081D02*
X0229122Y0021081D01*
X0228959Y0020688D02*
X0227176Y0020688D01*
X0227217Y0020296D02*
X0228918Y0020296D01*
X0228918Y0019904D02*
X0227217Y0019904D01*
X0227217Y0019512D02*
X0228918Y0019512D01*
X0228918Y0019120D02*
X0227217Y0019120D01*
X0227217Y0018727D02*
X0228918Y0018727D01*
X0228918Y0018335D02*
X0227217Y0018335D01*
X0227217Y0017943D02*
X0228918Y0017943D01*
X0228918Y0017551D02*
X0227217Y0017551D01*
X0227217Y0017159D02*
X0228918Y0017159D01*
X0228918Y0016766D02*
X0227217Y0016766D01*
X0227217Y0016374D02*
X0228918Y0016374D01*
X0228918Y0015982D02*
X0227217Y0015982D01*
X0227217Y0015590D02*
X0228918Y0015590D01*
X0228918Y0015198D02*
X0227217Y0015198D01*
X0227217Y0014805D02*
X0228918Y0014805D01*
X0228918Y0014413D02*
X0227217Y0014413D01*
X0227217Y0014021D02*
X0228918Y0014021D01*
X0228918Y0013629D02*
X0227217Y0013629D01*
X0227217Y0013236D02*
X0228918Y0013236D01*
X0228996Y0012844D02*
X0227139Y0012844D01*
X0226977Y0012452D02*
X0229159Y0012452D01*
X0229321Y0012060D02*
X0226814Y0012060D01*
X0226652Y0011668D02*
X0229483Y0011668D01*
X0229782Y0011275D02*
X0226353Y0011275D01*
X0225961Y0010883D02*
X0230174Y0010883D01*
X0230566Y0010491D02*
X0225569Y0010491D01*
X0224835Y0010099D02*
X0231300Y0010099D01*
X0234835Y0010099D02*
X0251300Y0010099D01*
X0250566Y0010491D02*
X0235569Y0010491D01*
X0235961Y0010883D02*
X0250174Y0010883D01*
X0249782Y0011275D02*
X0236353Y0011275D01*
X0236652Y0011668D02*
X0249483Y0011668D01*
X0249321Y0012060D02*
X0236814Y0012060D01*
X0236977Y0012452D02*
X0249159Y0012452D01*
X0248996Y0012844D02*
X0237139Y0012844D01*
X0237217Y0013236D02*
X0248918Y0013236D01*
X0248918Y0013629D02*
X0237217Y0013629D01*
X0237217Y0014021D02*
X0248918Y0014021D01*
X0248918Y0014413D02*
X0237217Y0014413D01*
X0237217Y0014805D02*
X0248918Y0014805D01*
X0248918Y0015198D02*
X0237217Y0015198D01*
X0237217Y0015590D02*
X0248918Y0015590D01*
X0248918Y0015982D02*
X0237217Y0015982D01*
X0237217Y0016374D02*
X0248918Y0016374D01*
X0248918Y0016766D02*
X0237217Y0016766D01*
X0237217Y0017159D02*
X0248918Y0017159D01*
X0248918Y0017551D02*
X0237217Y0017551D01*
X0237217Y0017943D02*
X0248918Y0017943D01*
X0248918Y0018335D02*
X0237217Y0018335D01*
X0237217Y0018727D02*
X0248918Y0018727D01*
X0248918Y0019120D02*
X0237217Y0019120D01*
X0237217Y0019512D02*
X0248918Y0019512D01*
X0248918Y0019904D02*
X0237217Y0019904D01*
X0237217Y0020296D02*
X0248918Y0020296D01*
X0248959Y0020688D02*
X0237176Y0020688D01*
X0237014Y0021081D02*
X0249122Y0021081D01*
X0249284Y0021473D02*
X0236851Y0021473D01*
X0236689Y0021865D02*
X0249446Y0021865D01*
X0249693Y0022257D02*
X0236442Y0022257D01*
X0236050Y0022650D02*
X0249904Y0022650D01*
X0249512Y0023042D02*
X0235658Y0023042D01*
X0235050Y0023434D02*
X0249120Y0023434D01*
X0248728Y0023826D02*
X0234864Y0023826D01*
X0234864Y0024218D02*
X0248336Y0024218D01*
X0247943Y0024611D02*
X0234864Y0024611D01*
X0234864Y0025003D02*
X0247551Y0025003D01*
X0247159Y0025395D02*
X0234864Y0025395D01*
X0234864Y0025787D02*
X0240861Y0025787D01*
X0240261Y0026179D02*
X0234582Y0026179D01*
X0234190Y0026572D02*
X0239869Y0026572D01*
X0239654Y0026964D02*
X0233797Y0026964D01*
X0233405Y0027356D02*
X0239491Y0027356D01*
X0243079Y0025787D02*
X0246767Y0025787D01*
X0246375Y0026179D02*
X0243679Y0026179D01*
X0244071Y0026572D02*
X0245982Y0026572D01*
X0245590Y0026964D02*
X0244286Y0026964D01*
X0244449Y0027356D02*
X0245198Y0027356D01*
X0244806Y0027748D02*
X0244554Y0027748D01*
X0254103Y0023826D02*
X0260603Y0023826D01*
X0260995Y0023434D02*
X0255050Y0023434D01*
X0255658Y0023042D02*
X0260477Y0023042D01*
X0260085Y0022650D02*
X0256050Y0022650D01*
X0256442Y0022257D02*
X0259693Y0022257D01*
X0259446Y0021865D02*
X0256689Y0021865D01*
X0256851Y0021473D02*
X0259284Y0021473D01*
X0259122Y0021081D02*
X0257014Y0021081D01*
X0257176Y0020688D02*
X0258959Y0020688D01*
X0258918Y0020296D02*
X0257217Y0020296D01*
X0257217Y0019904D02*
X0258918Y0019904D01*
X0258918Y0019512D02*
X0257217Y0019512D01*
X0257217Y0019120D02*
X0258918Y0019120D01*
X0258918Y0018727D02*
X0257217Y0018727D01*
X0257217Y0018335D02*
X0258918Y0018335D01*
X0258918Y0017943D02*
X0257217Y0017943D01*
X0257217Y0017551D02*
X0258918Y0017551D01*
X0258918Y0017159D02*
X0257217Y0017159D01*
X0257217Y0016766D02*
X0258918Y0016766D01*
X0258918Y0016374D02*
X0257217Y0016374D01*
X0257217Y0015982D02*
X0258918Y0015982D01*
X0258918Y0015590D02*
X0257217Y0015590D01*
X0257217Y0015198D02*
X0258918Y0015198D01*
X0258918Y0014805D02*
X0257217Y0014805D01*
X0257217Y0014413D02*
X0258918Y0014413D01*
X0258918Y0014021D02*
X0257217Y0014021D01*
X0257217Y0013629D02*
X0258918Y0013629D01*
X0258918Y0013236D02*
X0257217Y0013236D01*
X0257139Y0012844D02*
X0258996Y0012844D01*
X0259159Y0012452D02*
X0256977Y0012452D01*
X0256814Y0012060D02*
X0259321Y0012060D01*
X0259483Y0011668D02*
X0256652Y0011668D01*
X0256353Y0011275D02*
X0259782Y0011275D01*
X0260174Y0010883D02*
X0255961Y0010883D01*
X0255569Y0010491D02*
X0260566Y0010491D01*
X0261300Y0010099D02*
X0254835Y0010099D01*
X0264835Y0010099D02*
X0271300Y0010099D01*
X0270566Y0010491D02*
X0265569Y0010491D01*
X0265961Y0010883D02*
X0270174Y0010883D01*
X0269782Y0011275D02*
X0266353Y0011275D01*
X0266652Y0011668D02*
X0269483Y0011668D01*
X0269321Y0012060D02*
X0266814Y0012060D01*
X0266977Y0012452D02*
X0269159Y0012452D01*
X0268996Y0012844D02*
X0267139Y0012844D01*
X0267217Y0013236D02*
X0268918Y0013236D01*
X0268918Y0013629D02*
X0267217Y0013629D01*
X0267217Y0014021D02*
X0268918Y0014021D01*
X0268918Y0014413D02*
X0267217Y0014413D01*
X0267217Y0014805D02*
X0268918Y0014805D01*
X0268918Y0015198D02*
X0267217Y0015198D01*
X0267217Y0015590D02*
X0268918Y0015590D01*
X0268918Y0015982D02*
X0267217Y0015982D01*
X0267217Y0016374D02*
X0268918Y0016374D01*
X0268918Y0016766D02*
X0267217Y0016766D01*
X0267217Y0017159D02*
X0268918Y0017159D01*
X0268918Y0017551D02*
X0267217Y0017551D01*
X0267217Y0017943D02*
X0268918Y0017943D01*
X0268918Y0018335D02*
X0267217Y0018335D01*
X0267217Y0018727D02*
X0268918Y0018727D01*
X0268918Y0019120D02*
X0267217Y0019120D01*
X0267217Y0019512D02*
X0268918Y0019512D01*
X0268918Y0019904D02*
X0267217Y0019904D01*
X0267217Y0020296D02*
X0268918Y0020296D01*
X0268959Y0020688D02*
X0267176Y0020688D01*
X0267014Y0021081D02*
X0269122Y0021081D01*
X0269284Y0021473D02*
X0266851Y0021473D01*
X0266689Y0021865D02*
X0269446Y0021865D01*
X0269693Y0022257D02*
X0266442Y0022257D01*
X0266050Y0022650D02*
X0270085Y0022650D01*
X0270477Y0023042D02*
X0265658Y0023042D01*
X0265050Y0023434D02*
X0270506Y0023434D01*
X0270284Y0023826D02*
X0264864Y0023826D01*
X0264864Y0024218D02*
X0270122Y0024218D01*
X0270011Y0024611D02*
X0264864Y0024611D01*
X0264508Y0025003D02*
X0270011Y0025003D01*
X0270011Y0025395D02*
X0264116Y0025395D01*
X0263724Y0025787D02*
X0270124Y0025787D01*
X0270287Y0026179D02*
X0263332Y0026179D01*
X0262940Y0026572D02*
X0270512Y0026572D01*
X0270904Y0026964D02*
X0262547Y0026964D01*
X0262155Y0027356D02*
X0271530Y0027356D01*
X0271337Y0029317D02*
X0273420Y0029317D01*
X0272828Y0029709D02*
X0271930Y0029709D01*
X0272322Y0030102D02*
X0272435Y0030102D01*
X0273660Y0027356D02*
X0284910Y0027356D01*
X0284518Y0026964D02*
X0274286Y0026964D01*
X0275658Y0023042D02*
X0280457Y0023042D01*
X0280085Y0022650D02*
X0276050Y0022650D01*
X0276442Y0022257D02*
X0279693Y0022257D01*
X0279446Y0021865D02*
X0276689Y0021865D01*
X0276851Y0021473D02*
X0279284Y0021473D01*
X0279122Y0021081D02*
X0277014Y0021081D01*
X0277176Y0020688D02*
X0278959Y0020688D01*
X0278918Y0020296D02*
X0277217Y0020296D01*
X0277217Y0019904D02*
X0278918Y0019904D01*
X0278918Y0019512D02*
X0277217Y0019512D01*
X0277217Y0019120D02*
X0278918Y0019120D01*
X0278918Y0018727D02*
X0277217Y0018727D01*
X0277217Y0018335D02*
X0278918Y0018335D01*
X0278918Y0017943D02*
X0277217Y0017943D01*
X0277217Y0017551D02*
X0278918Y0017551D01*
X0278918Y0017159D02*
X0277217Y0017159D01*
X0277217Y0016766D02*
X0278918Y0016766D01*
X0278918Y0016374D02*
X0277217Y0016374D01*
X0277217Y0015982D02*
X0278918Y0015982D01*
X0278918Y0015590D02*
X0277217Y0015590D01*
X0277217Y0015198D02*
X0278918Y0015198D01*
X0278918Y0014805D02*
X0277217Y0014805D01*
X0277217Y0014413D02*
X0278918Y0014413D01*
X0278918Y0014021D02*
X0277217Y0014021D01*
X0277217Y0013629D02*
X0278918Y0013629D01*
X0278918Y0013236D02*
X0277217Y0013236D01*
X0277139Y0012844D02*
X0278996Y0012844D01*
X0279159Y0012452D02*
X0276977Y0012452D01*
X0276814Y0012060D02*
X0279321Y0012060D01*
X0279483Y0011668D02*
X0276652Y0011668D01*
X0276353Y0011275D02*
X0279782Y0011275D01*
X0280174Y0010883D02*
X0275961Y0010883D01*
X0275569Y0010491D02*
X0280566Y0010491D01*
X0281300Y0010099D02*
X0274835Y0010099D01*
X0282794Y0025787D02*
X0283341Y0025787D01*
X0283733Y0026179D02*
X0282402Y0026179D01*
X0282009Y0026572D02*
X0284126Y0026572D01*
X0285302Y0027748D02*
X0260385Y0027748D01*
X0260777Y0028141D02*
X0285695Y0028141D01*
X0286087Y0028533D02*
X0261169Y0028533D01*
X0261561Y0028925D02*
X0286479Y0028925D01*
X0286337Y0029317D02*
X0286871Y0029317D01*
X0286930Y0029709D02*
X0287263Y0029709D01*
X0287322Y0030102D02*
X0287435Y0030102D01*
X0283420Y0029317D02*
X0281337Y0029317D01*
X0281930Y0029709D02*
X0282828Y0029709D01*
X0282435Y0030102D02*
X0282322Y0030102D01*
X0278420Y0029317D02*
X0276337Y0029317D01*
X0276930Y0029709D02*
X0277828Y0029709D01*
X0277435Y0030102D02*
X0277322Y0030102D01*
X0268420Y0029317D02*
X0261675Y0029317D01*
X0261930Y0029709D02*
X0267828Y0029709D01*
X0267435Y0030102D02*
X0262322Y0030102D01*
X0262631Y0030494D02*
X0267126Y0030494D01*
X0266964Y0030886D02*
X0262794Y0030886D01*
X0262956Y0031278D02*
X0266801Y0031278D01*
X0266701Y0031670D02*
X0263057Y0031670D01*
X0263057Y0032063D02*
X0266701Y0032063D01*
X0266701Y0032455D02*
X0263057Y0032455D01*
X0263057Y0032847D02*
X0266701Y0032847D01*
X0266701Y0033239D02*
X0263057Y0033239D01*
X0263057Y0033631D02*
X0266701Y0033631D01*
X0266701Y0034024D02*
X0263057Y0034024D01*
X0263057Y0034416D02*
X0266701Y0034416D01*
X0266701Y0034808D02*
X0263057Y0034808D01*
X0263057Y0035200D02*
X0266701Y0035200D01*
X0266701Y0035593D02*
X0263057Y0035593D01*
X0263057Y0035985D02*
X0266701Y0035985D01*
X0266701Y0036377D02*
X0263057Y0036377D01*
X0263047Y0036769D02*
X0266710Y0036769D01*
X0266872Y0037161D02*
X0262885Y0037161D01*
X0262722Y0037554D02*
X0267035Y0037554D01*
X0267215Y0037946D02*
X0262542Y0037946D01*
X0262150Y0038338D02*
X0267607Y0038338D01*
X0267882Y0038730D02*
X0261758Y0038730D01*
X0261675Y0039122D02*
X0267882Y0039122D01*
X0267756Y0039515D02*
X0261675Y0039515D01*
X0261479Y0039907D02*
X0267364Y0039907D01*
X0266972Y0040299D02*
X0261087Y0040299D01*
X0260695Y0040691D02*
X0266580Y0040691D01*
X0266188Y0041084D02*
X0260303Y0041084D01*
X0259911Y0041476D02*
X0265795Y0041476D01*
X0265403Y0041868D02*
X0259518Y0041868D01*
X0259126Y0042260D02*
X0265011Y0042260D01*
X0264619Y0042652D02*
X0258734Y0042652D01*
X0258342Y0043045D02*
X0264227Y0043045D01*
X0263834Y0043437D02*
X0257949Y0043437D01*
X0257557Y0043829D02*
X0263442Y0043829D01*
X0263050Y0044221D02*
X0257165Y0044221D01*
X0270101Y0053847D02*
X0270101Y0054511D01*
X0269400Y0055213D01*
X0263290Y0055213D01*
X0262595Y0054517D01*
X0262113Y0055000D01*
X0262601Y0055488D01*
X0262601Y0060811D01*
X0261900Y0061512D01*
X0260842Y0061512D01*
X0260842Y0069173D01*
X0260922Y0069253D01*
X0271768Y0069253D01*
X0271848Y0069173D01*
X0271848Y0067762D01*
X0270790Y0067762D01*
X0270089Y0067061D01*
X0270089Y0061738D01*
X0270578Y0061250D01*
X0270089Y0060761D01*
X0270089Y0055439D01*
X0270790Y0054738D01*
X0271848Y0054738D01*
X0271848Y0052321D01*
X0270322Y0053847D01*
X0270101Y0053847D01*
X0270101Y0054027D02*
X0271848Y0054027D01*
X0271848Y0054419D02*
X0270101Y0054419D01*
X0269802Y0054811D02*
X0270718Y0054811D01*
X0270325Y0055203D02*
X0269409Y0055203D01*
X0270089Y0055595D02*
X0262601Y0055595D01*
X0262601Y0055988D02*
X0270089Y0055988D01*
X0270089Y0056380D02*
X0262601Y0056380D01*
X0262601Y0056772D02*
X0270089Y0056772D01*
X0270089Y0057164D02*
X0262601Y0057164D01*
X0262601Y0057556D02*
X0270089Y0057556D01*
X0270089Y0057949D02*
X0262601Y0057949D01*
X0262601Y0058341D02*
X0270089Y0058341D01*
X0270089Y0058733D02*
X0262601Y0058733D01*
X0262601Y0059125D02*
X0270089Y0059125D01*
X0270089Y0059517D02*
X0262601Y0059517D01*
X0262601Y0059910D02*
X0270089Y0059910D01*
X0270089Y0060302D02*
X0262601Y0060302D01*
X0262601Y0060694D02*
X0270089Y0060694D01*
X0270414Y0061086D02*
X0262325Y0061086D01*
X0261933Y0061479D02*
X0270349Y0061479D01*
X0270089Y0061871D02*
X0260842Y0061871D01*
X0260842Y0062263D02*
X0270089Y0062263D01*
X0270089Y0062655D02*
X0260842Y0062655D01*
X0260842Y0063047D02*
X0270089Y0063047D01*
X0270089Y0063440D02*
X0260842Y0063440D01*
X0260842Y0063832D02*
X0270089Y0063832D01*
X0270089Y0064224D02*
X0260842Y0064224D01*
X0260842Y0064616D02*
X0270089Y0064616D01*
X0270089Y0065008D02*
X0260842Y0065008D01*
X0260842Y0065401D02*
X0270089Y0065401D01*
X0270089Y0065793D02*
X0260842Y0065793D01*
X0260842Y0066185D02*
X0270089Y0066185D01*
X0270089Y0066577D02*
X0260842Y0066577D01*
X0260842Y0066970D02*
X0270089Y0066970D01*
X0270390Y0067362D02*
X0260842Y0067362D01*
X0260842Y0067754D02*
X0270782Y0067754D01*
X0271848Y0068146D02*
X0260842Y0068146D01*
X0260842Y0068538D02*
X0271848Y0068538D01*
X0271848Y0068931D02*
X0260842Y0068931D01*
X0262316Y0055203D02*
X0263281Y0055203D01*
X0262889Y0054811D02*
X0262302Y0054811D01*
X0270535Y0053634D02*
X0271848Y0053634D01*
X0271848Y0053242D02*
X0270927Y0053242D01*
X0271319Y0052850D02*
X0271848Y0052850D01*
X0271848Y0052458D02*
X0271711Y0052458D01*
X0275842Y0047359D02*
X0276687Y0047359D01*
X0276339Y0046967D02*
X0275952Y0046967D01*
X0237103Y0065793D02*
X0235304Y0065793D01*
X0235696Y0066185D02*
X0236711Y0066185D01*
X0236319Y0066577D02*
X0236089Y0066577D01*
X0204023Y0080305D02*
X0203716Y0080305D01*
X0197773Y0080305D02*
X0197417Y0080305D01*
X0177942Y0087365D02*
X0177248Y0087365D01*
X0171643Y0087365D02*
X0147772Y0087365D01*
X0148164Y0086972D02*
X0171251Y0086972D01*
X0171083Y0086580D02*
X0148556Y0086580D01*
X0148948Y0086188D02*
X0152978Y0086188D01*
X0152236Y0085796D02*
X0149341Y0085796D01*
X0149733Y0085403D02*
X0151844Y0085403D01*
X0151570Y0085011D02*
X0150125Y0085011D01*
X0150517Y0084619D02*
X0151408Y0084619D01*
X0151261Y0084227D02*
X0150909Y0084227D01*
X0154712Y0086188D02*
X0164216Y0086188D01*
X0163839Y0085796D02*
X0155454Y0085796D01*
X0159058Y0089326D02*
X0145811Y0089326D01*
X0145418Y0089718D02*
X0158756Y0089718D01*
X0158594Y0090110D02*
X0145026Y0090110D01*
X0144634Y0090502D02*
X0158432Y0090502D01*
X0158367Y0090894D02*
X0144242Y0090894D01*
X0143850Y0091287D02*
X0158367Y0091287D01*
X0158367Y0091679D02*
X0143457Y0091679D01*
X0143065Y0092071D02*
X0158462Y0092071D01*
X0158624Y0092463D02*
X0142673Y0092463D01*
X0142281Y0092856D02*
X0158787Y0092856D01*
X0159131Y0093248D02*
X0141889Y0093248D01*
X0141496Y0093640D02*
X0159524Y0093640D01*
X0160280Y0094032D02*
X0141104Y0094032D01*
X0140712Y0094424D02*
X0163839Y0094424D01*
X0163839Y0094032D02*
X0162410Y0094032D01*
X0163167Y0093640D02*
X0163839Y0093640D01*
X0163839Y0093248D02*
X0163559Y0093248D01*
X0164144Y0094817D02*
X0140320Y0094817D01*
X0139927Y0095209D02*
X0164119Y0095209D01*
X0163839Y0095601D02*
X0139535Y0095601D01*
X0139143Y0095993D02*
X0163839Y0095993D01*
X0163839Y0096385D02*
X0139890Y0096385D01*
X0140527Y0096778D02*
X0163839Y0096778D01*
X0164095Y0088933D02*
X0163240Y0088933D01*
X0162587Y0088541D02*
X0164487Y0088541D01*
X0160103Y0088541D02*
X0146595Y0088541D01*
X0146203Y0088933D02*
X0159450Y0088933D01*
X0170974Y0086188D02*
X0171083Y0086188D01*
X0163999Y0074029D02*
X0163336Y0074029D01*
X0162819Y0073637D02*
X0164391Y0073637D01*
X0154653Y0065401D02*
X0138438Y0065401D01*
X0138438Y0065793D02*
X0154261Y0065793D01*
X0153869Y0066185D02*
X0138438Y0066185D01*
X0138438Y0066577D02*
X0153477Y0066577D01*
X0153084Y0066970D02*
X0138438Y0066970D01*
X0138438Y0067362D02*
X0152692Y0067362D01*
X0152300Y0067754D02*
X0138438Y0067754D01*
X0138438Y0068146D02*
X0151908Y0068146D01*
X0151516Y0068538D02*
X0138438Y0068538D01*
X0138438Y0068931D02*
X0151123Y0068931D01*
X0150731Y0069323D02*
X0138438Y0069323D01*
X0138438Y0069715D02*
X0150339Y0069715D01*
X0149947Y0070107D02*
X0138438Y0070107D01*
X0138438Y0070499D02*
X0149555Y0070499D01*
X0149162Y0070892D02*
X0138438Y0070892D01*
X0138438Y0071284D02*
X0148770Y0071284D01*
X0148378Y0071676D02*
X0138438Y0071676D01*
X0138438Y0072068D02*
X0147986Y0072068D01*
X0147594Y0072460D02*
X0138438Y0072460D01*
X0138438Y0072853D02*
X0147201Y0072853D01*
X0146809Y0073245D02*
X0138438Y0073245D01*
X0138438Y0073637D02*
X0146417Y0073637D01*
X0146025Y0074029D02*
X0138438Y0074029D01*
X0138438Y0074422D02*
X0145632Y0074422D01*
X0145240Y0074814D02*
X0138438Y0074814D01*
X0138438Y0075206D02*
X0144848Y0075206D01*
X0144456Y0075598D02*
X0138438Y0075598D01*
X0138438Y0075990D02*
X0144064Y0075990D01*
X0143671Y0076383D02*
X0138438Y0076383D01*
X0138438Y0076775D02*
X0143279Y0076775D01*
X0142887Y0077167D02*
X0138438Y0077167D01*
X0138438Y0077559D02*
X0142495Y0077559D01*
X0142103Y0077951D02*
X0138438Y0077951D01*
X0138438Y0078344D02*
X0141710Y0078344D01*
X0141318Y0078736D02*
X0138438Y0078736D01*
X0138438Y0079128D02*
X0140926Y0079128D01*
X0140534Y0079520D02*
X0138325Y0079520D01*
X0138162Y0079913D02*
X0140141Y0079913D01*
X0139749Y0080305D02*
X0138000Y0080305D01*
X0137837Y0080697D02*
X0139357Y0080697D01*
X0138965Y0081089D02*
X0137675Y0081089D01*
X0137512Y0081481D02*
X0138573Y0081481D01*
X0138180Y0081874D02*
X0137341Y0081874D01*
X0136948Y0082266D02*
X0137788Y0082266D01*
X0137396Y0082658D02*
X0136556Y0082658D01*
X0136164Y0083050D02*
X0137004Y0083050D01*
X0136612Y0083442D02*
X0135772Y0083442D01*
X0135380Y0083835D02*
X0136219Y0083835D01*
X0135827Y0084227D02*
X0134463Y0084227D01*
X0133516Y0084619D02*
X0135435Y0084619D01*
X0124845Y0095209D02*
X0102496Y0095209D01*
X0103443Y0095601D02*
X0124453Y0095601D01*
X0124061Y0095993D02*
X0104024Y0095993D01*
X0104416Y0096385D02*
X0123669Y0096385D01*
X0123276Y0096778D02*
X0104808Y0096778D01*
X0105043Y0097170D02*
X0122884Y0097170D01*
X0138438Y0065008D02*
X0155046Y0065008D01*
X0155438Y0064616D02*
X0138438Y0064616D01*
X0138277Y0064224D02*
X0155830Y0064224D01*
X0156222Y0063832D02*
X0138115Y0063832D01*
X0137952Y0063440D02*
X0156614Y0063440D01*
X0157007Y0063047D02*
X0137790Y0063047D01*
X0137628Y0062655D02*
X0157399Y0062655D01*
X0157791Y0062263D02*
X0137465Y0062263D01*
X0137227Y0061871D02*
X0158183Y0061871D01*
X0158575Y0061479D02*
X0136834Y0061479D01*
X0136442Y0061086D02*
X0158968Y0061086D01*
X0159360Y0060694D02*
X0136050Y0060694D01*
X0135658Y0060302D02*
X0159752Y0060302D01*
X0160144Y0059910D02*
X0135134Y0059910D01*
X0134187Y0059517D02*
X0160405Y0059517D01*
X0160405Y0059125D02*
X0133241Y0059125D01*
X0163998Y0029709D02*
X0164095Y0029709D01*
X0163998Y0029317D02*
X0164487Y0029317D01*
X0164879Y0028925D02*
X0163998Y0028925D01*
X0163998Y0028533D02*
X0165271Y0028533D01*
X0165663Y0028141D02*
X0163998Y0028141D01*
X0163998Y0027748D02*
X0166056Y0027748D01*
X0166448Y0027356D02*
X0163998Y0027356D01*
X0163998Y0026964D02*
X0166840Y0026964D01*
X0167232Y0026572D02*
X0163998Y0026572D01*
X0163998Y0026179D02*
X0167625Y0026179D01*
X0177315Y0026572D02*
X0189107Y0026572D01*
X0189500Y0026179D02*
X0177707Y0026179D01*
X0178099Y0025787D02*
X0189892Y0025787D01*
X0181166Y0023826D02*
X0180060Y0023826D01*
X0224865Y0086972D02*
X0229332Y0086972D01*
X0228939Y0087365D02*
X0224865Y0087365D01*
X0224865Y0087757D02*
X0228547Y0087757D01*
X0228155Y0088149D02*
X0224865Y0088149D01*
X0224865Y0088541D02*
X0227763Y0088541D01*
X0227371Y0088933D02*
X0224865Y0088933D01*
X0224865Y0089326D02*
X0226978Y0089326D01*
X0226586Y0089718D02*
X0224521Y0089718D01*
X0224349Y0090110D02*
X0226194Y0090110D01*
X0225802Y0090502D02*
X0224741Y0090502D01*
X0204119Y0095209D02*
X0203621Y0095209D01*
X0197869Y0095209D02*
X0197321Y0095209D01*
X0309858Y0102269D02*
X0312048Y0102269D01*
X0312048Y0102661D02*
X0309858Y0102661D01*
X0309858Y0103053D02*
X0312048Y0103053D01*
X0312048Y0103445D02*
X0309858Y0103445D01*
X0310999Y0103837D02*
X0312048Y0103837D01*
X0312048Y0104230D02*
X0311391Y0104230D01*
X0311607Y0104622D02*
X0312176Y0104622D01*
X0312568Y0105014D02*
X0311607Y0105014D01*
X0311607Y0105406D02*
X0312960Y0105406D01*
X0313353Y0105799D02*
X0311607Y0105799D01*
X0311607Y0106191D02*
X0313745Y0106191D01*
X0314137Y0106583D02*
X0311607Y0106583D01*
X0311607Y0106975D02*
X0316083Y0106975D01*
X0316083Y0107367D02*
X0311607Y0107367D01*
X0311607Y0107760D02*
X0316083Y0107760D01*
X0316180Y0108152D02*
X0311607Y0108152D01*
X0311299Y0101876D02*
X0312048Y0101876D01*
X0312048Y0101484D02*
X0311691Y0101484D01*
X0311715Y0101092D02*
X0312048Y0101092D01*
X0312004Y0100700D02*
X0311715Y0100700D01*
X0315737Y0095601D02*
X0316083Y0095601D01*
X0316083Y0095209D02*
X0315345Y0095209D01*
X0314953Y0094817D02*
X0316083Y0094817D01*
X0316104Y0094424D02*
X0314745Y0094424D01*
X0315137Y0094032D02*
X0316496Y0094032D01*
X0387832Y0010906D02*
X0387830Y0010754D01*
X0387824Y0010602D01*
X0387814Y0010450D01*
X0387801Y0010299D01*
X0387783Y0010148D01*
X0387762Y0009997D01*
X0387736Y0009847D01*
X0387707Y0009698D01*
X0387674Y0009549D01*
X0387637Y0009402D01*
X0387597Y0009255D01*
X0387552Y0009110D01*
X0387504Y0008966D01*
X0387452Y0008823D01*
X0387397Y0008681D01*
X0387338Y0008541D01*
X0387275Y0008402D01*
X0387209Y0008265D01*
X0387139Y0008130D01*
X0387066Y0007997D01*
X0386989Y0007866D01*
X0386909Y0007736D01*
X0386826Y0007609D01*
X0386740Y0007484D01*
X0386650Y0007361D01*
X0386557Y0007241D01*
X0386461Y0007123D01*
X0386362Y0007007D01*
X0386260Y0006894D01*
X0386156Y0006784D01*
X0386048Y0006676D01*
X0385938Y0006572D01*
X0385825Y0006470D01*
X0385709Y0006371D01*
X0385591Y0006275D01*
X0385471Y0006182D01*
X0385348Y0006092D01*
X0385223Y0006006D01*
X0385096Y0005923D01*
X0384966Y0005843D01*
X0384835Y0005766D01*
X0384702Y0005693D01*
X0384567Y0005623D01*
X0384430Y0005557D01*
X0384291Y0005494D01*
X0384151Y0005435D01*
X0384009Y0005380D01*
X0383866Y0005328D01*
X0383722Y0005280D01*
X0383577Y0005235D01*
X0383430Y0005195D01*
X0383283Y0005158D01*
X0383134Y0005125D01*
X0382985Y0005096D01*
X0382835Y0005070D01*
X0382684Y0005049D01*
X0382533Y0005031D01*
X0382382Y0005018D01*
X0382230Y0005008D01*
X0382078Y0005002D01*
X0381926Y0005000D01*
D11*
X0314879Y0032153D02*
X0314879Y0036115D01*
X0309879Y0036115D02*
X0309879Y0032153D01*
X0304879Y0032153D02*
X0304879Y0036115D01*
X0299879Y0036115D02*
X0299879Y0032153D01*
X0294879Y0032153D02*
X0294879Y0036115D01*
X0289879Y0036115D02*
X0289879Y0032153D01*
X0284879Y0032153D02*
X0284879Y0036115D01*
X0279879Y0036115D02*
X0279879Y0032153D01*
X0274879Y0032153D02*
X0274879Y0036115D01*
X0269879Y0036115D02*
X0269879Y0032153D01*
X0264879Y0032153D02*
X0264879Y0036115D01*
X0259879Y0036115D02*
X0259879Y0032153D01*
X0254879Y0032153D02*
X0254879Y0036115D01*
D12*
X0131335Y0066024D02*
X0131335Y0077835D01*
X0131335Y0125079D02*
X0131335Y0136890D01*
D13*
X0167595Y0120650D03*
X0167595Y0114350D03*
X0187595Y0113150D03*
X0187595Y0106850D03*
X0187595Y0098150D03*
X0187595Y0091850D03*
X0187595Y0083150D03*
X0187595Y0076850D03*
X0207595Y0076850D03*
X0207595Y0083150D03*
X0207595Y0091850D03*
X0207595Y0098150D03*
X0207595Y0106850D03*
X0207595Y0113150D03*
X0167595Y0098150D03*
X0167595Y0091850D03*
X0167595Y0083150D03*
X0167595Y0076850D03*
X0206970Y0061900D03*
X0206970Y0055600D03*
X0206970Y0048775D03*
X0206970Y0042475D03*
X0241345Y0048100D03*
X0248845Y0048100D03*
X0258845Y0051850D03*
X0258845Y0058150D03*
X0266345Y0058150D03*
X0266345Y0051850D03*
X0273845Y0058100D03*
X0285095Y0058100D03*
X0285095Y0064400D03*
X0273845Y0064400D03*
X0295095Y0064400D03*
X0305095Y0064400D03*
X0305095Y0058100D03*
X0295095Y0058100D03*
X0290095Y0050650D03*
X0300095Y0050650D03*
X0310095Y0050650D03*
X0310095Y0044350D03*
X0300095Y0044350D03*
X0290095Y0044350D03*
X0280095Y0044350D03*
X0280095Y0050650D03*
X0248845Y0054400D03*
X0241345Y0054400D03*
X0250095Y0071850D03*
X0250095Y0078150D03*
X0251345Y0103100D03*
X0258845Y0103100D03*
X0258845Y0109400D03*
X0251345Y0109400D03*
X0290095Y0134350D03*
X0290095Y0140650D03*
X0321345Y0089400D03*
X0321345Y0083100D03*
D14*
X0319446Y0097500D03*
X0325745Y0097500D03*
X0325745Y0105000D03*
X0319446Y0105000D03*
X0308245Y0107500D03*
X0301946Y0107500D03*
X0281995Y0133750D03*
X0275696Y0133750D03*
X0275696Y0141250D03*
X0281995Y0141250D03*
X0281995Y0148750D03*
X0275696Y0148750D03*
X0301946Y0147500D03*
X0308245Y0147500D03*
X0200745Y0113750D03*
X0194446Y0113750D03*
X0180745Y0113750D03*
X0174446Y0113750D03*
X0174446Y0098750D03*
X0180745Y0098750D03*
X0194446Y0098750D03*
X0200745Y0098750D03*
X0200745Y0083750D03*
X0194446Y0083750D03*
X0180745Y0083750D03*
X0174446Y0083750D03*
X0226321Y0060625D03*
X0232620Y0060625D03*
X0233245Y0038750D03*
X0226946Y0038750D03*
X0220745Y0038750D03*
X0214446Y0038750D03*
X0323196Y0037500D03*
X0329495Y0037500D03*
X0336946Y0030000D03*
X0343245Y0030000D03*
X0331995Y0062500D03*
X0325696Y0062500D03*
D15*
X0267782Y0133760D03*
X0259908Y0137500D03*
X0267782Y0141240D03*
D16*
X0068934Y0141811D03*
X0049249Y0141811D03*
X0049249Y0084724D03*
X0059091Y0084724D03*
X0068934Y0084724D03*
D17*
X0081532Y0114252D03*
X0036650Y0114252D03*
D18*
X0220223Y0102500D03*
X0220223Y0097500D03*
X0220223Y0092500D03*
X0220223Y0087500D03*
X0220223Y0082500D03*
X0220223Y0077500D03*
X0220223Y0072500D03*
X0242467Y0072500D03*
X0242467Y0077500D03*
X0242467Y0082500D03*
X0242467Y0087500D03*
X0242467Y0092500D03*
X0242467Y0097500D03*
X0242467Y0102500D03*
D19*
X0284829Y0100177D03*
X0284829Y0097618D03*
X0284829Y0095059D03*
X0284829Y0092500D03*
X0284829Y0089941D03*
X0284829Y0087382D03*
X0284829Y0084823D03*
X0307861Y0084823D03*
X0307861Y0087382D03*
X0307861Y0089941D03*
X0307861Y0092500D03*
X0307861Y0095059D03*
X0307861Y0097618D03*
X0307861Y0100177D03*
D20*
X0283068Y0019764D02*
X0283068Y0013858D01*
X0273068Y0013858D02*
X0273068Y0019764D01*
X0263068Y0019764D02*
X0263068Y0013858D01*
X0253068Y0013858D02*
X0253068Y0019764D01*
X0243068Y0019764D02*
X0243068Y0013858D01*
X0233068Y0013858D02*
X0233068Y0019764D01*
X0223068Y0019764D02*
X0223068Y0013858D01*
X0213068Y0013858D02*
X0213068Y0019764D01*
X0192201Y0019764D02*
X0192201Y0013858D01*
X0182201Y0013858D02*
X0182201Y0019764D01*
X0172201Y0019764D02*
X0172201Y0013858D01*
X0162201Y0013858D02*
X0162201Y0019764D01*
X0101414Y0099252D02*
X0095509Y0099252D01*
X0095509Y0109252D02*
X0101414Y0109252D01*
X0101414Y0119252D02*
X0095509Y0119252D01*
X0095509Y0129252D02*
X0101414Y0129252D01*
D21*
X0300833Y0133760D03*
X0300833Y0141240D03*
X0311857Y0141240D03*
X0311857Y0137500D03*
X0311857Y0133760D03*
D22*
X0326345Y0053937D03*
X0322605Y0046063D03*
X0330085Y0046063D03*
X0200085Y0040438D03*
X0192605Y0040438D03*
X0196345Y0048312D03*
D23*
X0072871Y0016811D03*
X0376020Y0016811D03*
X0376020Y0186102D03*
X0072871Y0186102D03*
D24*
X0216365Y0054464D03*
X0216365Y0051905D03*
X0216365Y0049345D03*
X0216365Y0046786D03*
X0231325Y0046786D03*
X0231325Y0049345D03*
X0231325Y0051905D03*
X0231325Y0054464D03*
D25*
X0223220Y0046875D03*
X0213220Y0045625D03*
X0208845Y0036875D03*
X0198845Y0057500D03*
X0213845Y0073750D03*
X0226970Y0073750D03*
X0239470Y0063125D03*
X0244470Y0063125D03*
X0255095Y0063750D03*
X0263220Y0067500D03*
X0267595Y0064375D03*
X0280095Y0070000D03*
X0290095Y0070000D03*
X0300095Y0070000D03*
X0310095Y0070000D03*
X0300095Y0077500D03*
X0285095Y0081250D03*
X0268220Y0082500D03*
X0263845Y0082500D03*
X0258845Y0080000D03*
X0251345Y0085000D03*
X0263845Y0092500D03*
X0267595Y0092500D03*
X0271345Y0092500D03*
X0283845Y0105000D03*
X0288845Y0105000D03*
X0297595Y0113750D03*
X0302595Y0113750D03*
X0296345Y0132500D03*
X0296345Y0136250D03*
X0296345Y0146250D03*
X0296345Y0150000D03*
X0287595Y0150000D03*
X0287595Y0146250D03*
X0260095Y0115000D03*
X0255095Y0115000D03*
X0250095Y0115000D03*
X0213845Y0102500D03*
X0197595Y0107500D03*
X0177595Y0107500D03*
X0177595Y0092500D03*
X0161345Y0091250D03*
X0177595Y0077500D03*
X0161345Y0076250D03*
X0197595Y0077500D03*
X0213845Y0087500D03*
X0226970Y0086875D03*
X0197595Y0092500D03*
X0298845Y0093750D03*
X0313845Y0087500D03*
X0337595Y0066250D03*
X0337595Y0062500D03*
X0337595Y0058750D03*
X0330095Y0031875D03*
X0245095Y0035000D03*
D26*
X0241970Y0028125D03*
X0263220Y0041875D03*
X0236345Y0051250D03*
X0221345Y0051250D03*
X0272595Y0025000D03*
X0272595Y0080000D03*
X0276345Y0083750D03*
X0153845Y0083750D03*
X0143845Y0083750D03*
X0131345Y0091250D03*
X0138845Y0098750D03*
D27*
X0161345Y0091250D02*
X0166995Y0091250D01*
X0167595Y0091850D01*
X0161355Y0091260D02*
X0161345Y0091250D01*
X0167595Y0098150D02*
X0168196Y0098750D01*
X0167595Y0098150D02*
X0166995Y0098750D01*
X0186995Y0098750D02*
X0187595Y0098150D01*
X0188196Y0098750D01*
X0206995Y0098750D02*
X0207595Y0098150D01*
X0208245Y0097500D01*
X0208245Y0092500D02*
X0207595Y0091850D01*
X0213845Y0087500D02*
X0220223Y0087500D01*
X0208245Y0082500D02*
X0207595Y0083150D01*
X0206995Y0083750D01*
X0208245Y0077500D02*
X0207595Y0076850D01*
X0194446Y0083750D02*
X0193845Y0083150D01*
X0187595Y0083150D02*
X0186995Y0083750D01*
X0168196Y0083750D02*
X0167595Y0083150D01*
X0166995Y0083750D01*
X0167595Y0076850D02*
X0167005Y0076260D01*
X0161355Y0076260D01*
X0161345Y0076250D01*
X0213845Y0102500D02*
X0220223Y0102500D01*
X0208245Y0107500D02*
X0207595Y0106850D01*
X0208245Y0112500D02*
X0207595Y0113150D01*
X0206995Y0113750D01*
X0188196Y0113750D02*
X0187595Y0113150D01*
X0186995Y0113750D01*
X0175095Y0118750D02*
X0173196Y0120650D01*
X0167595Y0120650D01*
X0175095Y0118750D02*
X0228845Y0118750D01*
X0242595Y0105000D01*
X0242595Y0102628D01*
X0251345Y0102628D01*
X0251345Y0103100D01*
X0258845Y0103100D01*
X0258845Y0080000D01*
X0250095Y0078150D02*
X0249446Y0077500D01*
X0249446Y0072500D02*
X0242467Y0072500D01*
X0238220Y0067500D02*
X0236345Y0069375D01*
X0236345Y0081250D01*
X0237595Y0082500D01*
X0242467Y0082500D01*
X0248845Y0082500D01*
X0251345Y0085000D01*
X0256345Y0073750D02*
X0255095Y0072500D01*
X0250095Y0072500D01*
X0250095Y0071850D01*
X0249446Y0072500D01*
X0256345Y0073750D02*
X0312595Y0073750D01*
X0314879Y0071467D01*
X0314879Y0057500D01*
X0317595Y0057500D01*
X0314879Y0057500D02*
X0314879Y0034134D01*
X0309879Y0034134D02*
X0309879Y0044134D01*
X0310095Y0044350D01*
X0300095Y0044350D02*
X0299879Y0044134D01*
X0299879Y0034134D01*
X0304879Y0034134D02*
X0304879Y0057884D01*
X0305095Y0058100D01*
X0295095Y0058100D02*
X0294879Y0057884D01*
X0294879Y0034134D01*
X0289879Y0034134D02*
X0289879Y0044134D01*
X0290095Y0044350D01*
X0280095Y0044350D02*
X0275745Y0044350D01*
X0273845Y0046250D01*
X0273845Y0058100D01*
X0269495Y0051850D02*
X0266345Y0051850D01*
X0258845Y0051850D01*
X0253845Y0054400D02*
X0248845Y0054400D01*
X0241345Y0054400D01*
X0238220Y0058750D02*
X0233934Y0054464D01*
X0231325Y0054464D01*
X0228757Y0054464D01*
X0226321Y0056900D01*
X0226321Y0060625D01*
X0238220Y0058750D02*
X0251970Y0058750D01*
X0255095Y0061875D01*
X0255095Y0063750D01*
X0258845Y0067500D02*
X0238220Y0067500D01*
X0253845Y0056875D02*
X0253845Y0054400D01*
X0253845Y0048750D01*
X0256345Y0046250D01*
X0263845Y0046250D01*
X0269879Y0040217D01*
X0269879Y0034134D01*
X0274879Y0034134D02*
X0274879Y0040217D01*
X0271345Y0043750D01*
X0271345Y0050000D01*
X0269495Y0051850D01*
X0258845Y0058150D02*
X0258821Y0058125D01*
X0255095Y0058125D01*
X0253845Y0056875D01*
X0258845Y0058150D02*
X0258845Y0067500D01*
X0258845Y0070000D01*
X0260095Y0071250D01*
X0272595Y0071250D01*
X0273845Y0070000D01*
X0273845Y0064400D01*
X0284879Y0057884D02*
X0285095Y0058100D01*
X0284879Y0057884D02*
X0284879Y0034134D01*
X0279879Y0034134D02*
X0279879Y0044134D01*
X0280095Y0044350D01*
X0245095Y0035000D02*
X0244470Y0034375D01*
X0228220Y0034375D01*
X0226946Y0035650D01*
X0226946Y0038750D01*
X0220745Y0038750D01*
X0285095Y0081250D02*
X0285095Y0084557D01*
X0300095Y0077500D02*
X0316345Y0077500D01*
X0321345Y0072500D01*
X0326345Y0077500D01*
X0326345Y0088750D01*
X0325095Y0090000D01*
X0321345Y0090000D01*
X0321345Y0089400D01*
X0320745Y0090000D01*
X0316345Y0090000D01*
X0313845Y0092500D01*
X0307861Y0092500D01*
X0303845Y0092500D01*
X0302595Y0093750D01*
X0302595Y0098750D01*
X0304022Y0100177D01*
X0307861Y0100177D01*
X0307861Y0107500D01*
X0308245Y0107500D01*
X0308245Y0116900D01*
X0320095Y0128750D01*
X0320095Y0143125D01*
X0315720Y0147500D01*
X0308245Y0147500D01*
X0307595Y0146850D01*
X0307595Y0138750D01*
X0308845Y0137500D01*
X0311857Y0137500D01*
X0311857Y0141240D02*
X0311867Y0141250D01*
X0290686Y0141240D02*
X0290095Y0140650D01*
X0289495Y0141250D01*
X0290095Y0134350D02*
X0289495Y0133750D01*
X0282005Y0133740D02*
X0281995Y0133750D01*
X0275696Y0133750D02*
X0275686Y0133760D01*
X0275686Y0141240D02*
X0267782Y0141240D01*
X0275686Y0141240D02*
X0275696Y0141250D01*
X0275696Y0148750D01*
X0259908Y0137500D02*
X0253845Y0137500D01*
X0247595Y0131250D01*
X0247329Y0130984D01*
X0131335Y0130984D01*
X0167595Y0114350D02*
X0168196Y0113750D01*
X0242467Y0102500D02*
X0242467Y0097500D01*
X0242467Y0102500D02*
X0242595Y0102628D01*
X0307861Y0084823D02*
X0311522Y0084823D01*
X0313845Y0082500D01*
X0320745Y0082500D01*
X0321345Y0083100D01*
X0321345Y0072500D02*
X0321345Y0063750D01*
X0322595Y0062500D01*
X0325696Y0062500D01*
X0326345Y0062500D01*
X0326345Y0061850D02*
X0326345Y0053937D01*
X0322605Y0046063D02*
X0323196Y0045472D01*
X0330085Y0046063D02*
X0330085Y0038091D01*
X0330095Y0036900D02*
X0330095Y0031875D01*
D28*
X0330095Y0036900D02*
X0329495Y0037500D01*
X0330085Y0038091D01*
X0326345Y0061850D02*
X0325696Y0062500D01*
D29*
X0323196Y0045472D02*
X0323196Y0037500D01*
X0323196Y0030600D01*
X0325671Y0028125D01*
X0331970Y0028125D01*
X0333845Y0030000D01*
X0336946Y0030000D01*
X0323196Y0030600D02*
X0320720Y0028125D01*
X0288220Y0028125D01*
X0283068Y0022972D01*
X0281040Y0025000D01*
X0272595Y0025000D01*
X0263068Y0023903D02*
X0261345Y0025625D01*
X0253220Y0025625D01*
X0248845Y0030000D01*
X0248845Y0036250D01*
X0246345Y0038750D01*
X0233245Y0038750D01*
X0233220Y0038775D01*
X0233220Y0043125D01*
X0231325Y0045020D01*
X0231325Y0046786D01*
X0231325Y0049345D02*
X0233875Y0049345D01*
X0235720Y0047500D01*
X0235720Y0044375D01*
X0238845Y0041250D01*
X0248220Y0041250D01*
X0251345Y0038125D01*
X0251345Y0030625D01*
X0253845Y0028125D01*
X0258220Y0028125D01*
X0259879Y0029783D01*
X0259879Y0034134D01*
X0259879Y0038967D01*
X0250720Y0048125D01*
X0248870Y0048125D01*
X0248845Y0048100D01*
X0249879Y0043750D02*
X0242595Y0043750D01*
X0241345Y0045000D01*
X0241345Y0048100D01*
X0239495Y0048100D01*
X0236345Y0051250D01*
X0231325Y0051905D02*
X0228191Y0051905D01*
X0223220Y0056875D01*
X0211970Y0056875D01*
X0210720Y0055625D01*
X0206995Y0055625D01*
X0206970Y0055600D01*
X0206970Y0048775D01*
X0206970Y0049345D01*
X0216365Y0049345D01*
X0220691Y0051905D02*
X0221345Y0051250D01*
X0220691Y0051905D02*
X0216365Y0051905D01*
X0216365Y0054464D02*
X0222507Y0054464D01*
X0226970Y0050000D01*
X0226970Y0045000D01*
X0225095Y0043125D01*
X0215720Y0043125D01*
X0214446Y0041850D01*
X0214446Y0038750D01*
X0214470Y0038725D01*
X0214470Y0034375D01*
X0216970Y0031875D01*
X0243220Y0031875D01*
X0253068Y0022028D01*
X0253068Y0016811D01*
X0263068Y0016811D02*
X0263068Y0023903D01*
X0254879Y0034134D02*
X0254879Y0038750D01*
X0249879Y0043750D01*
X0241345Y0054400D02*
X0241281Y0054464D01*
X0241345Y0054464D02*
X0241345Y0054400D01*
X0231970Y0065000D02*
X0236345Y0069375D01*
X0233845Y0070000D02*
X0231033Y0067188D01*
X0200408Y0067188D01*
X0188845Y0055625D01*
X0188845Y0035625D01*
X0191970Y0032500D01*
X0204470Y0032500D01*
X0210095Y0026875D01*
X0231345Y0026875D01*
X0233068Y0025153D01*
X0233068Y0016811D01*
X0223068Y0016811D02*
X0223068Y0022653D01*
X0221345Y0024375D01*
X0209470Y0024375D01*
X0203845Y0030000D01*
X0191345Y0030000D01*
X0186345Y0035000D01*
X0186345Y0056250D01*
X0199470Y0069375D01*
X0229470Y0069375D01*
X0231345Y0071250D01*
X0231345Y0087500D01*
X0226345Y0092500D01*
X0220223Y0092500D01*
X0208245Y0092500D01*
X0208245Y0097500D02*
X0220223Y0097500D01*
X0225095Y0107500D02*
X0231345Y0101250D01*
X0231345Y0091250D01*
X0235095Y0087500D01*
X0233845Y0086250D01*
X0233845Y0070000D01*
X0231970Y0065000D02*
X0214470Y0065000D01*
X0211370Y0061900D01*
X0206970Y0061900D01*
X0208245Y0060625D01*
X0205720Y0071875D02*
X0198845Y0071875D01*
X0183845Y0056875D01*
X0183845Y0034375D01*
X0190720Y0027500D01*
X0203220Y0027500D01*
X0213068Y0017653D01*
X0213068Y0016811D01*
X0210720Y0029375D02*
X0240720Y0029375D01*
X0241970Y0028125D01*
X0226946Y0036275D02*
X0226946Y0038750D01*
X0215095Y0038100D02*
X0214470Y0038725D01*
X0214446Y0038750D02*
X0213845Y0038150D01*
X0205095Y0035000D02*
X0210720Y0029375D01*
X0205095Y0035000D02*
X0193845Y0035000D01*
X0192605Y0036240D01*
X0192605Y0040438D01*
X0196345Y0048312D02*
X0206970Y0048312D01*
X0206970Y0048775D01*
X0182201Y0019144D02*
X0168220Y0033125D01*
X0168220Y0064375D01*
X0133845Y0098750D01*
X0149446Y0114350D01*
X0167595Y0114350D01*
X0168196Y0113750D02*
X0174446Y0113750D01*
X0180745Y0113750D02*
X0186995Y0113750D01*
X0188196Y0113750D02*
X0194446Y0113750D01*
X0200745Y0113750D02*
X0206995Y0113750D01*
X0208245Y0112500D02*
X0225095Y0112500D01*
X0235095Y0102500D01*
X0235095Y0093750D01*
X0236345Y0092500D01*
X0242467Y0092500D01*
X0242467Y0087500D02*
X0235095Y0087500D01*
X0242467Y0077500D02*
X0249446Y0077500D01*
X0250095Y0078150D02*
X0254446Y0078150D01*
X0256345Y0076250D01*
X0293845Y0076250D01*
X0296345Y0078750D01*
X0296345Y0085000D01*
X0293963Y0087382D01*
X0284829Y0087382D01*
X0284829Y0084823D02*
X0285095Y0084557D01*
X0280095Y0082500D02*
X0277595Y0080000D01*
X0272595Y0080000D01*
X0276345Y0083750D02*
X0276345Y0095000D01*
X0278963Y0097618D01*
X0284829Y0097618D01*
X0284829Y0095059D02*
X0281404Y0095059D01*
X0280095Y0093750D01*
X0280095Y0082500D01*
X0293845Y0092500D02*
X0293845Y0122500D01*
X0296345Y0125000D01*
X0312595Y0125000D01*
X0317595Y0130000D01*
X0317595Y0140000D01*
X0316345Y0141250D01*
X0311867Y0141250D01*
X0311857Y0133760D02*
X0311857Y0129262D01*
X0310095Y0127500D01*
X0292595Y0127500D01*
X0290095Y0130000D01*
X0290095Y0134350D01*
X0289495Y0133750D02*
X0281995Y0133750D01*
X0275686Y0133760D02*
X0267782Y0133760D01*
X0281995Y0141250D02*
X0289495Y0141250D01*
X0290686Y0141240D02*
X0300833Y0141240D01*
X0315095Y0105000D02*
X0319446Y0105000D01*
X0315095Y0105000D02*
X0313845Y0103750D01*
X0313845Y0100000D01*
X0311463Y0097618D01*
X0307861Y0097618D01*
X0307861Y0095059D02*
X0312654Y0095059D01*
X0315095Y0097500D01*
X0319446Y0097500D01*
X0307861Y0087382D02*
X0298963Y0087382D01*
X0293845Y0092500D01*
X0225095Y0107500D02*
X0208245Y0107500D01*
X0206995Y0098750D02*
X0200745Y0098750D01*
X0194446Y0098750D02*
X0188196Y0098750D01*
X0186995Y0098750D02*
X0180745Y0098750D01*
X0174446Y0098750D02*
X0168196Y0098750D01*
X0166995Y0098750D02*
X0138845Y0098750D01*
X0133845Y0098750D02*
X0113343Y0119252D01*
X0098461Y0119252D01*
X0094593Y0119252D01*
X0072034Y0141811D01*
X0068934Y0141811D01*
X0094347Y0109252D02*
X0082595Y0097500D01*
X0055095Y0097500D01*
X0049249Y0091654D01*
X0049249Y0084724D01*
X0068934Y0084724D02*
X0068934Y0091339D01*
X0071345Y0093750D01*
X0083845Y0093750D01*
X0089347Y0099252D01*
X0098461Y0099252D01*
X0123343Y0099252D01*
X0131345Y0091250D01*
X0162201Y0060394D01*
X0162201Y0016811D01*
X0172201Y0016811D02*
X0172201Y0024144D01*
X0165095Y0031250D01*
X0165095Y0062500D01*
X0143845Y0083750D01*
X0118343Y0109252D01*
X0098461Y0109252D01*
X0094347Y0109252D01*
X0153845Y0083750D02*
X0166995Y0083750D01*
X0168196Y0083750D02*
X0174446Y0083750D01*
X0180745Y0083750D02*
X0186995Y0083750D01*
X0187595Y0083150D02*
X0193845Y0083150D01*
X0200745Y0083750D02*
X0206995Y0083750D01*
X0208245Y0082500D02*
X0220223Y0082500D01*
X0220223Y0077500D02*
X0208245Y0077500D01*
X0207595Y0076850D02*
X0207595Y0073750D01*
X0205720Y0071875D01*
X0283068Y0022972D02*
X0283068Y0016811D01*
X0182201Y0016811D02*
X0182201Y0019144D01*
D30*
X0317595Y0057500D03*
X0321345Y0072500D03*
X0293845Y0122500D03*
X0247595Y0131250D03*
M02*
