%
M48
M72
T01C0.0157
T02C0.0236
T03C0.0394
T04C0.0787
T05C0.1024
T06C0.1299
%
T01
X13885Y9875
X13135Y9125
X14385Y8375
X15385Y8375
X22135Y5125
X23635Y5125
X26322Y4188
X24197Y2813
X27260Y2500
X27260Y8000
X27635Y8375
T02
X16135Y9125
X17760Y9250
X19760Y9250
X21385Y8750
X22697Y8688
X25135Y8500
X25885Y8000
X26385Y8250
X26822Y8250
X28510Y8125
X30010Y7750
X30010Y7000
X31010Y7000
X29010Y7000
X28010Y7000
X26760Y6438
X26322Y6750
X25510Y6375
X24447Y6313
X23947Y6313
X22697Y7375
X21385Y7375
X19760Y7750
X17760Y7750
X16135Y7625
X19885Y5750
X21322Y4563
X22322Y4688
X20885Y3688
X24510Y3500
X25488Y3413
X25988Y3413
X26488Y3413
X26988Y3413
X27488Y3413
X27988Y3413
X28488Y3413
X28988Y3413
X29488Y3413
X29988Y3413
X30488Y3413
X30988Y3413
X31488Y3413
X33010Y3188
X33760Y5875
X33760Y6250
X33760Y6625
X31385Y8750
X29885Y9375
X28885Y10500
X28385Y10500
X29760Y11375
X30260Y11375
X29635Y13250
X29635Y13625
X29635Y14625
X29635Y15000
X28760Y15000
X28760Y14625
X26010Y11500
X25510Y11500
X25010Y11500
X21385Y10250
X19760Y10750
X17760Y10750
X26385Y9250
X26760Y9250
X27135Y9250
T03
X4925Y14181
X6893Y14181
X9846Y12925
X9846Y11925
X9846Y10925
X9846Y9925
X6893Y8472
X5909Y8472
X4925Y8472
X16220Y1681
X17220Y1681
X18220Y1681
X19220Y1681
X21307Y1681
X22307Y1681
X23307Y1681
X24307Y1681
X25307Y1681
X26307Y1681
X27307Y1681
X28307Y1681
X31760Y5750
X32135Y7250
X29385Y12250
X24760Y13125
T04
X13134Y13098
X13134Y7193
T05
X3665Y11425
X8153Y11425
T06
X37602Y18610
X7287Y18610
X7287Y1681
X37602Y1681
M30
