%
M48
M72
T01C0.0236
T02C0.0394
T03C0.0787
T04C0.1024
T05C0.1260
%
T01
X17760Y10452
X19760Y10452
X21385Y9952
X19760Y8952
X21385Y8452
X19760Y7452
X17760Y7452
X16135Y7327
X15385Y8077
X14385Y8077
X13135Y8827
X13885Y9577
X16135Y8827
X17760Y8952
X21760Y6452
X22260Y6452
X24010Y5952
X24510Y5952
X25010Y5952
X26510Y6452
X26760Y6077
X28010Y6702
X29010Y6702
X30010Y6702
X30010Y7452
X31010Y6702
X28510Y7827
X27635Y8077
X27260Y7702
X26760Y7952
X26385Y7952
X25885Y7702
X25135Y8202
X26385Y8952
X26760Y8952
X27135Y8952
X28385Y10202
X28885Y10202
X29760Y11077
X30260Y11077
X29635Y12952
X29635Y13327
X29635Y14327
X29635Y14702
X28760Y14702
X28760Y14327
X26010Y11202
X25510Y11202
X25010Y11202
X29885Y9077
X31385Y8452
X33760Y6327
X33760Y5952
X33760Y5577
X31488Y3116
X30988Y3116
X30488Y3116
X29988Y3116
X29488Y3116
X28988Y3116
X28488Y3116
X27988Y3116
X27488Y3116
X26988Y3116
X26488Y3116
X25988Y3116
X25488Y3116
X33010Y2827
T02
X4925Y13883
X6893Y13883
X9846Y12627
X9846Y11627
X9846Y10627
X9846Y9627
X6893Y8175
X5909Y8175
X4925Y8175
X16220Y1383
X17220Y1383
X18220Y1383
X19220Y1383
X21307Y1383
X22307Y1383
X23307Y1383
X24307Y1383
X25307Y1383
X26307Y1383
X27307Y1383
X28307Y1383
X31760Y5452
X32135Y6952
X29385Y11952
X24760Y12827
T03
X13134Y12801
X13134Y6895
T04
X3665Y11127
X8153Y11127
T05
X3941Y1383
X40948Y1383
X40948Y18312
X3941Y18312
X13783Y18312
X13783Y1383
M30
