G75*
%MOIN*%
%OFA0B0*%
%FSLAX25Y25*%
%IPPOS*%
%LPD*%
%AMOC8*
5,1,8,0,0,1.08239X$1,22.5*
%
%ADD10C,0.00394*%
%ADD11C,0.04362*%
%ADD12C,0.11811*%
%ADD13R,0.05118X0.04331*%
%ADD14R,0.04331X0.05118*%
%ADD15R,0.03937X0.03150*%
%ADD16R,0.06693X0.06693*%
%ADD17R,0.14961X0.14961*%
%ADD18R,0.04331X0.02362*%
%ADD19C,0.05937*%
%ADD20R,0.06890X0.02756*%
%ADD21R,0.05315X0.01575*%
%ADD22C,0.00787*%
%ADD23C,0.19685*%
%ADD24C,0.03562*%
%ADD25C,0.01600*%
%ADD26C,0.02400*%
%ADD27C,0.02775*%
D10*
X0027595Y0013833D02*
X0027595Y0183125D01*
X0027598Y0183410D01*
X0027609Y0183696D01*
X0027626Y0183981D01*
X0027650Y0184265D01*
X0027681Y0184549D01*
X0027719Y0184832D01*
X0027764Y0185113D01*
X0027815Y0185394D01*
X0027873Y0185674D01*
X0027938Y0185952D01*
X0028010Y0186228D01*
X0028088Y0186502D01*
X0028173Y0186775D01*
X0028265Y0187045D01*
X0028363Y0187313D01*
X0028467Y0187579D01*
X0028578Y0187842D01*
X0028695Y0188102D01*
X0028818Y0188360D01*
X0028948Y0188614D01*
X0029084Y0188865D01*
X0029225Y0189113D01*
X0029373Y0189357D01*
X0029526Y0189598D01*
X0029686Y0189834D01*
X0029851Y0190067D01*
X0030021Y0190296D01*
X0030197Y0190521D01*
X0030379Y0190741D01*
X0030565Y0190957D01*
X0030757Y0191168D01*
X0030954Y0191375D01*
X0031156Y0191577D01*
X0031363Y0191774D01*
X0031574Y0191966D01*
X0031790Y0192152D01*
X0032010Y0192334D01*
X0032235Y0192510D01*
X0032464Y0192680D01*
X0032697Y0192845D01*
X0032933Y0193005D01*
X0033174Y0193158D01*
X0033418Y0193306D01*
X0033666Y0193447D01*
X0033917Y0193583D01*
X0034171Y0193713D01*
X0034429Y0193836D01*
X0034689Y0193953D01*
X0034952Y0194064D01*
X0035218Y0194168D01*
X0035486Y0194266D01*
X0035756Y0194358D01*
X0036029Y0194443D01*
X0036303Y0194521D01*
X0036579Y0194593D01*
X0036857Y0194658D01*
X0037137Y0194716D01*
X0037418Y0194767D01*
X0037699Y0194812D01*
X0037982Y0194850D01*
X0038266Y0194881D01*
X0038550Y0194905D01*
X0038835Y0194922D01*
X0039121Y0194933D01*
X0039406Y0194936D01*
X0409485Y0194936D01*
X0409770Y0194933D01*
X0410056Y0194922D01*
X0410341Y0194905D01*
X0410625Y0194881D01*
X0410909Y0194850D01*
X0411192Y0194812D01*
X0411473Y0194767D01*
X0411754Y0194716D01*
X0412034Y0194658D01*
X0412312Y0194593D01*
X0412588Y0194521D01*
X0412862Y0194443D01*
X0413135Y0194358D01*
X0413405Y0194266D01*
X0413673Y0194168D01*
X0413939Y0194064D01*
X0414202Y0193953D01*
X0414462Y0193836D01*
X0414720Y0193713D01*
X0414974Y0193583D01*
X0415225Y0193447D01*
X0415473Y0193306D01*
X0415717Y0193158D01*
X0415958Y0193005D01*
X0416194Y0192845D01*
X0416427Y0192680D01*
X0416656Y0192510D01*
X0416881Y0192334D01*
X0417101Y0192152D01*
X0417317Y0191966D01*
X0417528Y0191774D01*
X0417735Y0191577D01*
X0417937Y0191375D01*
X0418134Y0191168D01*
X0418326Y0190957D01*
X0418512Y0190741D01*
X0418694Y0190521D01*
X0418870Y0190296D01*
X0419040Y0190067D01*
X0419205Y0189834D01*
X0419365Y0189598D01*
X0419518Y0189357D01*
X0419666Y0189113D01*
X0419807Y0188865D01*
X0419943Y0188614D01*
X0420073Y0188360D01*
X0420196Y0188102D01*
X0420313Y0187842D01*
X0420424Y0187579D01*
X0420528Y0187313D01*
X0420626Y0187045D01*
X0420718Y0186775D01*
X0420803Y0186502D01*
X0420881Y0186228D01*
X0420953Y0185952D01*
X0421018Y0185674D01*
X0421076Y0185394D01*
X0421127Y0185113D01*
X0421172Y0184832D01*
X0421210Y0184549D01*
X0421241Y0184265D01*
X0421265Y0183981D01*
X0421282Y0183696D01*
X0421293Y0183410D01*
X0421296Y0183125D01*
X0421296Y0013833D01*
X0421293Y0013548D01*
X0421282Y0013262D01*
X0421265Y0012977D01*
X0421241Y0012693D01*
X0421210Y0012409D01*
X0421172Y0012126D01*
X0421127Y0011845D01*
X0421076Y0011564D01*
X0421018Y0011284D01*
X0420953Y0011006D01*
X0420881Y0010730D01*
X0420803Y0010456D01*
X0420718Y0010183D01*
X0420626Y0009913D01*
X0420528Y0009645D01*
X0420424Y0009379D01*
X0420313Y0009116D01*
X0420196Y0008856D01*
X0420073Y0008598D01*
X0419943Y0008344D01*
X0419807Y0008093D01*
X0419666Y0007845D01*
X0419518Y0007601D01*
X0419365Y0007360D01*
X0419205Y0007124D01*
X0419040Y0006891D01*
X0418870Y0006662D01*
X0418694Y0006437D01*
X0418512Y0006217D01*
X0418326Y0006001D01*
X0418134Y0005790D01*
X0417937Y0005583D01*
X0417735Y0005381D01*
X0417528Y0005184D01*
X0417317Y0004992D01*
X0417101Y0004806D01*
X0416881Y0004624D01*
X0416656Y0004448D01*
X0416427Y0004278D01*
X0416194Y0004113D01*
X0415958Y0003953D01*
X0415717Y0003800D01*
X0415473Y0003652D01*
X0415225Y0003511D01*
X0414974Y0003375D01*
X0414720Y0003245D01*
X0414462Y0003122D01*
X0414202Y0003005D01*
X0413939Y0002894D01*
X0413673Y0002790D01*
X0413405Y0002692D01*
X0413135Y0002600D01*
X0412862Y0002515D01*
X0412588Y0002437D01*
X0412312Y0002365D01*
X0412034Y0002300D01*
X0411754Y0002242D01*
X0411473Y0002191D01*
X0411192Y0002146D01*
X0410909Y0002108D01*
X0410625Y0002077D01*
X0410341Y0002053D01*
X0410056Y0002036D01*
X0409770Y0002025D01*
X0409485Y0002022D01*
X0039406Y0002022D01*
X0039121Y0002025D01*
X0038835Y0002036D01*
X0038550Y0002053D01*
X0038266Y0002077D01*
X0037982Y0002108D01*
X0037699Y0002146D01*
X0037418Y0002191D01*
X0037137Y0002242D01*
X0036857Y0002300D01*
X0036579Y0002365D01*
X0036303Y0002437D01*
X0036029Y0002515D01*
X0035756Y0002600D01*
X0035486Y0002692D01*
X0035218Y0002790D01*
X0034952Y0002894D01*
X0034689Y0003005D01*
X0034429Y0003122D01*
X0034171Y0003245D01*
X0033917Y0003375D01*
X0033666Y0003511D01*
X0033418Y0003652D01*
X0033174Y0003800D01*
X0032933Y0003953D01*
X0032697Y0004113D01*
X0032464Y0004278D01*
X0032235Y0004448D01*
X0032010Y0004624D01*
X0031790Y0004806D01*
X0031574Y0004992D01*
X0031363Y0005184D01*
X0031156Y0005381D01*
X0030954Y0005583D01*
X0030757Y0005790D01*
X0030565Y0006001D01*
X0030379Y0006217D01*
X0030197Y0006437D01*
X0030021Y0006662D01*
X0029851Y0006891D01*
X0029686Y0007124D01*
X0029526Y0007360D01*
X0029373Y0007601D01*
X0029225Y0007845D01*
X0029084Y0008093D01*
X0028948Y0008344D01*
X0028818Y0008598D01*
X0028695Y0008856D01*
X0028578Y0009116D01*
X0028467Y0009379D01*
X0028363Y0009645D01*
X0028265Y0009913D01*
X0028173Y0010183D01*
X0028088Y0010456D01*
X0028010Y0010730D01*
X0027938Y0011006D01*
X0027873Y0011284D01*
X0027815Y0011564D01*
X0027764Y0011845D01*
X0027719Y0012126D01*
X0027681Y0012409D01*
X0027650Y0012693D01*
X0027626Y0012977D01*
X0027609Y0013262D01*
X0027598Y0013548D01*
X0027595Y0013833D01*
D11*
X0254879Y0028975D02*
X0254879Y0033337D01*
X0259879Y0033337D02*
X0259879Y0028975D01*
X0264879Y0028975D02*
X0264879Y0033337D01*
X0269879Y0033337D02*
X0269879Y0028975D01*
X0274879Y0028975D02*
X0274879Y0033337D01*
X0279879Y0033337D02*
X0279879Y0028975D01*
X0284879Y0028975D02*
X0284879Y0033337D01*
X0289879Y0033337D02*
X0289879Y0028975D01*
X0294879Y0028975D02*
X0294879Y0033337D01*
X0299879Y0033337D02*
X0299879Y0028975D01*
X0304879Y0028975D02*
X0304879Y0033337D01*
X0309879Y0033337D02*
X0309879Y0028975D01*
X0314879Y0028975D02*
X0314879Y0033337D01*
D12*
X0131335Y0063046D02*
X0131335Y0074857D01*
X0131335Y0122101D02*
X0131335Y0133912D01*
D13*
X0167595Y0117672D03*
X0167595Y0111373D03*
X0187595Y0110172D03*
X0187595Y0103873D03*
X0187595Y0095172D03*
X0187595Y0088873D03*
X0187595Y0080172D03*
X0187595Y0073873D03*
X0207595Y0073873D03*
X0207595Y0080172D03*
X0207595Y0088873D03*
X0207595Y0095172D03*
X0207595Y0103873D03*
X0207595Y0110172D03*
X0167595Y0095172D03*
X0167595Y0088873D03*
X0167595Y0080172D03*
X0167595Y0073873D03*
X0240095Y0051422D03*
X0247595Y0051422D03*
X0247595Y0045123D03*
X0240095Y0045123D03*
X0258845Y0048873D03*
X0266345Y0048873D03*
X0266345Y0055172D03*
X0258845Y0055172D03*
X0273845Y0055123D03*
X0273845Y0061422D03*
X0285095Y0061422D03*
X0295095Y0061422D03*
X0305095Y0061422D03*
X0305095Y0055123D03*
X0295095Y0055123D03*
X0285095Y0055123D03*
X0280095Y0047672D03*
X0290095Y0047672D03*
X0300095Y0047672D03*
X0300095Y0041373D03*
X0290095Y0041373D03*
X0280095Y0041373D03*
X0310095Y0041373D03*
X0310095Y0047672D03*
X0321345Y0080123D03*
X0321345Y0086422D03*
X0308845Y0102623D03*
X0308845Y0108922D03*
X0258845Y0106422D03*
X0258845Y0100123D03*
X0251345Y0100123D03*
X0251345Y0106422D03*
X0251345Y0092672D03*
X0251345Y0086373D03*
D14*
X0200745Y0080772D03*
X0194446Y0080772D03*
X0180745Y0080772D03*
X0174446Y0080772D03*
X0174446Y0095772D03*
X0180745Y0095772D03*
X0194446Y0095772D03*
X0200745Y0095772D03*
X0200745Y0110772D03*
X0194446Y0110772D03*
X0180745Y0110772D03*
X0174446Y0110772D03*
X0275696Y0130772D03*
X0281995Y0130772D03*
X0281995Y0138272D03*
X0275696Y0138272D03*
X0275696Y0145772D03*
X0281995Y0145772D03*
X0293196Y0138272D03*
X0299495Y0138272D03*
X0301995Y0117022D03*
X0295696Y0117022D03*
X0319446Y0102022D03*
X0325745Y0102022D03*
X0325745Y0094522D03*
X0319446Y0094522D03*
D15*
X0267782Y0130782D03*
X0259908Y0134522D03*
X0267782Y0138262D03*
D16*
X0068934Y0138833D03*
X0049249Y0138833D03*
X0049249Y0081747D03*
X0059091Y0081747D03*
X0068934Y0081747D03*
D17*
X0081532Y0111274D03*
X0036650Y0111274D03*
D18*
X0293333Y0123282D03*
X0304357Y0123282D03*
X0304357Y0127022D03*
X0304357Y0130762D03*
X0293333Y0130762D03*
D19*
X0101430Y0126274D02*
X0095493Y0126274D01*
X0095493Y0116274D02*
X0101430Y0116274D01*
X0101430Y0106274D02*
X0095493Y0106274D01*
X0095493Y0096274D02*
X0101430Y0096274D01*
X0162201Y0016802D02*
X0162201Y0010865D01*
X0172201Y0010865D02*
X0172201Y0016802D01*
X0182201Y0016802D02*
X0182201Y0010865D01*
X0192201Y0010865D02*
X0192201Y0016802D01*
X0213068Y0016802D02*
X0213068Y0010865D01*
X0223068Y0010865D02*
X0223068Y0016802D01*
X0233068Y0016802D02*
X0233068Y0010865D01*
X0243068Y0010865D02*
X0243068Y0016802D01*
X0253068Y0016802D02*
X0253068Y0010865D01*
X0263068Y0010865D02*
X0263068Y0016802D01*
X0273068Y0016802D02*
X0273068Y0010865D01*
X0283068Y0010865D02*
X0283068Y0016802D01*
D20*
X0242467Y0069522D03*
X0242467Y0074522D03*
X0242467Y0079522D03*
X0242467Y0084522D03*
X0242467Y0089522D03*
X0242467Y0094522D03*
X0242467Y0099522D03*
X0220223Y0099522D03*
X0220223Y0094522D03*
X0220223Y0089522D03*
X0220223Y0084522D03*
X0220223Y0079522D03*
X0220223Y0074522D03*
X0220223Y0069522D03*
D21*
X0284829Y0081845D03*
X0284829Y0084404D03*
X0284829Y0086963D03*
X0284829Y0089522D03*
X0284829Y0092081D03*
X0284829Y0094640D03*
X0284829Y0097199D03*
X0307861Y0097199D03*
X0307861Y0094640D03*
X0307861Y0092081D03*
X0307861Y0089522D03*
X0307861Y0086963D03*
X0307861Y0084404D03*
X0307861Y0081845D03*
D22*
X0306946Y0079680D02*
X0304633Y0079680D01*
X0303825Y0080487D01*
X0303825Y0082226D01*
X0298523Y0082226D01*
X0298523Y0074174D01*
X0298580Y0074118D01*
X0298580Y0075072D01*
X0299001Y0076089D01*
X0299779Y0076867D01*
X0300795Y0077288D01*
X0301895Y0077288D01*
X0302912Y0076867D01*
X0303078Y0076700D01*
X0317247Y0076700D01*
X0318523Y0075424D01*
X0321023Y0072924D01*
X0321023Y0026120D01*
X0319747Y0024844D01*
X0319747Y0024844D01*
X0318523Y0023620D01*
X0318523Y0023620D01*
X0317247Y0022344D01*
X0285997Y0022344D01*
X0285246Y0021593D01*
X0285246Y0020604D01*
X0285530Y0020487D01*
X0286752Y0019264D01*
X0287414Y0017666D01*
X0287414Y0010000D01*
X0286752Y0008403D01*
X0285530Y0007180D01*
X0283932Y0006518D01*
X0282203Y0006518D01*
X0280606Y0007180D01*
X0279383Y0008403D01*
X0278721Y0010000D01*
X0278721Y0017666D01*
X0279383Y0019264D01*
X0280606Y0020487D01*
X0280890Y0020604D01*
X0280890Y0023397D01*
X0282917Y0025424D01*
X0283278Y0025786D01*
X0282863Y0025958D01*
X0282379Y0026442D01*
X0281895Y0025958D01*
X0280587Y0025416D01*
X0279171Y0025416D01*
X0277863Y0025958D01*
X0277379Y0026442D01*
X0276895Y0025958D01*
X0275587Y0025416D01*
X0274171Y0025416D01*
X0272863Y0025958D01*
X0272379Y0026442D01*
X0271895Y0025958D01*
X0270587Y0025416D01*
X0269171Y0025416D01*
X0267863Y0025958D01*
X0266861Y0026959D01*
X0266320Y0028267D01*
X0266320Y0034045D01*
X0266861Y0035353D01*
X0267701Y0036193D01*
X0267701Y0036337D01*
X0262943Y0041094D01*
X0259103Y0041094D01*
X0259773Y0040424D01*
X0260781Y0039417D01*
X0260781Y0039417D01*
X0262057Y0038141D01*
X0262057Y0036193D01*
X0262896Y0035353D01*
X0263438Y0034045D01*
X0263438Y0028267D01*
X0262896Y0026959D01*
X0262442Y0026505D01*
X0265246Y0023702D01*
X0265246Y0020604D01*
X0265530Y0020487D01*
X0266752Y0019264D01*
X0267414Y0017666D01*
X0267414Y0010000D01*
X0266752Y0008403D01*
X0265530Y0007180D01*
X0263932Y0006518D01*
X0262203Y0006518D01*
X0260606Y0007180D01*
X0259383Y0008403D01*
X0258721Y0010000D01*
X0258721Y0017666D01*
X0259383Y0019264D01*
X0260606Y0020487D01*
X0260890Y0020604D01*
X0260890Y0021898D01*
X0258976Y0023811D01*
X0257701Y0025087D01*
X0257701Y0026120D01*
X0257379Y0026442D01*
X0257057Y0026120D01*
X0257057Y0024654D01*
X0255246Y0022843D01*
X0255246Y0020604D01*
X0255530Y0020487D01*
X0256752Y0019264D01*
X0257414Y0017666D01*
X0257414Y0010000D01*
X0256752Y0008403D01*
X0255530Y0007180D01*
X0253932Y0006518D01*
X0252203Y0006518D01*
X0250606Y0007180D01*
X0249383Y0008403D01*
X0248721Y0010000D01*
X0248721Y0017666D01*
X0249383Y0019264D01*
X0250606Y0020487D01*
X0250890Y0020604D01*
X0250890Y0024647D01*
X0252165Y0025923D01*
X0252532Y0026289D01*
X0251861Y0026959D01*
X0251320Y0028267D01*
X0251320Y0033594D01*
X0242943Y0033594D01*
X0239193Y0037344D01*
X0237917Y0038620D01*
X0237917Y0041579D01*
X0237273Y0041579D01*
X0237273Y0027370D01*
X0235246Y0025343D01*
X0235246Y0020604D01*
X0235530Y0020487D01*
X0236752Y0019264D01*
X0237414Y0017666D01*
X0237414Y0010000D01*
X0236752Y0008403D01*
X0235530Y0007180D01*
X0233932Y0006518D01*
X0232203Y0006518D01*
X0230606Y0007180D01*
X0229383Y0008403D01*
X0228721Y0010000D01*
X0228721Y0017666D01*
X0229383Y0019264D01*
X0230606Y0020487D01*
X0230890Y0020604D01*
X0230890Y0025987D01*
X0225431Y0020528D01*
X0225530Y0020487D01*
X0226752Y0019264D01*
X0227414Y0017666D01*
X0227414Y0010000D01*
X0226752Y0008403D01*
X0225530Y0007180D01*
X0223932Y0006518D01*
X0222203Y0006518D01*
X0220606Y0007180D01*
X0219383Y0008403D01*
X0218721Y0010000D01*
X0218721Y0017666D01*
X0219383Y0019264D01*
X0220606Y0020487D01*
X0220890Y0020604D01*
X0220890Y0020987D01*
X0217414Y0017511D01*
X0217414Y0010000D01*
X0216752Y0008403D01*
X0215530Y0007180D01*
X0213932Y0006518D01*
X0212203Y0006518D01*
X0210606Y0007180D01*
X0209383Y0008403D01*
X0208721Y0010000D01*
X0208721Y0017666D01*
X0209383Y0019264D01*
X0210606Y0020487D01*
X0212203Y0021148D01*
X0213932Y0021148D01*
X0214610Y0020867D01*
X0225417Y0031674D01*
X0225417Y0072344D01*
X0224817Y0072344D01*
X0224239Y0071766D01*
X0216207Y0071766D01*
X0215629Y0072344D01*
X0211532Y0072344D01*
X0211532Y0071137D01*
X0210725Y0070329D01*
X0204465Y0070329D01*
X0203658Y0071137D01*
X0203658Y0076609D01*
X0204072Y0077022D01*
X0203870Y0077224D01*
X0203481Y0076835D01*
X0198009Y0076835D01*
X0197595Y0077249D01*
X0197182Y0076835D01*
X0191709Y0076835D01*
X0191321Y0077224D01*
X0190725Y0076629D01*
X0184465Y0076629D01*
X0183870Y0077224D01*
X0183481Y0076835D01*
X0178009Y0076835D01*
X0177595Y0077249D01*
X0177182Y0076835D01*
X0171709Y0076835D01*
X0171321Y0077224D01*
X0171119Y0077022D01*
X0171532Y0076609D01*
X0171532Y0071137D01*
X0170725Y0070329D01*
X0164465Y0070329D01*
X0163691Y0071104D01*
X0163645Y0071104D01*
X0163135Y0070594D01*
X0162405Y0070292D01*
X0183104Y0049594D01*
X0183104Y0049594D01*
X0184379Y0048318D01*
X0184379Y0020604D01*
X0184663Y0020487D01*
X0185886Y0019264D01*
X0186548Y0017666D01*
X0186548Y0010000D01*
X0185886Y0008403D01*
X0184663Y0007180D01*
X0183066Y0006518D01*
X0181337Y0006518D01*
X0179739Y0007180D01*
X0178517Y0008403D01*
X0177855Y0010000D01*
X0177855Y0017666D01*
X0178517Y0019264D01*
X0179739Y0020487D01*
X0180023Y0020604D01*
X0180023Y0046514D01*
X0174379Y0052158D01*
X0174379Y0020604D01*
X0174663Y0020487D01*
X0175886Y0019264D01*
X0176548Y0017666D01*
X0176548Y0010000D01*
X0175886Y0008403D01*
X0174663Y0007180D01*
X0173066Y0006518D01*
X0171337Y0006518D01*
X0169739Y0007180D01*
X0168517Y0008403D01*
X0167855Y0010000D01*
X0167855Y0017666D01*
X0168517Y0019264D01*
X0169739Y0020487D01*
X0170023Y0020604D01*
X0170023Y0051514D01*
X0164379Y0057158D01*
X0164379Y0020604D01*
X0164663Y0020487D01*
X0165886Y0019264D01*
X0166548Y0017666D01*
X0166548Y0010000D01*
X0165886Y0008403D01*
X0164663Y0007180D01*
X0163066Y0006518D01*
X0161337Y0006518D01*
X0159739Y0007180D01*
X0158517Y0008403D01*
X0157855Y0010000D01*
X0157855Y0017666D01*
X0158517Y0019264D01*
X0159739Y0020487D01*
X0160023Y0020604D01*
X0160023Y0056514D01*
X0131424Y0085113D01*
X0130717Y0085113D01*
X0129556Y0085594D01*
X0128667Y0086483D01*
X0128186Y0087644D01*
X0128186Y0088351D01*
X0122441Y0094096D01*
X0105232Y0094096D01*
X0105115Y0093812D01*
X0103892Y0092590D01*
X0102294Y0091928D01*
X0094628Y0091928D01*
X0093031Y0092590D01*
X0091808Y0093812D01*
X0091690Y0094096D01*
X0090249Y0094096D01*
X0084747Y0088594D01*
X0072247Y0088594D01*
X0071112Y0087459D01*
X0071112Y0086471D01*
X0072851Y0086471D01*
X0073658Y0085664D01*
X0073658Y0077829D01*
X0072851Y0077022D01*
X0065016Y0077022D01*
X0064209Y0077829D01*
X0064209Y0085664D01*
X0065016Y0086471D01*
X0066756Y0086471D01*
X0066756Y0089263D01*
X0069167Y0091674D01*
X0069837Y0092344D01*
X0055997Y0092344D01*
X0051427Y0087774D01*
X0051427Y0086471D01*
X0053166Y0086471D01*
X0053973Y0085664D01*
X0053973Y0077829D01*
X0053166Y0077022D01*
X0045331Y0077022D01*
X0044524Y0077829D01*
X0044524Y0085664D01*
X0045331Y0086471D01*
X0047071Y0086471D01*
X0047071Y0089578D01*
X0048347Y0090854D01*
X0054193Y0096700D01*
X0081693Y0096700D01*
X0091146Y0106154D01*
X0091146Y0107139D01*
X0091808Y0108736D01*
X0093031Y0109959D01*
X0094628Y0110621D01*
X0102294Y0110621D01*
X0103892Y0109959D01*
X0105115Y0108736D01*
X0105232Y0108452D01*
X0118085Y0108452D01*
X0112441Y0114096D01*
X0105232Y0114096D01*
X0105115Y0113812D01*
X0103892Y0112590D01*
X0102294Y0111928D01*
X0094628Y0111928D01*
X0093031Y0112590D01*
X0091808Y0113812D01*
X0091146Y0115410D01*
X0091146Y0116641D01*
X0073265Y0134523D01*
X0072851Y0134109D01*
X0065016Y0134109D01*
X0064209Y0134916D01*
X0064209Y0142751D01*
X0065016Y0143558D01*
X0072851Y0143558D01*
X0073658Y0142751D01*
X0073658Y0140289D01*
X0074212Y0139735D01*
X0093708Y0120240D01*
X0094628Y0120621D01*
X0102294Y0120621D01*
X0103892Y0119959D01*
X0105115Y0118736D01*
X0105232Y0118452D01*
X0114245Y0118452D01*
X0133845Y0098852D01*
X0148543Y0113551D01*
X0163658Y0113551D01*
X0163658Y0114109D01*
X0164072Y0114522D01*
X0163658Y0114936D01*
X0163658Y0120408D01*
X0164465Y0121215D01*
X0170725Y0121215D01*
X0171532Y0120408D01*
X0171532Y0119850D01*
X0174098Y0119850D01*
X0175997Y0117950D01*
X0229747Y0117950D01*
X0243497Y0104200D01*
X0244773Y0102924D01*
X0244773Y0102278D01*
X0246483Y0102278D01*
X0246533Y0102228D01*
X0247408Y0102228D01*
X0247408Y0102859D01*
X0248215Y0103666D01*
X0254475Y0103666D01*
X0255095Y0103046D01*
X0255715Y0103666D01*
X0261975Y0103666D01*
X0262782Y0102859D01*
X0262782Y0097387D01*
X0261975Y0096579D01*
X0261423Y0096579D01*
X0261423Y0075162D01*
X0261523Y0075062D01*
X0262004Y0073901D01*
X0262004Y0072644D01*
X0261613Y0071700D01*
X0266667Y0071700D01*
X0266667Y0100424D01*
X0276667Y0110424D01*
X0277943Y0111700D01*
X0281555Y0111700D01*
X0282056Y0112200D01*
X0283217Y0112681D01*
X0284474Y0112681D01*
X0285635Y0112200D01*
X0286523Y0111312D01*
X0286667Y0110964D01*
X0286667Y0126674D01*
X0287943Y0127950D01*
X0288577Y0128585D01*
X0285538Y0128585D01*
X0285538Y0127642D01*
X0284731Y0126835D01*
X0279259Y0126835D01*
X0278845Y0127249D01*
X0278432Y0126835D01*
X0272959Y0126835D01*
X0272152Y0127642D01*
X0272152Y0128604D01*
X0271096Y0128604D01*
X0270321Y0127829D01*
X0265243Y0127829D01*
X0264436Y0128637D01*
X0264436Y0132928D01*
X0265243Y0133735D01*
X0270321Y0133735D01*
X0271096Y0132960D01*
X0272152Y0132960D01*
X0272152Y0133902D01*
X0272772Y0134522D01*
X0272152Y0135142D01*
X0272152Y0136085D01*
X0271096Y0136085D01*
X0270321Y0135310D01*
X0265243Y0135310D01*
X0264436Y0136117D01*
X0264436Y0140408D01*
X0265243Y0141215D01*
X0270321Y0141215D01*
X0271096Y0140440D01*
X0272152Y0140440D01*
X0272152Y0141402D01*
X0272772Y0142022D01*
X0272152Y0142642D01*
X0272152Y0148902D01*
X0272959Y0149709D01*
X0278432Y0149709D01*
X0279239Y0148902D01*
X0279239Y0142642D01*
X0278619Y0142022D01*
X0278845Y0141796D01*
X0279259Y0142209D01*
X0284731Y0142209D01*
X0285417Y0141523D01*
X0285417Y0142924D01*
X0286693Y0144200D01*
X0286693Y0144200D01*
X0287943Y0145450D01*
X0299747Y0145450D01*
X0300997Y0144200D01*
X0300997Y0144200D01*
X0302273Y0142924D01*
X0302273Y0142167D01*
X0303038Y0141402D01*
X0303038Y0135142D01*
X0302273Y0134378D01*
X0302273Y0133322D01*
X0307093Y0133322D01*
X0307900Y0132514D01*
X0307900Y0129011D01*
X0307093Y0128203D01*
X0301621Y0128203D01*
X0301240Y0128585D01*
X0300453Y0128585D01*
X0299193Y0129844D01*
X0297917Y0131120D01*
X0297917Y0134335D01*
X0296759Y0134335D01*
X0296345Y0134749D01*
X0295932Y0134335D01*
X0295373Y0134335D01*
X0295373Y0133322D01*
X0296069Y0133322D01*
X0296877Y0132514D01*
X0296877Y0129200D01*
X0298497Y0129200D01*
X0299773Y0127924D01*
X0301023Y0126674D01*
X0301023Y0125460D01*
X0301240Y0125460D01*
X0301621Y0125841D01*
X0307093Y0125841D01*
X0307900Y0125034D01*
X0307900Y0121530D01*
X0307093Y0120723D01*
X0301621Y0120723D01*
X0301240Y0121104D01*
X0299183Y0121104D01*
X0297943Y0122344D01*
X0296877Y0123411D01*
X0296877Y0121530D01*
X0296306Y0120959D01*
X0298432Y0120959D01*
X0299239Y0120152D01*
X0299239Y0113892D01*
X0298432Y0113085D01*
X0297273Y0113085D01*
X0297273Y0111812D01*
X0297773Y0111312D01*
X0298254Y0110151D01*
X0298254Y0109443D01*
X0302897Y0104801D01*
X0304908Y0104801D01*
X0304908Y0105359D01*
X0305715Y0106166D01*
X0311975Y0106166D01*
X0312782Y0105359D01*
X0312782Y0102789D01*
X0312943Y0102950D01*
X0312943Y0102950D01*
X0314193Y0104200D01*
X0315902Y0104200D01*
X0315902Y0105152D01*
X0316709Y0105959D01*
X0322182Y0105959D01*
X0322989Y0105152D01*
X0322989Y0098892D01*
X0322369Y0098272D01*
X0322989Y0097652D01*
X0322989Y0091392D01*
X0322182Y0090585D01*
X0316709Y0090585D01*
X0315902Y0091392D01*
X0315902Y0092249D01*
X0315050Y0091397D01*
X0317247Y0089200D01*
X0317450Y0089200D01*
X0318215Y0089965D01*
X0324475Y0089965D01*
X0325282Y0089158D01*
X0325282Y0083686D01*
X0324869Y0083272D01*
X0325282Y0082859D01*
X0325282Y0077387D01*
X0324475Y0076579D01*
X0318215Y0076579D01*
X0317450Y0077344D01*
X0312943Y0077344D01*
X0311667Y0078620D01*
X0310620Y0079667D01*
X0306959Y0079667D01*
X0306946Y0079680D01*
X0304485Y0079828D02*
X0298523Y0079828D01*
X0298523Y0080614D02*
X0303825Y0080614D01*
X0303825Y0081400D02*
X0298523Y0081400D01*
X0298523Y0082185D02*
X0303825Y0082185D01*
X0299865Y0086582D02*
X0296023Y0090424D01*
X0296023Y0105424D01*
X0295084Y0106363D01*
X0295174Y0106363D01*
X0299817Y0101721D01*
X0301093Y0100445D01*
X0304908Y0100445D01*
X0304908Y0099887D01*
X0305417Y0099377D01*
X0303120Y0099377D01*
X0301844Y0098102D01*
X0301844Y0098102D01*
X0301693Y0097950D01*
X0300417Y0096674D01*
X0300417Y0089870D01*
X0301693Y0088594D01*
X0302943Y0087344D01*
X0312943Y0087344D01*
X0315443Y0084844D01*
X0317408Y0084844D01*
X0317408Y0083686D01*
X0317822Y0083272D01*
X0317408Y0082859D01*
X0317408Y0081700D01*
X0314747Y0081700D01*
X0312424Y0084023D01*
X0311896Y0084023D01*
X0311896Y0085762D01*
X0311089Y0086570D01*
X0308776Y0086570D01*
X0308763Y0086582D01*
X0299865Y0086582D01*
X0299547Y0086901D02*
X0313386Y0086901D01*
X0314172Y0086115D02*
X0311544Y0086115D01*
X0311896Y0085329D02*
X0314958Y0085329D01*
X0317408Y0084543D02*
X0311896Y0084543D01*
X0312690Y0083757D02*
X0317408Y0083757D01*
X0317521Y0082971D02*
X0313476Y0082971D01*
X0314262Y0082185D02*
X0317408Y0082185D01*
X0312031Y0078256D02*
X0298523Y0078256D01*
X0298523Y0079042D02*
X0311246Y0079042D01*
X0312817Y0077470D02*
X0298523Y0077470D01*
X0298523Y0076684D02*
X0299596Y0076684D01*
X0298922Y0075898D02*
X0298523Y0075898D01*
X0298523Y0075112D02*
X0298596Y0075112D01*
X0298580Y0074326D02*
X0298523Y0074326D01*
X0294167Y0074326D02*
X0285479Y0074326D01*
X0286023Y0074870D02*
X0286023Y0079680D01*
X0288058Y0079680D01*
X0288865Y0080487D01*
X0288865Y0082226D01*
X0293061Y0082226D01*
X0294167Y0081120D01*
X0294167Y0072370D01*
X0295443Y0071094D01*
X0296667Y0069870D01*
X0297943Y0068594D01*
X0311693Y0068594D01*
X0312701Y0067587D01*
X0312701Y0044916D01*
X0307057Y0044916D01*
X0307057Y0051579D01*
X0308225Y0051579D01*
X0309032Y0052387D01*
X0309032Y0057859D01*
X0308225Y0058666D01*
X0301965Y0058666D01*
X0301158Y0057859D01*
X0301158Y0052387D01*
X0301965Y0051579D01*
X0302701Y0051579D01*
X0302701Y0044916D01*
X0297057Y0044916D01*
X0297057Y0051579D01*
X0298225Y0051579D01*
X0299032Y0052387D01*
X0299032Y0057859D01*
X0298225Y0058666D01*
X0291965Y0058666D01*
X0291158Y0057859D01*
X0291158Y0052387D01*
X0291965Y0051579D01*
X0292701Y0051579D01*
X0292701Y0044916D01*
X0287057Y0044916D01*
X0287057Y0051579D01*
X0288225Y0051579D01*
X0289032Y0052387D01*
X0289032Y0057859D01*
X0288225Y0058666D01*
X0281965Y0058666D01*
X0281158Y0057859D01*
X0281158Y0052387D01*
X0281965Y0051579D01*
X0282701Y0051579D01*
X0282701Y0044916D01*
X0276965Y0044916D01*
X0276158Y0044109D01*
X0276158Y0044039D01*
X0276023Y0044174D01*
X0276023Y0051579D01*
X0276975Y0051579D01*
X0277782Y0052387D01*
X0277782Y0057859D01*
X0277369Y0058272D01*
X0277782Y0058686D01*
X0277782Y0064158D01*
X0276975Y0064965D01*
X0276023Y0064965D01*
X0276023Y0067344D01*
X0278497Y0067344D01*
X0284747Y0073594D01*
X0284747Y0073594D01*
X0286023Y0074870D01*
X0286023Y0075112D02*
X0294167Y0075112D01*
X0294167Y0075898D02*
X0286023Y0075898D01*
X0286023Y0076684D02*
X0294167Y0076684D01*
X0294167Y0077470D02*
X0286023Y0077470D01*
X0286023Y0078256D02*
X0294167Y0078256D01*
X0294167Y0079042D02*
X0286023Y0079042D01*
X0288206Y0079828D02*
X0294167Y0079828D01*
X0294167Y0080614D02*
X0288865Y0080614D01*
X0288865Y0081400D02*
X0293888Y0081400D01*
X0293102Y0082185D02*
X0288865Y0082185D01*
X0293705Y0086582D02*
X0283927Y0086582D01*
X0283915Y0086570D01*
X0282273Y0086570D01*
X0282273Y0089870D01*
X0282306Y0089903D01*
X0285732Y0089903D01*
X0285744Y0089916D01*
X0288058Y0089916D01*
X0288865Y0090723D01*
X0288865Y0095999D01*
X0288058Y0096806D01*
X0285744Y0096806D01*
X0285732Y0096818D01*
X0278061Y0096818D01*
X0275443Y0094200D01*
X0274167Y0092924D01*
X0274167Y0079312D01*
X0273667Y0078812D01*
X0273186Y0077651D01*
X0273186Y0076431D01*
X0271967Y0076431D01*
X0271023Y0076040D01*
X0271023Y0098620D01*
X0279747Y0107344D01*
X0281555Y0107344D01*
X0282056Y0106844D01*
X0283217Y0106363D01*
X0284474Y0106363D01*
X0285635Y0106844D01*
X0286523Y0107733D01*
X0286825Y0108462D01*
X0291667Y0103620D01*
X0291667Y0088620D01*
X0293705Y0086582D01*
X0293386Y0086901D02*
X0282273Y0086901D01*
X0282273Y0087687D02*
X0292601Y0087687D01*
X0291815Y0088473D02*
X0282273Y0088473D01*
X0282273Y0089259D02*
X0291667Y0089259D01*
X0291667Y0090045D02*
X0288186Y0090045D01*
X0288865Y0090830D02*
X0291667Y0090830D01*
X0291667Y0091616D02*
X0288865Y0091616D01*
X0288865Y0092402D02*
X0291667Y0092402D01*
X0291667Y0093188D02*
X0288865Y0093188D01*
X0288865Y0093974D02*
X0291667Y0093974D01*
X0291667Y0094760D02*
X0288865Y0094760D01*
X0288865Y0095546D02*
X0291667Y0095546D01*
X0291667Y0096332D02*
X0288532Y0096332D01*
X0291667Y0097118D02*
X0271023Y0097118D01*
X0271023Y0097904D02*
X0291667Y0097904D01*
X0291667Y0098690D02*
X0271093Y0098690D01*
X0271878Y0099476D02*
X0291667Y0099476D01*
X0291667Y0100261D02*
X0272664Y0100261D01*
X0273450Y0101047D02*
X0291667Y0101047D01*
X0291667Y0101833D02*
X0274236Y0101833D01*
X0275022Y0102619D02*
X0291667Y0102619D01*
X0291667Y0103405D02*
X0275808Y0103405D01*
X0276594Y0104191D02*
X0291096Y0104191D01*
X0290310Y0104977D02*
X0277380Y0104977D01*
X0278166Y0105763D02*
X0289525Y0105763D01*
X0288739Y0106549D02*
X0284921Y0106549D01*
X0286125Y0107335D02*
X0287953Y0107335D01*
X0287167Y0108121D02*
X0286684Y0108121D01*
X0282769Y0106549D02*
X0278952Y0106549D01*
X0279738Y0107335D02*
X0281565Y0107335D01*
X0276721Y0110478D02*
X0237219Y0110478D01*
X0238005Y0109692D02*
X0275935Y0109692D01*
X0275149Y0108906D02*
X0238791Y0108906D01*
X0239577Y0108121D02*
X0274363Y0108121D01*
X0273577Y0107335D02*
X0240363Y0107335D01*
X0241149Y0106549D02*
X0272791Y0106549D01*
X0272006Y0105763D02*
X0241935Y0105763D01*
X0242721Y0104977D02*
X0271220Y0104977D01*
X0270434Y0104191D02*
X0243507Y0104191D01*
X0244292Y0103405D02*
X0247954Y0103405D01*
X0247408Y0102619D02*
X0244773Y0102619D01*
X0254736Y0103405D02*
X0255454Y0103405D01*
X0262236Y0103405D02*
X0269648Y0103405D01*
X0268862Y0102619D02*
X0262782Y0102619D01*
X0262782Y0101833D02*
X0268076Y0101833D01*
X0267290Y0101047D02*
X0262782Y0101047D01*
X0262782Y0100261D02*
X0266667Y0100261D01*
X0266667Y0099476D02*
X0262782Y0099476D01*
X0262782Y0098690D02*
X0266667Y0098690D01*
X0266667Y0097904D02*
X0262782Y0097904D01*
X0262513Y0097118D02*
X0266667Y0097118D01*
X0266667Y0096332D02*
X0261423Y0096332D01*
X0261423Y0095546D02*
X0266667Y0095546D01*
X0266667Y0094760D02*
X0261423Y0094760D01*
X0261423Y0093974D02*
X0266667Y0093974D01*
X0266667Y0093188D02*
X0261423Y0093188D01*
X0261423Y0092402D02*
X0266667Y0092402D01*
X0266667Y0091616D02*
X0261423Y0091616D01*
X0261423Y0090830D02*
X0266667Y0090830D01*
X0266667Y0090045D02*
X0261423Y0090045D01*
X0261423Y0089259D02*
X0266667Y0089259D01*
X0266667Y0088473D02*
X0261423Y0088473D01*
X0261423Y0087687D02*
X0266667Y0087687D01*
X0266667Y0086901D02*
X0261423Y0086901D01*
X0261423Y0086115D02*
X0266667Y0086115D01*
X0266667Y0085329D02*
X0261423Y0085329D01*
X0261423Y0084543D02*
X0266667Y0084543D01*
X0266667Y0083757D02*
X0261423Y0083757D01*
X0261423Y0082971D02*
X0266667Y0082971D01*
X0266667Y0082185D02*
X0261423Y0082185D01*
X0261423Y0081400D02*
X0266667Y0081400D01*
X0266667Y0080614D02*
X0261423Y0080614D01*
X0261423Y0079828D02*
X0266667Y0079828D01*
X0266667Y0079042D02*
X0261423Y0079042D01*
X0261423Y0078256D02*
X0266667Y0078256D01*
X0266667Y0077470D02*
X0261423Y0077470D01*
X0261423Y0076684D02*
X0266667Y0076684D01*
X0266667Y0075898D02*
X0261423Y0075898D01*
X0261473Y0075112D02*
X0266667Y0075112D01*
X0266667Y0074326D02*
X0261828Y0074326D01*
X0262004Y0073540D02*
X0266667Y0073540D01*
X0266667Y0072754D02*
X0262004Y0072754D01*
X0261724Y0071969D02*
X0266667Y0071969D01*
X0271023Y0076684D02*
X0273186Y0076684D01*
X0273186Y0077470D02*
X0271023Y0077470D01*
X0271023Y0078256D02*
X0273437Y0078256D01*
X0273897Y0079042D02*
X0271023Y0079042D01*
X0271023Y0079828D02*
X0274167Y0079828D01*
X0274167Y0080614D02*
X0271023Y0080614D01*
X0271023Y0081400D02*
X0274167Y0081400D01*
X0274167Y0082185D02*
X0271023Y0082185D01*
X0271023Y0082971D02*
X0274167Y0082971D01*
X0274167Y0083757D02*
X0271023Y0083757D01*
X0271023Y0084543D02*
X0274167Y0084543D01*
X0274167Y0085329D02*
X0271023Y0085329D01*
X0271023Y0086115D02*
X0274167Y0086115D01*
X0274167Y0086901D02*
X0271023Y0086901D01*
X0271023Y0087687D02*
X0274167Y0087687D01*
X0274167Y0088473D02*
X0271023Y0088473D01*
X0271023Y0089259D02*
X0274167Y0089259D01*
X0274167Y0090045D02*
X0271023Y0090045D01*
X0271023Y0090830D02*
X0274167Y0090830D01*
X0274167Y0091616D02*
X0271023Y0091616D01*
X0271023Y0092402D02*
X0274167Y0092402D01*
X0274431Y0093188D02*
X0271023Y0093188D01*
X0271023Y0093974D02*
X0275217Y0093974D01*
X0276003Y0094760D02*
X0271023Y0094760D01*
X0271023Y0095546D02*
X0276789Y0095546D01*
X0277575Y0096332D02*
X0271023Y0096332D01*
X0296023Y0096332D02*
X0300417Y0096332D01*
X0300417Y0095546D02*
X0296023Y0095546D01*
X0296023Y0094760D02*
X0300417Y0094760D01*
X0300417Y0093974D02*
X0296023Y0093974D01*
X0296023Y0093188D02*
X0300417Y0093188D01*
X0300417Y0092402D02*
X0296023Y0092402D01*
X0296023Y0091616D02*
X0300417Y0091616D01*
X0300417Y0090830D02*
X0296023Y0090830D01*
X0296403Y0090045D02*
X0300417Y0090045D01*
X0301029Y0089259D02*
X0297189Y0089259D01*
X0297975Y0088473D02*
X0301815Y0088473D01*
X0302601Y0087687D02*
X0298761Y0087687D01*
X0300861Y0097118D02*
X0296023Y0097118D01*
X0296023Y0097904D02*
X0301646Y0097904D01*
X0301693Y0097950D02*
X0301693Y0097950D01*
X0302432Y0098690D02*
X0296023Y0098690D01*
X0296023Y0099476D02*
X0305319Y0099476D01*
X0304908Y0100261D02*
X0296023Y0100261D01*
X0296023Y0101047D02*
X0300490Y0101047D01*
X0299704Y0101833D02*
X0296023Y0101833D01*
X0296023Y0102619D02*
X0298918Y0102619D01*
X0298132Y0103405D02*
X0296023Y0103405D01*
X0296023Y0104191D02*
X0297346Y0104191D01*
X0296560Y0104977D02*
X0296023Y0104977D01*
X0295775Y0105763D02*
X0295685Y0105763D01*
X0299577Y0108121D02*
X0419705Y0108121D01*
X0419705Y0108906D02*
X0298791Y0108906D01*
X0298254Y0109692D02*
X0419705Y0109692D01*
X0419705Y0110478D02*
X0298118Y0110478D01*
X0297793Y0111264D02*
X0419705Y0111264D01*
X0419705Y0112050D02*
X0297273Y0112050D01*
X0297273Y0112836D02*
X0419705Y0112836D01*
X0419705Y0113622D02*
X0298968Y0113622D01*
X0299239Y0114408D02*
X0419705Y0114408D01*
X0419705Y0115194D02*
X0299239Y0115194D01*
X0299239Y0115980D02*
X0419705Y0115980D01*
X0419705Y0116766D02*
X0299239Y0116766D01*
X0299239Y0117552D02*
X0419705Y0117552D01*
X0419705Y0118337D02*
X0299239Y0118337D01*
X0299239Y0119123D02*
X0419705Y0119123D01*
X0419705Y0119909D02*
X0299239Y0119909D01*
X0298696Y0120695D02*
X0419705Y0120695D01*
X0419705Y0121481D02*
X0307851Y0121481D01*
X0307900Y0122267D02*
X0419705Y0122267D01*
X0419705Y0123053D02*
X0307900Y0123053D01*
X0307900Y0123839D02*
X0419705Y0123839D01*
X0419705Y0124625D02*
X0307900Y0124625D01*
X0307524Y0125411D02*
X0419705Y0125411D01*
X0419705Y0126197D02*
X0301023Y0126197D01*
X0300715Y0126982D02*
X0419705Y0126982D01*
X0419705Y0127768D02*
X0299929Y0127768D01*
X0299143Y0128554D02*
X0301270Y0128554D01*
X0299697Y0129340D02*
X0296877Y0129340D01*
X0296877Y0130126D02*
X0298911Y0130126D01*
X0298125Y0130912D02*
X0296877Y0130912D01*
X0296877Y0131698D02*
X0297917Y0131698D01*
X0297917Y0132484D02*
X0296877Y0132484D01*
X0296121Y0133270D02*
X0297917Y0133270D01*
X0297917Y0134056D02*
X0295373Y0134056D01*
X0302273Y0134056D02*
X0419705Y0134056D01*
X0419705Y0134842D02*
X0302737Y0134842D01*
X0303038Y0135627D02*
X0419705Y0135627D01*
X0419705Y0136413D02*
X0303038Y0136413D01*
X0303038Y0137199D02*
X0419705Y0137199D01*
X0419705Y0137985D02*
X0303038Y0137985D01*
X0303038Y0138771D02*
X0419705Y0138771D01*
X0419705Y0139557D02*
X0303038Y0139557D01*
X0303038Y0140343D02*
X0419705Y0140343D01*
X0419705Y0141129D02*
X0303038Y0141129D01*
X0302525Y0141915D02*
X0419705Y0141915D01*
X0419705Y0142701D02*
X0302273Y0142701D01*
X0301711Y0143487D02*
X0419705Y0143487D01*
X0419705Y0144273D02*
X0300925Y0144273D01*
X0300139Y0145058D02*
X0419705Y0145058D01*
X0419705Y0145844D02*
X0279239Y0145844D01*
X0279239Y0145058D02*
X0287551Y0145058D01*
X0286765Y0144273D02*
X0279239Y0144273D01*
X0279239Y0143487D02*
X0285979Y0143487D01*
X0285417Y0142701D02*
X0279239Y0142701D01*
X0278964Y0141915D02*
X0278726Y0141915D01*
X0272665Y0141915D02*
X0073658Y0141915D01*
X0073658Y0142701D02*
X0272152Y0142701D01*
X0272152Y0143487D02*
X0072922Y0143487D01*
X0073658Y0141129D02*
X0129726Y0141129D01*
X0129887Y0141196D02*
X0127210Y0140087D01*
X0125161Y0138038D01*
X0124052Y0135361D01*
X0124052Y0120652D01*
X0125161Y0117975D01*
X0127210Y0115926D01*
X0129887Y0114818D01*
X0132784Y0114818D01*
X0135461Y0115926D01*
X0137510Y0117975D01*
X0138619Y0120652D01*
X0138619Y0125829D01*
X0248232Y0125829D01*
X0249507Y0127104D01*
X0249507Y0127104D01*
X0254747Y0132344D01*
X0256594Y0132344D01*
X0257369Y0131570D01*
X0262447Y0131570D01*
X0263255Y0132377D01*
X0263255Y0136668D01*
X0262447Y0137475D01*
X0257369Y0137475D01*
X0256594Y0136700D01*
X0252943Y0136700D01*
X0246427Y0130184D01*
X0138619Y0130184D01*
X0138619Y0135361D01*
X0137510Y0138038D01*
X0135461Y0140087D01*
X0132784Y0141196D01*
X0129887Y0141196D01*
X0127828Y0140343D02*
X0073658Y0140343D01*
X0074390Y0139557D02*
X0126680Y0139557D01*
X0125894Y0138771D02*
X0075176Y0138771D01*
X0075962Y0137985D02*
X0125139Y0137985D01*
X0124813Y0137199D02*
X0076748Y0137199D01*
X0077534Y0136413D02*
X0124488Y0136413D01*
X0124162Y0135627D02*
X0078320Y0135627D01*
X0079106Y0134842D02*
X0124052Y0134842D01*
X0124052Y0134056D02*
X0079892Y0134056D01*
X0080678Y0133270D02*
X0124052Y0133270D01*
X0124052Y0132484D02*
X0081464Y0132484D01*
X0082250Y0131698D02*
X0124052Y0131698D01*
X0124052Y0130912D02*
X0083035Y0130912D01*
X0083821Y0130126D02*
X0124052Y0130126D01*
X0124052Y0129340D02*
X0084607Y0129340D01*
X0085393Y0128554D02*
X0124052Y0128554D01*
X0124052Y0127768D02*
X0086179Y0127768D01*
X0086965Y0126982D02*
X0124052Y0126982D01*
X0124052Y0126197D02*
X0087751Y0126197D01*
X0088537Y0125411D02*
X0124052Y0125411D01*
X0124052Y0124625D02*
X0089323Y0124625D01*
X0090109Y0123839D02*
X0124052Y0123839D01*
X0124052Y0123053D02*
X0090895Y0123053D01*
X0091681Y0122267D02*
X0124052Y0122267D01*
X0124052Y0121481D02*
X0092466Y0121481D01*
X0093252Y0120695D02*
X0124052Y0120695D01*
X0124360Y0119909D02*
X0103942Y0119909D01*
X0104728Y0119123D02*
X0124685Y0119123D01*
X0125011Y0118337D02*
X0114360Y0118337D01*
X0115146Y0117552D02*
X0125584Y0117552D01*
X0126370Y0116766D02*
X0115932Y0116766D01*
X0116718Y0115980D02*
X0127156Y0115980D01*
X0128978Y0115194D02*
X0117504Y0115194D01*
X0118290Y0114408D02*
X0163957Y0114408D01*
X0163658Y0115194D02*
X0133692Y0115194D01*
X0135514Y0115980D02*
X0163658Y0115980D01*
X0163658Y0116766D02*
X0136300Y0116766D01*
X0137086Y0117552D02*
X0163658Y0117552D01*
X0163658Y0118337D02*
X0137660Y0118337D01*
X0137985Y0119123D02*
X0163658Y0119123D01*
X0163658Y0119909D02*
X0138311Y0119909D01*
X0138619Y0120695D02*
X0163945Y0120695D01*
X0171245Y0120695D02*
X0286667Y0120695D01*
X0286667Y0119909D02*
X0171532Y0119909D01*
X0174824Y0119123D02*
X0286667Y0119123D01*
X0286667Y0118337D02*
X0175610Y0118337D01*
X0163658Y0113622D02*
X0119076Y0113622D01*
X0119861Y0112836D02*
X0147829Y0112836D01*
X0147043Y0112050D02*
X0120647Y0112050D01*
X0121433Y0111264D02*
X0146257Y0111264D01*
X0145471Y0110478D02*
X0122219Y0110478D01*
X0123005Y0109692D02*
X0144685Y0109692D01*
X0143899Y0108906D02*
X0123791Y0108906D01*
X0124577Y0108121D02*
X0143113Y0108121D01*
X0142327Y0107335D02*
X0125363Y0107335D01*
X0126149Y0106549D02*
X0141541Y0106549D01*
X0140756Y0105763D02*
X0126935Y0105763D01*
X0127721Y0104977D02*
X0139970Y0104977D01*
X0139184Y0104191D02*
X0128507Y0104191D01*
X0129292Y0103405D02*
X0138398Y0103405D01*
X0137612Y0102619D02*
X0130078Y0102619D01*
X0130864Y0101833D02*
X0136826Y0101833D01*
X0136040Y0101047D02*
X0131650Y0101047D01*
X0132436Y0100261D02*
X0135254Y0100261D01*
X0134468Y0099476D02*
X0133222Y0099476D01*
X0139905Y0098752D02*
X0150348Y0109195D01*
X0163658Y0109195D01*
X0163658Y0108637D01*
X0164465Y0107829D01*
X0170725Y0107829D01*
X0170902Y0108007D01*
X0170902Y0107642D01*
X0171709Y0106835D01*
X0177182Y0106835D01*
X0177595Y0107249D01*
X0178009Y0106835D01*
X0183481Y0106835D01*
X0183870Y0107224D01*
X0184465Y0106629D01*
X0190725Y0106629D01*
X0191321Y0107224D01*
X0191709Y0106835D01*
X0197182Y0106835D01*
X0197595Y0107249D01*
X0198009Y0106835D01*
X0203481Y0106835D01*
X0203870Y0107224D01*
X0204072Y0107022D01*
X0203658Y0106609D01*
X0203658Y0101137D01*
X0204465Y0100329D01*
X0210725Y0100329D01*
X0210785Y0100389D01*
X0210686Y0100151D01*
X0210686Y0098894D01*
X0210785Y0098655D01*
X0210725Y0098715D01*
X0204465Y0098715D01*
X0204288Y0098538D01*
X0204288Y0098902D01*
X0203481Y0099709D01*
X0198009Y0099709D01*
X0197595Y0099296D01*
X0197182Y0099709D01*
X0191709Y0099709D01*
X0190902Y0098902D01*
X0190902Y0098538D01*
X0190725Y0098715D01*
X0184465Y0098715D01*
X0184288Y0098538D01*
X0184288Y0098902D01*
X0183481Y0099709D01*
X0178009Y0099709D01*
X0177595Y0099296D01*
X0177182Y0099709D01*
X0171709Y0099709D01*
X0170902Y0098902D01*
X0170902Y0098538D01*
X0170725Y0098715D01*
X0164465Y0098715D01*
X0163700Y0097950D01*
X0141135Y0097950D01*
X0140635Y0098450D01*
X0139905Y0098752D01*
X0140057Y0098690D02*
X0164440Y0098690D01*
X0163658Y0093594D02*
X0163658Y0092436D01*
X0164072Y0092022D01*
X0163658Y0091609D01*
X0163658Y0090450D01*
X0163635Y0090450D01*
X0163135Y0090950D01*
X0161974Y0091431D01*
X0160717Y0091431D01*
X0159556Y0090950D01*
X0158667Y0090062D01*
X0158186Y0088901D01*
X0158186Y0087644D01*
X0158667Y0086483D01*
X0159556Y0085594D01*
X0160717Y0085113D01*
X0161974Y0085113D01*
X0163135Y0085594D01*
X0163635Y0086094D01*
X0163700Y0086094D01*
X0164465Y0085329D01*
X0170725Y0085329D01*
X0171532Y0086137D01*
X0171532Y0091609D01*
X0171119Y0092022D01*
X0171321Y0092224D01*
X0171709Y0091835D01*
X0177182Y0091835D01*
X0177595Y0092249D01*
X0178009Y0091835D01*
X0183481Y0091835D01*
X0183870Y0092224D01*
X0184465Y0091629D01*
X0190725Y0091629D01*
X0191321Y0092224D01*
X0191709Y0091835D01*
X0197182Y0091835D01*
X0197595Y0092249D01*
X0198009Y0091835D01*
X0203481Y0091835D01*
X0203870Y0092224D01*
X0204072Y0092022D01*
X0203658Y0091609D01*
X0203658Y0086137D01*
X0204465Y0085329D01*
X0210725Y0085329D01*
X0210785Y0085389D01*
X0210686Y0085151D01*
X0210686Y0083894D01*
X0210785Y0083655D01*
X0210725Y0083715D01*
X0204465Y0083715D01*
X0204288Y0083538D01*
X0204288Y0083902D01*
X0203481Y0084709D01*
X0198009Y0084709D01*
X0197595Y0084296D01*
X0197182Y0084709D01*
X0191709Y0084709D01*
X0190902Y0083902D01*
X0190902Y0083538D01*
X0190725Y0083715D01*
X0184465Y0083715D01*
X0184288Y0083538D01*
X0184288Y0083902D01*
X0183481Y0084709D01*
X0178009Y0084709D01*
X0177595Y0084296D01*
X0177182Y0084709D01*
X0171709Y0084709D01*
X0170902Y0083902D01*
X0170902Y0083538D01*
X0170725Y0083715D01*
X0164465Y0083715D01*
X0163700Y0082950D01*
X0156135Y0082950D01*
X0155635Y0083450D01*
X0154474Y0083931D01*
X0153217Y0083931D01*
X0152056Y0083450D01*
X0151167Y0082562D01*
X0150865Y0081833D01*
X0139905Y0092792D01*
X0140635Y0093094D01*
X0141135Y0093594D01*
X0163658Y0093594D01*
X0163658Y0093188D02*
X0140729Y0093188D01*
X0140295Y0092402D02*
X0163692Y0092402D01*
X0163666Y0091616D02*
X0141081Y0091616D01*
X0141867Y0090830D02*
X0159436Y0090830D01*
X0158660Y0090045D02*
X0142653Y0090045D01*
X0143439Y0089259D02*
X0158334Y0089259D01*
X0158186Y0088473D02*
X0144225Y0088473D01*
X0145011Y0087687D02*
X0158186Y0087687D01*
X0158494Y0086901D02*
X0145797Y0086901D01*
X0146583Y0086115D02*
X0159035Y0086115D01*
X0160196Y0085329D02*
X0147368Y0085329D01*
X0148154Y0084543D02*
X0171543Y0084543D01*
X0170902Y0083757D02*
X0154894Y0083757D01*
X0156114Y0082971D02*
X0163721Y0082971D01*
X0162495Y0085329D02*
X0210760Y0085329D01*
X0210686Y0084543D02*
X0203647Y0084543D01*
X0204288Y0083757D02*
X0210743Y0083757D01*
X0203680Y0086115D02*
X0171511Y0086115D01*
X0171532Y0086901D02*
X0203658Y0086901D01*
X0203658Y0087687D02*
X0171532Y0087687D01*
X0171532Y0088473D02*
X0203658Y0088473D01*
X0203658Y0089259D02*
X0171532Y0089259D01*
X0171532Y0090045D02*
X0203658Y0090045D01*
X0203658Y0090830D02*
X0171532Y0090830D01*
X0171525Y0091616D02*
X0203666Y0091616D01*
X0204288Y0098690D02*
X0204440Y0098690D01*
X0203715Y0099476D02*
X0210686Y0099476D01*
X0210732Y0100261D02*
X0141414Y0100261D01*
X0140628Y0099476D02*
X0171476Y0099476D01*
X0170902Y0098690D02*
X0170751Y0098690D01*
X0177415Y0099476D02*
X0177775Y0099476D01*
X0183715Y0099476D02*
X0191476Y0099476D01*
X0190902Y0098690D02*
X0190751Y0098690D01*
X0184440Y0098690D02*
X0184288Y0098690D01*
X0197415Y0099476D02*
X0197775Y0099476D01*
X0203658Y0101833D02*
X0142986Y0101833D01*
X0142200Y0101047D02*
X0203747Y0101047D01*
X0203658Y0102619D02*
X0143772Y0102619D01*
X0144558Y0103405D02*
X0203658Y0103405D01*
X0203658Y0104191D02*
X0145344Y0104191D01*
X0146130Y0104977D02*
X0203658Y0104977D01*
X0203658Y0105763D02*
X0146916Y0105763D01*
X0147702Y0106549D02*
X0203658Y0106549D01*
X0210751Y0098690D02*
X0210771Y0098690D01*
X0197842Y0084543D02*
X0197348Y0084543D01*
X0191543Y0084543D02*
X0183647Y0084543D01*
X0184288Y0083757D02*
X0190902Y0083757D01*
X0190780Y0076684D02*
X0203733Y0076684D01*
X0203658Y0075898D02*
X0171532Y0075898D01*
X0171532Y0075112D02*
X0203658Y0075112D01*
X0203658Y0074326D02*
X0171532Y0074326D01*
X0171532Y0073540D02*
X0203658Y0073540D01*
X0203658Y0072754D02*
X0171532Y0072754D01*
X0171532Y0071969D02*
X0203658Y0071969D01*
X0203658Y0071183D02*
X0171532Y0071183D01*
X0170792Y0070397D02*
X0204398Y0070397D01*
X0210792Y0070397D02*
X0225417Y0070397D01*
X0225417Y0071183D02*
X0211532Y0071183D01*
X0211532Y0071969D02*
X0216005Y0071969D01*
X0224441Y0071969D02*
X0225417Y0071969D01*
X0225417Y0069611D02*
X0163087Y0069611D01*
X0162658Y0070397D02*
X0164398Y0070397D01*
X0163873Y0068825D02*
X0225417Y0068825D01*
X0225417Y0068039D02*
X0164659Y0068039D01*
X0165444Y0067253D02*
X0225417Y0067253D01*
X0225417Y0066467D02*
X0166230Y0066467D01*
X0167016Y0065681D02*
X0225417Y0065681D01*
X0225417Y0064895D02*
X0167802Y0064895D01*
X0168588Y0064109D02*
X0225417Y0064109D01*
X0225417Y0063324D02*
X0169374Y0063324D01*
X0170160Y0062538D02*
X0225417Y0062538D01*
X0225417Y0061752D02*
X0170946Y0061752D01*
X0171732Y0060966D02*
X0225417Y0060966D01*
X0225417Y0060180D02*
X0172518Y0060180D01*
X0173304Y0059394D02*
X0225417Y0059394D01*
X0225417Y0058608D02*
X0174089Y0058608D01*
X0174875Y0057822D02*
X0225417Y0057822D01*
X0225417Y0057036D02*
X0175661Y0057036D01*
X0176447Y0056250D02*
X0225417Y0056250D01*
X0225417Y0055464D02*
X0177233Y0055464D01*
X0178019Y0054678D02*
X0225417Y0054678D01*
X0225417Y0053893D02*
X0178805Y0053893D01*
X0179591Y0053107D02*
X0225417Y0053107D01*
X0225417Y0052321D02*
X0180377Y0052321D01*
X0181163Y0051535D02*
X0225417Y0051535D01*
X0225417Y0050749D02*
X0181949Y0050749D01*
X0182735Y0049963D02*
X0225417Y0049963D01*
X0225417Y0049177D02*
X0183520Y0049177D01*
X0184306Y0048391D02*
X0225417Y0048391D01*
X0225417Y0047605D02*
X0184379Y0047605D01*
X0184379Y0046819D02*
X0225417Y0046819D01*
X0225417Y0046033D02*
X0184379Y0046033D01*
X0184379Y0045248D02*
X0225417Y0045248D01*
X0225417Y0044462D02*
X0184379Y0044462D01*
X0184379Y0043676D02*
X0225417Y0043676D01*
X0225417Y0042890D02*
X0184379Y0042890D01*
X0184379Y0042104D02*
X0225417Y0042104D01*
X0225417Y0041318D02*
X0184379Y0041318D01*
X0184379Y0040532D02*
X0225417Y0040532D01*
X0225417Y0039746D02*
X0184379Y0039746D01*
X0184379Y0038960D02*
X0225417Y0038960D01*
X0225417Y0038174D02*
X0184379Y0038174D01*
X0184379Y0037388D02*
X0225417Y0037388D01*
X0225417Y0036602D02*
X0184379Y0036602D01*
X0184379Y0035817D02*
X0225417Y0035817D01*
X0225417Y0035031D02*
X0184379Y0035031D01*
X0184379Y0034245D02*
X0225417Y0034245D01*
X0225417Y0033459D02*
X0184379Y0033459D01*
X0184379Y0032673D02*
X0225417Y0032673D01*
X0225417Y0031887D02*
X0184379Y0031887D01*
X0184379Y0031101D02*
X0224844Y0031101D01*
X0224058Y0030315D02*
X0184379Y0030315D01*
X0184379Y0029529D02*
X0223272Y0029529D01*
X0222486Y0028743D02*
X0184379Y0028743D01*
X0184379Y0027957D02*
X0221700Y0027957D01*
X0220914Y0027172D02*
X0184379Y0027172D01*
X0184379Y0026386D02*
X0220128Y0026386D01*
X0219342Y0025600D02*
X0184379Y0025600D01*
X0184379Y0024814D02*
X0218557Y0024814D01*
X0217771Y0024028D02*
X0184379Y0024028D01*
X0184379Y0023242D02*
X0216985Y0023242D01*
X0216199Y0022456D02*
X0184379Y0022456D01*
X0184379Y0021670D02*
X0215413Y0021670D01*
X0214627Y0020884D02*
X0214570Y0020884D01*
X0211566Y0020884D02*
X0184379Y0020884D01*
X0185052Y0020098D02*
X0210217Y0020098D01*
X0209431Y0019312D02*
X0185838Y0019312D01*
X0186192Y0018526D02*
X0209077Y0018526D01*
X0208752Y0017741D02*
X0186517Y0017741D01*
X0186548Y0016955D02*
X0208721Y0016955D01*
X0208721Y0016169D02*
X0186548Y0016169D01*
X0186548Y0015383D02*
X0208721Y0015383D01*
X0208721Y0014597D02*
X0186548Y0014597D01*
X0186548Y0013811D02*
X0208721Y0013811D01*
X0208721Y0013025D02*
X0186548Y0013025D01*
X0186548Y0012239D02*
X0208721Y0012239D01*
X0208721Y0011453D02*
X0186548Y0011453D01*
X0186548Y0010667D02*
X0208721Y0010667D01*
X0208770Y0009881D02*
X0186499Y0009881D01*
X0186173Y0009096D02*
X0209096Y0009096D01*
X0209476Y0008310D02*
X0185793Y0008310D01*
X0185007Y0007524D02*
X0210262Y0007524D01*
X0211673Y0006738D02*
X0183596Y0006738D01*
X0180807Y0006738D02*
X0173596Y0006738D01*
X0175007Y0007524D02*
X0179396Y0007524D01*
X0178610Y0008310D02*
X0175793Y0008310D01*
X0176173Y0009096D02*
X0178230Y0009096D01*
X0177904Y0009881D02*
X0176499Y0009881D01*
X0176548Y0010667D02*
X0177855Y0010667D01*
X0177855Y0011453D02*
X0176548Y0011453D01*
X0176548Y0012239D02*
X0177855Y0012239D01*
X0177855Y0013025D02*
X0176548Y0013025D01*
X0176548Y0013811D02*
X0177855Y0013811D01*
X0177855Y0014597D02*
X0176548Y0014597D01*
X0176548Y0015383D02*
X0177855Y0015383D01*
X0177855Y0016169D02*
X0176548Y0016169D01*
X0176548Y0016955D02*
X0177855Y0016955D01*
X0177886Y0017741D02*
X0176517Y0017741D01*
X0176192Y0018526D02*
X0178211Y0018526D01*
X0178565Y0019312D02*
X0175838Y0019312D01*
X0175052Y0020098D02*
X0179351Y0020098D01*
X0180023Y0020884D02*
X0174379Y0020884D01*
X0174379Y0021670D02*
X0180023Y0021670D01*
X0180023Y0022456D02*
X0174379Y0022456D01*
X0174379Y0023242D02*
X0180023Y0023242D01*
X0180023Y0024028D02*
X0174379Y0024028D01*
X0174379Y0024814D02*
X0180023Y0024814D01*
X0180023Y0025600D02*
X0174379Y0025600D01*
X0174379Y0026386D02*
X0180023Y0026386D01*
X0180023Y0027172D02*
X0174379Y0027172D01*
X0174379Y0027957D02*
X0180023Y0027957D01*
X0180023Y0028743D02*
X0174379Y0028743D01*
X0174379Y0029529D02*
X0180023Y0029529D01*
X0180023Y0030315D02*
X0174379Y0030315D01*
X0174379Y0031101D02*
X0180023Y0031101D01*
X0180023Y0031887D02*
X0174379Y0031887D01*
X0174379Y0032673D02*
X0180023Y0032673D01*
X0180023Y0033459D02*
X0174379Y0033459D01*
X0174379Y0034245D02*
X0180023Y0034245D01*
X0180023Y0035031D02*
X0174379Y0035031D01*
X0174379Y0035817D02*
X0180023Y0035817D01*
X0180023Y0036602D02*
X0174379Y0036602D01*
X0174379Y0037388D02*
X0180023Y0037388D01*
X0180023Y0038174D02*
X0174379Y0038174D01*
X0174379Y0038960D02*
X0180023Y0038960D01*
X0180023Y0039746D02*
X0174379Y0039746D01*
X0174379Y0040532D02*
X0180023Y0040532D01*
X0180023Y0041318D02*
X0174379Y0041318D01*
X0174379Y0042104D02*
X0180023Y0042104D01*
X0180023Y0042890D02*
X0174379Y0042890D01*
X0174379Y0043676D02*
X0180023Y0043676D01*
X0180023Y0044462D02*
X0174379Y0044462D01*
X0174379Y0045248D02*
X0180023Y0045248D01*
X0180023Y0046033D02*
X0174379Y0046033D01*
X0174379Y0046819D02*
X0179718Y0046819D01*
X0178932Y0047605D02*
X0174379Y0047605D01*
X0174379Y0048391D02*
X0178146Y0048391D01*
X0177360Y0049177D02*
X0174379Y0049177D01*
X0174379Y0049963D02*
X0176574Y0049963D01*
X0175788Y0050749D02*
X0174379Y0050749D01*
X0174379Y0051535D02*
X0175003Y0051535D01*
X0170003Y0051535D02*
X0164379Y0051535D01*
X0164379Y0052321D02*
X0169217Y0052321D01*
X0168431Y0053107D02*
X0164379Y0053107D01*
X0164379Y0053893D02*
X0167645Y0053893D01*
X0166859Y0054678D02*
X0164379Y0054678D01*
X0164379Y0055464D02*
X0166073Y0055464D01*
X0165287Y0056250D02*
X0164379Y0056250D01*
X0164379Y0057036D02*
X0164501Y0057036D01*
X0160023Y0056250D02*
X0133962Y0056250D01*
X0132784Y0055762D02*
X0135461Y0056871D01*
X0137510Y0058920D01*
X0138619Y0061597D01*
X0138619Y0076306D01*
X0137510Y0078983D01*
X0135461Y0081032D01*
X0132784Y0082140D01*
X0129887Y0082140D01*
X0127210Y0081032D01*
X0125161Y0078983D01*
X0124052Y0076306D01*
X0124052Y0061597D01*
X0125161Y0058920D01*
X0127210Y0056871D01*
X0129887Y0055762D01*
X0132784Y0055762D01*
X0135626Y0057036D02*
X0159501Y0057036D01*
X0158715Y0057822D02*
X0136412Y0057822D01*
X0137198Y0058608D02*
X0157929Y0058608D01*
X0157143Y0059394D02*
X0137706Y0059394D01*
X0138032Y0060180D02*
X0156358Y0060180D01*
X0155572Y0060966D02*
X0138357Y0060966D01*
X0138619Y0061752D02*
X0154786Y0061752D01*
X0154000Y0062538D02*
X0138619Y0062538D01*
X0138619Y0063324D02*
X0153214Y0063324D01*
X0152428Y0064109D02*
X0138619Y0064109D01*
X0138619Y0064895D02*
X0151642Y0064895D01*
X0150856Y0065681D02*
X0138619Y0065681D01*
X0138619Y0066467D02*
X0150070Y0066467D01*
X0149284Y0067253D02*
X0138619Y0067253D01*
X0138619Y0068039D02*
X0148498Y0068039D01*
X0147712Y0068825D02*
X0138619Y0068825D01*
X0138619Y0069611D02*
X0146927Y0069611D01*
X0146141Y0070397D02*
X0138619Y0070397D01*
X0138619Y0071183D02*
X0145355Y0071183D01*
X0144569Y0071969D02*
X0138619Y0071969D01*
X0138619Y0072754D02*
X0143783Y0072754D01*
X0142997Y0073540D02*
X0138619Y0073540D01*
X0138619Y0074326D02*
X0142211Y0074326D01*
X0141425Y0075112D02*
X0138619Y0075112D01*
X0138619Y0075898D02*
X0140639Y0075898D01*
X0139853Y0076684D02*
X0138462Y0076684D01*
X0138137Y0077470D02*
X0139067Y0077470D01*
X0138282Y0078256D02*
X0137811Y0078256D01*
X0137496Y0079042D02*
X0137451Y0079042D01*
X0136710Y0079828D02*
X0136665Y0079828D01*
X0135924Y0080614D02*
X0135879Y0080614D01*
X0135138Y0081400D02*
X0134573Y0081400D01*
X0134352Y0082185D02*
X0073658Y0082185D01*
X0073658Y0081400D02*
X0128098Y0081400D01*
X0126792Y0080614D02*
X0073658Y0080614D01*
X0073658Y0079828D02*
X0126006Y0079828D01*
X0125220Y0079042D02*
X0073658Y0079042D01*
X0073658Y0078256D02*
X0124860Y0078256D01*
X0124534Y0077470D02*
X0073299Y0077470D01*
X0064569Y0077470D02*
X0053614Y0077470D01*
X0053973Y0078256D02*
X0064209Y0078256D01*
X0064209Y0079042D02*
X0053973Y0079042D01*
X0053973Y0079828D02*
X0064209Y0079828D01*
X0064209Y0080614D02*
X0053973Y0080614D01*
X0053973Y0081400D02*
X0064209Y0081400D01*
X0064209Y0082185D02*
X0053973Y0082185D01*
X0053973Y0082971D02*
X0064209Y0082971D01*
X0064209Y0083757D02*
X0053973Y0083757D01*
X0053973Y0084543D02*
X0064209Y0084543D01*
X0064209Y0085329D02*
X0053973Y0085329D01*
X0053522Y0086115D02*
X0064660Y0086115D01*
X0066756Y0086901D02*
X0051427Y0086901D01*
X0051427Y0087687D02*
X0066756Y0087687D01*
X0066756Y0088473D02*
X0052126Y0088473D01*
X0052912Y0089259D02*
X0066756Y0089259D01*
X0067537Y0090045D02*
X0053697Y0090045D01*
X0054483Y0090830D02*
X0068323Y0090830D01*
X0069109Y0091616D02*
X0055269Y0091616D01*
X0052253Y0094760D02*
X0029186Y0094760D01*
X0029186Y0093974D02*
X0051467Y0093974D01*
X0050681Y0093188D02*
X0029186Y0093188D01*
X0029186Y0092402D02*
X0049895Y0092402D01*
X0049109Y0091616D02*
X0029186Y0091616D01*
X0029186Y0090830D02*
X0048323Y0090830D01*
X0047537Y0090045D02*
X0029186Y0090045D01*
X0029186Y0089259D02*
X0047071Y0089259D01*
X0047071Y0088473D02*
X0029186Y0088473D01*
X0029186Y0087687D02*
X0047071Y0087687D01*
X0047071Y0086901D02*
X0029186Y0086901D01*
X0029186Y0086115D02*
X0044975Y0086115D01*
X0044524Y0085329D02*
X0029186Y0085329D01*
X0029186Y0084543D02*
X0044524Y0084543D01*
X0044524Y0083757D02*
X0029186Y0083757D01*
X0029186Y0082971D02*
X0044524Y0082971D01*
X0044524Y0082185D02*
X0029186Y0082185D01*
X0029186Y0081400D02*
X0044524Y0081400D01*
X0044524Y0080614D02*
X0029186Y0080614D01*
X0029186Y0079828D02*
X0044524Y0079828D01*
X0044524Y0079042D02*
X0029186Y0079042D01*
X0029186Y0078256D02*
X0044524Y0078256D01*
X0044884Y0077470D02*
X0029186Y0077470D01*
X0029186Y0076684D02*
X0124209Y0076684D01*
X0124052Y0075898D02*
X0029186Y0075898D01*
X0029186Y0075112D02*
X0124052Y0075112D01*
X0124052Y0074326D02*
X0029186Y0074326D01*
X0029186Y0073540D02*
X0124052Y0073540D01*
X0124052Y0072754D02*
X0029186Y0072754D01*
X0029186Y0071969D02*
X0124052Y0071969D01*
X0124052Y0071183D02*
X0029186Y0071183D01*
X0029186Y0070397D02*
X0124052Y0070397D01*
X0124052Y0069611D02*
X0029186Y0069611D01*
X0029186Y0068825D02*
X0124052Y0068825D01*
X0124052Y0068039D02*
X0029186Y0068039D01*
X0029186Y0067253D02*
X0124052Y0067253D01*
X0124052Y0066467D02*
X0029186Y0066467D01*
X0029186Y0065681D02*
X0124052Y0065681D01*
X0124052Y0064895D02*
X0029186Y0064895D01*
X0029186Y0064109D02*
X0124052Y0064109D01*
X0124052Y0063324D02*
X0029186Y0063324D01*
X0029186Y0062538D02*
X0124052Y0062538D01*
X0124052Y0061752D02*
X0029186Y0061752D01*
X0029186Y0060966D02*
X0124313Y0060966D01*
X0124639Y0060180D02*
X0029186Y0060180D01*
X0029186Y0059394D02*
X0124964Y0059394D01*
X0125473Y0058608D02*
X0029186Y0058608D01*
X0029186Y0057822D02*
X0126259Y0057822D01*
X0127045Y0057036D02*
X0029186Y0057036D01*
X0029186Y0056250D02*
X0128709Y0056250D01*
X0160023Y0055464D02*
X0029186Y0055464D01*
X0029186Y0054678D02*
X0160023Y0054678D01*
X0160023Y0053893D02*
X0029186Y0053893D01*
X0029186Y0053107D02*
X0160023Y0053107D01*
X0160023Y0052321D02*
X0029186Y0052321D01*
X0029186Y0051535D02*
X0160023Y0051535D01*
X0160023Y0050749D02*
X0029186Y0050749D01*
X0029186Y0049963D02*
X0160023Y0049963D01*
X0160023Y0049177D02*
X0029186Y0049177D01*
X0029186Y0048391D02*
X0160023Y0048391D01*
X0160023Y0047605D02*
X0029186Y0047605D01*
X0029186Y0046819D02*
X0160023Y0046819D01*
X0160023Y0046033D02*
X0029186Y0046033D01*
X0029186Y0045248D02*
X0160023Y0045248D01*
X0160023Y0044462D02*
X0029186Y0044462D01*
X0029186Y0043676D02*
X0160023Y0043676D01*
X0160023Y0042890D02*
X0029186Y0042890D01*
X0029186Y0042104D02*
X0160023Y0042104D01*
X0160023Y0041318D02*
X0029186Y0041318D01*
X0029186Y0040532D02*
X0160023Y0040532D01*
X0160023Y0039746D02*
X0029186Y0039746D01*
X0029186Y0038960D02*
X0160023Y0038960D01*
X0160023Y0038174D02*
X0029186Y0038174D01*
X0029186Y0037388D02*
X0160023Y0037388D01*
X0160023Y0036602D02*
X0029186Y0036602D01*
X0029186Y0035817D02*
X0160023Y0035817D01*
X0160023Y0035031D02*
X0029186Y0035031D01*
X0029186Y0034245D02*
X0160023Y0034245D01*
X0160023Y0033459D02*
X0029186Y0033459D01*
X0029186Y0032673D02*
X0160023Y0032673D01*
X0160023Y0031887D02*
X0029186Y0031887D01*
X0029186Y0031101D02*
X0160023Y0031101D01*
X0160023Y0030315D02*
X0029186Y0030315D01*
X0029186Y0029529D02*
X0160023Y0029529D01*
X0160023Y0028743D02*
X0029186Y0028743D01*
X0029186Y0027957D02*
X0160023Y0027957D01*
X0160023Y0027172D02*
X0029186Y0027172D01*
X0029186Y0026386D02*
X0160023Y0026386D01*
X0160023Y0025600D02*
X0029186Y0025600D01*
X0029186Y0024814D02*
X0160023Y0024814D01*
X0160023Y0024028D02*
X0029186Y0024028D01*
X0029186Y0023242D02*
X0160023Y0023242D01*
X0160023Y0022456D02*
X0029186Y0022456D01*
X0029186Y0021670D02*
X0160023Y0021670D01*
X0160023Y0020884D02*
X0029186Y0020884D01*
X0029186Y0020098D02*
X0159351Y0020098D01*
X0158565Y0019312D02*
X0029186Y0019312D01*
X0029186Y0018526D02*
X0158211Y0018526D01*
X0157886Y0017741D02*
X0029186Y0017741D01*
X0029186Y0016955D02*
X0157855Y0016955D01*
X0157855Y0016169D02*
X0029186Y0016169D01*
X0029186Y0015383D02*
X0157855Y0015383D01*
X0157855Y0014597D02*
X0029186Y0014597D01*
X0029186Y0013833D02*
X0029186Y0183125D01*
X0029312Y0184723D01*
X0030300Y0187765D01*
X0032179Y0190352D01*
X0034766Y0192231D01*
X0037807Y0193219D01*
X0039406Y0193345D01*
X0409485Y0193345D01*
X0411084Y0193219D01*
X0414125Y0192231D01*
X0416712Y0190352D01*
X0418591Y0187765D01*
X0419580Y0184723D01*
X0419705Y0183125D01*
X0419705Y0013833D01*
X0419580Y0012234D01*
X0418591Y0009193D01*
X0416712Y0006606D01*
X0414125Y0004727D01*
X0411084Y0003739D01*
X0409485Y0003613D01*
X0039406Y0003613D01*
X0037807Y0003739D01*
X0034766Y0004727D01*
X0032179Y0006606D01*
X0030300Y0009193D01*
X0029312Y0012234D01*
X0029186Y0013833D01*
X0029187Y0013811D02*
X0157855Y0013811D01*
X0157855Y0013025D02*
X0029249Y0013025D01*
X0029311Y0012239D02*
X0157855Y0012239D01*
X0157855Y0011453D02*
X0029565Y0011453D01*
X0029821Y0010667D02*
X0157855Y0010667D01*
X0157904Y0009881D02*
X0030076Y0009881D01*
X0030371Y0009096D02*
X0158230Y0009096D01*
X0158610Y0008310D02*
X0030942Y0008310D01*
X0031513Y0007524D02*
X0159396Y0007524D01*
X0160807Y0006738D02*
X0032084Y0006738D01*
X0033080Y0005952D02*
X0415811Y0005952D01*
X0416807Y0006738D02*
X0284462Y0006738D01*
X0285873Y0007524D02*
X0417378Y0007524D01*
X0417949Y0008310D02*
X0286659Y0008310D01*
X0287039Y0009096D02*
X0418520Y0009096D01*
X0418815Y0009881D02*
X0287365Y0009881D01*
X0287414Y0010667D02*
X0419070Y0010667D01*
X0419326Y0011453D02*
X0287414Y0011453D01*
X0287414Y0012239D02*
X0419580Y0012239D01*
X0419642Y0013025D02*
X0287414Y0013025D01*
X0287414Y0013811D02*
X0419704Y0013811D01*
X0419705Y0014597D02*
X0287414Y0014597D01*
X0287414Y0015383D02*
X0419705Y0015383D01*
X0419705Y0016169D02*
X0287414Y0016169D01*
X0287414Y0016955D02*
X0419705Y0016955D01*
X0419705Y0017741D02*
X0287383Y0017741D01*
X0287058Y0018526D02*
X0419705Y0018526D01*
X0419705Y0019312D02*
X0286704Y0019312D01*
X0285918Y0020098D02*
X0419705Y0020098D01*
X0419705Y0020884D02*
X0285246Y0020884D01*
X0285323Y0021670D02*
X0419705Y0021670D01*
X0419705Y0022456D02*
X0317359Y0022456D01*
X0318145Y0023242D02*
X0419705Y0023242D01*
X0419705Y0024028D02*
X0318931Y0024028D01*
X0319717Y0024814D02*
X0419705Y0024814D01*
X0419705Y0025600D02*
X0320503Y0025600D01*
X0321023Y0026386D02*
X0419705Y0026386D01*
X0419705Y0027172D02*
X0321023Y0027172D01*
X0321023Y0027957D02*
X0419705Y0027957D01*
X0419705Y0028743D02*
X0321023Y0028743D01*
X0321023Y0029529D02*
X0419705Y0029529D01*
X0419705Y0030315D02*
X0321023Y0030315D01*
X0321023Y0031101D02*
X0419705Y0031101D01*
X0419705Y0031887D02*
X0321023Y0031887D01*
X0321023Y0032673D02*
X0419705Y0032673D01*
X0419705Y0033459D02*
X0321023Y0033459D01*
X0321023Y0034245D02*
X0419705Y0034245D01*
X0419705Y0035031D02*
X0321023Y0035031D01*
X0321023Y0035817D02*
X0419705Y0035817D01*
X0419705Y0036602D02*
X0321023Y0036602D01*
X0321023Y0037388D02*
X0419705Y0037388D01*
X0419705Y0038174D02*
X0321023Y0038174D01*
X0321023Y0038960D02*
X0419705Y0038960D01*
X0419705Y0039746D02*
X0321023Y0039746D01*
X0321023Y0040532D02*
X0419705Y0040532D01*
X0419705Y0041318D02*
X0321023Y0041318D01*
X0321023Y0042104D02*
X0419705Y0042104D01*
X0419705Y0042890D02*
X0321023Y0042890D01*
X0321023Y0043676D02*
X0419705Y0043676D01*
X0419705Y0044462D02*
X0321023Y0044462D01*
X0321023Y0045248D02*
X0419705Y0045248D01*
X0419705Y0046033D02*
X0321023Y0046033D01*
X0321023Y0046819D02*
X0419705Y0046819D01*
X0419705Y0047605D02*
X0321023Y0047605D01*
X0321023Y0048391D02*
X0419705Y0048391D01*
X0419705Y0049177D02*
X0321023Y0049177D01*
X0321023Y0049963D02*
X0419705Y0049963D01*
X0419705Y0050749D02*
X0321023Y0050749D01*
X0321023Y0051535D02*
X0419705Y0051535D01*
X0419705Y0052321D02*
X0321023Y0052321D01*
X0321023Y0053107D02*
X0419705Y0053107D01*
X0419705Y0053893D02*
X0321023Y0053893D01*
X0321023Y0054678D02*
X0419705Y0054678D01*
X0419705Y0055464D02*
X0321023Y0055464D01*
X0321023Y0056250D02*
X0419705Y0056250D01*
X0419705Y0057036D02*
X0321023Y0057036D01*
X0321023Y0057822D02*
X0419705Y0057822D01*
X0419705Y0058608D02*
X0321023Y0058608D01*
X0321023Y0059394D02*
X0419705Y0059394D01*
X0419705Y0060180D02*
X0321023Y0060180D01*
X0321023Y0060966D02*
X0419705Y0060966D01*
X0419705Y0061752D02*
X0321023Y0061752D01*
X0321023Y0062538D02*
X0419705Y0062538D01*
X0419705Y0063324D02*
X0321023Y0063324D01*
X0321023Y0064109D02*
X0419705Y0064109D01*
X0419705Y0064895D02*
X0321023Y0064895D01*
X0321023Y0065681D02*
X0419705Y0065681D01*
X0419705Y0066467D02*
X0321023Y0066467D01*
X0321023Y0067253D02*
X0419705Y0067253D01*
X0419705Y0068039D02*
X0321023Y0068039D01*
X0321023Y0068825D02*
X0419705Y0068825D01*
X0419705Y0069611D02*
X0321023Y0069611D01*
X0321023Y0070397D02*
X0419705Y0070397D01*
X0419705Y0071183D02*
X0321023Y0071183D01*
X0321023Y0071969D02*
X0419705Y0071969D01*
X0419705Y0072754D02*
X0321023Y0072754D01*
X0320407Y0073540D02*
X0419705Y0073540D01*
X0419705Y0074326D02*
X0319621Y0074326D01*
X0318835Y0075112D02*
X0419705Y0075112D01*
X0419705Y0075898D02*
X0318049Y0075898D01*
X0318111Y0076684D02*
X0317263Y0076684D01*
X0324580Y0076684D02*
X0419705Y0076684D01*
X0419705Y0077470D02*
X0325282Y0077470D01*
X0325282Y0078256D02*
X0419705Y0078256D01*
X0419705Y0079042D02*
X0325282Y0079042D01*
X0325282Y0079828D02*
X0419705Y0079828D01*
X0419705Y0080614D02*
X0325282Y0080614D01*
X0325282Y0081400D02*
X0419705Y0081400D01*
X0419705Y0082185D02*
X0325282Y0082185D01*
X0325170Y0082971D02*
X0419705Y0082971D01*
X0419705Y0083757D02*
X0325282Y0083757D01*
X0325282Y0084543D02*
X0419705Y0084543D01*
X0419705Y0085329D02*
X0325282Y0085329D01*
X0325282Y0086115D02*
X0419705Y0086115D01*
X0419705Y0086901D02*
X0325282Y0086901D01*
X0325282Y0087687D02*
X0419705Y0087687D01*
X0419705Y0088473D02*
X0325282Y0088473D01*
X0325182Y0089259D02*
X0419705Y0089259D01*
X0419705Y0090045D02*
X0316403Y0090045D01*
X0316464Y0090830D02*
X0315617Y0090830D01*
X0315902Y0091616D02*
X0315269Y0091616D01*
X0317189Y0089259D02*
X0317509Y0089259D01*
X0322427Y0090830D02*
X0419705Y0090830D01*
X0419705Y0091616D02*
X0322989Y0091616D01*
X0322989Y0092402D02*
X0419705Y0092402D01*
X0419705Y0093188D02*
X0322989Y0093188D01*
X0322989Y0093974D02*
X0419705Y0093974D01*
X0419705Y0094760D02*
X0322989Y0094760D01*
X0322989Y0095546D02*
X0419705Y0095546D01*
X0419705Y0096332D02*
X0322989Y0096332D01*
X0322989Y0097118D02*
X0419705Y0097118D01*
X0419705Y0097904D02*
X0322737Y0097904D01*
X0322786Y0098690D02*
X0419705Y0098690D01*
X0419705Y0099476D02*
X0322989Y0099476D01*
X0322989Y0100261D02*
X0419705Y0100261D01*
X0419705Y0101047D02*
X0322989Y0101047D01*
X0322989Y0101833D02*
X0419705Y0101833D01*
X0419705Y0102619D02*
X0322989Y0102619D01*
X0322989Y0103405D02*
X0419705Y0103405D01*
X0419705Y0104191D02*
X0322989Y0104191D01*
X0322989Y0104977D02*
X0419705Y0104977D01*
X0419705Y0105763D02*
X0322378Y0105763D01*
X0316513Y0105763D02*
X0312378Y0105763D01*
X0312782Y0104977D02*
X0315902Y0104977D01*
X0314184Y0104191D02*
X0312782Y0104191D01*
X0312782Y0103405D02*
X0313398Y0103405D01*
X0305312Y0105763D02*
X0301935Y0105763D01*
X0302721Y0104977D02*
X0304908Y0104977D01*
X0301149Y0106549D02*
X0419705Y0106549D01*
X0419705Y0107335D02*
X0300363Y0107335D01*
X0286667Y0111264D02*
X0286543Y0111264D01*
X0286667Y0112050D02*
X0285785Y0112050D01*
X0286667Y0112836D02*
X0234861Y0112836D01*
X0234076Y0113622D02*
X0286667Y0113622D01*
X0286667Y0114408D02*
X0233290Y0114408D01*
X0232504Y0115194D02*
X0286667Y0115194D01*
X0286667Y0115980D02*
X0231718Y0115980D01*
X0230932Y0116766D02*
X0286667Y0116766D01*
X0286667Y0117552D02*
X0230146Y0117552D01*
X0235647Y0112050D02*
X0281905Y0112050D01*
X0277507Y0111264D02*
X0236433Y0111264D01*
X0248599Y0126197D02*
X0286667Y0126197D01*
X0286667Y0125411D02*
X0138619Y0125411D01*
X0138619Y0124625D02*
X0286667Y0124625D01*
X0286667Y0123839D02*
X0138619Y0123839D01*
X0138619Y0123053D02*
X0286667Y0123053D01*
X0286667Y0122267D02*
X0138619Y0122267D01*
X0138619Y0121481D02*
X0286667Y0121481D01*
X0296827Y0121481D02*
X0298806Y0121481D01*
X0298020Y0122267D02*
X0296877Y0122267D01*
X0296877Y0123053D02*
X0297234Y0123053D01*
X0288547Y0128554D02*
X0285538Y0128554D01*
X0285538Y0127768D02*
X0287761Y0127768D01*
X0286975Y0126982D02*
X0284878Y0126982D01*
X0279111Y0126982D02*
X0278579Y0126982D01*
X0272812Y0126982D02*
X0249385Y0126982D01*
X0250171Y0127768D02*
X0272152Y0127768D01*
X0272152Y0128554D02*
X0271046Y0128554D01*
X0264518Y0128554D02*
X0250957Y0128554D01*
X0251743Y0129340D02*
X0264436Y0129340D01*
X0264436Y0130126D02*
X0252529Y0130126D01*
X0253315Y0130912D02*
X0264436Y0130912D01*
X0264436Y0131698D02*
X0262576Y0131698D01*
X0263255Y0132484D02*
X0264436Y0132484D01*
X0264778Y0133270D02*
X0263255Y0133270D01*
X0263255Y0134056D02*
X0272306Y0134056D01*
X0272453Y0134842D02*
X0263255Y0134842D01*
X0263255Y0135627D02*
X0264925Y0135627D01*
X0264436Y0136413D02*
X0263255Y0136413D01*
X0262723Y0137199D02*
X0264436Y0137199D01*
X0264436Y0137985D02*
X0137532Y0137985D01*
X0137857Y0137199D02*
X0257093Y0137199D01*
X0252656Y0136413D02*
X0138183Y0136413D01*
X0138508Y0135627D02*
X0251870Y0135627D01*
X0251084Y0134842D02*
X0138619Y0134842D01*
X0138619Y0134056D02*
X0250298Y0134056D01*
X0249513Y0133270D02*
X0138619Y0133270D01*
X0138619Y0132484D02*
X0248727Y0132484D01*
X0247941Y0131698D02*
X0138619Y0131698D01*
X0138619Y0130912D02*
X0247155Y0130912D01*
X0254101Y0131698D02*
X0257240Y0131698D01*
X0264436Y0138771D02*
X0136777Y0138771D01*
X0135991Y0139557D02*
X0264436Y0139557D01*
X0264436Y0140343D02*
X0134842Y0140343D01*
X0132945Y0141129D02*
X0265157Y0141129D01*
X0270408Y0141129D02*
X0272152Y0141129D01*
X0272152Y0144273D02*
X0029186Y0144273D01*
X0029186Y0145058D02*
X0272152Y0145058D01*
X0272152Y0145844D02*
X0029186Y0145844D01*
X0029186Y0146630D02*
X0272152Y0146630D01*
X0272152Y0147416D02*
X0029186Y0147416D01*
X0029186Y0148202D02*
X0272152Y0148202D01*
X0272238Y0148988D02*
X0029186Y0148988D01*
X0029186Y0149774D02*
X0419705Y0149774D01*
X0419705Y0150560D02*
X0029186Y0150560D01*
X0029186Y0151346D02*
X0419705Y0151346D01*
X0419705Y0152132D02*
X0029186Y0152132D01*
X0029186Y0152918D02*
X0419705Y0152918D01*
X0419705Y0153703D02*
X0029186Y0153703D01*
X0029186Y0154489D02*
X0419705Y0154489D01*
X0419705Y0155275D02*
X0029186Y0155275D01*
X0029186Y0156061D02*
X0419705Y0156061D01*
X0419705Y0156847D02*
X0029186Y0156847D01*
X0029186Y0157633D02*
X0419705Y0157633D01*
X0419705Y0158419D02*
X0029186Y0158419D01*
X0029186Y0159205D02*
X0419705Y0159205D01*
X0419705Y0159991D02*
X0029186Y0159991D01*
X0029186Y0160777D02*
X0419705Y0160777D01*
X0419705Y0161563D02*
X0029186Y0161563D01*
X0029186Y0162349D02*
X0419705Y0162349D01*
X0419705Y0163134D02*
X0029186Y0163134D01*
X0029186Y0163920D02*
X0419705Y0163920D01*
X0419705Y0164706D02*
X0029186Y0164706D01*
X0029186Y0165492D02*
X0419705Y0165492D01*
X0419705Y0166278D02*
X0029186Y0166278D01*
X0029186Y0167064D02*
X0419705Y0167064D01*
X0419705Y0167850D02*
X0029186Y0167850D01*
X0029186Y0168636D02*
X0419705Y0168636D01*
X0419705Y0169422D02*
X0029186Y0169422D01*
X0029186Y0170208D02*
X0419705Y0170208D01*
X0419705Y0170994D02*
X0029186Y0170994D01*
X0029186Y0171779D02*
X0419705Y0171779D01*
X0419705Y0172565D02*
X0029186Y0172565D01*
X0029186Y0173351D02*
X0419705Y0173351D01*
X0419705Y0174137D02*
X0029186Y0174137D01*
X0029186Y0174923D02*
X0419705Y0174923D01*
X0419705Y0175709D02*
X0029186Y0175709D01*
X0029186Y0176495D02*
X0419705Y0176495D01*
X0419705Y0177281D02*
X0029186Y0177281D01*
X0029186Y0178067D02*
X0419705Y0178067D01*
X0419705Y0178853D02*
X0029186Y0178853D01*
X0029186Y0179639D02*
X0419705Y0179639D01*
X0419705Y0180425D02*
X0029186Y0180425D01*
X0029186Y0181210D02*
X0419705Y0181210D01*
X0419705Y0181996D02*
X0029186Y0181996D01*
X0029186Y0182782D02*
X0419705Y0182782D01*
X0419670Y0183568D02*
X0029221Y0183568D01*
X0029282Y0184354D02*
X0419609Y0184354D01*
X0419444Y0185140D02*
X0029447Y0185140D01*
X0029702Y0185926D02*
X0419189Y0185926D01*
X0418933Y0186712D02*
X0029958Y0186712D01*
X0030213Y0187498D02*
X0418678Y0187498D01*
X0418214Y0188284D02*
X0030677Y0188284D01*
X0031248Y0189070D02*
X0417643Y0189070D01*
X0417072Y0189855D02*
X0031819Y0189855D01*
X0032578Y0190641D02*
X0416313Y0190641D01*
X0415231Y0191427D02*
X0033660Y0191427D01*
X0034741Y0192213D02*
X0414150Y0192213D01*
X0411761Y0192999D02*
X0037130Y0192999D01*
X0029186Y0143487D02*
X0064945Y0143487D01*
X0064209Y0142701D02*
X0029186Y0142701D01*
X0029186Y0141915D02*
X0064209Y0141915D01*
X0064209Y0141129D02*
X0029186Y0141129D01*
X0029186Y0140343D02*
X0064209Y0140343D01*
X0064209Y0139557D02*
X0029186Y0139557D01*
X0029186Y0138771D02*
X0064209Y0138771D01*
X0064209Y0137985D02*
X0029186Y0137985D01*
X0029186Y0137199D02*
X0064209Y0137199D01*
X0064209Y0136413D02*
X0029186Y0136413D01*
X0029186Y0135627D02*
X0064209Y0135627D01*
X0064284Y0134842D02*
X0029186Y0134842D01*
X0029186Y0134056D02*
X0073732Y0134056D01*
X0074518Y0133270D02*
X0029186Y0133270D01*
X0029186Y0132484D02*
X0075304Y0132484D01*
X0076089Y0131698D02*
X0029186Y0131698D01*
X0029186Y0130912D02*
X0076875Y0130912D01*
X0077661Y0130126D02*
X0029186Y0130126D01*
X0029186Y0129340D02*
X0078447Y0129340D01*
X0079233Y0128554D02*
X0029186Y0128554D01*
X0029186Y0127768D02*
X0080019Y0127768D01*
X0080805Y0126982D02*
X0029186Y0126982D01*
X0029186Y0126197D02*
X0081591Y0126197D01*
X0082377Y0125411D02*
X0029186Y0125411D01*
X0029186Y0124625D02*
X0083163Y0124625D01*
X0083949Y0123839D02*
X0029186Y0123839D01*
X0029186Y0123053D02*
X0084734Y0123053D01*
X0085520Y0122267D02*
X0029186Y0122267D01*
X0029186Y0121481D02*
X0086306Y0121481D01*
X0087092Y0120695D02*
X0029186Y0120695D01*
X0029186Y0119909D02*
X0087878Y0119909D01*
X0088664Y0119123D02*
X0029186Y0119123D01*
X0029186Y0118337D02*
X0089450Y0118337D01*
X0090236Y0117552D02*
X0029186Y0117552D01*
X0029186Y0116766D02*
X0091022Y0116766D01*
X0091146Y0115980D02*
X0029186Y0115980D01*
X0029186Y0115194D02*
X0091236Y0115194D01*
X0091561Y0114408D02*
X0029186Y0114408D01*
X0029186Y0113622D02*
X0091998Y0113622D01*
X0092784Y0112836D02*
X0029186Y0112836D01*
X0029186Y0112050D02*
X0094333Y0112050D01*
X0094284Y0110478D02*
X0029186Y0110478D01*
X0029186Y0109692D02*
X0092764Y0109692D01*
X0091978Y0108906D02*
X0029186Y0108906D01*
X0029186Y0108121D02*
X0091553Y0108121D01*
X0091227Y0107335D02*
X0029186Y0107335D01*
X0029186Y0106549D02*
X0091146Y0106549D01*
X0090756Y0105763D02*
X0029186Y0105763D01*
X0029186Y0104977D02*
X0089970Y0104977D01*
X0089184Y0104191D02*
X0029186Y0104191D01*
X0029186Y0103405D02*
X0088398Y0103405D01*
X0087612Y0102619D02*
X0029186Y0102619D01*
X0029186Y0101833D02*
X0086826Y0101833D01*
X0086040Y0101047D02*
X0029186Y0101047D01*
X0029186Y0100261D02*
X0085254Y0100261D01*
X0084468Y0099476D02*
X0029186Y0099476D01*
X0029186Y0098690D02*
X0083682Y0098690D01*
X0082896Y0097904D02*
X0029186Y0097904D01*
X0029186Y0097118D02*
X0082111Y0097118D01*
X0087769Y0091616D02*
X0124921Y0091616D01*
X0125707Y0090830D02*
X0086983Y0090830D01*
X0086197Y0090045D02*
X0126493Y0090045D01*
X0127279Y0089259D02*
X0085412Y0089259D01*
X0088555Y0092402D02*
X0093483Y0092402D01*
X0092432Y0093188D02*
X0089341Y0093188D01*
X0090127Y0093974D02*
X0091741Y0093974D01*
X0103440Y0092402D02*
X0124135Y0092402D01*
X0123349Y0093188D02*
X0104491Y0093188D01*
X0105182Y0093974D02*
X0122563Y0093974D01*
X0128065Y0088473D02*
X0072126Y0088473D01*
X0071340Y0087687D02*
X0128186Y0087687D01*
X0128494Y0086901D02*
X0071112Y0086901D01*
X0073207Y0086115D02*
X0129035Y0086115D01*
X0130196Y0085329D02*
X0073658Y0085329D01*
X0073658Y0084543D02*
X0131994Y0084543D01*
X0132780Y0083757D02*
X0073658Y0083757D01*
X0073658Y0082971D02*
X0133566Y0082971D01*
X0148940Y0083757D02*
X0152796Y0083757D01*
X0151577Y0082971D02*
X0149726Y0082971D01*
X0150512Y0082185D02*
X0151011Y0082185D01*
X0163255Y0090830D02*
X0163658Y0090830D01*
X0177348Y0084543D02*
X0177842Y0084543D01*
X0171457Y0076684D02*
X0184410Y0076684D01*
X0170023Y0050749D02*
X0164379Y0050749D01*
X0164379Y0049963D02*
X0170023Y0049963D01*
X0170023Y0049177D02*
X0164379Y0049177D01*
X0164379Y0048391D02*
X0170023Y0048391D01*
X0170023Y0047605D02*
X0164379Y0047605D01*
X0164379Y0046819D02*
X0170023Y0046819D01*
X0170023Y0046033D02*
X0164379Y0046033D01*
X0164379Y0045248D02*
X0170023Y0045248D01*
X0170023Y0044462D02*
X0164379Y0044462D01*
X0164379Y0043676D02*
X0170023Y0043676D01*
X0170023Y0042890D02*
X0164379Y0042890D01*
X0164379Y0042104D02*
X0170023Y0042104D01*
X0170023Y0041318D02*
X0164379Y0041318D01*
X0164379Y0040532D02*
X0170023Y0040532D01*
X0170023Y0039746D02*
X0164379Y0039746D01*
X0164379Y0038960D02*
X0170023Y0038960D01*
X0170023Y0038174D02*
X0164379Y0038174D01*
X0164379Y0037388D02*
X0170023Y0037388D01*
X0170023Y0036602D02*
X0164379Y0036602D01*
X0164379Y0035817D02*
X0170023Y0035817D01*
X0170023Y0035031D02*
X0164379Y0035031D01*
X0164379Y0034245D02*
X0170023Y0034245D01*
X0170023Y0033459D02*
X0164379Y0033459D01*
X0164379Y0032673D02*
X0170023Y0032673D01*
X0170023Y0031887D02*
X0164379Y0031887D01*
X0164379Y0031101D02*
X0170023Y0031101D01*
X0170023Y0030315D02*
X0164379Y0030315D01*
X0164379Y0029529D02*
X0170023Y0029529D01*
X0170023Y0028743D02*
X0164379Y0028743D01*
X0164379Y0027957D02*
X0170023Y0027957D01*
X0170023Y0027172D02*
X0164379Y0027172D01*
X0164379Y0026386D02*
X0170023Y0026386D01*
X0170023Y0025600D02*
X0164379Y0025600D01*
X0164379Y0024814D02*
X0170023Y0024814D01*
X0170023Y0024028D02*
X0164379Y0024028D01*
X0164379Y0023242D02*
X0170023Y0023242D01*
X0170023Y0022456D02*
X0164379Y0022456D01*
X0164379Y0021670D02*
X0170023Y0021670D01*
X0170023Y0020884D02*
X0164379Y0020884D01*
X0165052Y0020098D02*
X0169351Y0020098D01*
X0168565Y0019312D02*
X0165838Y0019312D01*
X0166192Y0018526D02*
X0168211Y0018526D01*
X0167886Y0017741D02*
X0166517Y0017741D01*
X0166548Y0016955D02*
X0167855Y0016955D01*
X0167855Y0016169D02*
X0166548Y0016169D01*
X0166548Y0015383D02*
X0167855Y0015383D01*
X0167855Y0014597D02*
X0166548Y0014597D01*
X0166548Y0013811D02*
X0167855Y0013811D01*
X0167855Y0013025D02*
X0166548Y0013025D01*
X0166548Y0012239D02*
X0167855Y0012239D01*
X0167855Y0011453D02*
X0166548Y0011453D01*
X0166548Y0010667D02*
X0167855Y0010667D01*
X0167904Y0009881D02*
X0166499Y0009881D01*
X0166173Y0009096D02*
X0168230Y0009096D01*
X0168610Y0008310D02*
X0165793Y0008310D01*
X0165007Y0007524D02*
X0169396Y0007524D01*
X0170807Y0006738D02*
X0163596Y0006738D01*
X0214462Y0006738D02*
X0221673Y0006738D01*
X0220262Y0007524D02*
X0215873Y0007524D01*
X0216659Y0008310D02*
X0219476Y0008310D01*
X0219096Y0009096D02*
X0217039Y0009096D01*
X0217365Y0009881D02*
X0218770Y0009881D01*
X0218721Y0010667D02*
X0217414Y0010667D01*
X0217414Y0011453D02*
X0218721Y0011453D01*
X0218721Y0012239D02*
X0217414Y0012239D01*
X0217414Y0013025D02*
X0218721Y0013025D01*
X0218721Y0013811D02*
X0217414Y0013811D01*
X0217414Y0014597D02*
X0218721Y0014597D01*
X0218721Y0015383D02*
X0217414Y0015383D01*
X0217414Y0016169D02*
X0218721Y0016169D01*
X0218721Y0016955D02*
X0217414Y0016955D01*
X0217643Y0017741D02*
X0218752Y0017741D01*
X0218429Y0018526D02*
X0219077Y0018526D01*
X0219215Y0019312D02*
X0219431Y0019312D01*
X0220001Y0020098D02*
X0220217Y0020098D01*
X0220787Y0020884D02*
X0220890Y0020884D01*
X0225787Y0020884D02*
X0230890Y0020884D01*
X0230890Y0021670D02*
X0226573Y0021670D01*
X0227359Y0022456D02*
X0230890Y0022456D01*
X0230890Y0023242D02*
X0228145Y0023242D01*
X0228931Y0024028D02*
X0230890Y0024028D01*
X0230890Y0024814D02*
X0229717Y0024814D01*
X0230503Y0025600D02*
X0230890Y0025600D01*
X0235246Y0024814D02*
X0251057Y0024814D01*
X0250890Y0024028D02*
X0235246Y0024028D01*
X0235246Y0023242D02*
X0250890Y0023242D01*
X0250890Y0022456D02*
X0235246Y0022456D01*
X0235246Y0021670D02*
X0250890Y0021670D01*
X0250890Y0020884D02*
X0235246Y0020884D01*
X0235918Y0020098D02*
X0250217Y0020098D01*
X0249431Y0019312D02*
X0236704Y0019312D01*
X0237058Y0018526D02*
X0249077Y0018526D01*
X0248752Y0017741D02*
X0237383Y0017741D01*
X0237414Y0016955D02*
X0248721Y0016955D01*
X0248721Y0016169D02*
X0237414Y0016169D01*
X0237414Y0015383D02*
X0248721Y0015383D01*
X0248721Y0014597D02*
X0237414Y0014597D01*
X0237414Y0013811D02*
X0248721Y0013811D01*
X0248721Y0013025D02*
X0237414Y0013025D01*
X0237414Y0012239D02*
X0248721Y0012239D01*
X0248721Y0011453D02*
X0237414Y0011453D01*
X0237414Y0010667D02*
X0248721Y0010667D01*
X0248770Y0009881D02*
X0237365Y0009881D01*
X0237039Y0009096D02*
X0249096Y0009096D01*
X0249476Y0008310D02*
X0236659Y0008310D01*
X0235873Y0007524D02*
X0250262Y0007524D01*
X0251673Y0006738D02*
X0234462Y0006738D01*
X0231673Y0006738D02*
X0224462Y0006738D01*
X0225873Y0007524D02*
X0230262Y0007524D01*
X0229476Y0008310D02*
X0226659Y0008310D01*
X0227039Y0009096D02*
X0229096Y0009096D01*
X0228770Y0009881D02*
X0227365Y0009881D01*
X0227414Y0010667D02*
X0228721Y0010667D01*
X0228721Y0011453D02*
X0227414Y0011453D01*
X0227414Y0012239D02*
X0228721Y0012239D01*
X0228721Y0013025D02*
X0227414Y0013025D01*
X0227414Y0013811D02*
X0228721Y0013811D01*
X0228721Y0014597D02*
X0227414Y0014597D01*
X0227414Y0015383D02*
X0228721Y0015383D01*
X0228721Y0016169D02*
X0227414Y0016169D01*
X0227414Y0016955D02*
X0228721Y0016955D01*
X0228752Y0017741D02*
X0227383Y0017741D01*
X0227058Y0018526D02*
X0229077Y0018526D01*
X0229431Y0019312D02*
X0226704Y0019312D01*
X0225918Y0020098D02*
X0230217Y0020098D01*
X0235503Y0025600D02*
X0251842Y0025600D01*
X0252435Y0026386D02*
X0236289Y0026386D01*
X0237074Y0027172D02*
X0251773Y0027172D01*
X0251448Y0027957D02*
X0237273Y0027957D01*
X0237273Y0028743D02*
X0251320Y0028743D01*
X0251320Y0029529D02*
X0237273Y0029529D01*
X0237273Y0030315D02*
X0251320Y0030315D01*
X0251320Y0031101D02*
X0237273Y0031101D01*
X0237273Y0031887D02*
X0251320Y0031887D01*
X0251320Y0032673D02*
X0237273Y0032673D01*
X0237273Y0033459D02*
X0251320Y0033459D01*
X0242293Y0034245D02*
X0237273Y0034245D01*
X0237273Y0035031D02*
X0241507Y0035031D01*
X0240721Y0035817D02*
X0237273Y0035817D01*
X0237273Y0036602D02*
X0239935Y0036602D01*
X0239149Y0037388D02*
X0237273Y0037388D01*
X0237273Y0038174D02*
X0238363Y0038174D01*
X0237917Y0038960D02*
X0237273Y0038960D01*
X0237273Y0039746D02*
X0237917Y0039746D01*
X0237917Y0040532D02*
X0237273Y0040532D01*
X0237273Y0041318D02*
X0237917Y0041318D01*
X0259665Y0040532D02*
X0263505Y0040532D01*
X0264291Y0039746D02*
X0260451Y0039746D01*
X0261237Y0038960D02*
X0265077Y0038960D01*
X0265863Y0038174D02*
X0262023Y0038174D01*
X0262057Y0037388D02*
X0266649Y0037388D01*
X0267435Y0036602D02*
X0262057Y0036602D01*
X0262433Y0035817D02*
X0267325Y0035817D01*
X0266728Y0035031D02*
X0263029Y0035031D01*
X0263355Y0034245D02*
X0266402Y0034245D01*
X0266320Y0033459D02*
X0263438Y0033459D01*
X0263438Y0032673D02*
X0266320Y0032673D01*
X0266320Y0031887D02*
X0263438Y0031887D01*
X0263438Y0031101D02*
X0266320Y0031101D01*
X0266320Y0030315D02*
X0263438Y0030315D01*
X0263438Y0029529D02*
X0266320Y0029529D01*
X0266320Y0028743D02*
X0263438Y0028743D01*
X0263309Y0027957D02*
X0266448Y0027957D01*
X0266773Y0027172D02*
X0262984Y0027172D01*
X0262562Y0026386D02*
X0267435Y0026386D01*
X0268727Y0025600D02*
X0263348Y0025600D01*
X0264134Y0024814D02*
X0282307Y0024814D01*
X0283092Y0025600D02*
X0281030Y0025600D01*
X0282322Y0026386D02*
X0282435Y0026386D01*
X0281521Y0024028D02*
X0264920Y0024028D01*
X0265246Y0023242D02*
X0280890Y0023242D01*
X0280890Y0022456D02*
X0265246Y0022456D01*
X0265246Y0021670D02*
X0280890Y0021670D01*
X0280890Y0020884D02*
X0274570Y0020884D01*
X0273932Y0021148D02*
X0272203Y0021148D01*
X0270606Y0020487D01*
X0269383Y0019264D01*
X0268721Y0017666D01*
X0268721Y0010000D01*
X0269383Y0008403D01*
X0270606Y0007180D01*
X0272203Y0006518D01*
X0273932Y0006518D01*
X0275530Y0007180D01*
X0276752Y0008403D01*
X0277414Y0010000D01*
X0277414Y0017666D01*
X0276752Y0019264D01*
X0275530Y0020487D01*
X0273932Y0021148D01*
X0275918Y0020098D02*
X0280217Y0020098D01*
X0279431Y0019312D02*
X0276704Y0019312D01*
X0277058Y0018526D02*
X0279077Y0018526D01*
X0278752Y0017741D02*
X0277383Y0017741D01*
X0277414Y0016955D02*
X0278721Y0016955D01*
X0278721Y0016169D02*
X0277414Y0016169D01*
X0277414Y0015383D02*
X0278721Y0015383D01*
X0278721Y0014597D02*
X0277414Y0014597D01*
X0277414Y0013811D02*
X0278721Y0013811D01*
X0278721Y0013025D02*
X0277414Y0013025D01*
X0277414Y0012239D02*
X0278721Y0012239D01*
X0278721Y0011453D02*
X0277414Y0011453D01*
X0277414Y0010667D02*
X0278721Y0010667D01*
X0278770Y0009881D02*
X0277365Y0009881D01*
X0277039Y0009096D02*
X0279096Y0009096D01*
X0279476Y0008310D02*
X0276659Y0008310D01*
X0275873Y0007524D02*
X0280262Y0007524D01*
X0281673Y0006738D02*
X0274462Y0006738D01*
X0271673Y0006738D02*
X0264462Y0006738D01*
X0265873Y0007524D02*
X0270262Y0007524D01*
X0269476Y0008310D02*
X0266659Y0008310D01*
X0267039Y0009096D02*
X0269096Y0009096D01*
X0268770Y0009881D02*
X0267365Y0009881D01*
X0267414Y0010667D02*
X0268721Y0010667D01*
X0268721Y0011453D02*
X0267414Y0011453D01*
X0267414Y0012239D02*
X0268721Y0012239D01*
X0268721Y0013025D02*
X0267414Y0013025D01*
X0267414Y0013811D02*
X0268721Y0013811D01*
X0268721Y0014597D02*
X0267414Y0014597D01*
X0267414Y0015383D02*
X0268721Y0015383D01*
X0268721Y0016169D02*
X0267414Y0016169D01*
X0267414Y0016955D02*
X0268721Y0016955D01*
X0268752Y0017741D02*
X0267383Y0017741D01*
X0267058Y0018526D02*
X0269077Y0018526D01*
X0269431Y0019312D02*
X0266704Y0019312D01*
X0265918Y0020098D02*
X0270217Y0020098D01*
X0271566Y0020884D02*
X0265246Y0020884D01*
X0260890Y0020884D02*
X0255246Y0020884D01*
X0255246Y0021670D02*
X0260890Y0021670D01*
X0260331Y0022456D02*
X0255246Y0022456D01*
X0255645Y0023242D02*
X0259545Y0023242D01*
X0258759Y0024028D02*
X0256431Y0024028D01*
X0257057Y0024814D02*
X0257974Y0024814D01*
X0257701Y0025600D02*
X0257057Y0025600D01*
X0257322Y0026386D02*
X0257435Y0026386D01*
X0255918Y0020098D02*
X0260217Y0020098D01*
X0259431Y0019312D02*
X0256704Y0019312D01*
X0257058Y0018526D02*
X0259077Y0018526D01*
X0258752Y0017741D02*
X0257383Y0017741D01*
X0257414Y0016955D02*
X0258721Y0016955D01*
X0258721Y0016169D02*
X0257414Y0016169D01*
X0257414Y0015383D02*
X0258721Y0015383D01*
X0258721Y0014597D02*
X0257414Y0014597D01*
X0257414Y0013811D02*
X0258721Y0013811D01*
X0258721Y0013025D02*
X0257414Y0013025D01*
X0257414Y0012239D02*
X0258721Y0012239D01*
X0258721Y0011453D02*
X0257414Y0011453D01*
X0257414Y0010667D02*
X0258721Y0010667D01*
X0258770Y0009881D02*
X0257365Y0009881D01*
X0257039Y0009096D02*
X0259096Y0009096D01*
X0259476Y0008310D02*
X0256659Y0008310D01*
X0255873Y0007524D02*
X0260262Y0007524D01*
X0261673Y0006738D02*
X0254462Y0006738D01*
X0271030Y0025600D02*
X0273727Y0025600D01*
X0272435Y0026386D02*
X0272322Y0026386D01*
X0276030Y0025600D02*
X0278727Y0025600D01*
X0277435Y0026386D02*
X0277322Y0026386D01*
X0276511Y0044462D02*
X0276023Y0044462D01*
X0276023Y0045248D02*
X0282701Y0045248D01*
X0282701Y0046033D02*
X0276023Y0046033D01*
X0276023Y0046819D02*
X0282701Y0046819D01*
X0282701Y0047605D02*
X0276023Y0047605D01*
X0276023Y0048391D02*
X0282701Y0048391D01*
X0282701Y0049177D02*
X0276023Y0049177D01*
X0276023Y0049963D02*
X0282701Y0049963D01*
X0282701Y0050749D02*
X0276023Y0050749D01*
X0276023Y0051535D02*
X0282701Y0051535D01*
X0281224Y0052321D02*
X0277716Y0052321D01*
X0277782Y0053107D02*
X0281158Y0053107D01*
X0281158Y0053893D02*
X0277782Y0053893D01*
X0277782Y0054678D02*
X0281158Y0054678D01*
X0281158Y0055464D02*
X0277782Y0055464D01*
X0277782Y0056250D02*
X0281158Y0056250D01*
X0281158Y0057036D02*
X0277782Y0057036D01*
X0277782Y0057822D02*
X0281158Y0057822D01*
X0281907Y0058608D02*
X0277704Y0058608D01*
X0277782Y0059394D02*
X0312701Y0059394D01*
X0312701Y0060180D02*
X0277782Y0060180D01*
X0277782Y0060966D02*
X0312701Y0060966D01*
X0312701Y0061752D02*
X0277782Y0061752D01*
X0277782Y0062538D02*
X0312701Y0062538D01*
X0312701Y0063324D02*
X0277782Y0063324D01*
X0277782Y0064109D02*
X0312701Y0064109D01*
X0312701Y0064895D02*
X0277045Y0064895D01*
X0276023Y0065681D02*
X0312701Y0065681D01*
X0312701Y0066467D02*
X0276023Y0066467D01*
X0276023Y0067253D02*
X0312701Y0067253D01*
X0312248Y0068039D02*
X0279192Y0068039D01*
X0279978Y0068825D02*
X0297712Y0068825D01*
X0296927Y0069611D02*
X0280764Y0069611D01*
X0281550Y0070397D02*
X0296141Y0070397D01*
X0295355Y0071183D02*
X0282336Y0071183D01*
X0283121Y0071969D02*
X0294569Y0071969D01*
X0294167Y0072754D02*
X0283907Y0072754D01*
X0284693Y0073540D02*
X0294167Y0073540D01*
X0271667Y0067344D02*
X0271667Y0064965D01*
X0270715Y0064965D01*
X0269908Y0064158D01*
X0269908Y0058686D01*
X0270322Y0058272D01*
X0269908Y0057859D01*
X0269908Y0052387D01*
X0270715Y0051579D01*
X0271667Y0051579D01*
X0271667Y0049780D01*
X0270397Y0051051D01*
X0270282Y0051051D01*
X0270282Y0051609D01*
X0269475Y0052416D01*
X0263215Y0052416D01*
X0262595Y0051796D01*
X0262369Y0052022D01*
X0262782Y0052436D01*
X0262782Y0057908D01*
X0261975Y0058715D01*
X0261023Y0058715D01*
X0261023Y0067344D01*
X0271667Y0067344D01*
X0271667Y0067253D02*
X0261023Y0067253D01*
X0261023Y0066467D02*
X0271667Y0066467D01*
X0271667Y0065681D02*
X0261023Y0065681D01*
X0261023Y0064895D02*
X0270645Y0064895D01*
X0269908Y0064109D02*
X0261023Y0064109D01*
X0261023Y0063324D02*
X0269908Y0063324D01*
X0269908Y0062538D02*
X0261023Y0062538D01*
X0261023Y0061752D02*
X0269908Y0061752D01*
X0269908Y0060966D02*
X0261023Y0060966D01*
X0261023Y0060180D02*
X0269908Y0060180D01*
X0269908Y0059394D02*
X0261023Y0059394D01*
X0262082Y0058608D02*
X0269986Y0058608D01*
X0269908Y0057822D02*
X0262782Y0057822D01*
X0262782Y0057036D02*
X0269908Y0057036D01*
X0269908Y0056250D02*
X0262782Y0056250D01*
X0262782Y0055464D02*
X0269908Y0055464D01*
X0269908Y0054678D02*
X0262782Y0054678D01*
X0262782Y0053893D02*
X0269908Y0053893D01*
X0269908Y0053107D02*
X0262782Y0053107D01*
X0262667Y0052321D02*
X0263120Y0052321D01*
X0269570Y0052321D02*
X0269974Y0052321D01*
X0270282Y0051535D02*
X0271667Y0051535D01*
X0271667Y0050749D02*
X0270699Y0050749D01*
X0271485Y0049963D02*
X0271667Y0049963D01*
X0287057Y0049963D02*
X0292701Y0049963D01*
X0292701Y0050749D02*
X0287057Y0050749D01*
X0287057Y0051535D02*
X0292701Y0051535D01*
X0291224Y0052321D02*
X0288966Y0052321D01*
X0289032Y0053107D02*
X0291158Y0053107D01*
X0291158Y0053893D02*
X0289032Y0053893D01*
X0289032Y0054678D02*
X0291158Y0054678D01*
X0291158Y0055464D02*
X0289032Y0055464D01*
X0289032Y0056250D02*
X0291158Y0056250D01*
X0291158Y0057036D02*
X0289032Y0057036D01*
X0289032Y0057822D02*
X0291158Y0057822D01*
X0291907Y0058608D02*
X0288283Y0058608D01*
X0298283Y0058608D02*
X0301907Y0058608D01*
X0301158Y0057822D02*
X0299032Y0057822D01*
X0299032Y0057036D02*
X0301158Y0057036D01*
X0301158Y0056250D02*
X0299032Y0056250D01*
X0299032Y0055464D02*
X0301158Y0055464D01*
X0301158Y0054678D02*
X0299032Y0054678D01*
X0299032Y0053893D02*
X0301158Y0053893D01*
X0301158Y0053107D02*
X0299032Y0053107D01*
X0298966Y0052321D02*
X0301224Y0052321D01*
X0302701Y0051535D02*
X0297057Y0051535D01*
X0297057Y0050749D02*
X0302701Y0050749D01*
X0302701Y0049963D02*
X0297057Y0049963D01*
X0297057Y0049177D02*
X0302701Y0049177D01*
X0302701Y0048391D02*
X0297057Y0048391D01*
X0297057Y0047605D02*
X0302701Y0047605D01*
X0302701Y0046819D02*
X0297057Y0046819D01*
X0297057Y0046033D02*
X0302701Y0046033D01*
X0302701Y0045248D02*
X0297057Y0045248D01*
X0292701Y0045248D02*
X0287057Y0045248D01*
X0287057Y0046033D02*
X0292701Y0046033D01*
X0292701Y0046819D02*
X0287057Y0046819D01*
X0287057Y0047605D02*
X0292701Y0047605D01*
X0292701Y0048391D02*
X0287057Y0048391D01*
X0287057Y0049177D02*
X0292701Y0049177D01*
X0307057Y0049177D02*
X0312701Y0049177D01*
X0312701Y0048391D02*
X0307057Y0048391D01*
X0307057Y0047605D02*
X0312701Y0047605D01*
X0312701Y0046819D02*
X0307057Y0046819D01*
X0307057Y0046033D02*
X0312701Y0046033D01*
X0312701Y0045248D02*
X0307057Y0045248D01*
X0307057Y0049963D02*
X0312701Y0049963D01*
X0312701Y0050749D02*
X0307057Y0050749D01*
X0307057Y0051535D02*
X0312701Y0051535D01*
X0312701Y0052321D02*
X0308966Y0052321D01*
X0309032Y0053107D02*
X0312701Y0053107D01*
X0312701Y0053893D02*
X0309032Y0053893D01*
X0309032Y0054678D02*
X0312701Y0054678D01*
X0312701Y0055464D02*
X0309032Y0055464D01*
X0309032Y0056250D02*
X0312701Y0056250D01*
X0312701Y0057036D02*
X0309032Y0057036D01*
X0309032Y0057822D02*
X0312701Y0057822D01*
X0312701Y0058608D02*
X0308283Y0058608D01*
X0413058Y0004380D02*
X0035833Y0004380D01*
X0034162Y0005166D02*
X0414729Y0005166D01*
X0419705Y0128554D02*
X0307444Y0128554D01*
X0307900Y0129340D02*
X0419705Y0129340D01*
X0419705Y0130126D02*
X0307900Y0130126D01*
X0307900Y0130912D02*
X0419705Y0130912D01*
X0419705Y0131698D02*
X0307900Y0131698D01*
X0307900Y0132484D02*
X0419705Y0132484D01*
X0419705Y0133270D02*
X0307145Y0133270D01*
X0285417Y0141915D02*
X0285025Y0141915D01*
X0279239Y0146630D02*
X0419705Y0146630D01*
X0419705Y0147416D02*
X0279239Y0147416D01*
X0279239Y0148202D02*
X0419705Y0148202D01*
X0419705Y0148988D02*
X0279153Y0148988D01*
X0272152Y0135627D02*
X0270639Y0135627D01*
X0270787Y0133270D02*
X0272152Y0133270D01*
X0171210Y0107335D02*
X0148488Y0107335D01*
X0149273Y0108121D02*
X0164174Y0108121D01*
X0163658Y0108906D02*
X0150059Y0108906D01*
X0117631Y0108906D02*
X0104944Y0108906D01*
X0104158Y0109692D02*
X0116845Y0109692D01*
X0116059Y0110478D02*
X0102638Y0110478D01*
X0102590Y0112050D02*
X0114487Y0112050D01*
X0113701Y0112836D02*
X0104138Y0112836D01*
X0104924Y0113622D02*
X0112915Y0113622D01*
X0115273Y0111264D02*
X0029186Y0111264D01*
X0029186Y0096332D02*
X0053825Y0096332D01*
X0053039Y0095546D02*
X0029186Y0095546D01*
D23*
X0039406Y0013833D03*
X0137831Y0013833D03*
X0409485Y0013833D03*
X0409485Y0183125D03*
X0137831Y0183125D03*
X0039406Y0183125D03*
D24*
X0177595Y0104522D03*
X0197595Y0104522D03*
X0213845Y0099522D03*
X0197595Y0089522D03*
X0213845Y0084522D03*
X0197595Y0074522D03*
X0177595Y0074522D03*
X0161345Y0073272D03*
X0153845Y0080772D03*
X0143845Y0080772D03*
X0131345Y0088272D03*
X0138845Y0095772D03*
X0161345Y0088272D03*
X0177595Y0089522D03*
X0217595Y0064522D03*
X0222595Y0064522D03*
X0250095Y0069522D03*
X0253845Y0069522D03*
X0258845Y0073272D03*
X0263845Y0074522D03*
X0263845Y0079522D03*
X0272595Y0073272D03*
X0276345Y0077022D03*
X0285095Y0067022D03*
X0295095Y0067022D03*
X0305095Y0067022D03*
X0323845Y0067022D03*
X0323845Y0072022D03*
X0313845Y0084522D03*
X0298845Y0090772D03*
X0288845Y0102022D03*
X0283845Y0102022D03*
X0283845Y0109522D03*
X0295095Y0109522D03*
X0310095Y0114522D03*
X0310095Y0120772D03*
X0310095Y0127022D03*
X0288845Y0148272D03*
X0260095Y0112022D03*
X0255095Y0112022D03*
X0250095Y0112022D03*
X0263845Y0094522D03*
X0263845Y0089522D03*
X0250095Y0080772D03*
X0263845Y0064522D03*
X0266345Y0060772D03*
D25*
X0273845Y0061422D02*
X0273845Y0069522D01*
X0277595Y0069522D01*
X0283845Y0075772D01*
X0283845Y0081845D01*
X0284829Y0081845D01*
X0284829Y0084404D02*
X0293963Y0084404D01*
X0296345Y0082022D01*
X0296345Y0073272D01*
X0298845Y0070772D01*
X0312595Y0070772D01*
X0314879Y0068489D01*
X0314879Y0031156D01*
X0309879Y0031156D02*
X0309879Y0041156D01*
X0310095Y0041373D01*
X0300095Y0041373D02*
X0299879Y0041156D01*
X0299879Y0031156D01*
X0304879Y0031156D02*
X0304879Y0054906D01*
X0305095Y0055123D01*
X0295095Y0055123D02*
X0294879Y0054906D01*
X0294879Y0031156D01*
X0289879Y0031156D02*
X0289879Y0041156D01*
X0290095Y0041373D01*
X0280095Y0041373D02*
X0275745Y0041373D01*
X0273845Y0043272D01*
X0273845Y0055123D01*
X0269495Y0048873D02*
X0266345Y0048873D01*
X0258845Y0048873D01*
X0258845Y0055172D02*
X0253245Y0055172D01*
X0252595Y0054522D01*
X0252595Y0052072D01*
X0251946Y0051422D01*
X0252595Y0050772D01*
X0252595Y0044522D01*
X0253845Y0043272D01*
X0263845Y0043272D01*
X0269879Y0037239D01*
X0269879Y0031156D01*
X0274879Y0031156D02*
X0274879Y0037239D01*
X0271345Y0040772D01*
X0271345Y0047022D01*
X0269495Y0048873D01*
X0258845Y0055172D02*
X0258845Y0069522D01*
X0253845Y0069522D01*
X0258845Y0069522D02*
X0268845Y0069522D01*
X0268845Y0099522D01*
X0278845Y0109522D01*
X0283845Y0109522D01*
X0288845Y0109522D02*
X0293845Y0104522D01*
X0293845Y0089522D01*
X0298963Y0084404D01*
X0307861Y0084404D01*
X0307861Y0081845D02*
X0311522Y0081845D01*
X0313845Y0079522D01*
X0320745Y0079522D01*
X0321345Y0080123D01*
X0321345Y0086422D02*
X0320745Y0087022D01*
X0316345Y0087022D01*
X0313845Y0089522D01*
X0307861Y0089522D01*
X0303845Y0089522D01*
X0302595Y0090772D01*
X0302595Y0095772D01*
X0304022Y0097199D01*
X0307861Y0097199D01*
X0307861Y0101638D01*
X0308845Y0102623D01*
X0301995Y0102623D01*
X0295095Y0109522D01*
X0295095Y0117022D01*
X0295696Y0117022D01*
X0293845Y0117022D01*
X0293845Y0122770D01*
X0293333Y0123282D01*
X0290095Y0127022D02*
X0288845Y0125772D01*
X0288845Y0109522D01*
X0313845Y0100772D02*
X0315095Y0102022D01*
X0319446Y0102022D01*
X0313845Y0100772D02*
X0313845Y0097022D01*
X0311463Y0094640D01*
X0307861Y0094640D01*
X0307861Y0092081D02*
X0312654Y0092081D01*
X0315095Y0094522D01*
X0319446Y0094522D01*
X0284829Y0094640D02*
X0278963Y0094640D01*
X0276345Y0092022D01*
X0276345Y0077022D01*
X0280095Y0075772D02*
X0277595Y0073272D01*
X0272595Y0073272D01*
X0273845Y0069522D02*
X0268845Y0069522D01*
X0280095Y0075772D02*
X0280095Y0090772D01*
X0281404Y0092081D01*
X0284829Y0092081D01*
X0301345Y0074522D02*
X0316345Y0074522D01*
X0318845Y0072022D01*
X0318845Y0027022D01*
X0316345Y0024522D01*
X0285095Y0024522D01*
X0283068Y0022495D01*
X0283068Y0013833D01*
X0263068Y0013833D02*
X0263068Y0022800D01*
X0259879Y0025989D01*
X0259879Y0031156D01*
X0259879Y0037239D01*
X0257595Y0039522D01*
X0248845Y0039522D01*
X0247595Y0040772D01*
X0247595Y0045123D01*
X0240095Y0045123D02*
X0240095Y0039522D01*
X0243845Y0035772D01*
X0253845Y0035772D01*
X0254879Y0034739D01*
X0254879Y0031156D01*
X0254879Y0025556D01*
X0253068Y0023745D01*
X0253068Y0013833D01*
X0233068Y0013833D02*
X0233068Y0026245D01*
X0235095Y0028272D01*
X0235095Y0082022D01*
X0237595Y0084522D01*
X0233845Y0084522D01*
X0231345Y0087022D01*
X0231345Y0098272D01*
X0225095Y0104522D01*
X0208245Y0104522D01*
X0207595Y0103873D01*
X0213845Y0099522D02*
X0220223Y0099522D01*
X0220223Y0094522D02*
X0208245Y0094522D01*
X0207595Y0095172D01*
X0206995Y0095772D01*
X0200745Y0095772D01*
X0194446Y0095772D02*
X0188196Y0095772D01*
X0187595Y0095172D01*
X0186995Y0095772D01*
X0180745Y0095772D01*
X0174446Y0095772D02*
X0168196Y0095772D01*
X0167595Y0095172D01*
X0166995Y0095772D01*
X0138845Y0095772D01*
X0133845Y0095772D02*
X0149446Y0111373D01*
X0167595Y0111373D01*
X0168196Y0110772D01*
X0174446Y0110772D01*
X0180745Y0110772D02*
X0186995Y0110772D01*
X0187595Y0110172D01*
X0188196Y0110772D01*
X0194446Y0110772D01*
X0200745Y0110772D02*
X0206995Y0110772D01*
X0207595Y0110172D01*
X0208245Y0109522D01*
X0225095Y0109522D01*
X0235095Y0099522D01*
X0235095Y0090772D01*
X0236345Y0089522D01*
X0242467Y0089522D01*
X0242467Y0084522D02*
X0237595Y0084522D01*
X0227595Y0088272D02*
X0226345Y0089522D01*
X0220223Y0089522D01*
X0208245Y0089522D01*
X0207595Y0088873D01*
X0213845Y0084522D02*
X0220223Y0084522D01*
X0227595Y0088272D02*
X0227595Y0078272D01*
X0231345Y0074522D01*
X0231345Y0029522D01*
X0223068Y0021245D01*
X0223068Y0013833D01*
X0213068Y0013833D02*
X0213068Y0016245D01*
X0227595Y0030772D01*
X0227595Y0073272D01*
X0226345Y0074522D01*
X0220223Y0074522D01*
X0208245Y0074522D01*
X0207595Y0073873D01*
X0208245Y0079522D02*
X0207595Y0080172D01*
X0206995Y0080772D01*
X0200745Y0080772D01*
X0194446Y0080772D02*
X0193845Y0080172D01*
X0187595Y0080172D01*
X0186995Y0080772D01*
X0180745Y0080772D01*
X0174446Y0080772D02*
X0168196Y0080772D01*
X0167595Y0080172D01*
X0166995Y0080772D01*
X0153845Y0080772D01*
X0143845Y0080772D02*
X0172201Y0052416D01*
X0172201Y0013833D01*
X0162201Y0013833D02*
X0162201Y0057416D01*
X0131345Y0088272D01*
X0123343Y0096274D01*
X0098461Y0096274D01*
X0089347Y0096274D01*
X0083845Y0090772D01*
X0071345Y0090772D01*
X0068934Y0088361D01*
X0068934Y0081747D01*
X0055095Y0094522D02*
X0049249Y0088676D01*
X0049249Y0081747D01*
X0055095Y0094522D02*
X0082595Y0094522D01*
X0094347Y0106274D01*
X0098461Y0106274D01*
X0118343Y0106274D01*
X0143845Y0080772D01*
X0161345Y0073272D02*
X0161355Y0073282D01*
X0167005Y0073282D01*
X0167595Y0073873D01*
X0166995Y0088272D02*
X0161345Y0088272D01*
X0161355Y0088282D01*
X0166995Y0088272D02*
X0167595Y0088873D01*
X0133845Y0095772D02*
X0182201Y0047416D01*
X0182201Y0013833D01*
X0240095Y0051422D02*
X0247595Y0051422D01*
X0251946Y0051422D01*
X0279879Y0041156D02*
X0280095Y0041373D01*
X0279879Y0041156D02*
X0279879Y0031156D01*
X0284879Y0031156D02*
X0284879Y0054906D01*
X0285095Y0055123D01*
X0242467Y0074522D02*
X0242467Y0079522D01*
X0248845Y0079522D01*
X0250095Y0080772D01*
X0251345Y0082022D01*
X0251345Y0086373D01*
X0251345Y0092672D02*
X0251345Y0100123D01*
X0242595Y0099650D02*
X0242467Y0099522D01*
X0242467Y0094522D01*
X0242595Y0099650D02*
X0242595Y0102022D01*
X0228845Y0115772D01*
X0175095Y0115772D01*
X0173196Y0117672D01*
X0167595Y0117672D01*
X0131335Y0128007D02*
X0247329Y0128007D01*
X0253845Y0134522D01*
X0259908Y0134522D01*
X0267782Y0130782D02*
X0275686Y0130782D01*
X0275696Y0130772D01*
X0281995Y0130772D02*
X0282005Y0130762D01*
X0293333Y0130762D01*
X0293196Y0130900D01*
X0293196Y0138272D01*
X0299495Y0138272D02*
X0300095Y0137672D01*
X0300095Y0132022D01*
X0301355Y0130762D01*
X0304357Y0130762D01*
X0298845Y0125772D02*
X0297595Y0127022D01*
X0290095Y0127022D01*
X0298845Y0125772D02*
X0298845Y0124522D01*
X0300085Y0123282D01*
X0304357Y0123282D01*
X0299495Y0138272D02*
X0300095Y0138873D01*
X0300095Y0142022D01*
X0298845Y0143272D01*
X0288845Y0143272D01*
X0287595Y0142022D01*
X0287595Y0139522D01*
X0286345Y0138272D01*
X0281995Y0138272D01*
X0275696Y0138272D02*
X0275686Y0138262D01*
X0267782Y0138262D01*
X0275696Y0138272D02*
X0275696Y0145772D01*
X0220223Y0079522D02*
X0208245Y0079522D01*
X0133845Y0095772D02*
X0113343Y0116274D01*
X0098461Y0116274D01*
X0094593Y0116274D01*
X0072034Y0138833D01*
X0068934Y0138833D01*
D26*
X0242595Y0099650D02*
X0250873Y0099650D01*
X0251345Y0100123D01*
X0258845Y0100123D01*
X0258845Y0073272D01*
X0253845Y0069522D02*
X0250095Y0069522D01*
X0242467Y0069522D01*
D27*
X0301345Y0074522D03*
M02*
