G75*
%MOIN*%
%OFA0B0*%
%FSLAX25Y25*%
%IPPOS*%
%LPD*%
%AMOC8*
5,1,8,0,0,1.08239X$1,22.5*
%
%ADD10C,0.00394*%
%ADD11C,0.03962*%
%ADD12C,0.11811*%
%ADD13R,0.06693X0.06693*%
%ADD14R,0.14961X0.14961*%
%ADD15C,0.05906*%
%ADD16C,0.19685*%
%ADD17C,0.03562*%
%ADD18C,0.02775*%
%ADD19C,0.01600*%
%ADD20R,0.05906X0.05906*%
%ADD21C,0.01200*%
D10*
X0034677Y0025246D02*
X0037777Y0024238D01*
X0039406Y0024110D01*
X0051340Y0024110D01*
X0055318Y0022818D01*
X0055318Y0022818D01*
X0058702Y0020359D01*
X0058702Y0020359D01*
X0058702Y0020359D01*
X0061161Y0016975D01*
X0061161Y0016975D01*
X0062453Y0012997D01*
X0062453Y0010905D01*
X0062540Y0010025D01*
X0063214Y0008399D01*
X0064459Y0007154D01*
X0066085Y0006480D01*
X0066965Y0006394D01*
X0381926Y0006394D01*
X0382806Y0006480D01*
X0384432Y0007154D01*
X0385677Y0008399D01*
X0386351Y0010025D01*
X0386438Y0010906D01*
X0386438Y0012997D01*
X0387730Y0016975D01*
X0387730Y0016975D01*
X0390189Y0020359D01*
X0390189Y0020359D01*
X0393573Y0022818D01*
X0393573Y0022818D01*
X0397551Y0024110D01*
X0409485Y0024110D01*
X0411115Y0024238D01*
X0414214Y0025246D01*
X0416851Y0027161D01*
X0418767Y0029798D01*
X0419774Y0032898D01*
X0419902Y0034528D01*
X0419902Y0168386D01*
X0419774Y0170015D01*
X0418767Y0173115D01*
X0416851Y0175752D01*
X0414214Y0177668D01*
X0411115Y0178675D01*
X0409485Y0178803D01*
X0397551Y0178803D01*
X0393573Y0180096D01*
X0390189Y0182554D01*
X0390189Y0182554D01*
X0390189Y0182554D01*
X0387730Y0185938D01*
X0387730Y0185938D01*
X0386438Y0189916D01*
X0386438Y0192008D01*
X0386351Y0192888D01*
X0385677Y0194514D01*
X0384432Y0195759D01*
X0382806Y0196433D01*
X0381926Y0196520D01*
X0066965Y0196520D01*
X0066085Y0196433D01*
X0064459Y0195759D01*
X0063214Y0194514D01*
X0062540Y0192888D01*
X0062453Y0192008D01*
X0062453Y0189916D01*
X0061161Y0185938D01*
X0061161Y0185938D01*
X0058702Y0182554D01*
X0058702Y0182554D01*
X0058702Y0182554D01*
X0055318Y0180096D01*
X0055318Y0180096D01*
X0051340Y0178803D01*
X0039406Y0178803D01*
X0037777Y0178675D01*
X0034677Y0177668D01*
X0032040Y0175752D01*
X0030124Y0173115D01*
X0029117Y0170015D01*
X0028989Y0168386D01*
X0028989Y0034528D01*
X0029117Y0032898D01*
X0030124Y0029798D01*
X0032040Y0027161D01*
X0034677Y0025246D01*
X0034471Y0025395D02*
X0249034Y0025395D01*
X0249426Y0025003D02*
X0035424Y0025003D01*
X0036631Y0024611D02*
X0249818Y0024611D01*
X0250211Y0024218D02*
X0038032Y0024218D01*
X0039406Y0022717D02*
X0049249Y0022717D01*
X0052214Y0023826D02*
X0161166Y0023826D01*
X0161376Y0023913D02*
X0159851Y0023282D01*
X0158684Y0022114D01*
X0158052Y0020589D01*
X0158052Y0013033D01*
X0158684Y0011508D01*
X0159851Y0010340D01*
X0161376Y0009709D01*
X0163027Y0009709D01*
X0164552Y0010340D01*
X0165719Y0011508D01*
X0166351Y0013033D01*
X0166351Y0020589D01*
X0165719Y0022114D01*
X0164552Y0023282D01*
X0163027Y0023913D01*
X0161376Y0023913D01*
X0160219Y0023434D02*
X0053421Y0023434D01*
X0054629Y0023042D02*
X0159611Y0023042D01*
X0159219Y0022650D02*
X0055550Y0022650D01*
X0056089Y0022257D02*
X0158827Y0022257D01*
X0158580Y0021865D02*
X0056629Y0021865D01*
X0057169Y0021473D02*
X0158418Y0021473D01*
X0158255Y0021081D02*
X0057709Y0021081D01*
X0058249Y0020688D02*
X0158093Y0020688D01*
X0158052Y0020296D02*
X0058748Y0020296D01*
X0059033Y0019904D02*
X0158052Y0019904D01*
X0158052Y0019512D02*
X0059318Y0019512D01*
X0059603Y0019120D02*
X0158052Y0019120D01*
X0158052Y0018727D02*
X0059888Y0018727D01*
X0060173Y0018335D02*
X0158052Y0018335D01*
X0158052Y0017943D02*
X0060458Y0017943D01*
X0060743Y0017551D02*
X0158052Y0017551D01*
X0158052Y0017159D02*
X0061027Y0017159D01*
X0061229Y0016766D02*
X0158052Y0016766D01*
X0158052Y0016374D02*
X0061356Y0016374D01*
X0061484Y0015982D02*
X0158052Y0015982D01*
X0158052Y0015590D02*
X0061611Y0015590D01*
X0061738Y0015198D02*
X0158052Y0015198D01*
X0158052Y0014805D02*
X0061866Y0014805D01*
X0061993Y0014413D02*
X0158052Y0014413D01*
X0158052Y0014021D02*
X0062121Y0014021D01*
X0062248Y0013629D02*
X0158052Y0013629D01*
X0158052Y0013236D02*
X0062376Y0013236D01*
X0062453Y0012844D02*
X0158130Y0012844D01*
X0158292Y0012452D02*
X0062453Y0012452D01*
X0062453Y0012060D02*
X0158455Y0012060D01*
X0158617Y0011668D02*
X0062453Y0011668D01*
X0062453Y0011275D02*
X0158916Y0011275D01*
X0159308Y0010883D02*
X0062456Y0010883D01*
X0062494Y0010491D02*
X0159700Y0010491D01*
X0160434Y0010099D02*
X0062533Y0010099D01*
X0062672Y0009707D02*
X0386219Y0009707D01*
X0386358Y0010099D02*
X0284835Y0010099D01*
X0285418Y0010340D02*
X0286585Y0011508D01*
X0287217Y0013033D01*
X0287217Y0020589D01*
X0286585Y0022114D01*
X0285418Y0023282D01*
X0283893Y0023913D01*
X0282242Y0023913D01*
X0280717Y0023282D01*
X0279550Y0022114D01*
X0278918Y0020589D01*
X0278918Y0013033D01*
X0279550Y0011508D01*
X0280717Y0010340D01*
X0282242Y0009709D01*
X0283893Y0009709D01*
X0285418Y0010340D01*
X0285569Y0010491D02*
X0386397Y0010491D01*
X0386435Y0010883D02*
X0285961Y0010883D01*
X0286353Y0011275D02*
X0386438Y0011275D01*
X0386438Y0011668D02*
X0286652Y0011668D01*
X0286814Y0012060D02*
X0386438Y0012060D01*
X0386438Y0012452D02*
X0286977Y0012452D01*
X0287139Y0012844D02*
X0386438Y0012844D01*
X0386515Y0013236D02*
X0287217Y0013236D01*
X0287217Y0013629D02*
X0386643Y0013629D01*
X0386770Y0014021D02*
X0287217Y0014021D01*
X0287217Y0014413D02*
X0386898Y0014413D01*
X0387025Y0014805D02*
X0287217Y0014805D01*
X0287217Y0015198D02*
X0387153Y0015198D01*
X0387280Y0015590D02*
X0287217Y0015590D01*
X0287217Y0015982D02*
X0387408Y0015982D01*
X0387535Y0016374D02*
X0287217Y0016374D01*
X0287217Y0016766D02*
X0387662Y0016766D01*
X0387864Y0017159D02*
X0287217Y0017159D01*
X0287217Y0017551D02*
X0388149Y0017551D01*
X0388433Y0017943D02*
X0287217Y0017943D01*
X0287217Y0018335D02*
X0388718Y0018335D01*
X0389003Y0018727D02*
X0287217Y0018727D01*
X0287217Y0019120D02*
X0389288Y0019120D01*
X0389573Y0019512D02*
X0287217Y0019512D01*
X0287217Y0019904D02*
X0389858Y0019904D01*
X0390143Y0020296D02*
X0287217Y0020296D01*
X0287176Y0020688D02*
X0390642Y0020688D01*
X0390189Y0020359D02*
X0390189Y0020359D01*
X0391182Y0021081D02*
X0287014Y0021081D01*
X0286851Y0021473D02*
X0391722Y0021473D01*
X0392262Y0021865D02*
X0286689Y0021865D01*
X0286442Y0022257D02*
X0392802Y0022257D01*
X0393341Y0022650D02*
X0286050Y0022650D01*
X0285658Y0023042D02*
X0394263Y0023042D01*
X0395470Y0023434D02*
X0285050Y0023434D01*
X0284103Y0023826D02*
X0396677Y0023826D01*
X0399642Y0022717D02*
X0409485Y0022717D01*
X0410859Y0024218D02*
X0278342Y0024218D01*
X0278342Y0023826D02*
X0282032Y0023826D01*
X0281085Y0023434D02*
X0278228Y0023434D01*
X0278342Y0023548D02*
X0278342Y0026128D01*
X0327172Y0026128D01*
X0328342Y0027298D01*
X0329941Y0028897D01*
X0330687Y0028897D01*
X0331782Y0029350D01*
X0332620Y0030188D01*
X0333073Y0031283D01*
X0333073Y0032467D01*
X0332620Y0033562D01*
X0331782Y0034400D01*
X0330687Y0034853D01*
X0329503Y0034853D01*
X0328408Y0034400D01*
X0327571Y0033562D01*
X0327117Y0032467D01*
X0327117Y0031721D01*
X0325518Y0030122D01*
X0317342Y0030122D01*
X0317573Y0030353D01*
X0318057Y0031521D01*
X0318057Y0036747D01*
X0317573Y0037915D01*
X0316679Y0038809D01*
X0315511Y0039293D01*
X0314246Y0039293D01*
X0313078Y0038809D01*
X0312379Y0038109D01*
X0311679Y0038809D01*
X0310511Y0039293D01*
X0309246Y0039293D01*
X0308078Y0038809D01*
X0307379Y0038109D01*
X0306679Y0038809D01*
X0305511Y0039293D01*
X0304246Y0039293D01*
X0303078Y0038809D01*
X0302379Y0038109D01*
X0301679Y0038809D01*
X0300511Y0039293D01*
X0299246Y0039293D01*
X0298078Y0038809D01*
X0297379Y0038109D01*
X0296679Y0038809D01*
X0295511Y0039293D01*
X0294246Y0039293D01*
X0293078Y0038809D01*
X0292379Y0038109D01*
X0291679Y0038809D01*
X0290511Y0039293D01*
X0289246Y0039293D01*
X0288078Y0038809D01*
X0287379Y0038109D01*
X0286679Y0038809D01*
X0285511Y0039293D01*
X0284246Y0039293D01*
X0283078Y0038809D01*
X0282379Y0038109D01*
X0281679Y0038809D01*
X0280511Y0039293D01*
X0279246Y0039293D01*
X0278078Y0038809D01*
X0277379Y0038109D01*
X0276679Y0038809D01*
X0275511Y0039293D01*
X0274246Y0039293D01*
X0273078Y0038809D01*
X0272379Y0038109D01*
X0271679Y0038809D01*
X0270511Y0039293D01*
X0269246Y0039293D01*
X0268078Y0038809D01*
X0267184Y0037915D01*
X0266701Y0036747D01*
X0266701Y0031521D01*
X0267184Y0030353D01*
X0267415Y0030122D01*
X0262342Y0030122D01*
X0262573Y0030353D01*
X0263057Y0031521D01*
X0263057Y0036747D01*
X0262573Y0037915D01*
X0261679Y0038809D01*
X0261675Y0038810D01*
X0261675Y0042789D01*
X0276892Y0058006D01*
X0276892Y0075506D01*
X0278142Y0076756D01*
X0278142Y0081892D01*
X0278536Y0082286D01*
X0278929Y0083236D01*
X0278929Y0084264D01*
X0278698Y0084824D01*
X0282117Y0081404D01*
X0282117Y0080658D01*
X0282571Y0079563D01*
X0283408Y0078725D01*
X0284503Y0078272D01*
X0285249Y0078272D01*
X0286848Y0076673D01*
X0288018Y0075503D01*
X0297881Y0075503D01*
X0298408Y0074975D01*
X0299503Y0074522D01*
X0300687Y0074522D01*
X0301782Y0074975D01*
X0302620Y0075813D01*
X0303073Y0076908D01*
X0303073Y0078092D01*
X0302620Y0079187D01*
X0301782Y0080025D01*
X0300687Y0080478D01*
X0299503Y0080478D01*
X0298408Y0080025D01*
X0297881Y0079497D01*
X0289672Y0079497D01*
X0288073Y0081096D01*
X0288073Y0081842D01*
X0287620Y0082937D01*
X0286782Y0083775D01*
X0285687Y0084228D01*
X0284941Y0084228D01*
X0279672Y0089497D01*
X0253018Y0089497D01*
X0251499Y0087978D01*
X0250753Y0087978D01*
X0249658Y0087525D01*
X0248821Y0086687D01*
X0248367Y0085592D01*
X0248367Y0084846D01*
X0248018Y0084497D01*
X0219672Y0084497D01*
X0216823Y0087346D01*
X0216823Y0088092D01*
X0216370Y0089187D01*
X0215842Y0089715D01*
X0215842Y0100285D01*
X0216370Y0100813D01*
X0216823Y0101908D01*
X0216823Y0103092D01*
X0216370Y0104187D01*
X0215532Y0105025D01*
X0214437Y0105478D01*
X0213253Y0105478D01*
X0212158Y0105025D01*
X0211631Y0104497D01*
X0165518Y0104497D01*
X0164348Y0103327D01*
X0159348Y0098327D01*
X0159348Y0093465D01*
X0158821Y0092937D01*
X0158367Y0091842D01*
X0158367Y0090658D01*
X0158821Y0089563D01*
X0159348Y0089035D01*
X0159348Y0078465D01*
X0158821Y0077937D01*
X0158367Y0076842D01*
X0158367Y0076096D01*
X0156197Y0073926D01*
X0138438Y0073926D01*
X0138438Y0079247D01*
X0137356Y0081858D01*
X0135358Y0083856D01*
X0132748Y0084937D01*
X0129923Y0084937D01*
X0127312Y0083856D01*
X0125314Y0081858D01*
X0124233Y0079247D01*
X0124233Y0064611D01*
X0125314Y0062000D01*
X0127312Y0060003D01*
X0129923Y0058921D01*
X0132748Y0058921D01*
X0135358Y0060003D01*
X0137356Y0062000D01*
X0138438Y0064611D01*
X0138438Y0069932D01*
X0157851Y0069932D01*
X0161191Y0073272D01*
X0161937Y0073272D01*
X0163032Y0073725D01*
X0163870Y0074563D01*
X0164323Y0075658D01*
X0164323Y0076842D01*
X0163870Y0077937D01*
X0163342Y0078465D01*
X0163342Y0089035D01*
X0163870Y0089563D01*
X0164323Y0090658D01*
X0164323Y0091842D01*
X0163870Y0092937D01*
X0163342Y0093465D01*
X0163342Y0096673D01*
X0167172Y0100503D01*
X0211631Y0100503D01*
X0211848Y0100285D01*
X0211848Y0089715D01*
X0211321Y0089187D01*
X0210867Y0088092D01*
X0210867Y0086908D01*
X0211321Y0085813D01*
X0212158Y0084975D01*
X0213253Y0084522D01*
X0213999Y0084522D01*
X0216848Y0081673D01*
X0216848Y0081673D01*
X0218018Y0080503D01*
X0249672Y0080503D01*
X0251191Y0082022D01*
X0251937Y0082022D01*
X0253032Y0082475D01*
X0253870Y0083313D01*
X0254323Y0084408D01*
X0254323Y0085154D01*
X0254672Y0085503D01*
X0274444Y0085503D01*
X0274154Y0085214D01*
X0273761Y0084264D01*
X0273761Y0083236D01*
X0274154Y0082286D01*
X0274548Y0081892D01*
X0274548Y0081702D01*
X0274059Y0082191D01*
X0273109Y0082584D01*
X0272081Y0082584D01*
X0271131Y0082191D01*
X0270404Y0081464D01*
X0270011Y0080514D01*
X0270011Y0079486D01*
X0270404Y0078536D01*
X0270798Y0078142D01*
X0270798Y0060744D01*
X0260842Y0050788D01*
X0260842Y0077785D01*
X0261370Y0078313D01*
X0261823Y0079408D01*
X0261823Y0080592D01*
X0261370Y0081687D01*
X0260532Y0082525D01*
X0259437Y0082978D01*
X0258253Y0082978D01*
X0257158Y0082525D01*
X0256321Y0081687D01*
X0255867Y0080592D01*
X0255867Y0079408D01*
X0256321Y0078313D01*
X0256848Y0077785D01*
X0256848Y0066208D01*
X0256782Y0066275D01*
X0255687Y0066728D01*
X0254503Y0066728D01*
X0253408Y0066275D01*
X0252571Y0065437D01*
X0252117Y0064342D01*
X0252117Y0063158D01*
X0252571Y0062063D01*
X0253408Y0061225D01*
X0254503Y0060772D01*
X0255687Y0060772D01*
X0256782Y0061225D01*
X0256848Y0061292D01*
X0256848Y0050827D01*
X0249893Y0043872D01*
X0248723Y0042702D01*
X0248723Y0036997D01*
X0247310Y0036997D01*
X0246782Y0037525D01*
X0245687Y0037978D01*
X0244503Y0037978D01*
X0243408Y0037525D01*
X0242571Y0036687D01*
X0242117Y0035592D01*
X0242117Y0034408D01*
X0242571Y0033313D01*
X0243408Y0032475D01*
X0244503Y0032022D01*
X0245687Y0032022D01*
X0246782Y0032475D01*
X0247310Y0033003D01*
X0248723Y0033003D01*
X0248723Y0029922D01*
X0243828Y0029922D01*
X0243434Y0030316D01*
X0242484Y0030709D01*
X0241456Y0030709D01*
X0240506Y0030316D01*
X0239779Y0029589D01*
X0239386Y0028639D01*
X0239386Y0027611D01*
X0239779Y0026661D01*
X0240506Y0025934D01*
X0241456Y0025541D01*
X0242484Y0025541D01*
X0243434Y0025934D01*
X0243828Y0026328D01*
X0248101Y0026328D01*
X0251021Y0023408D01*
X0250717Y0023282D01*
X0249550Y0022114D01*
X0248918Y0020589D01*
X0248918Y0013033D01*
X0249550Y0011508D01*
X0250717Y0010340D01*
X0252242Y0009709D01*
X0253893Y0009709D01*
X0255418Y0010340D01*
X0256585Y0011508D01*
X0257217Y0013033D01*
X0257217Y0020589D01*
X0256585Y0022114D01*
X0255497Y0023203D01*
X0260639Y0023203D01*
X0259550Y0022114D01*
X0258918Y0020589D01*
X0258918Y0013033D01*
X0259550Y0011508D01*
X0260717Y0010340D01*
X0262242Y0009709D01*
X0263893Y0009709D01*
X0265418Y0010340D01*
X0266585Y0011508D01*
X0267217Y0013033D01*
X0267217Y0020589D01*
X0266585Y0022114D01*
X0265497Y0023203D01*
X0270639Y0023203D01*
X0269550Y0022114D01*
X0268918Y0020589D01*
X0268918Y0013033D01*
X0269550Y0011508D01*
X0270717Y0010340D01*
X0272242Y0009709D01*
X0273893Y0009709D01*
X0275418Y0010340D01*
X0276585Y0011508D01*
X0277217Y0013033D01*
X0277217Y0020589D01*
X0276680Y0021886D01*
X0277172Y0022378D01*
X0277172Y0022378D01*
X0278342Y0023548D01*
X0277836Y0023042D02*
X0280477Y0023042D01*
X0280085Y0022650D02*
X0277444Y0022650D01*
X0277051Y0022257D02*
X0279693Y0022257D01*
X0279446Y0021865D02*
X0276689Y0021865D01*
X0276851Y0021473D02*
X0279284Y0021473D01*
X0279122Y0021081D02*
X0277014Y0021081D01*
X0277176Y0020688D02*
X0278959Y0020688D01*
X0278918Y0020296D02*
X0277217Y0020296D01*
X0277217Y0019904D02*
X0278918Y0019904D01*
X0278918Y0019512D02*
X0277217Y0019512D01*
X0277217Y0019120D02*
X0278918Y0019120D01*
X0278918Y0018727D02*
X0277217Y0018727D01*
X0277217Y0018335D02*
X0278918Y0018335D01*
X0278918Y0017943D02*
X0277217Y0017943D01*
X0277217Y0017551D02*
X0278918Y0017551D01*
X0278918Y0017159D02*
X0277217Y0017159D01*
X0277217Y0016766D02*
X0278918Y0016766D01*
X0278918Y0016374D02*
X0277217Y0016374D01*
X0277217Y0015982D02*
X0278918Y0015982D01*
X0278918Y0015590D02*
X0277217Y0015590D01*
X0277217Y0015198D02*
X0278918Y0015198D01*
X0278918Y0014805D02*
X0277217Y0014805D01*
X0277217Y0014413D02*
X0278918Y0014413D01*
X0278918Y0014021D02*
X0277217Y0014021D01*
X0277217Y0013629D02*
X0278918Y0013629D01*
X0278918Y0013236D02*
X0277217Y0013236D01*
X0277139Y0012844D02*
X0278996Y0012844D01*
X0279159Y0012452D02*
X0276977Y0012452D01*
X0276814Y0012060D02*
X0279321Y0012060D01*
X0279483Y0011668D02*
X0276652Y0011668D01*
X0276353Y0011275D02*
X0279782Y0011275D01*
X0280174Y0010883D02*
X0275961Y0010883D01*
X0275569Y0010491D02*
X0280566Y0010491D01*
X0281300Y0010099D02*
X0274835Y0010099D01*
X0271300Y0010099D02*
X0264835Y0010099D01*
X0265569Y0010491D02*
X0270566Y0010491D01*
X0270174Y0010883D02*
X0265961Y0010883D01*
X0266353Y0011275D02*
X0269782Y0011275D01*
X0269483Y0011668D02*
X0266652Y0011668D01*
X0266814Y0012060D02*
X0269321Y0012060D01*
X0269159Y0012452D02*
X0266977Y0012452D01*
X0267139Y0012844D02*
X0268996Y0012844D01*
X0268918Y0013236D02*
X0267217Y0013236D01*
X0267217Y0013629D02*
X0268918Y0013629D01*
X0268918Y0014021D02*
X0267217Y0014021D01*
X0267217Y0014413D02*
X0268918Y0014413D01*
X0268918Y0014805D02*
X0267217Y0014805D01*
X0267217Y0015198D02*
X0268918Y0015198D01*
X0268918Y0015590D02*
X0267217Y0015590D01*
X0267217Y0015982D02*
X0268918Y0015982D01*
X0268918Y0016374D02*
X0267217Y0016374D01*
X0267217Y0016766D02*
X0268918Y0016766D01*
X0268918Y0017159D02*
X0267217Y0017159D01*
X0267217Y0017551D02*
X0268918Y0017551D01*
X0268918Y0017943D02*
X0267217Y0017943D01*
X0267217Y0018335D02*
X0268918Y0018335D01*
X0268918Y0018727D02*
X0267217Y0018727D01*
X0267217Y0019120D02*
X0268918Y0019120D01*
X0268918Y0019512D02*
X0267217Y0019512D01*
X0267217Y0019904D02*
X0268918Y0019904D01*
X0268918Y0020296D02*
X0267217Y0020296D01*
X0267176Y0020688D02*
X0268959Y0020688D01*
X0269122Y0021081D02*
X0267014Y0021081D01*
X0266851Y0021473D02*
X0269284Y0021473D01*
X0269446Y0021865D02*
X0266689Y0021865D01*
X0266442Y0022257D02*
X0269693Y0022257D01*
X0270085Y0022650D02*
X0266050Y0022650D01*
X0265658Y0023042D02*
X0270477Y0023042D01*
X0278342Y0024611D02*
X0412260Y0024611D01*
X0413467Y0025003D02*
X0278342Y0025003D01*
X0278342Y0025395D02*
X0414420Y0025395D01*
X0414960Y0025787D02*
X0278342Y0025787D01*
X0267126Y0030494D02*
X0262631Y0030494D01*
X0262794Y0030886D02*
X0266964Y0030886D01*
X0266801Y0031278D02*
X0262956Y0031278D01*
X0263057Y0031670D02*
X0266701Y0031670D01*
X0266701Y0032063D02*
X0263057Y0032063D01*
X0263057Y0032455D02*
X0266701Y0032455D01*
X0266701Y0032847D02*
X0263057Y0032847D01*
X0263057Y0033239D02*
X0266701Y0033239D01*
X0266701Y0033631D02*
X0263057Y0033631D01*
X0263057Y0034024D02*
X0266701Y0034024D01*
X0266701Y0034416D02*
X0263057Y0034416D01*
X0263057Y0034808D02*
X0266701Y0034808D01*
X0266701Y0035200D02*
X0263057Y0035200D01*
X0263057Y0035593D02*
X0266701Y0035593D01*
X0266701Y0035985D02*
X0263057Y0035985D01*
X0263057Y0036377D02*
X0266701Y0036377D01*
X0266710Y0036769D02*
X0263047Y0036769D01*
X0262885Y0037161D02*
X0266872Y0037161D01*
X0267035Y0037554D02*
X0262722Y0037554D01*
X0262542Y0037946D02*
X0267215Y0037946D01*
X0267607Y0038338D02*
X0262150Y0038338D01*
X0261758Y0038730D02*
X0268000Y0038730D01*
X0268835Y0039122D02*
X0261675Y0039122D01*
X0261675Y0039515D02*
X0419902Y0039515D01*
X0419902Y0039907D02*
X0261675Y0039907D01*
X0261675Y0040299D02*
X0419902Y0040299D01*
X0419902Y0040691D02*
X0261675Y0040691D01*
X0261675Y0041084D02*
X0419902Y0041084D01*
X0419902Y0041476D02*
X0261675Y0041476D01*
X0261675Y0041868D02*
X0419902Y0041868D01*
X0419902Y0042260D02*
X0261675Y0042260D01*
X0261675Y0042652D02*
X0419902Y0042652D01*
X0419902Y0043045D02*
X0261931Y0043045D01*
X0262323Y0043437D02*
X0419902Y0043437D01*
X0419902Y0043829D02*
X0262715Y0043829D01*
X0263107Y0044221D02*
X0419902Y0044221D01*
X0419902Y0044613D02*
X0263500Y0044613D01*
X0263892Y0045006D02*
X0419902Y0045006D01*
X0419902Y0045398D02*
X0264284Y0045398D01*
X0264676Y0045790D02*
X0419902Y0045790D01*
X0419902Y0046182D02*
X0265069Y0046182D01*
X0265461Y0046574D02*
X0419902Y0046574D01*
X0419902Y0046967D02*
X0265853Y0046967D01*
X0266245Y0047359D02*
X0419902Y0047359D01*
X0419902Y0047751D02*
X0266637Y0047751D01*
X0267030Y0048143D02*
X0419902Y0048143D01*
X0419902Y0048536D02*
X0267422Y0048536D01*
X0267814Y0048928D02*
X0419902Y0048928D01*
X0419902Y0049320D02*
X0268206Y0049320D01*
X0268598Y0049712D02*
X0419902Y0049712D01*
X0419902Y0050104D02*
X0268991Y0050104D01*
X0269383Y0050497D02*
X0419902Y0050497D01*
X0419902Y0050889D02*
X0269775Y0050889D01*
X0270167Y0051281D02*
X0419902Y0051281D01*
X0419902Y0051673D02*
X0270560Y0051673D01*
X0270952Y0052065D02*
X0419902Y0052065D01*
X0419902Y0052458D02*
X0271344Y0052458D01*
X0271736Y0052850D02*
X0419902Y0052850D01*
X0419902Y0053242D02*
X0272128Y0053242D01*
X0272521Y0053634D02*
X0313863Y0053634D01*
X0314147Y0053350D02*
X0321044Y0053350D01*
X0321745Y0054051D01*
X0321745Y0060948D01*
X0321044Y0061650D01*
X0314147Y0061650D01*
X0313446Y0060948D01*
X0313446Y0054051D01*
X0314147Y0053350D01*
X0313471Y0054027D02*
X0272913Y0054027D01*
X0273305Y0054419D02*
X0313446Y0054419D01*
X0313446Y0054811D02*
X0273697Y0054811D01*
X0274089Y0055203D02*
X0313446Y0055203D01*
X0313446Y0055595D02*
X0274482Y0055595D01*
X0274874Y0055988D02*
X0313446Y0055988D01*
X0313446Y0056380D02*
X0275266Y0056380D01*
X0275658Y0056772D02*
X0313446Y0056772D01*
X0313446Y0057164D02*
X0276050Y0057164D01*
X0276443Y0057556D02*
X0313446Y0057556D01*
X0313446Y0057949D02*
X0276835Y0057949D01*
X0276892Y0058341D02*
X0313446Y0058341D01*
X0313446Y0058733D02*
X0276892Y0058733D01*
X0276892Y0059125D02*
X0313446Y0059125D01*
X0313446Y0059517D02*
X0276892Y0059517D01*
X0276892Y0059910D02*
X0313446Y0059910D01*
X0313446Y0060302D02*
X0276892Y0060302D01*
X0276892Y0060694D02*
X0313446Y0060694D01*
X0313583Y0061086D02*
X0276892Y0061086D01*
X0276892Y0061479D02*
X0313976Y0061479D01*
X0321215Y0061479D02*
X0419902Y0061479D01*
X0419902Y0061871D02*
X0276892Y0061871D01*
X0276892Y0062263D02*
X0419902Y0062263D01*
X0419902Y0062655D02*
X0276892Y0062655D01*
X0276892Y0063047D02*
X0419902Y0063047D01*
X0419902Y0063440D02*
X0276892Y0063440D01*
X0276892Y0063832D02*
X0419902Y0063832D01*
X0419902Y0064224D02*
X0276892Y0064224D01*
X0276892Y0064616D02*
X0419902Y0064616D01*
X0419902Y0065008D02*
X0276892Y0065008D01*
X0276892Y0065401D02*
X0419902Y0065401D01*
X0419902Y0065793D02*
X0276892Y0065793D01*
X0276892Y0066185D02*
X0419902Y0066185D01*
X0419902Y0066577D02*
X0276892Y0066577D01*
X0276892Y0066970D02*
X0419902Y0066970D01*
X0419902Y0067362D02*
X0276892Y0067362D01*
X0276892Y0067754D02*
X0419902Y0067754D01*
X0419902Y0068146D02*
X0276892Y0068146D01*
X0276892Y0068538D02*
X0317709Y0068538D01*
X0317897Y0068350D02*
X0324794Y0068350D01*
X0325495Y0069051D01*
X0325495Y0075948D01*
X0324794Y0076650D01*
X0317897Y0076650D01*
X0317196Y0075948D01*
X0317196Y0069051D01*
X0317897Y0068350D01*
X0317316Y0068931D02*
X0276892Y0068931D01*
X0276892Y0069323D02*
X0317196Y0069323D01*
X0317196Y0069715D02*
X0276892Y0069715D01*
X0276892Y0070107D02*
X0317196Y0070107D01*
X0317196Y0070499D02*
X0276892Y0070499D01*
X0276892Y0070892D02*
X0317196Y0070892D01*
X0317196Y0071284D02*
X0276892Y0071284D01*
X0276892Y0071676D02*
X0317196Y0071676D01*
X0317196Y0072068D02*
X0276892Y0072068D01*
X0276892Y0072460D02*
X0317196Y0072460D01*
X0317196Y0072853D02*
X0276892Y0072853D01*
X0276892Y0073245D02*
X0317196Y0073245D01*
X0317196Y0073637D02*
X0276892Y0073637D01*
X0276892Y0074029D02*
X0317196Y0074029D01*
X0317196Y0074422D02*
X0276892Y0074422D01*
X0276892Y0074814D02*
X0298799Y0074814D01*
X0298178Y0075206D02*
X0276892Y0075206D01*
X0276984Y0075598D02*
X0287923Y0075598D01*
X0287531Y0075990D02*
X0277377Y0075990D01*
X0277769Y0076383D02*
X0287139Y0076383D01*
X0286746Y0076775D02*
X0278142Y0076775D01*
X0278142Y0077167D02*
X0286354Y0077167D01*
X0285962Y0077559D02*
X0278142Y0077559D01*
X0278142Y0077951D02*
X0285570Y0077951D01*
X0284330Y0078344D02*
X0278142Y0078344D01*
X0278142Y0078736D02*
X0283398Y0078736D01*
X0283006Y0079128D02*
X0278142Y0079128D01*
X0278142Y0079520D02*
X0282613Y0079520D01*
X0282426Y0079913D02*
X0278142Y0079913D01*
X0278142Y0080305D02*
X0282263Y0080305D01*
X0282117Y0080697D02*
X0278142Y0080697D01*
X0278142Y0081089D02*
X0282117Y0081089D01*
X0282040Y0081481D02*
X0278142Y0081481D01*
X0278142Y0081874D02*
X0281648Y0081874D01*
X0281255Y0082266D02*
X0278516Y0082266D01*
X0278690Y0082658D02*
X0280863Y0082658D01*
X0280471Y0083050D02*
X0278852Y0083050D01*
X0278929Y0083442D02*
X0280079Y0083442D01*
X0279687Y0083835D02*
X0278929Y0083835D01*
X0278929Y0084227D02*
X0279294Y0084227D01*
X0278902Y0084619D02*
X0278782Y0084619D01*
X0281805Y0087365D02*
X0419902Y0087365D01*
X0419902Y0087757D02*
X0281412Y0087757D01*
X0281020Y0088149D02*
X0419902Y0088149D01*
X0419902Y0088541D02*
X0280628Y0088541D01*
X0280236Y0088933D02*
X0419902Y0088933D01*
X0419902Y0089326D02*
X0279843Y0089326D01*
X0282197Y0086972D02*
X0419902Y0086972D01*
X0419902Y0086580D02*
X0282589Y0086580D01*
X0282981Y0086188D02*
X0419902Y0086188D01*
X0419902Y0085796D02*
X0283373Y0085796D01*
X0283766Y0085403D02*
X0419902Y0085403D01*
X0419902Y0085011D02*
X0284158Y0085011D01*
X0284550Y0084619D02*
X0419902Y0084619D01*
X0419902Y0084227D02*
X0285690Y0084227D01*
X0286637Y0083835D02*
X0419902Y0083835D01*
X0419902Y0083442D02*
X0287114Y0083442D01*
X0287506Y0083050D02*
X0419902Y0083050D01*
X0419902Y0082658D02*
X0287735Y0082658D01*
X0287898Y0082266D02*
X0419902Y0082266D01*
X0419902Y0081874D02*
X0288060Y0081874D01*
X0288073Y0081481D02*
X0419902Y0081481D01*
X0419902Y0081089D02*
X0288080Y0081089D01*
X0288472Y0080697D02*
X0419902Y0080697D01*
X0419902Y0080305D02*
X0301106Y0080305D01*
X0301894Y0079913D02*
X0419902Y0079913D01*
X0419902Y0079520D02*
X0302286Y0079520D01*
X0302644Y0079128D02*
X0419902Y0079128D01*
X0419902Y0078736D02*
X0302807Y0078736D01*
X0302969Y0078344D02*
X0419902Y0078344D01*
X0419902Y0077951D02*
X0303073Y0077951D01*
X0303073Y0077559D02*
X0419902Y0077559D01*
X0419902Y0077167D02*
X0303073Y0077167D01*
X0303018Y0076775D02*
X0419902Y0076775D01*
X0419902Y0076383D02*
X0325061Y0076383D01*
X0325453Y0075990D02*
X0419902Y0075990D01*
X0419902Y0075598D02*
X0325495Y0075598D01*
X0325495Y0075206D02*
X0419902Y0075206D01*
X0419902Y0074814D02*
X0325495Y0074814D01*
X0325495Y0074422D02*
X0419902Y0074422D01*
X0419902Y0074029D02*
X0325495Y0074029D01*
X0325495Y0073637D02*
X0419902Y0073637D01*
X0419902Y0073245D02*
X0325495Y0073245D01*
X0325495Y0072853D02*
X0419902Y0072853D01*
X0419902Y0072460D02*
X0325495Y0072460D01*
X0325495Y0072068D02*
X0419902Y0072068D01*
X0419902Y0071676D02*
X0325495Y0071676D01*
X0325495Y0071284D02*
X0419902Y0071284D01*
X0419902Y0070892D02*
X0325495Y0070892D01*
X0325495Y0070499D02*
X0419902Y0070499D01*
X0419902Y0070107D02*
X0325495Y0070107D01*
X0325495Y0069715D02*
X0419902Y0069715D01*
X0419902Y0069323D02*
X0325495Y0069323D01*
X0325374Y0068931D02*
X0419902Y0068931D01*
X0419902Y0068538D02*
X0324982Y0068538D01*
X0321607Y0061086D02*
X0419902Y0061086D01*
X0419902Y0060694D02*
X0321745Y0060694D01*
X0321745Y0060302D02*
X0419902Y0060302D01*
X0419902Y0059910D02*
X0321745Y0059910D01*
X0321745Y0059517D02*
X0419902Y0059517D01*
X0419902Y0059125D02*
X0321745Y0059125D01*
X0321745Y0058733D02*
X0419902Y0058733D01*
X0419902Y0058341D02*
X0321745Y0058341D01*
X0321745Y0057949D02*
X0419902Y0057949D01*
X0419902Y0057556D02*
X0321745Y0057556D01*
X0321745Y0057164D02*
X0419902Y0057164D01*
X0419902Y0056772D02*
X0321745Y0056772D01*
X0321745Y0056380D02*
X0419902Y0056380D01*
X0419902Y0055988D02*
X0321745Y0055988D01*
X0321745Y0055595D02*
X0419902Y0055595D01*
X0419902Y0055203D02*
X0321745Y0055203D01*
X0321745Y0054811D02*
X0419902Y0054811D01*
X0419902Y0054419D02*
X0321745Y0054419D01*
X0321720Y0054027D02*
X0419902Y0054027D01*
X0419902Y0053634D02*
X0321328Y0053634D01*
X0315922Y0039122D02*
X0419902Y0039122D01*
X0419902Y0038730D02*
X0316758Y0038730D01*
X0317150Y0038338D02*
X0419902Y0038338D01*
X0419902Y0037946D02*
X0317542Y0037946D01*
X0317722Y0037554D02*
X0419902Y0037554D01*
X0419902Y0037161D02*
X0317885Y0037161D01*
X0318047Y0036769D02*
X0419902Y0036769D01*
X0419902Y0036377D02*
X0318057Y0036377D01*
X0318057Y0035985D02*
X0419902Y0035985D01*
X0419902Y0035593D02*
X0318057Y0035593D01*
X0318057Y0035200D02*
X0419902Y0035200D01*
X0419902Y0034808D02*
X0330796Y0034808D01*
X0331743Y0034416D02*
X0419893Y0034416D01*
X0419863Y0034024D02*
X0332158Y0034024D01*
X0332550Y0033631D02*
X0419832Y0033631D01*
X0419801Y0033239D02*
X0332753Y0033239D01*
X0332916Y0032847D02*
X0419757Y0032847D01*
X0419630Y0032455D02*
X0333073Y0032455D01*
X0333073Y0032063D02*
X0419503Y0032063D01*
X0419375Y0031670D02*
X0333073Y0031670D01*
X0333071Y0031278D02*
X0419248Y0031278D01*
X0419120Y0030886D02*
X0332909Y0030886D01*
X0332746Y0030494D02*
X0418993Y0030494D01*
X0418865Y0030102D02*
X0332533Y0030102D01*
X0332141Y0029709D02*
X0418702Y0029709D01*
X0418417Y0029317D02*
X0331702Y0029317D01*
X0330755Y0028925D02*
X0418132Y0028925D01*
X0417847Y0028533D02*
X0329577Y0028533D01*
X0329185Y0028141D02*
X0417562Y0028141D01*
X0417277Y0027748D02*
X0328792Y0027748D01*
X0328400Y0027356D02*
X0416993Y0027356D01*
X0416579Y0026964D02*
X0328008Y0026964D01*
X0327616Y0026572D02*
X0416039Y0026572D01*
X0415500Y0026179D02*
X0327224Y0026179D01*
X0325890Y0030494D02*
X0317631Y0030494D01*
X0317794Y0030886D02*
X0326282Y0030886D01*
X0326674Y0031278D02*
X0317956Y0031278D01*
X0318057Y0031670D02*
X0327067Y0031670D01*
X0327117Y0032063D02*
X0318057Y0032063D01*
X0318057Y0032455D02*
X0327117Y0032455D01*
X0327274Y0032847D02*
X0318057Y0032847D01*
X0318057Y0033239D02*
X0327437Y0033239D01*
X0327640Y0033631D02*
X0318057Y0033631D01*
X0318057Y0034024D02*
X0328032Y0034024D01*
X0328448Y0034416D02*
X0318057Y0034416D01*
X0318057Y0034808D02*
X0329395Y0034808D01*
X0313835Y0039122D02*
X0310922Y0039122D01*
X0311758Y0038730D02*
X0313000Y0038730D01*
X0312607Y0038338D02*
X0312150Y0038338D01*
X0308835Y0039122D02*
X0305922Y0039122D01*
X0306758Y0038730D02*
X0308000Y0038730D01*
X0307607Y0038338D02*
X0307150Y0038338D01*
X0303835Y0039122D02*
X0300922Y0039122D01*
X0301758Y0038730D02*
X0303000Y0038730D01*
X0302607Y0038338D02*
X0302150Y0038338D01*
X0298835Y0039122D02*
X0295922Y0039122D01*
X0296758Y0038730D02*
X0298000Y0038730D01*
X0297607Y0038338D02*
X0297150Y0038338D01*
X0293835Y0039122D02*
X0290922Y0039122D01*
X0291758Y0038730D02*
X0293000Y0038730D01*
X0292607Y0038338D02*
X0292150Y0038338D01*
X0288835Y0039122D02*
X0285922Y0039122D01*
X0286758Y0038730D02*
X0288000Y0038730D01*
X0287607Y0038338D02*
X0287150Y0038338D01*
X0283835Y0039122D02*
X0280922Y0039122D01*
X0281758Y0038730D02*
X0283000Y0038730D01*
X0282607Y0038338D02*
X0282150Y0038338D01*
X0278835Y0039122D02*
X0275922Y0039122D01*
X0276758Y0038730D02*
X0278000Y0038730D01*
X0277607Y0038338D02*
X0277150Y0038338D01*
X0273835Y0039122D02*
X0270922Y0039122D01*
X0271758Y0038730D02*
X0273000Y0038730D01*
X0272607Y0038338D02*
X0272150Y0038338D01*
X0255341Y0049320D02*
X0238070Y0049320D01*
X0237809Y0049059D02*
X0238536Y0049786D01*
X0238929Y0050736D01*
X0238929Y0051764D01*
X0238536Y0052714D01*
X0237809Y0053441D01*
X0236859Y0053834D01*
X0235831Y0053834D01*
X0234881Y0053441D01*
X0234487Y0053047D01*
X0223203Y0053047D01*
X0222809Y0053441D01*
X0221859Y0053834D01*
X0220831Y0053834D01*
X0219881Y0053441D01*
X0219154Y0052714D01*
X0218761Y0051764D01*
X0218761Y0050736D01*
X0219154Y0049786D01*
X0219881Y0049059D01*
X0220831Y0048666D01*
X0221859Y0048666D01*
X0222809Y0049059D01*
X0223203Y0049453D01*
X0234487Y0049453D01*
X0234881Y0049059D01*
X0235831Y0048666D01*
X0236859Y0048666D01*
X0237809Y0049059D01*
X0237492Y0048928D02*
X0254949Y0048928D01*
X0254557Y0048536D02*
X0028989Y0048536D01*
X0028989Y0048928D02*
X0220199Y0048928D01*
X0219620Y0049320D02*
X0028989Y0049320D01*
X0028989Y0049712D02*
X0219228Y0049712D01*
X0219022Y0050104D02*
X0028989Y0050104D01*
X0028989Y0050497D02*
X0218860Y0050497D01*
X0218761Y0050889D02*
X0028989Y0050889D01*
X0028989Y0051281D02*
X0218761Y0051281D01*
X0218761Y0051673D02*
X0028989Y0051673D01*
X0028989Y0052065D02*
X0218886Y0052065D01*
X0219048Y0052458D02*
X0028989Y0052458D01*
X0028989Y0052850D02*
X0219290Y0052850D01*
X0219683Y0053242D02*
X0028989Y0053242D01*
X0028989Y0053634D02*
X0220348Y0053634D01*
X0222342Y0053634D02*
X0235348Y0053634D01*
X0234683Y0053242D02*
X0223008Y0053242D01*
X0223070Y0049320D02*
X0234620Y0049320D01*
X0235199Y0048928D02*
X0222492Y0048928D01*
X0237342Y0053634D02*
X0256848Y0053634D01*
X0256848Y0053242D02*
X0238008Y0053242D01*
X0238400Y0052850D02*
X0256848Y0052850D01*
X0256848Y0052458D02*
X0238642Y0052458D01*
X0238805Y0052065D02*
X0256848Y0052065D01*
X0256848Y0051673D02*
X0238929Y0051673D01*
X0238929Y0051281D02*
X0256848Y0051281D01*
X0256848Y0050889D02*
X0238929Y0050889D01*
X0238830Y0050497D02*
X0256518Y0050497D01*
X0256126Y0050104D02*
X0238668Y0050104D01*
X0238462Y0049712D02*
X0255733Y0049712D01*
X0254165Y0048143D02*
X0028989Y0048143D01*
X0028989Y0047751D02*
X0253772Y0047751D01*
X0253380Y0047359D02*
X0028989Y0047359D01*
X0028989Y0046967D02*
X0252988Y0046967D01*
X0252596Y0046574D02*
X0028989Y0046574D01*
X0028989Y0046182D02*
X0252203Y0046182D01*
X0251811Y0045790D02*
X0028989Y0045790D01*
X0028989Y0045398D02*
X0251419Y0045398D01*
X0251027Y0045006D02*
X0028989Y0045006D01*
X0028989Y0044613D02*
X0250635Y0044613D01*
X0250242Y0044221D02*
X0028989Y0044221D01*
X0028989Y0043829D02*
X0249850Y0043829D01*
X0249458Y0043437D02*
X0028989Y0043437D01*
X0028989Y0043045D02*
X0249066Y0043045D01*
X0248723Y0042652D02*
X0028989Y0042652D01*
X0028989Y0042260D02*
X0248723Y0042260D01*
X0248723Y0041868D02*
X0028989Y0041868D01*
X0028989Y0041476D02*
X0248723Y0041476D01*
X0248723Y0041084D02*
X0028989Y0041084D01*
X0028989Y0040691D02*
X0248723Y0040691D01*
X0248723Y0040299D02*
X0028989Y0040299D01*
X0028989Y0039907D02*
X0248723Y0039907D01*
X0248723Y0039515D02*
X0028989Y0039515D01*
X0028989Y0039122D02*
X0248723Y0039122D01*
X0248723Y0038730D02*
X0028989Y0038730D01*
X0028989Y0038338D02*
X0248723Y0038338D01*
X0248723Y0037946D02*
X0245765Y0037946D01*
X0246712Y0037554D02*
X0248723Y0037554D01*
X0248723Y0037161D02*
X0247145Y0037161D01*
X0244425Y0037946D02*
X0028989Y0037946D01*
X0028989Y0037554D02*
X0243478Y0037554D01*
X0243045Y0037161D02*
X0028989Y0037161D01*
X0028989Y0036769D02*
X0242653Y0036769D01*
X0242442Y0036377D02*
X0028989Y0036377D01*
X0028989Y0035985D02*
X0242280Y0035985D01*
X0242117Y0035593D02*
X0028989Y0035593D01*
X0028989Y0035200D02*
X0242117Y0035200D01*
X0242117Y0034808D02*
X0028989Y0034808D01*
X0028998Y0034416D02*
X0242117Y0034416D01*
X0242276Y0034024D02*
X0029028Y0034024D01*
X0029059Y0033631D02*
X0242439Y0033631D01*
X0242644Y0033239D02*
X0029090Y0033239D01*
X0029134Y0032847D02*
X0243037Y0032847D01*
X0243458Y0032455D02*
X0029261Y0032455D01*
X0029388Y0032063D02*
X0244405Y0032063D01*
X0245785Y0032063D02*
X0248723Y0032063D01*
X0248723Y0032455D02*
X0246732Y0032455D01*
X0247154Y0032847D02*
X0248723Y0032847D01*
X0248723Y0031670D02*
X0029516Y0031670D01*
X0029643Y0031278D02*
X0248723Y0031278D01*
X0248723Y0030886D02*
X0029771Y0030886D01*
X0029898Y0030494D02*
X0240936Y0030494D01*
X0240292Y0030102D02*
X0030026Y0030102D01*
X0030189Y0029709D02*
X0239900Y0029709D01*
X0239667Y0029317D02*
X0030474Y0029317D01*
X0030759Y0028925D02*
X0239504Y0028925D01*
X0239386Y0028533D02*
X0031044Y0028533D01*
X0031329Y0028141D02*
X0239386Y0028141D01*
X0239386Y0027748D02*
X0031614Y0027748D01*
X0031899Y0027356D02*
X0239491Y0027356D01*
X0239654Y0026964D02*
X0032312Y0026964D01*
X0032852Y0026572D02*
X0239869Y0026572D01*
X0240261Y0026179D02*
X0033392Y0026179D01*
X0033931Y0025787D02*
X0240861Y0025787D01*
X0243079Y0025787D02*
X0248642Y0025787D01*
X0248250Y0026179D02*
X0243679Y0026179D01*
X0250603Y0023826D02*
X0234103Y0023826D01*
X0233893Y0023913D02*
X0232242Y0023913D01*
X0230717Y0023282D01*
X0229550Y0022114D01*
X0228918Y0020589D01*
X0228918Y0013033D01*
X0229550Y0011508D01*
X0230717Y0010340D01*
X0232242Y0009709D01*
X0233893Y0009709D01*
X0235418Y0010340D01*
X0236585Y0011508D01*
X0237217Y0013033D01*
X0237217Y0020589D01*
X0236585Y0022114D01*
X0235418Y0023282D01*
X0233893Y0023913D01*
X0235050Y0023434D02*
X0250995Y0023434D01*
X0250477Y0023042D02*
X0235658Y0023042D01*
X0236050Y0022650D02*
X0250085Y0022650D01*
X0249693Y0022257D02*
X0236442Y0022257D01*
X0236689Y0021865D02*
X0249446Y0021865D01*
X0249284Y0021473D02*
X0236851Y0021473D01*
X0237014Y0021081D02*
X0249122Y0021081D01*
X0248959Y0020688D02*
X0237176Y0020688D01*
X0237217Y0020296D02*
X0248918Y0020296D01*
X0248918Y0019904D02*
X0237217Y0019904D01*
X0237217Y0019512D02*
X0248918Y0019512D01*
X0248918Y0019120D02*
X0237217Y0019120D01*
X0237217Y0018727D02*
X0248918Y0018727D01*
X0248918Y0018335D02*
X0237217Y0018335D01*
X0237217Y0017943D02*
X0248918Y0017943D01*
X0248918Y0017551D02*
X0237217Y0017551D01*
X0237217Y0017159D02*
X0248918Y0017159D01*
X0248918Y0016766D02*
X0237217Y0016766D01*
X0237217Y0016374D02*
X0248918Y0016374D01*
X0248918Y0015982D02*
X0237217Y0015982D01*
X0237217Y0015590D02*
X0248918Y0015590D01*
X0248918Y0015198D02*
X0237217Y0015198D01*
X0237217Y0014805D02*
X0248918Y0014805D01*
X0248918Y0014413D02*
X0237217Y0014413D01*
X0237217Y0014021D02*
X0248918Y0014021D01*
X0248918Y0013629D02*
X0237217Y0013629D01*
X0237217Y0013236D02*
X0248918Y0013236D01*
X0248996Y0012844D02*
X0237139Y0012844D01*
X0236977Y0012452D02*
X0249159Y0012452D01*
X0249321Y0012060D02*
X0236814Y0012060D01*
X0236652Y0011668D02*
X0249483Y0011668D01*
X0249782Y0011275D02*
X0236353Y0011275D01*
X0235961Y0010883D02*
X0250174Y0010883D01*
X0250566Y0010491D02*
X0235569Y0010491D01*
X0234835Y0010099D02*
X0251300Y0010099D01*
X0254835Y0010099D02*
X0261300Y0010099D01*
X0260566Y0010491D02*
X0255569Y0010491D01*
X0255961Y0010883D02*
X0260174Y0010883D01*
X0259782Y0011275D02*
X0256353Y0011275D01*
X0256652Y0011668D02*
X0259483Y0011668D01*
X0259321Y0012060D02*
X0256814Y0012060D01*
X0256977Y0012452D02*
X0259159Y0012452D01*
X0258996Y0012844D02*
X0257139Y0012844D01*
X0257217Y0013236D02*
X0258918Y0013236D01*
X0258918Y0013629D02*
X0257217Y0013629D01*
X0257217Y0014021D02*
X0258918Y0014021D01*
X0258918Y0014413D02*
X0257217Y0014413D01*
X0257217Y0014805D02*
X0258918Y0014805D01*
X0258918Y0015198D02*
X0257217Y0015198D01*
X0257217Y0015590D02*
X0258918Y0015590D01*
X0258918Y0015982D02*
X0257217Y0015982D01*
X0257217Y0016374D02*
X0258918Y0016374D01*
X0258918Y0016766D02*
X0257217Y0016766D01*
X0257217Y0017159D02*
X0258918Y0017159D01*
X0258918Y0017551D02*
X0257217Y0017551D01*
X0257217Y0017943D02*
X0258918Y0017943D01*
X0258918Y0018335D02*
X0257217Y0018335D01*
X0257217Y0018727D02*
X0258918Y0018727D01*
X0258918Y0019120D02*
X0257217Y0019120D01*
X0257217Y0019512D02*
X0258918Y0019512D01*
X0258918Y0019904D02*
X0257217Y0019904D01*
X0257217Y0020296D02*
X0258918Y0020296D01*
X0258959Y0020688D02*
X0257176Y0020688D01*
X0257014Y0021081D02*
X0259122Y0021081D01*
X0259284Y0021473D02*
X0256851Y0021473D01*
X0256689Y0021865D02*
X0259446Y0021865D01*
X0259693Y0022257D02*
X0256442Y0022257D01*
X0256050Y0022650D02*
X0260085Y0022650D01*
X0260477Y0023042D02*
X0255658Y0023042D01*
X0248723Y0030102D02*
X0243648Y0030102D01*
X0243004Y0030494D02*
X0248723Y0030494D01*
X0232032Y0023826D02*
X0224103Y0023826D01*
X0223893Y0023913D02*
X0222242Y0023913D01*
X0220717Y0023282D01*
X0219550Y0022114D01*
X0218918Y0020589D01*
X0218918Y0013033D01*
X0219550Y0011508D01*
X0220717Y0010340D01*
X0222242Y0009709D01*
X0223893Y0009709D01*
X0225418Y0010340D01*
X0226585Y0011508D01*
X0227217Y0013033D01*
X0227217Y0020589D01*
X0226585Y0022114D01*
X0225418Y0023282D01*
X0223893Y0023913D01*
X0225050Y0023434D02*
X0231085Y0023434D01*
X0230477Y0023042D02*
X0225658Y0023042D01*
X0226050Y0022650D02*
X0230085Y0022650D01*
X0229693Y0022257D02*
X0226442Y0022257D01*
X0226689Y0021865D02*
X0229446Y0021865D01*
X0229284Y0021473D02*
X0226851Y0021473D01*
X0227014Y0021081D02*
X0229122Y0021081D01*
X0228959Y0020688D02*
X0227176Y0020688D01*
X0227217Y0020296D02*
X0228918Y0020296D01*
X0228918Y0019904D02*
X0227217Y0019904D01*
X0227217Y0019512D02*
X0228918Y0019512D01*
X0228918Y0019120D02*
X0227217Y0019120D01*
X0227217Y0018727D02*
X0228918Y0018727D01*
X0228918Y0018335D02*
X0227217Y0018335D01*
X0227217Y0017943D02*
X0228918Y0017943D01*
X0228918Y0017551D02*
X0227217Y0017551D01*
X0227217Y0017159D02*
X0228918Y0017159D01*
X0228918Y0016766D02*
X0227217Y0016766D01*
X0227217Y0016374D02*
X0228918Y0016374D01*
X0228918Y0015982D02*
X0227217Y0015982D01*
X0227217Y0015590D02*
X0228918Y0015590D01*
X0228918Y0015198D02*
X0227217Y0015198D01*
X0227217Y0014805D02*
X0228918Y0014805D01*
X0228918Y0014413D02*
X0227217Y0014413D01*
X0227217Y0014021D02*
X0228918Y0014021D01*
X0228918Y0013629D02*
X0227217Y0013629D01*
X0227217Y0013236D02*
X0228918Y0013236D01*
X0228996Y0012844D02*
X0227139Y0012844D01*
X0226977Y0012452D02*
X0229159Y0012452D01*
X0229321Y0012060D02*
X0226814Y0012060D01*
X0226652Y0011668D02*
X0229483Y0011668D01*
X0229782Y0011275D02*
X0226353Y0011275D01*
X0225961Y0010883D02*
X0230174Y0010883D01*
X0230566Y0010491D02*
X0225569Y0010491D01*
X0224835Y0010099D02*
X0231300Y0010099D01*
X0221300Y0010099D02*
X0214835Y0010099D01*
X0215418Y0010340D02*
X0216585Y0011508D01*
X0217217Y0013033D01*
X0217217Y0020589D01*
X0216585Y0022114D01*
X0215418Y0023282D01*
X0213893Y0023913D01*
X0212242Y0023913D01*
X0210717Y0023282D01*
X0209550Y0022114D01*
X0208918Y0020589D01*
X0208918Y0013033D01*
X0209550Y0011508D01*
X0210717Y0010340D01*
X0212242Y0009709D01*
X0213893Y0009709D01*
X0215418Y0010340D01*
X0215569Y0010491D02*
X0220566Y0010491D01*
X0220174Y0010883D02*
X0215961Y0010883D01*
X0216353Y0011275D02*
X0219782Y0011275D01*
X0219483Y0011668D02*
X0216652Y0011668D01*
X0216814Y0012060D02*
X0219321Y0012060D01*
X0219159Y0012452D02*
X0216977Y0012452D01*
X0217139Y0012844D02*
X0218996Y0012844D01*
X0218918Y0013236D02*
X0217217Y0013236D01*
X0217217Y0013629D02*
X0218918Y0013629D01*
X0218918Y0014021D02*
X0217217Y0014021D01*
X0217217Y0014413D02*
X0218918Y0014413D01*
X0218918Y0014805D02*
X0217217Y0014805D01*
X0217217Y0015198D02*
X0218918Y0015198D01*
X0218918Y0015590D02*
X0217217Y0015590D01*
X0217217Y0015982D02*
X0218918Y0015982D01*
X0218918Y0016374D02*
X0217217Y0016374D01*
X0217217Y0016766D02*
X0218918Y0016766D01*
X0218918Y0017159D02*
X0217217Y0017159D01*
X0217217Y0017551D02*
X0218918Y0017551D01*
X0218918Y0017943D02*
X0217217Y0017943D01*
X0217217Y0018335D02*
X0218918Y0018335D01*
X0218918Y0018727D02*
X0217217Y0018727D01*
X0217217Y0019120D02*
X0218918Y0019120D01*
X0218918Y0019512D02*
X0217217Y0019512D01*
X0217217Y0019904D02*
X0218918Y0019904D01*
X0218918Y0020296D02*
X0217217Y0020296D01*
X0217176Y0020688D02*
X0218959Y0020688D01*
X0219122Y0021081D02*
X0217014Y0021081D01*
X0216851Y0021473D02*
X0219284Y0021473D01*
X0219446Y0021865D02*
X0216689Y0021865D01*
X0216442Y0022257D02*
X0219693Y0022257D01*
X0220085Y0022650D02*
X0216050Y0022650D01*
X0215658Y0023042D02*
X0220477Y0023042D01*
X0221085Y0023434D02*
X0215050Y0023434D01*
X0214103Y0023826D02*
X0222032Y0023826D01*
X0212032Y0023826D02*
X0183237Y0023826D01*
X0183027Y0023913D02*
X0181376Y0023913D01*
X0179851Y0023282D01*
X0178684Y0022114D01*
X0178052Y0020589D01*
X0178052Y0013033D01*
X0178684Y0011508D01*
X0179851Y0010340D01*
X0181376Y0009709D01*
X0183027Y0009709D01*
X0184552Y0010340D01*
X0185719Y0011508D01*
X0186351Y0013033D01*
X0186351Y0020589D01*
X0185719Y0022114D01*
X0184552Y0023282D01*
X0183027Y0023913D01*
X0184184Y0023434D02*
X0211085Y0023434D01*
X0210477Y0023042D02*
X0184792Y0023042D01*
X0185184Y0022650D02*
X0210085Y0022650D01*
X0209693Y0022257D02*
X0185576Y0022257D01*
X0185823Y0021865D02*
X0209446Y0021865D01*
X0209284Y0021473D02*
X0185985Y0021473D01*
X0186147Y0021081D02*
X0209122Y0021081D01*
X0208959Y0020688D02*
X0186310Y0020688D01*
X0186351Y0020296D02*
X0208918Y0020296D01*
X0208918Y0019904D02*
X0186351Y0019904D01*
X0186351Y0019512D02*
X0208918Y0019512D01*
X0208918Y0019120D02*
X0186351Y0019120D01*
X0186351Y0018727D02*
X0208918Y0018727D01*
X0208918Y0018335D02*
X0186351Y0018335D01*
X0186351Y0017943D02*
X0208918Y0017943D01*
X0208918Y0017551D02*
X0186351Y0017551D01*
X0186351Y0017159D02*
X0208918Y0017159D01*
X0208918Y0016766D02*
X0186351Y0016766D01*
X0186351Y0016374D02*
X0208918Y0016374D01*
X0208918Y0015982D02*
X0186351Y0015982D01*
X0186351Y0015590D02*
X0208918Y0015590D01*
X0208918Y0015198D02*
X0186351Y0015198D01*
X0186351Y0014805D02*
X0208918Y0014805D01*
X0208918Y0014413D02*
X0186351Y0014413D01*
X0186351Y0014021D02*
X0208918Y0014021D01*
X0208918Y0013629D02*
X0186351Y0013629D01*
X0186351Y0013236D02*
X0208918Y0013236D01*
X0208996Y0012844D02*
X0186273Y0012844D01*
X0186110Y0012452D02*
X0209159Y0012452D01*
X0209321Y0012060D02*
X0185948Y0012060D01*
X0185786Y0011668D02*
X0209483Y0011668D01*
X0209782Y0011275D02*
X0185487Y0011275D01*
X0185095Y0010883D02*
X0210174Y0010883D01*
X0210566Y0010491D02*
X0184703Y0010491D01*
X0183969Y0010099D02*
X0211300Y0010099D01*
X0180434Y0010099D02*
X0173969Y0010099D01*
X0174552Y0010340D02*
X0175719Y0011508D01*
X0176351Y0013033D01*
X0176351Y0020589D01*
X0175719Y0022114D01*
X0174552Y0023282D01*
X0173027Y0023913D01*
X0171376Y0023913D01*
X0169851Y0023282D01*
X0168684Y0022114D01*
X0168052Y0020589D01*
X0168052Y0013033D01*
X0168684Y0011508D01*
X0169851Y0010340D01*
X0171376Y0009709D01*
X0173027Y0009709D01*
X0174552Y0010340D01*
X0174703Y0010491D02*
X0179700Y0010491D01*
X0179308Y0010883D02*
X0175095Y0010883D01*
X0175487Y0011275D02*
X0178916Y0011275D01*
X0178617Y0011668D02*
X0175786Y0011668D01*
X0175948Y0012060D02*
X0178455Y0012060D01*
X0178292Y0012452D02*
X0176110Y0012452D01*
X0176273Y0012844D02*
X0178130Y0012844D01*
X0178052Y0013236D02*
X0176351Y0013236D01*
X0176351Y0013629D02*
X0178052Y0013629D01*
X0178052Y0014021D02*
X0176351Y0014021D01*
X0176351Y0014413D02*
X0178052Y0014413D01*
X0178052Y0014805D02*
X0176351Y0014805D01*
X0176351Y0015198D02*
X0178052Y0015198D01*
X0178052Y0015590D02*
X0176351Y0015590D01*
X0176351Y0015982D02*
X0178052Y0015982D01*
X0178052Y0016374D02*
X0176351Y0016374D01*
X0176351Y0016766D02*
X0178052Y0016766D01*
X0178052Y0017159D02*
X0176351Y0017159D01*
X0176351Y0017551D02*
X0178052Y0017551D01*
X0178052Y0017943D02*
X0176351Y0017943D01*
X0176351Y0018335D02*
X0178052Y0018335D01*
X0178052Y0018727D02*
X0176351Y0018727D01*
X0176351Y0019120D02*
X0178052Y0019120D01*
X0178052Y0019512D02*
X0176351Y0019512D01*
X0176351Y0019904D02*
X0178052Y0019904D01*
X0178052Y0020296D02*
X0176351Y0020296D01*
X0176310Y0020688D02*
X0178093Y0020688D01*
X0178255Y0021081D02*
X0176147Y0021081D01*
X0175985Y0021473D02*
X0178418Y0021473D01*
X0178580Y0021865D02*
X0175823Y0021865D01*
X0175576Y0022257D02*
X0178827Y0022257D01*
X0179219Y0022650D02*
X0175184Y0022650D01*
X0174792Y0023042D02*
X0179611Y0023042D01*
X0180219Y0023434D02*
X0174184Y0023434D01*
X0173237Y0023826D02*
X0181166Y0023826D01*
X0171166Y0023826D02*
X0163237Y0023826D01*
X0164184Y0023434D02*
X0170219Y0023434D01*
X0169611Y0023042D02*
X0164792Y0023042D01*
X0165184Y0022650D02*
X0169219Y0022650D01*
X0168827Y0022257D02*
X0165576Y0022257D01*
X0165823Y0021865D02*
X0168580Y0021865D01*
X0168418Y0021473D02*
X0165985Y0021473D01*
X0166147Y0021081D02*
X0168255Y0021081D01*
X0168093Y0020688D02*
X0166310Y0020688D01*
X0166351Y0020296D02*
X0168052Y0020296D01*
X0168052Y0019904D02*
X0166351Y0019904D01*
X0166351Y0019512D02*
X0168052Y0019512D01*
X0168052Y0019120D02*
X0166351Y0019120D01*
X0166351Y0018727D02*
X0168052Y0018727D01*
X0168052Y0018335D02*
X0166351Y0018335D01*
X0166351Y0017943D02*
X0168052Y0017943D01*
X0168052Y0017551D02*
X0166351Y0017551D01*
X0166351Y0017159D02*
X0168052Y0017159D01*
X0168052Y0016766D02*
X0166351Y0016766D01*
X0166351Y0016374D02*
X0168052Y0016374D01*
X0168052Y0015982D02*
X0166351Y0015982D01*
X0166351Y0015590D02*
X0168052Y0015590D01*
X0168052Y0015198D02*
X0166351Y0015198D01*
X0166351Y0014805D02*
X0168052Y0014805D01*
X0168052Y0014413D02*
X0166351Y0014413D01*
X0166351Y0014021D02*
X0168052Y0014021D01*
X0168052Y0013629D02*
X0166351Y0013629D01*
X0166351Y0013236D02*
X0168052Y0013236D01*
X0168130Y0012844D02*
X0166273Y0012844D01*
X0166110Y0012452D02*
X0168292Y0012452D01*
X0168455Y0012060D02*
X0165948Y0012060D01*
X0165786Y0011668D02*
X0168617Y0011668D01*
X0168916Y0011275D02*
X0165487Y0011275D01*
X0165095Y0010883D02*
X0169308Y0010883D01*
X0169700Y0010491D02*
X0164703Y0010491D01*
X0163969Y0010099D02*
X0170434Y0010099D01*
X0256848Y0054027D02*
X0028989Y0054027D01*
X0028989Y0054419D02*
X0256848Y0054419D01*
X0256848Y0054811D02*
X0028989Y0054811D01*
X0028989Y0055203D02*
X0256848Y0055203D01*
X0256848Y0055595D02*
X0028989Y0055595D01*
X0028989Y0055988D02*
X0256848Y0055988D01*
X0256848Y0056380D02*
X0028989Y0056380D01*
X0028989Y0056772D02*
X0256848Y0056772D01*
X0256848Y0057164D02*
X0028989Y0057164D01*
X0028989Y0057556D02*
X0256848Y0057556D01*
X0256848Y0057949D02*
X0028989Y0057949D01*
X0028989Y0058341D02*
X0256848Y0058341D01*
X0256848Y0058733D02*
X0028989Y0058733D01*
X0028989Y0059125D02*
X0129430Y0059125D01*
X0128483Y0059517D02*
X0028989Y0059517D01*
X0028989Y0059910D02*
X0127536Y0059910D01*
X0127013Y0060302D02*
X0028989Y0060302D01*
X0028989Y0060694D02*
X0126621Y0060694D01*
X0126228Y0061086D02*
X0028989Y0061086D01*
X0028989Y0061479D02*
X0125836Y0061479D01*
X0125444Y0061871D02*
X0028989Y0061871D01*
X0028989Y0062263D02*
X0125205Y0062263D01*
X0125043Y0062655D02*
X0028989Y0062655D01*
X0028989Y0063047D02*
X0124881Y0063047D01*
X0124718Y0063440D02*
X0028989Y0063440D01*
X0028989Y0063832D02*
X0124556Y0063832D01*
X0124393Y0064224D02*
X0028989Y0064224D01*
X0028989Y0064616D02*
X0124233Y0064616D01*
X0124233Y0065008D02*
X0028989Y0065008D01*
X0028989Y0065401D02*
X0124233Y0065401D01*
X0124233Y0065793D02*
X0028989Y0065793D01*
X0028989Y0066185D02*
X0124233Y0066185D01*
X0124233Y0066577D02*
X0028989Y0066577D01*
X0028989Y0066970D02*
X0124233Y0066970D01*
X0124233Y0067362D02*
X0028989Y0067362D01*
X0028989Y0067754D02*
X0124233Y0067754D01*
X0124233Y0068146D02*
X0028989Y0068146D01*
X0028989Y0068538D02*
X0124233Y0068538D01*
X0124233Y0068931D02*
X0028989Y0068931D01*
X0028989Y0069323D02*
X0124233Y0069323D01*
X0124233Y0069715D02*
X0028989Y0069715D01*
X0028989Y0070107D02*
X0124233Y0070107D01*
X0124233Y0070499D02*
X0028989Y0070499D01*
X0028989Y0070892D02*
X0124233Y0070892D01*
X0124233Y0071284D02*
X0028989Y0071284D01*
X0028989Y0071676D02*
X0124233Y0071676D01*
X0124233Y0072068D02*
X0028989Y0072068D01*
X0028989Y0072460D02*
X0124233Y0072460D01*
X0124233Y0072853D02*
X0028989Y0072853D01*
X0028989Y0073245D02*
X0124233Y0073245D01*
X0124233Y0073637D02*
X0028989Y0073637D01*
X0028989Y0074029D02*
X0124233Y0074029D01*
X0124233Y0074422D02*
X0028989Y0074422D01*
X0028989Y0074814D02*
X0124233Y0074814D01*
X0124233Y0075206D02*
X0028989Y0075206D01*
X0028989Y0075598D02*
X0124233Y0075598D01*
X0124233Y0075990D02*
X0028989Y0075990D01*
X0028989Y0076383D02*
X0124233Y0076383D01*
X0124233Y0076775D02*
X0028989Y0076775D01*
X0028989Y0077167D02*
X0124233Y0077167D01*
X0124233Y0077559D02*
X0028989Y0077559D01*
X0028989Y0077951D02*
X0124233Y0077951D01*
X0124233Y0078344D02*
X0028989Y0078344D01*
X0028989Y0078736D02*
X0124233Y0078736D01*
X0124233Y0079128D02*
X0028989Y0079128D01*
X0028989Y0079520D02*
X0124346Y0079520D01*
X0124508Y0079913D02*
X0028989Y0079913D01*
X0028989Y0080305D02*
X0045283Y0080305D01*
X0045406Y0080181D02*
X0053091Y0080181D01*
X0053792Y0080882D01*
X0053792Y0088567D01*
X0053091Y0089268D01*
X0045406Y0089268D01*
X0044705Y0088567D01*
X0044705Y0080882D01*
X0045406Y0080181D01*
X0044891Y0080697D02*
X0028989Y0080697D01*
X0028989Y0081089D02*
X0044705Y0081089D01*
X0044705Y0081481D02*
X0028989Y0081481D01*
X0028989Y0081874D02*
X0044705Y0081874D01*
X0044705Y0082266D02*
X0028989Y0082266D01*
X0028989Y0082658D02*
X0044705Y0082658D01*
X0044705Y0083050D02*
X0028989Y0083050D01*
X0028989Y0083442D02*
X0044705Y0083442D01*
X0044705Y0083835D02*
X0028989Y0083835D01*
X0028989Y0084227D02*
X0044705Y0084227D01*
X0044705Y0084619D02*
X0028989Y0084619D01*
X0028989Y0085011D02*
X0044705Y0085011D01*
X0044705Y0085403D02*
X0028989Y0085403D01*
X0028989Y0085796D02*
X0044705Y0085796D01*
X0044705Y0086188D02*
X0028989Y0086188D01*
X0028989Y0086580D02*
X0044705Y0086580D01*
X0044705Y0086972D02*
X0028989Y0086972D01*
X0028989Y0087365D02*
X0044705Y0087365D01*
X0044705Y0087757D02*
X0028989Y0087757D01*
X0028989Y0088149D02*
X0044705Y0088149D01*
X0044705Y0088541D02*
X0028989Y0088541D01*
X0028989Y0088933D02*
X0045072Y0088933D01*
X0053425Y0088933D02*
X0064757Y0088933D01*
X0065092Y0089268D02*
X0064390Y0088567D01*
X0064390Y0080882D01*
X0065092Y0080181D01*
X0072776Y0080181D01*
X0073477Y0080882D01*
X0073477Y0088567D01*
X0072776Y0089268D01*
X0065092Y0089268D01*
X0064390Y0088541D02*
X0053792Y0088541D01*
X0053792Y0088149D02*
X0064390Y0088149D01*
X0064390Y0087757D02*
X0053792Y0087757D01*
X0053792Y0087365D02*
X0064390Y0087365D01*
X0064390Y0086972D02*
X0053792Y0086972D01*
X0053792Y0086580D02*
X0064390Y0086580D01*
X0064390Y0086188D02*
X0053792Y0086188D01*
X0053792Y0085796D02*
X0064390Y0085796D01*
X0064390Y0085403D02*
X0053792Y0085403D01*
X0053792Y0085011D02*
X0064390Y0085011D01*
X0064390Y0084619D02*
X0053792Y0084619D01*
X0053792Y0084227D02*
X0064390Y0084227D01*
X0064390Y0083835D02*
X0053792Y0083835D01*
X0053792Y0083442D02*
X0064390Y0083442D01*
X0064390Y0083050D02*
X0053792Y0083050D01*
X0053792Y0082658D02*
X0064390Y0082658D01*
X0064390Y0082266D02*
X0053792Y0082266D01*
X0053792Y0081874D02*
X0064390Y0081874D01*
X0064390Y0081481D02*
X0053792Y0081481D01*
X0053792Y0081089D02*
X0064390Y0081089D01*
X0064576Y0080697D02*
X0053607Y0080697D01*
X0053215Y0080305D02*
X0064968Y0080305D01*
X0072900Y0080305D02*
X0124671Y0080305D01*
X0124833Y0080697D02*
X0073292Y0080697D01*
X0073477Y0081089D02*
X0124996Y0081089D01*
X0125158Y0081481D02*
X0073477Y0081481D01*
X0073477Y0081874D02*
X0125330Y0081874D01*
X0125722Y0082266D02*
X0073477Y0082266D01*
X0073477Y0082658D02*
X0126114Y0082658D01*
X0126507Y0083050D02*
X0073477Y0083050D01*
X0073477Y0083442D02*
X0126899Y0083442D01*
X0127291Y0083835D02*
X0073477Y0083835D01*
X0073477Y0084227D02*
X0128208Y0084227D01*
X0129155Y0084619D02*
X0073477Y0084619D01*
X0073477Y0085011D02*
X0141570Y0085011D01*
X0141654Y0085214D02*
X0141261Y0084264D01*
X0141261Y0083236D01*
X0141654Y0082286D01*
X0142381Y0081559D01*
X0143331Y0081166D01*
X0144359Y0081166D01*
X0145309Y0081559D01*
X0145703Y0081953D01*
X0151987Y0081953D01*
X0152381Y0081559D01*
X0153331Y0081166D01*
X0154359Y0081166D01*
X0155309Y0081559D01*
X0156036Y0082286D01*
X0156429Y0083236D01*
X0156429Y0084264D01*
X0156036Y0085214D01*
X0155309Y0085941D01*
X0154359Y0086334D01*
X0153331Y0086334D01*
X0152381Y0085941D01*
X0151987Y0085547D01*
X0145703Y0085547D01*
X0145309Y0085941D01*
X0144359Y0086334D01*
X0143331Y0086334D01*
X0142381Y0085941D01*
X0141654Y0085214D01*
X0141844Y0085403D02*
X0073477Y0085403D01*
X0073477Y0085796D02*
X0142236Y0085796D01*
X0142978Y0086188D02*
X0073477Y0086188D01*
X0073477Y0086580D02*
X0159348Y0086580D01*
X0159348Y0086188D02*
X0154712Y0086188D01*
X0155454Y0085796D02*
X0159348Y0085796D01*
X0159348Y0085403D02*
X0155846Y0085403D01*
X0156120Y0085011D02*
X0159348Y0085011D01*
X0159348Y0084619D02*
X0156282Y0084619D01*
X0156429Y0084227D02*
X0159348Y0084227D01*
X0159348Y0083835D02*
X0156429Y0083835D01*
X0156429Y0083442D02*
X0159348Y0083442D01*
X0159348Y0083050D02*
X0156352Y0083050D01*
X0156190Y0082658D02*
X0159348Y0082658D01*
X0159348Y0082266D02*
X0156016Y0082266D01*
X0155623Y0081874D02*
X0159348Y0081874D01*
X0159348Y0081481D02*
X0155121Y0081481D01*
X0152569Y0081481D02*
X0145121Y0081481D01*
X0145623Y0081874D02*
X0152067Y0081874D01*
X0152236Y0085796D02*
X0145454Y0085796D01*
X0144712Y0086188D02*
X0152978Y0086188D01*
X0159348Y0086972D02*
X0073477Y0086972D01*
X0073477Y0087365D02*
X0159348Y0087365D01*
X0159348Y0087757D02*
X0073477Y0087757D01*
X0073477Y0088149D02*
X0159348Y0088149D01*
X0159348Y0088541D02*
X0073477Y0088541D01*
X0073110Y0088933D02*
X0130185Y0088933D01*
X0129881Y0089059D02*
X0130831Y0088666D01*
X0131859Y0088666D01*
X0132809Y0089059D01*
X0133536Y0089786D01*
X0133929Y0090736D01*
X0133929Y0091293D01*
X0138802Y0096166D01*
X0139359Y0096166D01*
X0140309Y0096559D01*
X0141036Y0097286D01*
X0141429Y0098236D01*
X0141429Y0099264D01*
X0141036Y0100214D01*
X0140309Y0100941D01*
X0139359Y0101334D01*
X0138331Y0101334D01*
X0137381Y0100941D01*
X0136654Y0100214D01*
X0136261Y0099264D01*
X0136261Y0098707D01*
X0131388Y0093834D01*
X0130831Y0093834D01*
X0129881Y0093441D01*
X0129154Y0092714D01*
X0128761Y0091764D01*
X0128761Y0090736D01*
X0129154Y0089786D01*
X0129881Y0089059D01*
X0129615Y0089326D02*
X0028989Y0089326D01*
X0028989Y0089718D02*
X0129223Y0089718D01*
X0129020Y0090110D02*
X0028989Y0090110D01*
X0028989Y0090502D02*
X0128858Y0090502D01*
X0128761Y0090894D02*
X0028989Y0090894D01*
X0028989Y0091287D02*
X0128761Y0091287D01*
X0128761Y0091679D02*
X0028989Y0091679D01*
X0028989Y0092071D02*
X0128888Y0092071D01*
X0129051Y0092463D02*
X0028989Y0092463D01*
X0028989Y0092856D02*
X0129296Y0092856D01*
X0129688Y0093248D02*
X0028989Y0093248D01*
X0028989Y0093640D02*
X0130362Y0093640D01*
X0131586Y0094032D02*
X0028989Y0094032D01*
X0028989Y0094424D02*
X0131978Y0094424D01*
X0132371Y0094817D02*
X0028989Y0094817D01*
X0028989Y0095209D02*
X0094426Y0095209D01*
X0094683Y0095102D02*
X0102239Y0095102D01*
X0103765Y0095734D01*
X0104932Y0096901D01*
X0105564Y0098427D01*
X0105564Y0100077D01*
X0104932Y0101603D01*
X0103765Y0102770D01*
X0102239Y0103402D01*
X0094683Y0103402D01*
X0093158Y0102770D01*
X0091991Y0101603D01*
X0091359Y0100077D01*
X0091359Y0098427D01*
X0091991Y0096901D01*
X0093158Y0095734D01*
X0094683Y0095102D01*
X0093479Y0095601D02*
X0028989Y0095601D01*
X0028989Y0095993D02*
X0092899Y0095993D01*
X0092507Y0096385D02*
X0028989Y0096385D01*
X0028989Y0096778D02*
X0092114Y0096778D01*
X0091879Y0097170D02*
X0028989Y0097170D01*
X0028989Y0097562D02*
X0091717Y0097562D01*
X0091555Y0097954D02*
X0028989Y0097954D01*
X0028989Y0098346D02*
X0091392Y0098346D01*
X0091359Y0098739D02*
X0028989Y0098739D01*
X0028989Y0099131D02*
X0091359Y0099131D01*
X0091359Y0099523D02*
X0028989Y0099523D01*
X0028989Y0099915D02*
X0091359Y0099915D01*
X0091454Y0100308D02*
X0028989Y0100308D01*
X0028989Y0100700D02*
X0091617Y0100700D01*
X0091779Y0101092D02*
X0028989Y0101092D01*
X0028989Y0101484D02*
X0091942Y0101484D01*
X0092265Y0101876D02*
X0028989Y0101876D01*
X0028989Y0102269D02*
X0092657Y0102269D01*
X0093049Y0102661D02*
X0028989Y0102661D01*
X0028989Y0103053D02*
X0093842Y0103053D01*
X0094683Y0105102D02*
X0093158Y0105734D01*
X0091991Y0106901D01*
X0091359Y0108427D01*
X0091359Y0110077D01*
X0091991Y0111603D01*
X0093158Y0112770D01*
X0094683Y0113402D01*
X0102239Y0113402D01*
X0103765Y0112770D01*
X0104932Y0111603D01*
X0105564Y0110077D01*
X0105564Y0108427D01*
X0104932Y0106901D01*
X0103765Y0105734D01*
X0102239Y0105102D01*
X0094683Y0105102D01*
X0093949Y0105406D02*
X0028989Y0105406D01*
X0028989Y0105014D02*
X0212148Y0105014D01*
X0211756Y0104622D02*
X0028989Y0104622D01*
X0028989Y0104230D02*
X0165251Y0104230D01*
X0164859Y0103837D02*
X0028989Y0103837D01*
X0028989Y0103445D02*
X0164466Y0103445D01*
X0164074Y0103053D02*
X0103081Y0103053D01*
X0103874Y0102661D02*
X0163682Y0102661D01*
X0163290Y0102269D02*
X0104266Y0102269D01*
X0104658Y0101876D02*
X0162898Y0101876D01*
X0162505Y0101484D02*
X0104981Y0101484D01*
X0105143Y0101092D02*
X0137746Y0101092D01*
X0137140Y0100700D02*
X0105306Y0100700D01*
X0105468Y0100308D02*
X0136748Y0100308D01*
X0136531Y0099915D02*
X0105564Y0099915D01*
X0105564Y0099523D02*
X0136368Y0099523D01*
X0136261Y0099131D02*
X0105564Y0099131D01*
X0105564Y0098739D02*
X0136261Y0098739D01*
X0135900Y0098346D02*
X0105530Y0098346D01*
X0105368Y0097954D02*
X0135508Y0097954D01*
X0135116Y0097562D02*
X0105206Y0097562D01*
X0105043Y0097170D02*
X0134724Y0097170D01*
X0134332Y0096778D02*
X0104808Y0096778D01*
X0104416Y0096385D02*
X0133939Y0096385D01*
X0133547Y0095993D02*
X0104024Y0095993D01*
X0103443Y0095601D02*
X0133155Y0095601D01*
X0132763Y0095209D02*
X0102496Y0095209D01*
X0102973Y0105406D02*
X0213080Y0105406D01*
X0214610Y0105406D02*
X0419902Y0105406D01*
X0419902Y0105014D02*
X0215543Y0105014D01*
X0215935Y0104622D02*
X0419902Y0104622D01*
X0419902Y0104230D02*
X0216327Y0104230D01*
X0216514Y0103837D02*
X0419902Y0103837D01*
X0419902Y0103445D02*
X0216677Y0103445D01*
X0216823Y0103053D02*
X0419902Y0103053D01*
X0419902Y0102661D02*
X0216823Y0102661D01*
X0216823Y0102269D02*
X0419902Y0102269D01*
X0419902Y0101876D02*
X0216810Y0101876D01*
X0216648Y0101484D02*
X0419902Y0101484D01*
X0419902Y0101092D02*
X0216485Y0101092D01*
X0216256Y0100700D02*
X0419902Y0100700D01*
X0419902Y0100308D02*
X0215864Y0100308D01*
X0215842Y0099915D02*
X0419902Y0099915D01*
X0419902Y0099523D02*
X0215842Y0099523D01*
X0215842Y0099131D02*
X0419902Y0099131D01*
X0419902Y0098739D02*
X0215842Y0098739D01*
X0215842Y0098346D02*
X0419902Y0098346D01*
X0419902Y0097954D02*
X0215842Y0097954D01*
X0215842Y0097562D02*
X0419902Y0097562D01*
X0419902Y0097170D02*
X0215842Y0097170D01*
X0215842Y0096778D02*
X0419902Y0096778D01*
X0419902Y0096385D02*
X0215842Y0096385D01*
X0215842Y0095993D02*
X0419902Y0095993D01*
X0419902Y0095601D02*
X0215842Y0095601D01*
X0215842Y0095209D02*
X0419902Y0095209D01*
X0419902Y0094817D02*
X0215842Y0094817D01*
X0215842Y0094424D02*
X0419902Y0094424D01*
X0419902Y0094032D02*
X0215842Y0094032D01*
X0215842Y0093640D02*
X0419902Y0093640D01*
X0419902Y0093248D02*
X0215842Y0093248D01*
X0215842Y0092856D02*
X0419902Y0092856D01*
X0419902Y0092463D02*
X0215842Y0092463D01*
X0215842Y0092071D02*
X0419902Y0092071D01*
X0419902Y0091679D02*
X0215842Y0091679D01*
X0215842Y0091287D02*
X0419902Y0091287D01*
X0419902Y0090894D02*
X0215842Y0090894D01*
X0215842Y0090502D02*
X0419902Y0090502D01*
X0419902Y0090110D02*
X0215842Y0090110D01*
X0215842Y0089718D02*
X0419902Y0089718D01*
X0419902Y0105799D02*
X0103829Y0105799D01*
X0104221Y0106191D02*
X0419902Y0106191D01*
X0419902Y0106583D02*
X0104613Y0106583D01*
X0104962Y0106975D02*
X0419902Y0106975D01*
X0419902Y0107367D02*
X0105125Y0107367D01*
X0105287Y0107760D02*
X0419902Y0107760D01*
X0419902Y0108152D02*
X0105450Y0108152D01*
X0105564Y0108544D02*
X0419902Y0108544D01*
X0419902Y0108936D02*
X0105564Y0108936D01*
X0105564Y0109328D02*
X0419902Y0109328D01*
X0419902Y0109721D02*
X0105564Y0109721D01*
X0105549Y0110113D02*
X0419902Y0110113D01*
X0419902Y0110505D02*
X0105386Y0110505D01*
X0105224Y0110897D02*
X0419902Y0110897D01*
X0419902Y0111289D02*
X0105062Y0111289D01*
X0104853Y0111682D02*
X0419902Y0111682D01*
X0419902Y0112074D02*
X0104461Y0112074D01*
X0104068Y0112466D02*
X0419902Y0112466D01*
X0419902Y0112858D02*
X0103551Y0112858D01*
X0102604Y0113251D02*
X0419902Y0113251D01*
X0419902Y0113643D02*
X0028989Y0113643D01*
X0028989Y0114035D02*
X0419902Y0114035D01*
X0419902Y0114427D02*
X0028989Y0114427D01*
X0028989Y0114819D02*
X0419902Y0114819D01*
X0419902Y0115212D02*
X0102503Y0115212D01*
X0102239Y0115102D02*
X0103765Y0115734D01*
X0104932Y0116901D01*
X0105564Y0118427D01*
X0105564Y0120077D01*
X0104932Y0121603D01*
X0103765Y0122770D01*
X0102239Y0123402D01*
X0094683Y0123402D01*
X0093158Y0122770D01*
X0091991Y0121603D01*
X0091359Y0120077D01*
X0091359Y0118427D01*
X0091991Y0116901D01*
X0093158Y0115734D01*
X0094683Y0115102D01*
X0102239Y0115102D01*
X0103450Y0115604D02*
X0419902Y0115604D01*
X0419902Y0115996D02*
X0104027Y0115996D01*
X0104419Y0116388D02*
X0419902Y0116388D01*
X0419902Y0116780D02*
X0104811Y0116780D01*
X0105044Y0117173D02*
X0419902Y0117173D01*
X0419902Y0117565D02*
X0105207Y0117565D01*
X0105369Y0117957D02*
X0419902Y0117957D01*
X0419902Y0118349D02*
X0133648Y0118349D01*
X0132748Y0117976D02*
X0135358Y0119058D01*
X0137356Y0121056D01*
X0138438Y0123666D01*
X0138438Y0138303D01*
X0137356Y0140913D01*
X0135358Y0142911D01*
X0132748Y0143992D01*
X0129923Y0143992D01*
X0127312Y0142911D01*
X0125314Y0140913D01*
X0124233Y0138303D01*
X0124233Y0123666D01*
X0125314Y0121056D01*
X0127312Y0119058D01*
X0129923Y0117976D01*
X0132748Y0117976D01*
X0134595Y0118742D02*
X0290006Y0118742D01*
X0289696Y0119051D02*
X0290397Y0118350D01*
X0297294Y0118350D01*
X0297995Y0119051D01*
X0297995Y0125948D01*
X0297294Y0126650D01*
X0290397Y0126650D01*
X0289696Y0125948D01*
X0289696Y0119051D01*
X0289696Y0119134D02*
X0135435Y0119134D01*
X0135827Y0119526D02*
X0289696Y0119526D01*
X0289696Y0119918D02*
X0136219Y0119918D01*
X0136611Y0120310D02*
X0289696Y0120310D01*
X0289696Y0120703D02*
X0137003Y0120703D01*
X0137373Y0121095D02*
X0289696Y0121095D01*
X0289696Y0121487D02*
X0137535Y0121487D01*
X0137698Y0121879D02*
X0289696Y0121879D01*
X0289696Y0122271D02*
X0137860Y0122271D01*
X0138022Y0122664D02*
X0289696Y0122664D01*
X0289696Y0123056D02*
X0138185Y0123056D01*
X0138347Y0123448D02*
X0289696Y0123448D01*
X0289696Y0123840D02*
X0138438Y0123840D01*
X0138438Y0124232D02*
X0289696Y0124232D01*
X0289696Y0124625D02*
X0138438Y0124625D01*
X0138438Y0125017D02*
X0289696Y0125017D01*
X0289696Y0125409D02*
X0138438Y0125409D01*
X0138438Y0125801D02*
X0289696Y0125801D01*
X0289941Y0126194D02*
X0138438Y0126194D01*
X0138438Y0126586D02*
X0290333Y0126586D01*
X0297357Y0126586D02*
X0419902Y0126586D01*
X0419902Y0126978D02*
X0138438Y0126978D01*
X0138438Y0127370D02*
X0243877Y0127370D01*
X0244147Y0127100D02*
X0251044Y0127100D01*
X0251745Y0127801D01*
X0251745Y0134698D01*
X0251044Y0135400D01*
X0244147Y0135400D01*
X0243446Y0134698D01*
X0243446Y0127801D01*
X0244147Y0127100D01*
X0243485Y0127762D02*
X0138438Y0127762D01*
X0138438Y0128155D02*
X0243446Y0128155D01*
X0243446Y0128547D02*
X0138438Y0128547D01*
X0138438Y0128939D02*
X0243446Y0128939D01*
X0243446Y0129331D02*
X0138438Y0129331D01*
X0138438Y0129723D02*
X0243446Y0129723D01*
X0243446Y0130116D02*
X0138438Y0130116D01*
X0138438Y0130508D02*
X0243446Y0130508D01*
X0243446Y0130900D02*
X0138438Y0130900D01*
X0138438Y0131292D02*
X0243446Y0131292D01*
X0243446Y0131685D02*
X0138438Y0131685D01*
X0138438Y0132077D02*
X0243446Y0132077D01*
X0243446Y0132469D02*
X0138438Y0132469D01*
X0138438Y0132861D02*
X0243446Y0132861D01*
X0243446Y0133253D02*
X0138438Y0133253D01*
X0138438Y0133646D02*
X0243446Y0133646D01*
X0243446Y0134038D02*
X0138438Y0134038D01*
X0138438Y0134430D02*
X0243446Y0134430D01*
X0243569Y0134822D02*
X0138438Y0134822D01*
X0138438Y0135214D02*
X0243961Y0135214D01*
X0251229Y0135214D02*
X0419902Y0135214D01*
X0419902Y0134822D02*
X0251621Y0134822D01*
X0251745Y0134430D02*
X0419902Y0134430D01*
X0419902Y0134038D02*
X0251745Y0134038D01*
X0251745Y0133646D02*
X0419902Y0133646D01*
X0419902Y0133253D02*
X0251745Y0133253D01*
X0251745Y0132861D02*
X0419902Y0132861D01*
X0419902Y0132469D02*
X0251745Y0132469D01*
X0251745Y0132077D02*
X0419902Y0132077D01*
X0419902Y0131685D02*
X0251745Y0131685D01*
X0251745Y0131292D02*
X0419902Y0131292D01*
X0419902Y0130900D02*
X0251745Y0130900D01*
X0251745Y0130508D02*
X0419902Y0130508D01*
X0419902Y0130116D02*
X0251745Y0130116D01*
X0251745Y0129723D02*
X0419902Y0129723D01*
X0419902Y0129331D02*
X0251745Y0129331D01*
X0251745Y0128939D02*
X0419902Y0128939D01*
X0419902Y0128547D02*
X0251745Y0128547D01*
X0251745Y0128155D02*
X0419902Y0128155D01*
X0419902Y0127762D02*
X0251706Y0127762D01*
X0251313Y0127370D02*
X0419902Y0127370D01*
X0419902Y0126194D02*
X0297750Y0126194D01*
X0297995Y0125801D02*
X0419902Y0125801D01*
X0419902Y0125409D02*
X0297995Y0125409D01*
X0297995Y0125017D02*
X0419902Y0125017D01*
X0419902Y0124625D02*
X0297995Y0124625D01*
X0297995Y0124232D02*
X0419902Y0124232D01*
X0419902Y0123840D02*
X0297995Y0123840D01*
X0297995Y0123448D02*
X0419902Y0123448D01*
X0419902Y0123056D02*
X0297995Y0123056D01*
X0297995Y0122664D02*
X0419902Y0122664D01*
X0419902Y0122271D02*
X0297995Y0122271D01*
X0297995Y0121879D02*
X0419902Y0121879D01*
X0419902Y0121487D02*
X0297995Y0121487D01*
X0297995Y0121095D02*
X0419902Y0121095D01*
X0419902Y0120703D02*
X0297995Y0120703D01*
X0297995Y0120310D02*
X0419902Y0120310D01*
X0419902Y0119918D02*
X0297995Y0119918D01*
X0297995Y0119526D02*
X0419902Y0119526D01*
X0419902Y0119134D02*
X0297995Y0119134D01*
X0297685Y0118742D02*
X0419902Y0118742D01*
X0419902Y0135607D02*
X0138438Y0135607D01*
X0138438Y0135999D02*
X0419902Y0135999D01*
X0419902Y0136391D02*
X0138438Y0136391D01*
X0138438Y0136783D02*
X0419902Y0136783D01*
X0419902Y0137175D02*
X0138438Y0137175D01*
X0138438Y0137568D02*
X0419902Y0137568D01*
X0419902Y0137960D02*
X0138438Y0137960D01*
X0138417Y0138352D02*
X0419902Y0138352D01*
X0419902Y0138744D02*
X0138255Y0138744D01*
X0138092Y0139137D02*
X0419902Y0139137D01*
X0419902Y0139529D02*
X0137930Y0139529D01*
X0137767Y0139921D02*
X0419902Y0139921D01*
X0419902Y0140313D02*
X0137605Y0140313D01*
X0137442Y0140705D02*
X0419902Y0140705D01*
X0419902Y0141098D02*
X0137172Y0141098D01*
X0136779Y0141490D02*
X0419902Y0141490D01*
X0419902Y0141882D02*
X0136387Y0141882D01*
X0135995Y0142274D02*
X0419902Y0142274D01*
X0419902Y0142666D02*
X0135603Y0142666D01*
X0135002Y0143059D02*
X0419902Y0143059D01*
X0419902Y0143451D02*
X0134055Y0143451D01*
X0133108Y0143843D02*
X0419902Y0143843D01*
X0419902Y0144235D02*
X0073477Y0144235D01*
X0073477Y0143843D02*
X0129563Y0143843D01*
X0128616Y0143451D02*
X0073477Y0143451D01*
X0073477Y0143059D02*
X0127669Y0143059D01*
X0127068Y0142666D02*
X0073477Y0142666D01*
X0073477Y0142274D02*
X0126676Y0142274D01*
X0126283Y0141882D02*
X0073477Y0141882D01*
X0073477Y0141490D02*
X0125891Y0141490D01*
X0125499Y0141098D02*
X0073477Y0141098D01*
X0073477Y0140705D02*
X0125228Y0140705D01*
X0125066Y0140313D02*
X0073477Y0140313D01*
X0073477Y0139921D02*
X0124903Y0139921D01*
X0124741Y0139529D02*
X0073477Y0139529D01*
X0073477Y0139137D02*
X0124578Y0139137D01*
X0124416Y0138744D02*
X0073477Y0138744D01*
X0073477Y0138352D02*
X0124253Y0138352D01*
X0124233Y0137960D02*
X0073468Y0137960D01*
X0073477Y0137969D02*
X0073477Y0145653D01*
X0072776Y0146354D01*
X0065092Y0146354D01*
X0064390Y0145653D01*
X0064390Y0137969D01*
X0065092Y0137268D01*
X0072776Y0137268D01*
X0073477Y0137969D01*
X0073076Y0137568D02*
X0124233Y0137568D01*
X0124233Y0137175D02*
X0028989Y0137175D01*
X0028989Y0136783D02*
X0124233Y0136783D01*
X0124233Y0136391D02*
X0028989Y0136391D01*
X0028989Y0135999D02*
X0124233Y0135999D01*
X0124233Y0135607D02*
X0028989Y0135607D01*
X0028989Y0135214D02*
X0124233Y0135214D01*
X0124233Y0134822D02*
X0028989Y0134822D01*
X0028989Y0134430D02*
X0124233Y0134430D01*
X0124233Y0134038D02*
X0028989Y0134038D01*
X0028989Y0133646D02*
X0124233Y0133646D01*
X0124233Y0133253D02*
X0028989Y0133253D01*
X0028989Y0132861D02*
X0124233Y0132861D01*
X0124233Y0132469D02*
X0028989Y0132469D01*
X0028989Y0132077D02*
X0124233Y0132077D01*
X0124233Y0131685D02*
X0028989Y0131685D01*
X0028989Y0131292D02*
X0124233Y0131292D01*
X0124233Y0130900D02*
X0028989Y0130900D01*
X0028989Y0130508D02*
X0124233Y0130508D01*
X0124233Y0130116D02*
X0028989Y0130116D01*
X0028989Y0129723D02*
X0124233Y0129723D01*
X0124233Y0129331D02*
X0028989Y0129331D01*
X0028989Y0128939D02*
X0124233Y0128939D01*
X0124233Y0128547D02*
X0028989Y0128547D01*
X0028989Y0128155D02*
X0124233Y0128155D01*
X0124233Y0127762D02*
X0028989Y0127762D01*
X0028989Y0127370D02*
X0124233Y0127370D01*
X0124233Y0126978D02*
X0028989Y0126978D01*
X0028989Y0126586D02*
X0124233Y0126586D01*
X0124233Y0126194D02*
X0028989Y0126194D01*
X0028989Y0125801D02*
X0124233Y0125801D01*
X0124233Y0125409D02*
X0028989Y0125409D01*
X0028989Y0125017D02*
X0124233Y0125017D01*
X0124233Y0124625D02*
X0028989Y0124625D01*
X0028989Y0124232D02*
X0124233Y0124232D01*
X0124233Y0123840D02*
X0028989Y0123840D01*
X0028989Y0123448D02*
X0124323Y0123448D01*
X0124486Y0123056D02*
X0103074Y0123056D01*
X0103871Y0122664D02*
X0124648Y0122664D01*
X0124811Y0122271D02*
X0104263Y0122271D01*
X0104655Y0121879D02*
X0124973Y0121879D01*
X0125135Y0121487D02*
X0104980Y0121487D01*
X0105142Y0121095D02*
X0125298Y0121095D01*
X0125667Y0120703D02*
X0105305Y0120703D01*
X0105467Y0120310D02*
X0126059Y0120310D01*
X0126452Y0119918D02*
X0105564Y0119918D01*
X0105564Y0119526D02*
X0126844Y0119526D01*
X0127236Y0119134D02*
X0105564Y0119134D01*
X0105564Y0118742D02*
X0128075Y0118742D01*
X0129022Y0118349D02*
X0105532Y0118349D01*
X0094419Y0115212D02*
X0028989Y0115212D01*
X0028989Y0115604D02*
X0093473Y0115604D01*
X0092896Y0115996D02*
X0028989Y0115996D01*
X0028989Y0116388D02*
X0092504Y0116388D01*
X0092112Y0116780D02*
X0028989Y0116780D01*
X0028989Y0117173D02*
X0091878Y0117173D01*
X0091716Y0117565D02*
X0028989Y0117565D01*
X0028989Y0117957D02*
X0091553Y0117957D01*
X0091391Y0118349D02*
X0028989Y0118349D01*
X0028989Y0118742D02*
X0091359Y0118742D01*
X0091359Y0119134D02*
X0028989Y0119134D01*
X0028989Y0119526D02*
X0091359Y0119526D01*
X0091359Y0119918D02*
X0028989Y0119918D01*
X0028989Y0120310D02*
X0091455Y0120310D01*
X0091618Y0120703D02*
X0028989Y0120703D01*
X0028989Y0121095D02*
X0091780Y0121095D01*
X0091943Y0121487D02*
X0028989Y0121487D01*
X0028989Y0121879D02*
X0092267Y0121879D01*
X0092660Y0122271D02*
X0028989Y0122271D01*
X0028989Y0122664D02*
X0093052Y0122664D01*
X0093848Y0123056D02*
X0028989Y0123056D01*
X0028989Y0113251D02*
X0094319Y0113251D01*
X0093372Y0112858D02*
X0028989Y0112858D01*
X0028989Y0112466D02*
X0092854Y0112466D01*
X0092462Y0112074D02*
X0028989Y0112074D01*
X0028989Y0111682D02*
X0092070Y0111682D01*
X0091861Y0111289D02*
X0028989Y0111289D01*
X0028989Y0110897D02*
X0091699Y0110897D01*
X0091536Y0110505D02*
X0028989Y0110505D01*
X0028989Y0110113D02*
X0091374Y0110113D01*
X0091359Y0109721D02*
X0028989Y0109721D01*
X0028989Y0109328D02*
X0091359Y0109328D01*
X0091359Y0108936D02*
X0028989Y0108936D01*
X0028989Y0108544D02*
X0091359Y0108544D01*
X0091473Y0108152D02*
X0028989Y0108152D01*
X0028989Y0107760D02*
X0091635Y0107760D01*
X0091798Y0107367D02*
X0028989Y0107367D01*
X0028989Y0106975D02*
X0091960Y0106975D01*
X0092309Y0106583D02*
X0028989Y0106583D01*
X0028989Y0106191D02*
X0092701Y0106191D01*
X0093094Y0105799D02*
X0028989Y0105799D01*
X0028989Y0137568D02*
X0064792Y0137568D01*
X0064399Y0137960D02*
X0028989Y0137960D01*
X0028989Y0138352D02*
X0064390Y0138352D01*
X0064390Y0138744D02*
X0028989Y0138744D01*
X0028989Y0139137D02*
X0064390Y0139137D01*
X0064390Y0139529D02*
X0028989Y0139529D01*
X0028989Y0139921D02*
X0064390Y0139921D01*
X0064390Y0140313D02*
X0028989Y0140313D01*
X0028989Y0140705D02*
X0064390Y0140705D01*
X0064390Y0141098D02*
X0028989Y0141098D01*
X0028989Y0141490D02*
X0064390Y0141490D01*
X0064390Y0141882D02*
X0028989Y0141882D01*
X0028989Y0142274D02*
X0064390Y0142274D01*
X0064390Y0142666D02*
X0028989Y0142666D01*
X0028989Y0143059D02*
X0064390Y0143059D01*
X0064390Y0143451D02*
X0028989Y0143451D01*
X0028989Y0143843D02*
X0064390Y0143843D01*
X0064390Y0144235D02*
X0028989Y0144235D01*
X0028989Y0144628D02*
X0064390Y0144628D01*
X0064390Y0145020D02*
X0028989Y0145020D01*
X0028989Y0145412D02*
X0064390Y0145412D01*
X0064541Y0145804D02*
X0028989Y0145804D01*
X0028989Y0146196D02*
X0064934Y0146196D01*
X0072934Y0146196D02*
X0419902Y0146196D01*
X0419902Y0145804D02*
X0073326Y0145804D01*
X0073477Y0145412D02*
X0419902Y0145412D01*
X0419902Y0145020D02*
X0073477Y0145020D01*
X0073477Y0144628D02*
X0419902Y0144628D01*
X0419902Y0146589D02*
X0028989Y0146589D01*
X0028989Y0146981D02*
X0419902Y0146981D01*
X0419902Y0147373D02*
X0028989Y0147373D01*
X0028989Y0147765D02*
X0419902Y0147765D01*
X0419902Y0148157D02*
X0028989Y0148157D01*
X0028989Y0148550D02*
X0419902Y0148550D01*
X0419902Y0148942D02*
X0028989Y0148942D01*
X0028989Y0149334D02*
X0419902Y0149334D01*
X0419902Y0149726D02*
X0028989Y0149726D01*
X0028989Y0150118D02*
X0419902Y0150118D01*
X0419902Y0150511D02*
X0028989Y0150511D01*
X0028989Y0150903D02*
X0419902Y0150903D01*
X0419902Y0151295D02*
X0028989Y0151295D01*
X0028989Y0151687D02*
X0419902Y0151687D01*
X0419902Y0152080D02*
X0028989Y0152080D01*
X0028989Y0152472D02*
X0419902Y0152472D01*
X0419902Y0152864D02*
X0028989Y0152864D01*
X0028989Y0153256D02*
X0419902Y0153256D01*
X0419902Y0153648D02*
X0028989Y0153648D01*
X0028989Y0154041D02*
X0419902Y0154041D01*
X0419902Y0154433D02*
X0028989Y0154433D01*
X0028989Y0154825D02*
X0419902Y0154825D01*
X0419902Y0155217D02*
X0028989Y0155217D01*
X0028989Y0155609D02*
X0419902Y0155609D01*
X0419902Y0156002D02*
X0028989Y0156002D01*
X0028989Y0156394D02*
X0419902Y0156394D01*
X0419902Y0156786D02*
X0028989Y0156786D01*
X0028989Y0157178D02*
X0419902Y0157178D01*
X0419902Y0157571D02*
X0028989Y0157571D01*
X0028989Y0157963D02*
X0419902Y0157963D01*
X0419902Y0158355D02*
X0028989Y0158355D01*
X0028989Y0158747D02*
X0419902Y0158747D01*
X0419902Y0159139D02*
X0028989Y0159139D01*
X0028989Y0159532D02*
X0419902Y0159532D01*
X0419902Y0159924D02*
X0028989Y0159924D01*
X0028989Y0160316D02*
X0419902Y0160316D01*
X0419902Y0160708D02*
X0028989Y0160708D01*
X0028989Y0161100D02*
X0419902Y0161100D01*
X0419902Y0161493D02*
X0028989Y0161493D01*
X0028989Y0161885D02*
X0419902Y0161885D01*
X0419902Y0162277D02*
X0028989Y0162277D01*
X0028989Y0162669D02*
X0419902Y0162669D01*
X0419902Y0163061D02*
X0028989Y0163061D01*
X0028989Y0163454D02*
X0419902Y0163454D01*
X0419902Y0163846D02*
X0028989Y0163846D01*
X0028989Y0164238D02*
X0419902Y0164238D01*
X0419902Y0164630D02*
X0028989Y0164630D01*
X0028989Y0165023D02*
X0419902Y0165023D01*
X0419902Y0165415D02*
X0028989Y0165415D01*
X0028989Y0165807D02*
X0419902Y0165807D01*
X0419902Y0166199D02*
X0028989Y0166199D01*
X0028989Y0166591D02*
X0419902Y0166591D01*
X0419902Y0166984D02*
X0028989Y0166984D01*
X0028989Y0167376D02*
X0419902Y0167376D01*
X0419902Y0167768D02*
X0028989Y0167768D01*
X0028989Y0168160D02*
X0419902Y0168160D01*
X0419889Y0168552D02*
X0029002Y0168552D01*
X0029033Y0168945D02*
X0419858Y0168945D01*
X0419827Y0169337D02*
X0029064Y0169337D01*
X0029095Y0169729D02*
X0419796Y0169729D01*
X0419740Y0170121D02*
X0029151Y0170121D01*
X0029279Y0170514D02*
X0419612Y0170514D01*
X0419485Y0170906D02*
X0029406Y0170906D01*
X0029534Y0171298D02*
X0419357Y0171298D01*
X0419230Y0171690D02*
X0029661Y0171690D01*
X0029789Y0172082D02*
X0419102Y0172082D01*
X0418975Y0172475D02*
X0029916Y0172475D01*
X0030044Y0172867D02*
X0418848Y0172867D01*
X0418662Y0173259D02*
X0030229Y0173259D01*
X0030514Y0173651D02*
X0418377Y0173651D01*
X0418092Y0174043D02*
X0030799Y0174043D01*
X0031084Y0174436D02*
X0417807Y0174436D01*
X0417522Y0174828D02*
X0031369Y0174828D01*
X0031654Y0175220D02*
X0417238Y0175220D01*
X0416953Y0175612D02*
X0031938Y0175612D01*
X0032388Y0176004D02*
X0416504Y0176004D01*
X0415964Y0176397D02*
X0032927Y0176397D01*
X0033467Y0176789D02*
X0415424Y0176789D01*
X0414884Y0177181D02*
X0034007Y0177181D01*
X0034547Y0177573D02*
X0414344Y0177573D01*
X0413298Y0177966D02*
X0035593Y0177966D01*
X0036800Y0178358D02*
X0412091Y0178358D01*
X0410161Y0178750D02*
X0038730Y0178750D01*
X0039406Y0180197D02*
X0049249Y0180197D01*
X0052384Y0179142D02*
X0396508Y0179142D01*
X0395300Y0179534D02*
X0053591Y0179534D01*
X0054798Y0179927D02*
X0394093Y0179927D01*
X0393266Y0180319D02*
X0055625Y0180319D01*
X0056165Y0180711D02*
X0392726Y0180711D01*
X0392186Y0181103D02*
X0056705Y0181103D01*
X0057245Y0181495D02*
X0391646Y0181495D01*
X0391106Y0181888D02*
X0057785Y0181888D01*
X0058324Y0182280D02*
X0390567Y0182280D01*
X0390103Y0182672D02*
X0058788Y0182672D01*
X0059073Y0183064D02*
X0389818Y0183064D01*
X0389533Y0183457D02*
X0059358Y0183457D01*
X0059643Y0183849D02*
X0389248Y0183849D01*
X0388963Y0184241D02*
X0059928Y0184241D01*
X0060213Y0184633D02*
X0388678Y0184633D01*
X0388394Y0185025D02*
X0060498Y0185025D01*
X0060782Y0185418D02*
X0388109Y0185418D01*
X0387824Y0185810D02*
X0061067Y0185810D01*
X0061246Y0186202D02*
X0387645Y0186202D01*
X0387517Y0186594D02*
X0061374Y0186594D01*
X0061501Y0186986D02*
X0387390Y0186986D01*
X0387262Y0187379D02*
X0061629Y0187379D01*
X0061756Y0187771D02*
X0387135Y0187771D01*
X0387007Y0188163D02*
X0061884Y0188163D01*
X0062011Y0188555D02*
X0386880Y0188555D01*
X0386752Y0188947D02*
X0062139Y0188947D01*
X0062266Y0189340D02*
X0386625Y0189340D01*
X0386498Y0189732D02*
X0062393Y0189732D01*
X0062453Y0190124D02*
X0386438Y0190124D01*
X0386438Y0190516D02*
X0062453Y0190516D01*
X0062453Y0190909D02*
X0386438Y0190909D01*
X0386438Y0191301D02*
X0062453Y0191301D01*
X0062453Y0191693D02*
X0386438Y0191693D01*
X0386430Y0192085D02*
X0062461Y0192085D01*
X0062500Y0192477D02*
X0386391Y0192477D01*
X0386353Y0192870D02*
X0062538Y0192870D01*
X0062695Y0193262D02*
X0386196Y0193262D01*
X0386034Y0193654D02*
X0062857Y0193654D01*
X0063020Y0194046D02*
X0385871Y0194046D01*
X0385709Y0194438D02*
X0063182Y0194438D01*
X0063530Y0194831D02*
X0385361Y0194831D01*
X0384969Y0195223D02*
X0063922Y0195223D01*
X0064314Y0195615D02*
X0384577Y0195615D01*
X0383834Y0196007D02*
X0065057Y0196007D01*
X0066004Y0196400D02*
X0382887Y0196400D01*
X0381926Y0197913D02*
X0066965Y0197913D01*
X0066965Y0197914D02*
X0066813Y0197912D01*
X0066661Y0197906D01*
X0066509Y0197896D01*
X0066358Y0197883D01*
X0066207Y0197865D01*
X0066056Y0197844D01*
X0065906Y0197818D01*
X0065757Y0197789D01*
X0065608Y0197756D01*
X0065461Y0197719D01*
X0065314Y0197679D01*
X0065169Y0197634D01*
X0065025Y0197586D01*
X0064882Y0197534D01*
X0064740Y0197479D01*
X0064600Y0197420D01*
X0064461Y0197357D01*
X0064324Y0197291D01*
X0064189Y0197221D01*
X0064056Y0197148D01*
X0063925Y0197071D01*
X0063795Y0196991D01*
X0063668Y0196908D01*
X0063543Y0196822D01*
X0063420Y0196732D01*
X0063300Y0196639D01*
X0063182Y0196543D01*
X0063066Y0196444D01*
X0062953Y0196342D01*
X0062843Y0196238D01*
X0062735Y0196130D01*
X0062631Y0196020D01*
X0062529Y0195907D01*
X0062430Y0195791D01*
X0062334Y0195673D01*
X0062241Y0195553D01*
X0062151Y0195430D01*
X0062065Y0195305D01*
X0061982Y0195178D01*
X0061902Y0195048D01*
X0061825Y0194917D01*
X0061752Y0194784D01*
X0061682Y0194649D01*
X0061616Y0194512D01*
X0061553Y0194373D01*
X0061494Y0194233D01*
X0061439Y0194091D01*
X0061387Y0193948D01*
X0061339Y0193804D01*
X0061294Y0193659D01*
X0061254Y0193512D01*
X0061217Y0193365D01*
X0061184Y0193216D01*
X0061155Y0193067D01*
X0061129Y0192917D01*
X0061108Y0192766D01*
X0061090Y0192615D01*
X0061077Y0192464D01*
X0061067Y0192312D01*
X0061061Y0192160D01*
X0061059Y0192008D01*
X0061060Y0192008D02*
X0061057Y0191723D01*
X0061046Y0191437D01*
X0061029Y0191152D01*
X0061005Y0190868D01*
X0060974Y0190584D01*
X0060936Y0190301D01*
X0060891Y0190020D01*
X0060840Y0189739D01*
X0060782Y0189459D01*
X0060717Y0189181D01*
X0060645Y0188905D01*
X0060567Y0188631D01*
X0060482Y0188358D01*
X0060390Y0188088D01*
X0060292Y0187820D01*
X0060188Y0187554D01*
X0060077Y0187291D01*
X0059960Y0187031D01*
X0059837Y0186773D01*
X0059707Y0186519D01*
X0059571Y0186268D01*
X0059430Y0186020D01*
X0059282Y0185776D01*
X0059129Y0185535D01*
X0058969Y0185299D01*
X0058804Y0185066D01*
X0058634Y0184837D01*
X0058458Y0184612D01*
X0058276Y0184392D01*
X0058090Y0184176D01*
X0057898Y0183965D01*
X0057701Y0183758D01*
X0057499Y0183556D01*
X0057292Y0183359D01*
X0057081Y0183167D01*
X0056865Y0182981D01*
X0056645Y0182799D01*
X0056420Y0182623D01*
X0056191Y0182453D01*
X0055958Y0182288D01*
X0055722Y0182128D01*
X0055481Y0181975D01*
X0055237Y0181827D01*
X0054989Y0181686D01*
X0054738Y0181550D01*
X0054484Y0181420D01*
X0054226Y0181297D01*
X0053966Y0181180D01*
X0053703Y0181069D01*
X0053437Y0180965D01*
X0053169Y0180867D01*
X0052899Y0180775D01*
X0052626Y0180690D01*
X0052352Y0180612D01*
X0052076Y0180540D01*
X0051798Y0180475D01*
X0051518Y0180417D01*
X0051237Y0180366D01*
X0050956Y0180321D01*
X0050673Y0180283D01*
X0050389Y0180252D01*
X0050105Y0180228D01*
X0049820Y0180211D01*
X0049534Y0180200D01*
X0049249Y0180197D01*
X0039406Y0180197D02*
X0039121Y0180194D01*
X0038835Y0180183D01*
X0038550Y0180166D01*
X0038266Y0180142D01*
X0037982Y0180111D01*
X0037699Y0180073D01*
X0037418Y0180028D01*
X0037137Y0179977D01*
X0036857Y0179919D01*
X0036579Y0179854D01*
X0036303Y0179782D01*
X0036029Y0179704D01*
X0035756Y0179619D01*
X0035486Y0179527D01*
X0035218Y0179429D01*
X0034952Y0179325D01*
X0034689Y0179214D01*
X0034429Y0179097D01*
X0034171Y0178974D01*
X0033917Y0178844D01*
X0033666Y0178708D01*
X0033418Y0178567D01*
X0033174Y0178419D01*
X0032933Y0178266D01*
X0032697Y0178106D01*
X0032464Y0177941D01*
X0032235Y0177771D01*
X0032010Y0177595D01*
X0031790Y0177413D01*
X0031574Y0177227D01*
X0031363Y0177035D01*
X0031156Y0176838D01*
X0030954Y0176636D01*
X0030757Y0176429D01*
X0030565Y0176218D01*
X0030379Y0176002D01*
X0030197Y0175782D01*
X0030021Y0175557D01*
X0029851Y0175328D01*
X0029686Y0175095D01*
X0029526Y0174859D01*
X0029373Y0174618D01*
X0029225Y0174374D01*
X0029084Y0174126D01*
X0028948Y0173875D01*
X0028818Y0173621D01*
X0028695Y0173363D01*
X0028578Y0173103D01*
X0028467Y0172840D01*
X0028363Y0172574D01*
X0028265Y0172306D01*
X0028173Y0172036D01*
X0028088Y0171763D01*
X0028010Y0171489D01*
X0027938Y0171213D01*
X0027873Y0170935D01*
X0027815Y0170655D01*
X0027764Y0170374D01*
X0027719Y0170093D01*
X0027681Y0169810D01*
X0027650Y0169526D01*
X0027626Y0169242D01*
X0027609Y0168957D01*
X0027598Y0168671D01*
X0027595Y0168386D01*
X0027595Y0034528D01*
X0027598Y0034243D01*
X0027609Y0033957D01*
X0027626Y0033672D01*
X0027650Y0033388D01*
X0027681Y0033104D01*
X0027719Y0032821D01*
X0027764Y0032540D01*
X0027815Y0032259D01*
X0027873Y0031979D01*
X0027938Y0031701D01*
X0028010Y0031425D01*
X0028088Y0031151D01*
X0028173Y0030878D01*
X0028265Y0030608D01*
X0028363Y0030340D01*
X0028467Y0030074D01*
X0028578Y0029811D01*
X0028695Y0029551D01*
X0028818Y0029293D01*
X0028948Y0029039D01*
X0029084Y0028788D01*
X0029225Y0028540D01*
X0029373Y0028296D01*
X0029526Y0028055D01*
X0029686Y0027819D01*
X0029851Y0027586D01*
X0030021Y0027357D01*
X0030197Y0027132D01*
X0030379Y0026912D01*
X0030565Y0026696D01*
X0030757Y0026485D01*
X0030954Y0026278D01*
X0031156Y0026076D01*
X0031363Y0025879D01*
X0031574Y0025687D01*
X0031790Y0025501D01*
X0032010Y0025319D01*
X0032235Y0025143D01*
X0032464Y0024973D01*
X0032697Y0024808D01*
X0032933Y0024648D01*
X0033174Y0024495D01*
X0033418Y0024347D01*
X0033666Y0024206D01*
X0033917Y0024070D01*
X0034171Y0023940D01*
X0034429Y0023817D01*
X0034689Y0023700D01*
X0034952Y0023589D01*
X0035218Y0023485D01*
X0035486Y0023387D01*
X0035756Y0023295D01*
X0036029Y0023210D01*
X0036303Y0023132D01*
X0036579Y0023060D01*
X0036857Y0022995D01*
X0037137Y0022937D01*
X0037418Y0022886D01*
X0037699Y0022841D01*
X0037982Y0022803D01*
X0038266Y0022772D01*
X0038550Y0022748D01*
X0038835Y0022731D01*
X0039121Y0022720D01*
X0039406Y0022717D01*
X0049249Y0022717D02*
X0049534Y0022714D01*
X0049820Y0022703D01*
X0050105Y0022686D01*
X0050389Y0022662D01*
X0050673Y0022631D01*
X0050956Y0022593D01*
X0051237Y0022548D01*
X0051518Y0022497D01*
X0051798Y0022439D01*
X0052076Y0022374D01*
X0052352Y0022302D01*
X0052626Y0022224D01*
X0052899Y0022139D01*
X0053169Y0022047D01*
X0053437Y0021949D01*
X0053703Y0021845D01*
X0053966Y0021734D01*
X0054226Y0021617D01*
X0054484Y0021494D01*
X0054738Y0021364D01*
X0054989Y0021228D01*
X0055237Y0021087D01*
X0055481Y0020939D01*
X0055722Y0020786D01*
X0055958Y0020626D01*
X0056191Y0020461D01*
X0056420Y0020291D01*
X0056645Y0020115D01*
X0056865Y0019933D01*
X0057081Y0019747D01*
X0057292Y0019555D01*
X0057499Y0019358D01*
X0057701Y0019156D01*
X0057898Y0018949D01*
X0058090Y0018738D01*
X0058276Y0018522D01*
X0058458Y0018302D01*
X0058634Y0018077D01*
X0058804Y0017848D01*
X0058969Y0017615D01*
X0059129Y0017379D01*
X0059282Y0017138D01*
X0059430Y0016894D01*
X0059571Y0016646D01*
X0059707Y0016395D01*
X0059837Y0016141D01*
X0059960Y0015883D01*
X0060077Y0015623D01*
X0060188Y0015360D01*
X0060292Y0015094D01*
X0060390Y0014826D01*
X0060482Y0014556D01*
X0060567Y0014283D01*
X0060645Y0014009D01*
X0060717Y0013733D01*
X0060782Y0013455D01*
X0060840Y0013175D01*
X0060891Y0012894D01*
X0060936Y0012613D01*
X0060974Y0012330D01*
X0061005Y0012046D01*
X0061029Y0011762D01*
X0061046Y0011477D01*
X0061057Y0011191D01*
X0061060Y0010906D01*
X0062835Y0009314D02*
X0386056Y0009314D01*
X0385894Y0008922D02*
X0062997Y0008922D01*
X0063160Y0008530D02*
X0385732Y0008530D01*
X0385416Y0008138D02*
X0063475Y0008138D01*
X0063867Y0007745D02*
X0385024Y0007745D01*
X0384632Y0007353D02*
X0064259Y0007353D01*
X0064925Y0006961D02*
X0383967Y0006961D01*
X0383020Y0006569D02*
X0065871Y0006569D01*
X0066965Y0005000D02*
X0381926Y0005000D01*
X0382078Y0005002D01*
X0382230Y0005008D01*
X0382382Y0005018D01*
X0382533Y0005031D01*
X0382684Y0005049D01*
X0382835Y0005070D01*
X0382985Y0005096D01*
X0383134Y0005125D01*
X0383283Y0005158D01*
X0383430Y0005195D01*
X0383577Y0005235D01*
X0383722Y0005280D01*
X0383866Y0005328D01*
X0384009Y0005380D01*
X0384151Y0005435D01*
X0384291Y0005494D01*
X0384430Y0005557D01*
X0384567Y0005623D01*
X0384702Y0005693D01*
X0384835Y0005766D01*
X0384966Y0005843D01*
X0385096Y0005923D01*
X0385223Y0006006D01*
X0385348Y0006092D01*
X0385471Y0006182D01*
X0385591Y0006275D01*
X0385709Y0006371D01*
X0385825Y0006470D01*
X0385938Y0006572D01*
X0386048Y0006676D01*
X0386156Y0006784D01*
X0386260Y0006894D01*
X0386362Y0007007D01*
X0386461Y0007123D01*
X0386557Y0007241D01*
X0386650Y0007361D01*
X0386740Y0007484D01*
X0386826Y0007609D01*
X0386909Y0007736D01*
X0386989Y0007866D01*
X0387066Y0007997D01*
X0387139Y0008130D01*
X0387209Y0008265D01*
X0387275Y0008402D01*
X0387338Y0008541D01*
X0387397Y0008681D01*
X0387452Y0008823D01*
X0387504Y0008966D01*
X0387552Y0009110D01*
X0387597Y0009255D01*
X0387637Y0009402D01*
X0387674Y0009549D01*
X0387707Y0009698D01*
X0387736Y0009847D01*
X0387762Y0009997D01*
X0387783Y0010148D01*
X0387801Y0010299D01*
X0387814Y0010450D01*
X0387824Y0010602D01*
X0387830Y0010754D01*
X0387832Y0010906D01*
X0387831Y0010906D02*
X0387834Y0011191D01*
X0387845Y0011477D01*
X0387862Y0011762D01*
X0387886Y0012046D01*
X0387917Y0012330D01*
X0387955Y0012613D01*
X0388000Y0012894D01*
X0388051Y0013175D01*
X0388109Y0013455D01*
X0388174Y0013733D01*
X0388246Y0014009D01*
X0388324Y0014283D01*
X0388409Y0014556D01*
X0388501Y0014826D01*
X0388599Y0015094D01*
X0388703Y0015360D01*
X0388814Y0015623D01*
X0388931Y0015883D01*
X0389054Y0016141D01*
X0389184Y0016395D01*
X0389320Y0016646D01*
X0389461Y0016894D01*
X0389609Y0017138D01*
X0389762Y0017379D01*
X0389922Y0017615D01*
X0390087Y0017848D01*
X0390257Y0018077D01*
X0390433Y0018302D01*
X0390615Y0018522D01*
X0390801Y0018738D01*
X0390993Y0018949D01*
X0391190Y0019156D01*
X0391392Y0019358D01*
X0391599Y0019555D01*
X0391810Y0019747D01*
X0392026Y0019933D01*
X0392246Y0020115D01*
X0392471Y0020291D01*
X0392700Y0020461D01*
X0392933Y0020626D01*
X0393169Y0020786D01*
X0393410Y0020939D01*
X0393654Y0021087D01*
X0393902Y0021228D01*
X0394153Y0021364D01*
X0394407Y0021494D01*
X0394665Y0021617D01*
X0394925Y0021734D01*
X0395188Y0021845D01*
X0395454Y0021949D01*
X0395722Y0022047D01*
X0395992Y0022139D01*
X0396265Y0022224D01*
X0396539Y0022302D01*
X0396815Y0022374D01*
X0397093Y0022439D01*
X0397373Y0022497D01*
X0397654Y0022548D01*
X0397935Y0022593D01*
X0398218Y0022631D01*
X0398502Y0022662D01*
X0398786Y0022686D01*
X0399071Y0022703D01*
X0399357Y0022714D01*
X0399642Y0022717D01*
X0409485Y0022717D02*
X0409770Y0022720D01*
X0410056Y0022731D01*
X0410341Y0022748D01*
X0410625Y0022772D01*
X0410909Y0022803D01*
X0411192Y0022841D01*
X0411473Y0022886D01*
X0411754Y0022937D01*
X0412034Y0022995D01*
X0412312Y0023060D01*
X0412588Y0023132D01*
X0412862Y0023210D01*
X0413135Y0023295D01*
X0413405Y0023387D01*
X0413673Y0023485D01*
X0413939Y0023589D01*
X0414202Y0023700D01*
X0414462Y0023817D01*
X0414720Y0023940D01*
X0414974Y0024070D01*
X0415225Y0024206D01*
X0415473Y0024347D01*
X0415717Y0024495D01*
X0415958Y0024648D01*
X0416194Y0024808D01*
X0416427Y0024973D01*
X0416656Y0025143D01*
X0416881Y0025319D01*
X0417101Y0025501D01*
X0417317Y0025687D01*
X0417528Y0025879D01*
X0417735Y0026076D01*
X0417937Y0026278D01*
X0418134Y0026485D01*
X0418326Y0026696D01*
X0418512Y0026912D01*
X0418694Y0027132D01*
X0418870Y0027357D01*
X0419040Y0027586D01*
X0419205Y0027819D01*
X0419365Y0028055D01*
X0419518Y0028296D01*
X0419666Y0028540D01*
X0419807Y0028788D01*
X0419943Y0029039D01*
X0420073Y0029293D01*
X0420196Y0029551D01*
X0420313Y0029811D01*
X0420424Y0030074D01*
X0420528Y0030340D01*
X0420626Y0030608D01*
X0420718Y0030878D01*
X0420803Y0031151D01*
X0420881Y0031425D01*
X0420953Y0031701D01*
X0421018Y0031979D01*
X0421076Y0032259D01*
X0421127Y0032540D01*
X0421172Y0032821D01*
X0421210Y0033104D01*
X0421241Y0033388D01*
X0421265Y0033672D01*
X0421282Y0033957D01*
X0421293Y0034243D01*
X0421296Y0034528D01*
X0421296Y0168386D01*
X0421293Y0168671D01*
X0421282Y0168957D01*
X0421265Y0169242D01*
X0421241Y0169526D01*
X0421210Y0169810D01*
X0421172Y0170093D01*
X0421127Y0170374D01*
X0421076Y0170655D01*
X0421018Y0170935D01*
X0420953Y0171213D01*
X0420881Y0171489D01*
X0420803Y0171763D01*
X0420718Y0172036D01*
X0420626Y0172306D01*
X0420528Y0172574D01*
X0420424Y0172840D01*
X0420313Y0173103D01*
X0420196Y0173363D01*
X0420073Y0173621D01*
X0419943Y0173875D01*
X0419807Y0174126D01*
X0419666Y0174374D01*
X0419518Y0174618D01*
X0419365Y0174859D01*
X0419205Y0175095D01*
X0419040Y0175328D01*
X0418870Y0175557D01*
X0418694Y0175782D01*
X0418512Y0176002D01*
X0418326Y0176218D01*
X0418134Y0176429D01*
X0417937Y0176636D01*
X0417735Y0176838D01*
X0417528Y0177035D01*
X0417317Y0177227D01*
X0417101Y0177413D01*
X0416881Y0177595D01*
X0416656Y0177771D01*
X0416427Y0177941D01*
X0416194Y0178106D01*
X0415958Y0178266D01*
X0415717Y0178419D01*
X0415473Y0178567D01*
X0415225Y0178708D01*
X0414974Y0178844D01*
X0414720Y0178974D01*
X0414462Y0179097D01*
X0414202Y0179214D01*
X0413939Y0179325D01*
X0413673Y0179429D01*
X0413405Y0179527D01*
X0413135Y0179619D01*
X0412862Y0179704D01*
X0412588Y0179782D01*
X0412312Y0179854D01*
X0412034Y0179919D01*
X0411754Y0179977D01*
X0411473Y0180028D01*
X0411192Y0180073D01*
X0410909Y0180111D01*
X0410625Y0180142D01*
X0410341Y0180166D01*
X0410056Y0180183D01*
X0409770Y0180194D01*
X0409485Y0180197D01*
X0399642Y0180197D01*
X0399357Y0180200D01*
X0399071Y0180211D01*
X0398786Y0180228D01*
X0398502Y0180252D01*
X0398218Y0180283D01*
X0397935Y0180321D01*
X0397654Y0180366D01*
X0397373Y0180417D01*
X0397093Y0180475D01*
X0396815Y0180540D01*
X0396539Y0180612D01*
X0396265Y0180690D01*
X0395992Y0180775D01*
X0395722Y0180867D01*
X0395454Y0180965D01*
X0395188Y0181069D01*
X0394925Y0181180D01*
X0394665Y0181297D01*
X0394407Y0181420D01*
X0394153Y0181550D01*
X0393902Y0181686D01*
X0393654Y0181827D01*
X0393410Y0181975D01*
X0393169Y0182128D01*
X0392933Y0182288D01*
X0392700Y0182453D01*
X0392471Y0182623D01*
X0392246Y0182799D01*
X0392026Y0182981D01*
X0391810Y0183167D01*
X0391599Y0183359D01*
X0391392Y0183556D01*
X0391190Y0183758D01*
X0390993Y0183965D01*
X0390801Y0184176D01*
X0390615Y0184392D01*
X0390433Y0184612D01*
X0390257Y0184837D01*
X0390087Y0185066D01*
X0389922Y0185299D01*
X0389762Y0185535D01*
X0389609Y0185776D01*
X0389461Y0186020D01*
X0389320Y0186268D01*
X0389184Y0186519D01*
X0389054Y0186773D01*
X0388931Y0187031D01*
X0388814Y0187291D01*
X0388703Y0187554D01*
X0388599Y0187820D01*
X0388501Y0188088D01*
X0388409Y0188358D01*
X0388324Y0188631D01*
X0388246Y0188905D01*
X0388174Y0189181D01*
X0388109Y0189459D01*
X0388051Y0189739D01*
X0388000Y0190020D01*
X0387955Y0190301D01*
X0387917Y0190584D01*
X0387886Y0190868D01*
X0387862Y0191152D01*
X0387845Y0191437D01*
X0387834Y0191723D01*
X0387831Y0192008D01*
X0387832Y0192008D02*
X0387830Y0192160D01*
X0387824Y0192312D01*
X0387814Y0192464D01*
X0387801Y0192615D01*
X0387783Y0192766D01*
X0387762Y0192917D01*
X0387736Y0193067D01*
X0387707Y0193216D01*
X0387674Y0193365D01*
X0387637Y0193512D01*
X0387597Y0193659D01*
X0387552Y0193804D01*
X0387504Y0193948D01*
X0387452Y0194091D01*
X0387397Y0194233D01*
X0387338Y0194373D01*
X0387275Y0194512D01*
X0387209Y0194649D01*
X0387139Y0194784D01*
X0387066Y0194917D01*
X0386989Y0195048D01*
X0386909Y0195178D01*
X0386826Y0195305D01*
X0386740Y0195430D01*
X0386650Y0195553D01*
X0386557Y0195673D01*
X0386461Y0195791D01*
X0386362Y0195907D01*
X0386260Y0196020D01*
X0386156Y0196130D01*
X0386048Y0196238D01*
X0385938Y0196342D01*
X0385825Y0196444D01*
X0385709Y0196543D01*
X0385591Y0196639D01*
X0385471Y0196732D01*
X0385348Y0196822D01*
X0385223Y0196908D01*
X0385096Y0196991D01*
X0384966Y0197071D01*
X0384835Y0197148D01*
X0384702Y0197221D01*
X0384567Y0197291D01*
X0384430Y0197357D01*
X0384291Y0197420D01*
X0384151Y0197479D01*
X0384009Y0197534D01*
X0383866Y0197586D01*
X0383722Y0197634D01*
X0383577Y0197679D01*
X0383430Y0197719D01*
X0383283Y0197756D01*
X0383134Y0197789D01*
X0382985Y0197818D01*
X0382835Y0197844D01*
X0382684Y0197865D01*
X0382533Y0197883D01*
X0382382Y0197896D01*
X0382230Y0197906D01*
X0382078Y0197912D01*
X0381926Y0197914D01*
X0211826Y0100308D02*
X0166977Y0100308D01*
X0166584Y0099915D02*
X0211848Y0099915D01*
X0211848Y0099523D02*
X0166192Y0099523D01*
X0165800Y0099131D02*
X0211848Y0099131D01*
X0211848Y0098739D02*
X0165408Y0098739D01*
X0165016Y0098346D02*
X0211848Y0098346D01*
X0211848Y0097954D02*
X0164623Y0097954D01*
X0164231Y0097562D02*
X0211848Y0097562D01*
X0211848Y0097170D02*
X0163839Y0097170D01*
X0163447Y0096778D02*
X0211848Y0096778D01*
X0211848Y0096385D02*
X0163342Y0096385D01*
X0163342Y0095993D02*
X0211848Y0095993D01*
X0211848Y0095601D02*
X0163342Y0095601D01*
X0163342Y0095209D02*
X0211848Y0095209D01*
X0211848Y0094817D02*
X0163342Y0094817D01*
X0163342Y0094424D02*
X0211848Y0094424D01*
X0211848Y0094032D02*
X0163342Y0094032D01*
X0163342Y0093640D02*
X0211848Y0093640D01*
X0211848Y0093248D02*
X0163559Y0093248D01*
X0163903Y0092856D02*
X0211848Y0092856D01*
X0211848Y0092463D02*
X0164066Y0092463D01*
X0164228Y0092071D02*
X0211848Y0092071D01*
X0211848Y0091679D02*
X0164323Y0091679D01*
X0164323Y0091287D02*
X0211848Y0091287D01*
X0211848Y0090894D02*
X0164323Y0090894D01*
X0164259Y0090502D02*
X0211848Y0090502D01*
X0211848Y0090110D02*
X0164096Y0090110D01*
X0163934Y0089718D02*
X0211848Y0089718D01*
X0211459Y0089326D02*
X0163632Y0089326D01*
X0163342Y0088933D02*
X0211216Y0088933D01*
X0211053Y0088541D02*
X0163342Y0088541D01*
X0163342Y0088149D02*
X0210891Y0088149D01*
X0210867Y0087757D02*
X0163342Y0087757D01*
X0163342Y0087365D02*
X0210867Y0087365D01*
X0210867Y0086972D02*
X0163342Y0086972D01*
X0163342Y0086580D02*
X0211003Y0086580D01*
X0211165Y0086188D02*
X0163342Y0086188D01*
X0163342Y0085796D02*
X0211338Y0085796D01*
X0211730Y0085403D02*
X0163342Y0085403D01*
X0163342Y0085011D02*
X0212122Y0085011D01*
X0213019Y0084619D02*
X0163342Y0084619D01*
X0163342Y0084227D02*
X0214294Y0084227D01*
X0214687Y0083835D02*
X0163342Y0083835D01*
X0163342Y0083442D02*
X0215079Y0083442D01*
X0215471Y0083050D02*
X0163342Y0083050D01*
X0163342Y0082658D02*
X0215863Y0082658D01*
X0216255Y0082266D02*
X0163342Y0082266D01*
X0163342Y0081874D02*
X0216648Y0081874D01*
X0217040Y0081481D02*
X0163342Y0081481D01*
X0163342Y0081089D02*
X0217432Y0081089D01*
X0217824Y0080697D02*
X0163342Y0080697D01*
X0163342Y0080305D02*
X0255867Y0080305D01*
X0255867Y0079913D02*
X0163342Y0079913D01*
X0163342Y0079520D02*
X0255867Y0079520D01*
X0255983Y0079128D02*
X0163342Y0079128D01*
X0163342Y0078736D02*
X0256145Y0078736D01*
X0256308Y0078344D02*
X0163463Y0078344D01*
X0163855Y0077951D02*
X0256682Y0077951D01*
X0256848Y0077559D02*
X0164026Y0077559D01*
X0164189Y0077167D02*
X0256848Y0077167D01*
X0256848Y0076775D02*
X0164323Y0076775D01*
X0164323Y0076383D02*
X0256848Y0076383D01*
X0256848Y0075990D02*
X0164323Y0075990D01*
X0164298Y0075598D02*
X0256848Y0075598D01*
X0256848Y0075206D02*
X0164136Y0075206D01*
X0163974Y0074814D02*
X0256848Y0074814D01*
X0256848Y0074422D02*
X0163728Y0074422D01*
X0163336Y0074029D02*
X0256848Y0074029D01*
X0256848Y0073637D02*
X0162819Y0073637D01*
X0161164Y0073245D02*
X0256848Y0073245D01*
X0256848Y0072853D02*
X0160772Y0072853D01*
X0160380Y0072460D02*
X0256848Y0072460D01*
X0256848Y0072068D02*
X0159987Y0072068D01*
X0159595Y0071676D02*
X0256848Y0071676D01*
X0256848Y0071284D02*
X0159203Y0071284D01*
X0158811Y0070892D02*
X0256848Y0070892D01*
X0256848Y0070499D02*
X0158419Y0070499D01*
X0158026Y0070107D02*
X0256848Y0070107D01*
X0256848Y0069715D02*
X0138438Y0069715D01*
X0138438Y0069323D02*
X0256848Y0069323D01*
X0256848Y0068931D02*
X0138438Y0068931D01*
X0138438Y0068538D02*
X0256848Y0068538D01*
X0256848Y0068146D02*
X0138438Y0068146D01*
X0138438Y0067754D02*
X0256848Y0067754D01*
X0256848Y0067362D02*
X0138438Y0067362D01*
X0138438Y0066970D02*
X0256848Y0066970D01*
X0256848Y0066577D02*
X0256051Y0066577D01*
X0254139Y0066577D02*
X0138438Y0066577D01*
X0138438Y0066185D02*
X0253319Y0066185D01*
X0252927Y0065793D02*
X0138438Y0065793D01*
X0138438Y0065401D02*
X0252556Y0065401D01*
X0252393Y0065008D02*
X0138438Y0065008D01*
X0138438Y0064616D02*
X0252231Y0064616D01*
X0252117Y0064224D02*
X0138277Y0064224D01*
X0138115Y0063832D02*
X0252117Y0063832D01*
X0252117Y0063440D02*
X0137952Y0063440D01*
X0137790Y0063047D02*
X0252163Y0063047D01*
X0252325Y0062655D02*
X0137628Y0062655D01*
X0137465Y0062263D02*
X0252488Y0062263D01*
X0252763Y0061871D02*
X0137227Y0061871D01*
X0136834Y0061479D02*
X0253155Y0061479D01*
X0253744Y0061086D02*
X0136442Y0061086D01*
X0136050Y0060694D02*
X0256848Y0060694D01*
X0256848Y0060302D02*
X0135658Y0060302D01*
X0135134Y0059910D02*
X0256848Y0059910D01*
X0256848Y0059517D02*
X0134187Y0059517D01*
X0133241Y0059125D02*
X0256848Y0059125D01*
X0256848Y0061086D02*
X0256446Y0061086D01*
X0260842Y0061086D02*
X0270798Y0061086D01*
X0270798Y0061479D02*
X0260842Y0061479D01*
X0260842Y0061871D02*
X0270798Y0061871D01*
X0270798Y0062263D02*
X0260842Y0062263D01*
X0260842Y0062655D02*
X0270798Y0062655D01*
X0270798Y0063047D02*
X0260842Y0063047D01*
X0260842Y0063440D02*
X0270798Y0063440D01*
X0270798Y0063832D02*
X0260842Y0063832D01*
X0260842Y0064224D02*
X0270798Y0064224D01*
X0270798Y0064616D02*
X0260842Y0064616D01*
X0260842Y0065008D02*
X0270798Y0065008D01*
X0270798Y0065401D02*
X0260842Y0065401D01*
X0260842Y0065793D02*
X0270798Y0065793D01*
X0270798Y0066185D02*
X0260842Y0066185D01*
X0260842Y0066577D02*
X0270798Y0066577D01*
X0270798Y0066970D02*
X0260842Y0066970D01*
X0260842Y0067362D02*
X0270798Y0067362D01*
X0270798Y0067754D02*
X0260842Y0067754D01*
X0260842Y0068146D02*
X0270798Y0068146D01*
X0270798Y0068538D02*
X0260842Y0068538D01*
X0260842Y0068931D02*
X0270798Y0068931D01*
X0270798Y0069323D02*
X0260842Y0069323D01*
X0260842Y0069715D02*
X0270798Y0069715D01*
X0270798Y0070107D02*
X0260842Y0070107D01*
X0260842Y0070499D02*
X0270798Y0070499D01*
X0270798Y0070892D02*
X0260842Y0070892D01*
X0260842Y0071284D02*
X0270798Y0071284D01*
X0270798Y0071676D02*
X0260842Y0071676D01*
X0260842Y0072068D02*
X0270798Y0072068D01*
X0270798Y0072460D02*
X0260842Y0072460D01*
X0260842Y0072853D02*
X0270798Y0072853D01*
X0270798Y0073245D02*
X0260842Y0073245D01*
X0260842Y0073637D02*
X0270798Y0073637D01*
X0270798Y0074029D02*
X0260842Y0074029D01*
X0260842Y0074422D02*
X0270798Y0074422D01*
X0270798Y0074814D02*
X0260842Y0074814D01*
X0260842Y0075206D02*
X0270798Y0075206D01*
X0270798Y0075598D02*
X0260842Y0075598D01*
X0260842Y0075990D02*
X0270798Y0075990D01*
X0270798Y0076383D02*
X0260842Y0076383D01*
X0260842Y0076775D02*
X0270798Y0076775D01*
X0270798Y0077167D02*
X0260842Y0077167D01*
X0260842Y0077559D02*
X0270798Y0077559D01*
X0270798Y0077951D02*
X0261008Y0077951D01*
X0261382Y0078344D02*
X0270597Y0078344D01*
X0270322Y0078736D02*
X0261545Y0078736D01*
X0261707Y0079128D02*
X0270159Y0079128D01*
X0270011Y0079520D02*
X0261823Y0079520D01*
X0261823Y0079913D02*
X0270011Y0079913D01*
X0270011Y0080305D02*
X0261823Y0080305D01*
X0261780Y0080697D02*
X0270087Y0080697D01*
X0270249Y0081089D02*
X0261617Y0081089D01*
X0261455Y0081481D02*
X0270422Y0081481D01*
X0270814Y0081874D02*
X0261183Y0081874D01*
X0260791Y0082266D02*
X0271312Y0082266D01*
X0273878Y0082266D02*
X0274175Y0082266D01*
X0274000Y0082658D02*
X0260210Y0082658D01*
X0257480Y0082658D02*
X0253215Y0082658D01*
X0253607Y0083050D02*
X0273838Y0083050D01*
X0273761Y0083442D02*
X0253923Y0083442D01*
X0254086Y0083835D02*
X0273761Y0083835D01*
X0273761Y0084227D02*
X0254248Y0084227D01*
X0254323Y0084619D02*
X0273908Y0084619D01*
X0274070Y0085011D02*
X0254323Y0085011D01*
X0254573Y0085403D02*
X0274344Y0085403D01*
X0274376Y0081874D02*
X0274548Y0081874D01*
X0288864Y0080305D02*
X0299085Y0080305D01*
X0298296Y0079913D02*
X0289257Y0079913D01*
X0289649Y0079520D02*
X0297904Y0079520D01*
X0301392Y0074814D02*
X0317196Y0074814D01*
X0317196Y0075206D02*
X0302013Y0075206D01*
X0302405Y0075598D02*
X0317196Y0075598D01*
X0317237Y0075990D02*
X0302693Y0075990D01*
X0302856Y0076383D02*
X0317630Y0076383D01*
X0270748Y0060694D02*
X0260842Y0060694D01*
X0260842Y0060302D02*
X0270356Y0060302D01*
X0269964Y0059910D02*
X0260842Y0059910D01*
X0260842Y0059517D02*
X0269572Y0059517D01*
X0269179Y0059125D02*
X0260842Y0059125D01*
X0260842Y0058733D02*
X0268787Y0058733D01*
X0268395Y0058341D02*
X0260842Y0058341D01*
X0260842Y0057949D02*
X0268003Y0057949D01*
X0267610Y0057556D02*
X0260842Y0057556D01*
X0260842Y0057164D02*
X0267218Y0057164D01*
X0266826Y0056772D02*
X0260842Y0056772D01*
X0260842Y0056380D02*
X0266434Y0056380D01*
X0266042Y0055988D02*
X0260842Y0055988D01*
X0260842Y0055595D02*
X0265649Y0055595D01*
X0265257Y0055203D02*
X0260842Y0055203D01*
X0260842Y0054811D02*
X0264865Y0054811D01*
X0264473Y0054419D02*
X0260842Y0054419D01*
X0260842Y0054027D02*
X0264081Y0054027D01*
X0263688Y0053634D02*
X0260842Y0053634D01*
X0260842Y0053242D02*
X0263296Y0053242D01*
X0262904Y0052850D02*
X0260842Y0052850D01*
X0260842Y0052458D02*
X0262512Y0052458D01*
X0262119Y0052065D02*
X0260842Y0052065D01*
X0260842Y0051673D02*
X0261727Y0051673D01*
X0261335Y0051281D02*
X0260842Y0051281D01*
X0260842Y0050889D02*
X0260943Y0050889D01*
X0255911Y0080697D02*
X0249866Y0080697D01*
X0250258Y0081089D02*
X0256073Y0081089D01*
X0256235Y0081481D02*
X0250650Y0081481D01*
X0251043Y0081874D02*
X0256507Y0081874D01*
X0256899Y0082266D02*
X0252526Y0082266D01*
X0248140Y0084619D02*
X0219550Y0084619D01*
X0219158Y0085011D02*
X0248367Y0085011D01*
X0248367Y0085403D02*
X0218766Y0085403D01*
X0218373Y0085796D02*
X0248451Y0085796D01*
X0248614Y0086188D02*
X0217981Y0086188D01*
X0217589Y0086580D02*
X0248776Y0086580D01*
X0249106Y0086972D02*
X0217197Y0086972D01*
X0216823Y0087365D02*
X0249498Y0087365D01*
X0250219Y0087757D02*
X0216823Y0087757D01*
X0216800Y0088149D02*
X0251670Y0088149D01*
X0252062Y0088541D02*
X0216637Y0088541D01*
X0216475Y0088933D02*
X0252455Y0088933D01*
X0252847Y0089326D02*
X0216231Y0089326D01*
X0162113Y0101092D02*
X0139944Y0101092D01*
X0140550Y0100700D02*
X0161721Y0100700D01*
X0161329Y0100308D02*
X0140942Y0100308D01*
X0141160Y0099915D02*
X0160937Y0099915D01*
X0160544Y0099523D02*
X0141322Y0099523D01*
X0141429Y0099131D02*
X0160152Y0099131D01*
X0159760Y0098739D02*
X0141429Y0098739D01*
X0141429Y0098346D02*
X0159368Y0098346D01*
X0159348Y0097954D02*
X0141313Y0097954D01*
X0141150Y0097562D02*
X0159348Y0097562D01*
X0159348Y0097170D02*
X0140920Y0097170D01*
X0140527Y0096778D02*
X0159348Y0096778D01*
X0159348Y0096385D02*
X0139890Y0096385D01*
X0138629Y0095993D02*
X0159348Y0095993D01*
X0159348Y0095601D02*
X0138237Y0095601D01*
X0137845Y0095209D02*
X0159348Y0095209D01*
X0159348Y0094817D02*
X0137453Y0094817D01*
X0137061Y0094424D02*
X0159348Y0094424D01*
X0159348Y0094032D02*
X0136668Y0094032D01*
X0136276Y0093640D02*
X0159348Y0093640D01*
X0159131Y0093248D02*
X0135884Y0093248D01*
X0135492Y0092856D02*
X0158787Y0092856D01*
X0158624Y0092463D02*
X0135100Y0092463D01*
X0134707Y0092071D02*
X0158462Y0092071D01*
X0158367Y0091679D02*
X0134315Y0091679D01*
X0133929Y0091287D02*
X0158367Y0091287D01*
X0158367Y0090894D02*
X0133929Y0090894D01*
X0133833Y0090502D02*
X0158432Y0090502D01*
X0158594Y0090110D02*
X0133670Y0090110D01*
X0133468Y0089718D02*
X0158756Y0089718D01*
X0159058Y0089326D02*
X0133075Y0089326D01*
X0132505Y0088933D02*
X0159348Y0088933D01*
X0159348Y0081089D02*
X0137675Y0081089D01*
X0137837Y0080697D02*
X0159348Y0080697D01*
X0159348Y0080305D02*
X0138000Y0080305D01*
X0138162Y0079913D02*
X0159348Y0079913D01*
X0159348Y0079520D02*
X0138325Y0079520D01*
X0138438Y0079128D02*
X0159348Y0079128D01*
X0159348Y0078736D02*
X0138438Y0078736D01*
X0138438Y0078344D02*
X0159227Y0078344D01*
X0158835Y0077951D02*
X0138438Y0077951D01*
X0138438Y0077559D02*
X0158664Y0077559D01*
X0158502Y0077167D02*
X0138438Y0077167D01*
X0138438Y0076775D02*
X0158367Y0076775D01*
X0158367Y0076383D02*
X0138438Y0076383D01*
X0138438Y0075990D02*
X0158262Y0075990D01*
X0157869Y0075598D02*
X0138438Y0075598D01*
X0138438Y0075206D02*
X0157477Y0075206D01*
X0157085Y0074814D02*
X0138438Y0074814D01*
X0138438Y0074422D02*
X0156693Y0074422D01*
X0156301Y0074029D02*
X0138438Y0074029D01*
X0137512Y0081481D02*
X0142569Y0081481D01*
X0142067Y0081874D02*
X0137341Y0081874D01*
X0136948Y0082266D02*
X0141675Y0082266D01*
X0141500Y0082658D02*
X0136556Y0082658D01*
X0136164Y0083050D02*
X0141338Y0083050D01*
X0141261Y0083442D02*
X0135772Y0083442D01*
X0135380Y0083835D02*
X0141261Y0083835D01*
X0141261Y0084227D02*
X0134463Y0084227D01*
X0133516Y0084619D02*
X0141408Y0084619D01*
X0066965Y0005000D02*
X0066813Y0005002D01*
X0066661Y0005008D01*
X0066509Y0005018D01*
X0066358Y0005031D01*
X0066207Y0005049D01*
X0066056Y0005070D01*
X0065906Y0005096D01*
X0065757Y0005125D01*
X0065608Y0005158D01*
X0065461Y0005195D01*
X0065314Y0005235D01*
X0065169Y0005280D01*
X0065025Y0005328D01*
X0064882Y0005380D01*
X0064740Y0005435D01*
X0064600Y0005494D01*
X0064461Y0005557D01*
X0064324Y0005623D01*
X0064189Y0005693D01*
X0064056Y0005766D01*
X0063925Y0005843D01*
X0063795Y0005923D01*
X0063668Y0006006D01*
X0063543Y0006092D01*
X0063420Y0006182D01*
X0063300Y0006275D01*
X0063182Y0006371D01*
X0063066Y0006470D01*
X0062953Y0006572D01*
X0062843Y0006676D01*
X0062735Y0006784D01*
X0062631Y0006894D01*
X0062529Y0007007D01*
X0062430Y0007123D01*
X0062334Y0007241D01*
X0062241Y0007361D01*
X0062151Y0007484D01*
X0062065Y0007609D01*
X0061982Y0007736D01*
X0061902Y0007866D01*
X0061825Y0007997D01*
X0061752Y0008130D01*
X0061682Y0008265D01*
X0061616Y0008402D01*
X0061553Y0008541D01*
X0061494Y0008681D01*
X0061439Y0008823D01*
X0061387Y0008966D01*
X0061339Y0009110D01*
X0061294Y0009255D01*
X0061254Y0009402D01*
X0061217Y0009549D01*
X0061184Y0009698D01*
X0061155Y0009847D01*
X0061129Y0009997D01*
X0061108Y0010148D01*
X0061090Y0010299D01*
X0061077Y0010450D01*
X0061067Y0010602D01*
X0061061Y0010754D01*
X0061059Y0010906D01*
D11*
X0254879Y0032153D02*
X0254879Y0036115D01*
X0259879Y0036115D02*
X0259879Y0032153D01*
X0264879Y0032153D02*
X0264879Y0036115D01*
X0269879Y0036115D02*
X0269879Y0032153D01*
X0274879Y0032153D02*
X0274879Y0036115D01*
X0279879Y0036115D02*
X0279879Y0032153D01*
X0284879Y0032153D02*
X0284879Y0036115D01*
X0289879Y0036115D02*
X0289879Y0032153D01*
X0294879Y0032153D02*
X0294879Y0036115D01*
X0299879Y0036115D02*
X0299879Y0032153D01*
X0304879Y0032153D02*
X0304879Y0036115D01*
X0309879Y0036115D02*
X0309879Y0032153D01*
X0314879Y0032153D02*
X0314879Y0036115D01*
D12*
X0131335Y0066024D02*
X0131335Y0077835D01*
X0131335Y0125079D02*
X0131335Y0136890D01*
D13*
X0068934Y0141811D03*
X0049249Y0141811D03*
X0049249Y0084724D03*
X0059091Y0084724D03*
X0068934Y0084724D03*
D14*
X0081532Y0114252D03*
X0036650Y0114252D03*
D15*
X0095509Y0109252D02*
X0101414Y0109252D01*
X0101414Y0119252D02*
X0095509Y0119252D01*
X0095509Y0129252D02*
X0101414Y0129252D01*
X0101414Y0099252D02*
X0095509Y0099252D01*
X0162201Y0019764D02*
X0162201Y0013858D01*
X0172201Y0013858D02*
X0172201Y0019764D01*
X0182201Y0019764D02*
X0182201Y0013858D01*
X0192201Y0013858D02*
X0192201Y0019764D01*
X0213068Y0019764D02*
X0213068Y0013858D01*
X0223068Y0013858D02*
X0223068Y0019764D01*
X0233068Y0019764D02*
X0233068Y0013858D01*
X0243068Y0013858D02*
X0243068Y0019764D01*
X0253068Y0019764D02*
X0253068Y0013858D01*
X0263068Y0013858D02*
X0263068Y0019764D01*
X0273068Y0019764D02*
X0273068Y0013858D01*
X0283068Y0013858D02*
X0283068Y0019764D01*
D16*
X0376020Y0016811D03*
X0072871Y0016811D03*
X0072871Y0186102D03*
X0376020Y0186102D03*
D17*
X0296345Y0150000D03*
X0296345Y0146250D03*
X0287595Y0146250D03*
X0287595Y0150000D03*
X0296345Y0136250D03*
X0296345Y0132500D03*
X0297595Y0113750D03*
X0302595Y0113750D03*
X0288845Y0105000D03*
X0283845Y0105000D03*
X0271345Y0092500D03*
X0267595Y0092500D03*
X0263845Y0092500D03*
X0251345Y0085000D03*
X0258845Y0080000D03*
X0263845Y0082500D03*
X0268220Y0082500D03*
X0285095Y0081250D03*
X0300095Y0077500D03*
X0300095Y0070000D03*
X0290095Y0070000D03*
X0280095Y0070000D03*
X0267595Y0064375D03*
X0263220Y0067500D03*
X0255095Y0063750D03*
X0244470Y0063125D03*
X0239470Y0063125D03*
X0226970Y0073750D03*
X0213845Y0073750D03*
X0197595Y0077500D03*
X0213845Y0087500D03*
X0226970Y0086875D03*
X0213845Y0102500D03*
X0197595Y0107500D03*
X0177595Y0107500D03*
X0177595Y0092500D03*
X0161345Y0091250D03*
X0177595Y0077500D03*
X0161345Y0076250D03*
X0197595Y0092500D03*
X0250095Y0115000D03*
X0255095Y0115000D03*
X0260095Y0115000D03*
X0298845Y0093750D03*
X0313845Y0087500D03*
X0310095Y0070000D03*
X0337595Y0066250D03*
X0337595Y0062500D03*
X0337595Y0058750D03*
X0330095Y0031875D03*
X0245095Y0035000D03*
X0223220Y0046875D03*
X0213220Y0045625D03*
X0208845Y0036875D03*
X0198845Y0057500D03*
D18*
X0221345Y0051250D03*
X0236345Y0051250D03*
X0263220Y0041875D03*
X0241970Y0028125D03*
X0272595Y0025000D03*
X0272595Y0080000D03*
X0276345Y0083750D03*
X0153845Y0083750D03*
X0143845Y0083750D03*
X0131345Y0091250D03*
X0138845Y0098750D03*
D19*
X0161345Y0097500D02*
X0161345Y0091250D01*
X0161345Y0076250D01*
X0157024Y0071929D01*
X0131335Y0071929D01*
X0161345Y0097500D02*
X0166345Y0102500D01*
X0213845Y0102500D01*
X0213845Y0087500D01*
X0218845Y0082500D01*
X0248845Y0082500D01*
X0251345Y0085000D01*
X0253845Y0087500D01*
X0278845Y0087500D01*
X0285095Y0081250D01*
X0288845Y0077500D01*
X0300095Y0077500D01*
X0258845Y0080000D02*
X0258845Y0063750D01*
X0255095Y0063750D01*
X0258845Y0063750D02*
X0258845Y0050000D01*
X0250720Y0041875D01*
X0250720Y0035000D01*
X0245095Y0035000D01*
X0250720Y0035000D02*
X0250720Y0030625D01*
X0253220Y0028125D01*
X0276345Y0028125D01*
X0276345Y0024375D01*
X0273068Y0021097D01*
X0273068Y0016811D01*
X0276345Y0028125D02*
X0326345Y0028125D01*
X0330095Y0031875D01*
D20*
X0317595Y0057500D03*
X0321345Y0072500D03*
X0293845Y0122500D03*
X0247595Y0131250D03*
D21*
X0276345Y0083750D02*
X0276345Y0077500D01*
X0275095Y0076250D01*
X0275095Y0058750D01*
X0259879Y0043533D01*
X0259879Y0034134D01*
X0254879Y0034134D02*
X0254879Y0042283D01*
X0272595Y0060000D01*
X0272595Y0080000D01*
X0236345Y0051250D02*
X0221345Y0051250D01*
X0241970Y0028125D02*
X0248845Y0028125D01*
X0251970Y0025000D01*
X0272595Y0025000D01*
X0153845Y0083750D02*
X0143845Y0083750D01*
X0131345Y0091250D02*
X0138845Y0098750D01*
M02*
