%
M48
M72
T01C0.0157
T02C0.0236
T03C0.0394
T04C0.0787
T05C0.1024
T06C0.1260
%
T01
X30135Y7452
T02
X17760Y10452
X19760Y10452
X21385Y9952
X19760Y8952
X21385Y8452
X19760Y7452
X17760Y7452
X16135Y7327
X15385Y8077
X14385Y8077
X13135Y8827
X13885Y9577
X16135Y8827
X17760Y8952
X21760Y6452
X22260Y6452
X25010Y6952
X25385Y6952
X25885Y7327
X26385Y7452
X26385Y7952
X27260Y7327
X27635Y7702
X28510Y6702
X29510Y6702
X30510Y6702
X32385Y6702
X32385Y7202
X31385Y8452
X29885Y9077
X28885Y10202
X28385Y10202
X28385Y10952
X29510Y10952
X31010Y11452
X31010Y12077
X31010Y12702
X28885Y14827
X26010Y11202
X25510Y11202
X25010Y11202
X26385Y9452
X26385Y8952
X25010Y8077
X26385Y6452
X26635Y6077
X26488Y3116
X26988Y3116
X27488Y3116
X27988Y3116
X28488Y3116
X28988Y3116
X29488Y3116
X29988Y3116
X30488Y3116
X30988Y3116
X31488Y3116
X25988Y3116
X25488Y3116
T03
X4925Y13883
X6893Y13883
X9846Y12627
X9846Y11627
X9846Y10627
X9846Y9627
X6893Y8175
X5909Y8175
X4925Y8175
X16220Y1383
X17220Y1383
X18220Y1383
X19220Y1383
X21307Y1383
X22307Y1383
X23307Y1383
X24307Y1383
X25307Y1383
X26307Y1383
X27307Y1383
X28307Y1383
T04
X13134Y12801
X13134Y6895
T05
X3665Y11127
X8153Y11127
T06
X3941Y1383
X40948Y1383
X40948Y18312
X3941Y18312
X13783Y18312
X13783Y1383
M30
