G75*
%MOIN*%
%OFA0B0*%
%FSLAX25Y25*%
%IPPOS*%
%LPD*%
%AMOC8*
5,1,8,0,0,1.08239X$1,22.5*
%
%ADD10C,0.00591*%
%ADD11C,0.00600*%
%ADD12C,0.00800*%
D10*
X0122083Y0005000D02*
X0122083Y0011624D01*
X0122083Y0015561D02*
X0122083Y0028622D01*
X0122083Y0032559D02*
X0122083Y0044370D01*
X0122083Y0048307D02*
X0122083Y0060118D01*
X0122083Y0064055D02*
X0122083Y0075866D01*
X0122083Y0079803D02*
X0122083Y0091614D01*
X0122083Y0095551D02*
X0122083Y0107362D01*
X0122083Y0111299D02*
X0122083Y0123110D01*
X0122083Y0127047D02*
X0122083Y0138858D01*
X0122083Y0142795D02*
X0122083Y0154606D01*
X0122083Y0158543D02*
X0122083Y0170354D01*
X0122083Y0174291D02*
X0122083Y0186102D01*
X0122083Y0190039D02*
X0122083Y0197913D01*
X0105461Y0134252D02*
X0091461Y0134252D01*
X0091461Y0094252D01*
X0105461Y0094252D01*
X0105461Y0134252D01*
X0072595Y0133750D02*
X0072595Y0123750D01*
X0057595Y0123750D01*
X0057595Y0113750D01*
X0072595Y0113750D01*
X0072595Y0123750D01*
X0072595Y0113750D02*
X0072595Y0103750D01*
X0057595Y0103750D01*
X0057595Y0093750D01*
X0072595Y0093750D01*
X0072595Y0103750D01*
X0057595Y0103750D02*
X0057595Y0113750D01*
X0057595Y0123750D02*
X0057595Y0133750D01*
X0072595Y0133750D01*
X0164249Y0123602D02*
X0164249Y0111398D01*
X0170942Y0111398D01*
X0170942Y0123602D01*
X0164249Y0123602D01*
X0171493Y0117096D02*
X0171493Y0110404D01*
X0183698Y0110404D01*
X0183698Y0117096D01*
X0171493Y0117096D01*
X0184249Y0116102D02*
X0184249Y0103898D01*
X0190942Y0103898D01*
X0190942Y0116102D01*
X0184249Y0116102D01*
X0191493Y0117096D02*
X0191493Y0110404D01*
X0203698Y0110404D01*
X0203698Y0117096D01*
X0191493Y0117096D01*
X0204249Y0116102D02*
X0210942Y0116102D01*
X0210942Y0103898D01*
X0204249Y0103898D01*
X0204249Y0116102D01*
X0224849Y0104724D02*
X0237841Y0104724D01*
X0237841Y0070276D01*
X0224849Y0070276D01*
X0224849Y0104724D01*
X0225463Y0101875D02*
X0225465Y0101958D01*
X0225471Y0102042D01*
X0225481Y0102125D01*
X0225494Y0102207D01*
X0225512Y0102289D01*
X0225534Y0102369D01*
X0225559Y0102449D01*
X0225588Y0102527D01*
X0225620Y0102604D01*
X0225657Y0102680D01*
X0225696Y0102753D01*
X0225740Y0102824D01*
X0225786Y0102894D01*
X0225836Y0102961D01*
X0225889Y0103026D01*
X0225944Y0103088D01*
X0226003Y0103147D01*
X0226065Y0103204D01*
X0226129Y0103257D01*
X0226195Y0103308D01*
X0226264Y0103355D01*
X0226335Y0103399D01*
X0226408Y0103440D01*
X0226483Y0103477D01*
X0226559Y0103510D01*
X0226637Y0103540D01*
X0226717Y0103566D01*
X0226797Y0103589D01*
X0226878Y0103607D01*
X0226961Y0103622D01*
X0227043Y0103633D01*
X0227127Y0103640D01*
X0227210Y0103643D01*
X0227294Y0103642D01*
X0227377Y0103637D01*
X0227460Y0103628D01*
X0227543Y0103615D01*
X0227624Y0103599D01*
X0227705Y0103578D01*
X0227785Y0103554D01*
X0227864Y0103526D01*
X0227941Y0103494D01*
X0228017Y0103459D01*
X0228091Y0103420D01*
X0228163Y0103378D01*
X0228233Y0103332D01*
X0228300Y0103283D01*
X0228366Y0103231D01*
X0228428Y0103176D01*
X0228489Y0103118D01*
X0228546Y0103057D01*
X0228600Y0102994D01*
X0228651Y0102928D01*
X0228700Y0102859D01*
X0228744Y0102789D01*
X0228786Y0102716D01*
X0228824Y0102642D01*
X0228858Y0102566D01*
X0228889Y0102488D01*
X0228916Y0102409D01*
X0228940Y0102329D01*
X0228959Y0102248D01*
X0228975Y0102166D01*
X0228987Y0102083D01*
X0228995Y0102000D01*
X0228999Y0101917D01*
X0228999Y0101833D01*
X0228995Y0101750D01*
X0228987Y0101667D01*
X0228975Y0101584D01*
X0228959Y0101502D01*
X0228940Y0101421D01*
X0228916Y0101341D01*
X0228889Y0101262D01*
X0228858Y0101184D01*
X0228824Y0101108D01*
X0228786Y0101034D01*
X0228744Y0100961D01*
X0228700Y0100891D01*
X0228651Y0100822D01*
X0228600Y0100756D01*
X0228546Y0100693D01*
X0228489Y0100632D01*
X0228428Y0100574D01*
X0228366Y0100519D01*
X0228300Y0100467D01*
X0228233Y0100418D01*
X0228163Y0100372D01*
X0228091Y0100330D01*
X0228017Y0100291D01*
X0227941Y0100256D01*
X0227864Y0100224D01*
X0227785Y0100196D01*
X0227705Y0100172D01*
X0227624Y0100151D01*
X0227543Y0100135D01*
X0227460Y0100122D01*
X0227377Y0100113D01*
X0227294Y0100108D01*
X0227210Y0100107D01*
X0227127Y0100110D01*
X0227043Y0100117D01*
X0226961Y0100128D01*
X0226878Y0100143D01*
X0226797Y0100161D01*
X0226717Y0100184D01*
X0226637Y0100210D01*
X0226559Y0100240D01*
X0226483Y0100273D01*
X0226408Y0100310D01*
X0226335Y0100351D01*
X0226264Y0100395D01*
X0226195Y0100442D01*
X0226129Y0100493D01*
X0226065Y0100546D01*
X0226003Y0100603D01*
X0225944Y0100662D01*
X0225889Y0100724D01*
X0225836Y0100789D01*
X0225786Y0100856D01*
X0225740Y0100926D01*
X0225696Y0100997D01*
X0225657Y0101070D01*
X0225620Y0101146D01*
X0225588Y0101223D01*
X0225559Y0101301D01*
X0225534Y0101381D01*
X0225512Y0101461D01*
X0225494Y0101543D01*
X0225481Y0101625D01*
X0225471Y0101708D01*
X0225465Y0101792D01*
X0225463Y0101875D01*
X0210942Y0101102D02*
X0204249Y0101102D01*
X0204249Y0088898D01*
X0210942Y0088898D01*
X0210942Y0101102D01*
X0203698Y0102096D02*
X0203698Y0095404D01*
X0191493Y0095404D01*
X0191493Y0102096D01*
X0203698Y0102096D01*
X0190942Y0101102D02*
X0184249Y0101102D01*
X0184249Y0088898D01*
X0190942Y0088898D01*
X0190942Y0101102D01*
X0183698Y0102096D02*
X0171493Y0102096D01*
X0171493Y0095404D01*
X0183698Y0095404D01*
X0183698Y0102096D01*
X0170942Y0101102D02*
X0164249Y0101102D01*
X0164249Y0088898D01*
X0170942Y0088898D01*
X0170942Y0101102D01*
X0171493Y0087096D02*
X0171493Y0080404D01*
X0183698Y0080404D01*
X0183698Y0087096D01*
X0171493Y0087096D01*
X0170942Y0086102D02*
X0164249Y0086102D01*
X0164249Y0073898D01*
X0170942Y0073898D01*
X0170942Y0086102D01*
X0184249Y0086102D02*
X0184249Y0073898D01*
X0190942Y0073898D01*
X0190942Y0086102D01*
X0184249Y0086102D01*
X0191493Y0087096D02*
X0191493Y0080404D01*
X0203698Y0080404D01*
X0203698Y0087096D01*
X0191493Y0087096D01*
X0204249Y0086102D02*
X0210942Y0086102D01*
X0210942Y0073898D01*
X0204249Y0073898D01*
X0204249Y0086102D01*
X0203624Y0064852D02*
X0210317Y0064852D01*
X0210317Y0052648D01*
X0203624Y0052648D01*
X0203624Y0064852D01*
X0219514Y0056531D02*
X0219514Y0044719D01*
X0228176Y0044719D01*
X0228176Y0056531D01*
X0219514Y0056531D01*
X0220302Y0054168D02*
X0220304Y0054247D01*
X0220310Y0054326D01*
X0220320Y0054405D01*
X0220334Y0054483D01*
X0220351Y0054560D01*
X0220373Y0054636D01*
X0220398Y0054711D01*
X0220428Y0054784D01*
X0220460Y0054856D01*
X0220497Y0054927D01*
X0220537Y0054995D01*
X0220580Y0055061D01*
X0220626Y0055125D01*
X0220676Y0055187D01*
X0220729Y0055246D01*
X0220784Y0055302D01*
X0220843Y0055356D01*
X0220904Y0055406D01*
X0220967Y0055454D01*
X0221033Y0055498D01*
X0221101Y0055539D01*
X0221171Y0055576D01*
X0221242Y0055610D01*
X0221316Y0055640D01*
X0221390Y0055666D01*
X0221466Y0055688D01*
X0221543Y0055707D01*
X0221621Y0055722D01*
X0221699Y0055733D01*
X0221778Y0055740D01*
X0221857Y0055743D01*
X0221936Y0055742D01*
X0222015Y0055737D01*
X0222094Y0055728D01*
X0222172Y0055715D01*
X0222249Y0055698D01*
X0222326Y0055678D01*
X0222401Y0055653D01*
X0222475Y0055625D01*
X0222548Y0055593D01*
X0222618Y0055558D01*
X0222687Y0055519D01*
X0222754Y0055476D01*
X0222819Y0055430D01*
X0222881Y0055382D01*
X0222941Y0055330D01*
X0222998Y0055275D01*
X0223052Y0055217D01*
X0223103Y0055157D01*
X0223151Y0055094D01*
X0223196Y0055029D01*
X0223238Y0054961D01*
X0223276Y0054892D01*
X0223310Y0054821D01*
X0223341Y0054748D01*
X0223369Y0054673D01*
X0223392Y0054598D01*
X0223412Y0054521D01*
X0223428Y0054444D01*
X0223440Y0054365D01*
X0223448Y0054287D01*
X0223452Y0054208D01*
X0223452Y0054128D01*
X0223448Y0054049D01*
X0223440Y0053971D01*
X0223428Y0053892D01*
X0223412Y0053815D01*
X0223392Y0053738D01*
X0223369Y0053663D01*
X0223341Y0053588D01*
X0223310Y0053515D01*
X0223276Y0053444D01*
X0223238Y0053375D01*
X0223196Y0053307D01*
X0223151Y0053242D01*
X0223103Y0053179D01*
X0223052Y0053119D01*
X0222998Y0053061D01*
X0222941Y0053006D01*
X0222881Y0052954D01*
X0222819Y0052906D01*
X0222754Y0052860D01*
X0222687Y0052817D01*
X0222618Y0052778D01*
X0222548Y0052743D01*
X0222475Y0052711D01*
X0222401Y0052683D01*
X0222326Y0052658D01*
X0222249Y0052638D01*
X0222172Y0052621D01*
X0222094Y0052608D01*
X0222015Y0052599D01*
X0221936Y0052594D01*
X0221857Y0052593D01*
X0221778Y0052596D01*
X0221699Y0052603D01*
X0221621Y0052614D01*
X0221543Y0052629D01*
X0221466Y0052648D01*
X0221390Y0052670D01*
X0221316Y0052696D01*
X0221242Y0052726D01*
X0221171Y0052760D01*
X0221101Y0052797D01*
X0221033Y0052838D01*
X0220967Y0052882D01*
X0220904Y0052930D01*
X0220843Y0052980D01*
X0220784Y0053034D01*
X0220729Y0053090D01*
X0220676Y0053149D01*
X0220626Y0053211D01*
X0220580Y0053275D01*
X0220537Y0053341D01*
X0220497Y0053409D01*
X0220460Y0053480D01*
X0220428Y0053552D01*
X0220398Y0053625D01*
X0220373Y0053700D01*
X0220351Y0053776D01*
X0220334Y0053853D01*
X0220320Y0053931D01*
X0220310Y0054010D01*
X0220304Y0054089D01*
X0220302Y0054168D01*
X0223368Y0057279D02*
X0235573Y0057279D01*
X0235573Y0063971D01*
X0223368Y0063971D01*
X0223368Y0057279D01*
X0210317Y0051727D02*
X0203624Y0051727D01*
X0203624Y0039523D01*
X0210317Y0039523D01*
X0210317Y0051727D01*
X0202251Y0046737D02*
X0202251Y0037682D01*
X0197920Y0037682D01*
X0197920Y0042013D01*
X0194770Y0042013D01*
X0194770Y0037682D01*
X0190440Y0037682D01*
X0190440Y0046737D01*
X0193983Y0046737D01*
X0193983Y0051068D01*
X0198707Y0051068D01*
X0198707Y0046737D01*
X0202251Y0046737D01*
X0211493Y0042096D02*
X0211493Y0035404D01*
X0223698Y0035404D01*
X0223698Y0042096D01*
X0211493Y0042096D01*
X0223993Y0042096D02*
X0223993Y0035404D01*
X0236198Y0035404D01*
X0236198Y0042096D01*
X0223993Y0042096D01*
X0237999Y0045148D02*
X0244692Y0045148D01*
X0244692Y0057352D01*
X0237999Y0057352D01*
X0237999Y0045148D01*
X0245499Y0045148D02*
X0252192Y0045148D01*
X0252192Y0057352D01*
X0245499Y0057352D01*
X0245499Y0045148D01*
X0255499Y0048898D02*
X0262192Y0048898D01*
X0262192Y0061102D01*
X0255499Y0061102D01*
X0255499Y0048898D01*
X0262999Y0048898D02*
X0269692Y0048898D01*
X0269692Y0061102D01*
X0262999Y0061102D01*
X0262999Y0048898D01*
X0270499Y0055148D02*
X0277192Y0055148D01*
X0277192Y0067352D01*
X0270499Y0067352D01*
X0270499Y0055148D01*
X0276749Y0053602D02*
X0283442Y0053602D01*
X0283442Y0041398D01*
X0276749Y0041398D01*
X0276749Y0053602D01*
X0281749Y0055148D02*
X0288442Y0055148D01*
X0288442Y0067352D01*
X0281749Y0067352D01*
X0281749Y0055148D01*
X0286749Y0053602D02*
X0293442Y0053602D01*
X0293442Y0041398D01*
X0286749Y0041398D01*
X0286749Y0053602D01*
X0291749Y0055148D02*
X0298442Y0055148D01*
X0298442Y0067352D01*
X0291749Y0067352D01*
X0291749Y0055148D01*
X0296749Y0053602D02*
X0303442Y0053602D01*
X0303442Y0041398D01*
X0296749Y0041398D01*
X0296749Y0053602D01*
X0301749Y0055148D02*
X0308442Y0055148D01*
X0308442Y0067352D01*
X0301749Y0067352D01*
X0301749Y0055148D01*
X0306749Y0053602D02*
X0313442Y0053602D01*
X0313442Y0041398D01*
X0306749Y0041398D01*
X0306749Y0053602D01*
X0320440Y0052362D02*
X0320440Y0043307D01*
X0324770Y0043307D01*
X0324770Y0047638D01*
X0327920Y0047638D01*
X0327920Y0043307D01*
X0332251Y0043307D01*
X0332251Y0052362D01*
X0328707Y0052362D01*
X0328707Y0056693D01*
X0323983Y0056693D01*
X0323983Y0052362D01*
X0320440Y0052362D01*
X0322743Y0059154D02*
X0334948Y0059154D01*
X0334948Y0065846D01*
X0322743Y0065846D01*
X0322743Y0059154D01*
X0320243Y0040846D02*
X0320243Y0034154D01*
X0332448Y0034154D01*
X0332448Y0040846D01*
X0320243Y0040846D01*
X0333993Y0033346D02*
X0333993Y0026654D01*
X0346198Y0026654D01*
X0346198Y0033346D01*
X0333993Y0033346D01*
X0337408Y0023750D02*
X0329908Y0023750D01*
X0329908Y0008750D01*
X0322408Y0008750D01*
X0322408Y0023750D01*
X0329908Y0023750D01*
X0322408Y0023750D02*
X0314908Y0023750D01*
X0314908Y0008750D01*
X0307408Y0008750D01*
X0307408Y0023750D01*
X0314908Y0023750D01*
X0307408Y0023750D02*
X0299908Y0023750D01*
X0299908Y0008750D01*
X0292408Y0008750D01*
X0292408Y0023750D01*
X0299908Y0023750D01*
X0299908Y0008750D02*
X0307408Y0008750D01*
X0314908Y0008750D02*
X0322408Y0008750D01*
X0329908Y0008750D02*
X0337408Y0008750D01*
X0337408Y0023750D01*
X0344908Y0023750D01*
X0344908Y0008750D01*
X0337408Y0008750D01*
X0344908Y0008750D02*
X0352408Y0008750D01*
X0352408Y0023750D01*
X0344908Y0023750D01*
X0253442Y0068898D02*
X0253442Y0081102D01*
X0246749Y0081102D01*
X0246749Y0068898D01*
X0253442Y0068898D01*
X0288471Y0081870D02*
X0304219Y0081870D01*
X0304219Y0103130D01*
X0288471Y0103130D01*
X0288471Y0081870D01*
X0317999Y0080148D02*
X0324692Y0080148D01*
X0324692Y0092352D01*
X0317999Y0092352D01*
X0317999Y0080148D01*
X0316493Y0094154D02*
X0316493Y0100846D01*
X0328698Y0100846D01*
X0328698Y0094154D01*
X0316493Y0094154D01*
X0316493Y0101654D02*
X0316493Y0108346D01*
X0328698Y0108346D01*
X0328698Y0101654D01*
X0316493Y0101654D01*
X0311198Y0104154D02*
X0311198Y0110846D01*
X0298993Y0110846D01*
X0298993Y0104154D01*
X0311198Y0104154D01*
X0289653Y0100472D02*
X0289655Y0100549D01*
X0289661Y0100625D01*
X0289671Y0100701D01*
X0289685Y0100776D01*
X0289702Y0100851D01*
X0289724Y0100924D01*
X0289749Y0100997D01*
X0289779Y0101068D01*
X0289811Y0101137D01*
X0289848Y0101204D01*
X0289887Y0101270D01*
X0289930Y0101333D01*
X0289977Y0101394D01*
X0290026Y0101453D01*
X0290079Y0101509D01*
X0290134Y0101562D01*
X0290192Y0101612D01*
X0290252Y0101659D01*
X0290315Y0101703D01*
X0290380Y0101744D01*
X0290447Y0101781D01*
X0290516Y0101815D01*
X0290586Y0101845D01*
X0290658Y0101871D01*
X0290732Y0101893D01*
X0290806Y0101912D01*
X0290881Y0101927D01*
X0290957Y0101938D01*
X0291033Y0101945D01*
X0291110Y0101948D01*
X0291186Y0101947D01*
X0291263Y0101942D01*
X0291339Y0101933D01*
X0291415Y0101920D01*
X0291489Y0101903D01*
X0291563Y0101883D01*
X0291636Y0101858D01*
X0291707Y0101830D01*
X0291777Y0101798D01*
X0291845Y0101763D01*
X0291911Y0101724D01*
X0291975Y0101682D01*
X0292036Y0101636D01*
X0292096Y0101587D01*
X0292152Y0101536D01*
X0292206Y0101481D01*
X0292257Y0101424D01*
X0292305Y0101364D01*
X0292350Y0101302D01*
X0292391Y0101237D01*
X0292429Y0101171D01*
X0292464Y0101103D01*
X0292494Y0101032D01*
X0292522Y0100961D01*
X0292545Y0100888D01*
X0292565Y0100814D01*
X0292581Y0100739D01*
X0292593Y0100663D01*
X0292601Y0100587D01*
X0292605Y0100510D01*
X0292605Y0100434D01*
X0292601Y0100357D01*
X0292593Y0100281D01*
X0292581Y0100205D01*
X0292565Y0100130D01*
X0292545Y0100056D01*
X0292522Y0099983D01*
X0292494Y0099912D01*
X0292464Y0099841D01*
X0292429Y0099773D01*
X0292391Y0099707D01*
X0292350Y0099642D01*
X0292305Y0099580D01*
X0292257Y0099520D01*
X0292206Y0099463D01*
X0292152Y0099408D01*
X0292096Y0099357D01*
X0292036Y0099308D01*
X0291975Y0099262D01*
X0291911Y0099220D01*
X0291845Y0099181D01*
X0291777Y0099146D01*
X0291707Y0099114D01*
X0291636Y0099086D01*
X0291563Y0099061D01*
X0291489Y0099041D01*
X0291415Y0099024D01*
X0291339Y0099011D01*
X0291263Y0099002D01*
X0291186Y0098997D01*
X0291110Y0098996D01*
X0291033Y0098999D01*
X0290957Y0099006D01*
X0290881Y0099017D01*
X0290806Y0099032D01*
X0290732Y0099051D01*
X0290658Y0099073D01*
X0290586Y0099099D01*
X0290516Y0099129D01*
X0290447Y0099163D01*
X0290380Y0099200D01*
X0290315Y0099241D01*
X0290252Y0099285D01*
X0290192Y0099332D01*
X0290134Y0099382D01*
X0290079Y0099435D01*
X0290026Y0099491D01*
X0289977Y0099550D01*
X0289930Y0099611D01*
X0289887Y0099674D01*
X0289848Y0099740D01*
X0289811Y0099807D01*
X0289779Y0099876D01*
X0289749Y0099947D01*
X0289724Y0100020D01*
X0289702Y0100093D01*
X0289685Y0100168D01*
X0289671Y0100243D01*
X0289661Y0100319D01*
X0289655Y0100395D01*
X0289653Y0100472D01*
X0262192Y0100148D02*
X0262192Y0112352D01*
X0255499Y0112352D01*
X0255499Y0100148D01*
X0262192Y0100148D01*
X0254692Y0100148D02*
X0254692Y0112352D01*
X0247999Y0112352D01*
X0247999Y0100148D01*
X0254692Y0100148D01*
X0272743Y0130404D02*
X0272743Y0137096D01*
X0284948Y0137096D01*
X0284948Y0130404D01*
X0272743Y0130404D01*
X0270538Y0131594D02*
X0261483Y0131594D01*
X0261483Y0135138D01*
X0257152Y0135138D01*
X0257152Y0139862D01*
X0261483Y0139862D01*
X0261483Y0143406D01*
X0270538Y0143406D01*
X0270538Y0139075D01*
X0266207Y0139075D01*
X0266207Y0135925D01*
X0270538Y0135925D01*
X0270538Y0131594D01*
X0272743Y0137904D02*
X0272743Y0144596D01*
X0284948Y0144596D01*
X0284948Y0137904D01*
X0272743Y0137904D01*
X0272743Y0145404D02*
X0272743Y0152096D01*
X0284948Y0152096D01*
X0284948Y0145404D01*
X0272743Y0145404D01*
X0286749Y0143602D02*
X0293442Y0143602D01*
X0293442Y0131398D01*
X0286749Y0131398D01*
X0286749Y0143602D01*
X0298993Y0144154D02*
X0298993Y0150846D01*
X0311198Y0150846D01*
X0311198Y0144154D01*
X0298993Y0144154D01*
X0303589Y0143012D02*
X0309101Y0143012D01*
X0309101Y0131988D01*
X0303589Y0131988D01*
X0303589Y0143012D01*
X0197201Y0023811D02*
X0157201Y0023811D01*
X0157201Y0009811D01*
X0197201Y0009811D01*
X0197201Y0023811D01*
X0154470Y0023750D02*
X0154470Y0008750D01*
X0146970Y0008750D01*
X0146970Y0023750D01*
X0139470Y0023750D01*
X0139470Y0008750D01*
X0146970Y0008750D01*
X0139470Y0008750D02*
X0131970Y0008750D01*
X0131970Y0023750D01*
X0124470Y0023750D01*
X0124470Y0008750D01*
X0131970Y0008750D01*
X0131970Y0023750D02*
X0139470Y0023750D01*
X0146970Y0023750D02*
X0154470Y0023750D01*
D11*
X0152920Y0021710D02*
X0152186Y0022444D01*
X0149250Y0022444D01*
X0148516Y0021710D01*
X0148516Y0019508D01*
X0152920Y0019508D01*
X0152920Y0021710D01*
X0145420Y0021710D02*
X0145420Y0020242D01*
X0144686Y0019508D01*
X0141750Y0022444D01*
X0144686Y0022444D01*
X0145420Y0021710D01*
X0144686Y0019508D02*
X0141750Y0019508D01*
X0141016Y0020242D01*
X0141016Y0021710D01*
X0141750Y0022444D01*
X0141750Y0017840D02*
X0142484Y0017840D01*
X0143218Y0017106D01*
X0143218Y0014904D01*
X0143218Y0013236D02*
X0143952Y0012502D01*
X0143952Y0010300D01*
X0145420Y0010300D02*
X0141016Y0010300D01*
X0141016Y0012502D01*
X0141750Y0013236D01*
X0143218Y0013236D01*
X0141016Y0014904D02*
X0141016Y0017106D01*
X0141750Y0017840D01*
X0143218Y0017106D02*
X0143952Y0017840D01*
X0144686Y0017840D01*
X0145420Y0017106D01*
X0145420Y0014904D01*
X0141016Y0014904D01*
X0137920Y0015638D02*
X0137920Y0017106D01*
X0137186Y0017840D01*
X0134250Y0017840D01*
X0137186Y0014904D01*
X0137920Y0015638D01*
X0137186Y0014904D02*
X0134250Y0014904D01*
X0133516Y0015638D01*
X0133516Y0017106D01*
X0134250Y0017840D01*
X0130420Y0017106D02*
X0130420Y0015638D01*
X0129686Y0014904D01*
X0126750Y0017840D01*
X0129686Y0017840D01*
X0130420Y0017106D01*
X0129686Y0014904D02*
X0126750Y0014904D01*
X0126016Y0015638D01*
X0126016Y0017106D01*
X0126750Y0017840D01*
X0127484Y0013236D02*
X0130420Y0013236D01*
X0128218Y0013236D02*
X0128218Y0010300D01*
X0127484Y0010300D02*
X0130420Y0010300D01*
X0127484Y0010300D02*
X0126016Y0011768D01*
X0127484Y0013236D01*
X0133516Y0012502D02*
X0133516Y0010300D01*
X0137920Y0010300D01*
X0137920Y0012502D01*
X0137186Y0013236D01*
X0136452Y0013236D01*
X0135718Y0012502D01*
X0135718Y0010300D01*
X0135718Y0012502D02*
X0134984Y0013236D01*
X0134250Y0013236D01*
X0133516Y0012502D01*
X0148516Y0012502D02*
X0148516Y0011034D01*
X0149250Y0010300D01*
X0152186Y0010300D01*
X0152920Y0011034D01*
X0152920Y0012502D01*
X0152186Y0013236D01*
X0150718Y0013236D01*
X0150718Y0011768D01*
X0149250Y0013236D02*
X0148516Y0012502D01*
X0148516Y0014904D02*
X0152920Y0017840D01*
X0148516Y0017840D01*
X0148516Y0014904D02*
X0152920Y0014904D01*
X0198836Y0046581D02*
X0201945Y0046581D01*
X0256641Y0047382D02*
X0259577Y0047382D01*
X0261045Y0045914D01*
X0259577Y0044446D01*
X0256641Y0044446D01*
X0256641Y0042778D02*
X0256641Y0039842D01*
X0258843Y0039842D01*
X0258109Y0041310D01*
X0258109Y0042044D01*
X0258843Y0042778D01*
X0260311Y0042778D01*
X0261045Y0042044D01*
X0261045Y0040576D01*
X0260311Y0039842D01*
X0264141Y0040576D02*
X0264141Y0042044D01*
X0264875Y0042778D01*
X0265609Y0042778D01*
X0266343Y0042044D01*
X0267077Y0042778D01*
X0267811Y0042778D01*
X0268545Y0042044D01*
X0268545Y0040576D01*
X0267811Y0039842D01*
X0266343Y0041310D02*
X0266343Y0042044D01*
X0267077Y0044446D02*
X0264141Y0044446D01*
X0267077Y0044446D02*
X0268545Y0045914D01*
X0267077Y0047382D01*
X0264141Y0047382D01*
X0271641Y0046826D02*
X0271641Y0048294D01*
X0272375Y0049028D01*
X0273109Y0049028D01*
X0273843Y0048294D01*
X0274577Y0049028D01*
X0275311Y0049028D01*
X0276045Y0048294D01*
X0276045Y0046826D01*
X0275311Y0046092D01*
X0273843Y0047560D02*
X0273843Y0048294D01*
X0274577Y0050696D02*
X0271641Y0050696D01*
X0271641Y0053632D02*
X0274577Y0053632D01*
X0276045Y0052164D01*
X0274577Y0050696D01*
X0271641Y0046826D02*
X0272375Y0046092D01*
X0264875Y0039842D02*
X0264141Y0040576D01*
X0308954Y0017106D02*
X0309688Y0017840D01*
X0310422Y0017840D01*
X0311156Y0017106D01*
X0311156Y0014904D01*
X0311156Y0013236D02*
X0311890Y0012502D01*
X0311890Y0010300D01*
X0313358Y0010300D02*
X0308954Y0010300D01*
X0308954Y0012502D01*
X0309688Y0013236D01*
X0311156Y0013236D01*
X0308954Y0014904D02*
X0308954Y0017106D01*
X0308954Y0014904D02*
X0313358Y0014904D01*
X0313358Y0017106D01*
X0312624Y0017840D01*
X0311890Y0017840D01*
X0311156Y0017106D01*
X0316454Y0017840D02*
X0320858Y0017840D01*
X0316454Y0014904D01*
X0320858Y0014904D01*
X0320124Y0013236D02*
X0318656Y0013236D01*
X0318656Y0011768D01*
X0317188Y0013236D02*
X0316454Y0012502D01*
X0316454Y0011034D01*
X0317188Y0010300D01*
X0320124Y0010300D01*
X0320858Y0011034D01*
X0320858Y0012502D01*
X0320124Y0013236D01*
X0323954Y0012502D02*
X0323954Y0011034D01*
X0324688Y0010300D01*
X0325422Y0010300D01*
X0326156Y0011034D01*
X0326156Y0012502D01*
X0326890Y0013236D01*
X0327624Y0013236D01*
X0328358Y0012502D01*
X0328358Y0011034D01*
X0327624Y0010300D01*
X0331454Y0011034D02*
X0331454Y0012502D01*
X0332188Y0013236D01*
X0333656Y0012502D02*
X0333656Y0011034D01*
X0332922Y0010300D01*
X0332188Y0010300D01*
X0331454Y0011034D01*
X0333656Y0012502D02*
X0334390Y0013236D01*
X0335124Y0013236D01*
X0335858Y0012502D01*
X0335858Y0011034D01*
X0335124Y0010300D01*
X0338954Y0010300D02*
X0341890Y0010300D01*
X0343358Y0011768D01*
X0341890Y0013236D01*
X0338954Y0013236D01*
X0339688Y0014904D02*
X0342624Y0014904D01*
X0343358Y0015638D01*
X0343358Y0017106D01*
X0342624Y0017840D01*
X0342624Y0019508D02*
X0339688Y0019508D01*
X0338954Y0020242D01*
X0338954Y0021710D01*
X0339688Y0022444D01*
X0342624Y0022444D02*
X0343358Y0021710D01*
X0343358Y0020242D01*
X0342624Y0019508D01*
X0339688Y0017840D02*
X0338954Y0017106D01*
X0338954Y0015638D01*
X0339688Y0014904D01*
X0335858Y0015638D02*
X0335858Y0017106D01*
X0335124Y0017840D01*
X0335858Y0019508D02*
X0331454Y0019508D01*
X0332188Y0017840D02*
X0331454Y0017106D01*
X0331454Y0015638D01*
X0332188Y0014904D01*
X0335124Y0014904D01*
X0335858Y0015638D01*
X0328358Y0014904D02*
X0328358Y0017106D01*
X0327624Y0017840D01*
X0324688Y0017840D01*
X0323954Y0017106D01*
X0323954Y0014904D01*
X0328358Y0014904D01*
X0324688Y0013236D02*
X0323954Y0012502D01*
X0325422Y0019508D02*
X0323954Y0020976D01*
X0325422Y0022444D01*
X0328358Y0022444D01*
X0326156Y0022444D02*
X0326156Y0019508D01*
X0325422Y0019508D02*
X0328358Y0019508D01*
X0335858Y0019508D02*
X0335858Y0022444D01*
X0346454Y0017840D02*
X0350858Y0017840D01*
X0346454Y0014904D01*
X0350858Y0014904D01*
X0350858Y0013236D02*
X0350858Y0010300D01*
X0346454Y0010300D01*
X0346454Y0013236D01*
X0348656Y0011768D02*
X0348656Y0010300D01*
X0320858Y0019508D02*
X0320858Y0021710D01*
X0320124Y0022444D01*
X0317188Y0022444D01*
X0316454Y0021710D01*
X0316454Y0019508D01*
X0320858Y0019508D01*
X0305858Y0013236D02*
X0302922Y0013236D01*
X0301454Y0011768D01*
X0302922Y0010300D01*
X0305858Y0010300D01*
X0303656Y0010300D02*
X0303656Y0013236D01*
X0298358Y0012502D02*
X0298358Y0010300D01*
X0293954Y0010300D01*
X0293954Y0012502D01*
X0294688Y0013236D01*
X0295422Y0013236D01*
X0296156Y0012502D01*
X0296156Y0010300D01*
X0296156Y0012502D02*
X0296890Y0013236D01*
X0297624Y0013236D01*
X0298358Y0012502D01*
X0334145Y0036034D02*
X0334879Y0035300D01*
X0336347Y0035300D01*
X0337081Y0036034D01*
X0337081Y0038970D01*
X0336347Y0039704D01*
X0334879Y0039704D01*
X0334145Y0038970D01*
X0334145Y0036034D01*
X0338749Y0035300D02*
X0338749Y0039704D01*
X0341685Y0039704D01*
X0343353Y0039704D02*
X0346289Y0039704D01*
X0344821Y0037502D02*
X0343353Y0037502D01*
X0343353Y0035300D02*
X0343353Y0039704D01*
X0340217Y0037502D02*
X0338749Y0037502D01*
X0347895Y0031470D02*
X0348629Y0032204D01*
X0350097Y0032204D01*
X0350831Y0031470D01*
X0350831Y0028534D01*
X0350097Y0027800D01*
X0348629Y0027800D01*
X0347895Y0028534D01*
X0347895Y0031470D01*
X0352499Y0032204D02*
X0352499Y0027800D01*
X0355435Y0027800D02*
X0355435Y0032204D01*
X0352499Y0032204D02*
X0355435Y0027800D01*
X0331945Y0052206D02*
X0328836Y0052206D01*
X0298545Y0086661D02*
X0298545Y0088129D01*
X0298545Y0087395D02*
X0294141Y0087395D01*
X0294141Y0086661D02*
X0294141Y0088129D01*
X0294875Y0089731D02*
X0294141Y0090465D01*
X0294141Y0091933D01*
X0294875Y0092667D01*
X0295609Y0094335D02*
X0294141Y0095803D01*
X0298545Y0095803D01*
X0298545Y0097270D02*
X0298545Y0094335D01*
X0297811Y0092667D02*
X0298545Y0091933D01*
X0298545Y0090465D01*
X0297811Y0089731D01*
X0294875Y0089731D01*
X0330395Y0095300D02*
X0333331Y0099704D01*
X0330395Y0099704D02*
X0333331Y0095300D01*
X0331863Y0102800D02*
X0331863Y0105002D01*
X0333331Y0106470D01*
X0333331Y0107204D01*
X0331863Y0105002D02*
X0330395Y0106470D01*
X0330395Y0107204D01*
X0308014Y0132966D02*
X0308014Y0134080D01*
X0308014Y0133523D02*
X0304674Y0133523D01*
X0304674Y0132966D02*
X0304674Y0134080D01*
X0305230Y0135383D02*
X0307457Y0135383D01*
X0308014Y0135940D01*
X0308014Y0137053D01*
X0307457Y0137610D01*
X0306344Y0139008D02*
X0306344Y0141235D01*
X0308014Y0140678D02*
X0304674Y0140678D01*
X0306344Y0139008D01*
X0305230Y0137610D02*
X0304674Y0137053D01*
X0304674Y0135940D01*
X0305230Y0135383D01*
X0261639Y0139991D02*
X0261639Y0143100D01*
X0240162Y0156034D02*
X0239428Y0155300D01*
X0237960Y0155300D01*
X0237227Y0156034D01*
X0240162Y0158970D01*
X0240162Y0156034D01*
X0237227Y0156034D02*
X0237227Y0158970D01*
X0237960Y0159704D01*
X0239428Y0159704D01*
X0240162Y0158970D01*
X0235558Y0158970D02*
X0235558Y0159704D01*
X0235558Y0158970D02*
X0234091Y0157502D01*
X0234091Y0155300D01*
X0234091Y0157502D02*
X0232623Y0158970D01*
X0232623Y0159704D01*
X0230955Y0159704D02*
X0228019Y0155300D01*
X0226351Y0155300D02*
X0223415Y0155300D01*
X0224883Y0155300D02*
X0224883Y0159704D01*
X0223415Y0158236D01*
X0221747Y0158970D02*
X0218811Y0156034D01*
X0219545Y0155300D01*
X0221013Y0155300D01*
X0221747Y0156034D01*
X0221747Y0158970D01*
X0221013Y0159704D01*
X0219545Y0159704D01*
X0218811Y0158970D01*
X0218811Y0156034D01*
X0217143Y0155300D02*
X0214207Y0155300D01*
X0215675Y0155300D02*
X0215675Y0159704D01*
X0214207Y0158236D01*
X0212539Y0158970D02*
X0209603Y0156034D01*
X0210337Y0155300D01*
X0211805Y0155300D01*
X0212539Y0156034D01*
X0212539Y0158970D01*
X0211805Y0159704D01*
X0210337Y0159704D01*
X0209603Y0158970D01*
X0209603Y0156034D01*
X0207935Y0156034D02*
X0207201Y0155300D01*
X0204999Y0155300D01*
X0204999Y0159704D01*
X0204999Y0158236D02*
X0207201Y0158236D01*
X0207935Y0157502D01*
X0207935Y0156034D01*
X0203331Y0156034D02*
X0202597Y0155300D01*
X0201129Y0155300D01*
X0200395Y0156034D01*
X0203331Y0158970D01*
X0203331Y0156034D01*
X0203331Y0158970D02*
X0202597Y0159704D01*
X0201129Y0159704D01*
X0200395Y0158970D01*
X0200395Y0156034D01*
X0194817Y0156034D02*
X0194817Y0155300D01*
X0194083Y0155300D01*
X0194083Y0156034D01*
X0194817Y0156034D01*
X0194817Y0157502D02*
X0194083Y0157502D01*
X0194083Y0158236D01*
X0194817Y0158236D01*
X0194817Y0157502D01*
X0192415Y0158236D02*
X0190213Y0158236D01*
X0189479Y0157502D01*
X0190213Y0156768D01*
X0191681Y0156768D01*
X0192415Y0156034D01*
X0191681Y0155300D01*
X0189479Y0155300D01*
X0187811Y0156034D02*
X0187077Y0156768D01*
X0185609Y0156768D01*
X0184875Y0157502D01*
X0185609Y0158236D01*
X0187811Y0158236D01*
X0187811Y0156034D02*
X0187077Y0155300D01*
X0184875Y0155300D01*
X0183207Y0156768D02*
X0180271Y0156768D01*
X0180271Y0157502D02*
X0181005Y0158236D01*
X0182473Y0158236D01*
X0183207Y0157502D01*
X0183207Y0156768D01*
X0182473Y0155300D02*
X0181005Y0155300D01*
X0180271Y0156034D01*
X0180271Y0157502D01*
X0178636Y0158236D02*
X0177902Y0158236D01*
X0176434Y0156768D01*
X0176434Y0155300D02*
X0176434Y0158236D01*
X0174766Y0158236D02*
X0172564Y0158236D01*
X0171830Y0157502D01*
X0171830Y0156034D01*
X0172564Y0155300D01*
X0174766Y0155300D01*
X0174766Y0159704D01*
X0170162Y0159704D02*
X0170162Y0155300D01*
X0167960Y0155300D01*
X0167227Y0156034D01*
X0167227Y0157502D01*
X0167960Y0158236D01*
X0170162Y0158236D01*
X0165558Y0158236D02*
X0165558Y0155300D01*
X0165558Y0157502D02*
X0162623Y0157502D01*
X0162623Y0158236D02*
X0162623Y0155300D01*
X0162623Y0158236D02*
X0164091Y0159704D01*
X0165558Y0158236D01*
X0164157Y0164050D02*
X0164157Y0166986D01*
X0165625Y0168454D01*
X0167093Y0166986D01*
X0167093Y0164050D01*
X0168761Y0164784D02*
X0169495Y0164050D01*
X0171697Y0164050D01*
X0171697Y0168454D01*
X0171697Y0166986D02*
X0169495Y0166986D01*
X0168761Y0166252D01*
X0168761Y0164784D01*
X0167093Y0166252D02*
X0164157Y0166252D01*
X0157885Y0166986D02*
X0157885Y0163316D01*
X0157151Y0162582D01*
X0156417Y0162582D01*
X0155683Y0164050D02*
X0157885Y0164050D01*
X0155683Y0164050D02*
X0154949Y0164784D01*
X0154949Y0166986D01*
X0153281Y0166252D02*
X0153281Y0164050D01*
X0151079Y0164050D01*
X0150345Y0164784D01*
X0151079Y0165518D01*
X0153281Y0165518D01*
X0153281Y0166252D02*
X0152547Y0166986D01*
X0151079Y0166986D01*
X0148010Y0168454D02*
X0148010Y0164050D01*
X0147276Y0164050D02*
X0148744Y0164050D01*
X0145608Y0164784D02*
X0144874Y0164050D01*
X0142672Y0164050D01*
X0142672Y0162582D02*
X0142672Y0166986D01*
X0144874Y0166986D01*
X0145608Y0166252D01*
X0145608Y0164784D01*
X0147276Y0168454D02*
X0148010Y0168454D01*
X0141004Y0166986D02*
X0138802Y0166986D01*
X0138068Y0166252D01*
X0138802Y0165518D01*
X0140270Y0165518D01*
X0141004Y0164784D01*
X0140270Y0164050D01*
X0138068Y0164050D01*
X0136467Y0164050D02*
X0134999Y0164050D01*
X0135733Y0164050D02*
X0135733Y0166986D01*
X0134999Y0166986D01*
X0135733Y0168454D02*
X0135733Y0169188D01*
X0133331Y0167720D02*
X0132597Y0168454D01*
X0130395Y0168454D01*
X0130395Y0164050D01*
X0132597Y0164050D01*
X0133331Y0164784D01*
X0133331Y0167720D01*
X0135733Y0160438D02*
X0135733Y0159704D01*
X0135733Y0158236D02*
X0135733Y0155300D01*
X0134999Y0155300D02*
X0136467Y0155300D01*
X0138068Y0156034D02*
X0138802Y0155300D01*
X0141004Y0155300D01*
X0141004Y0154566D02*
X0141004Y0158236D01*
X0138802Y0158236D01*
X0138068Y0157502D01*
X0138068Y0156034D01*
X0139536Y0153832D02*
X0140270Y0153832D01*
X0141004Y0154566D01*
X0142672Y0155300D02*
X0144140Y0155300D01*
X0143406Y0155300D02*
X0143406Y0158236D01*
X0142672Y0158236D01*
X0143406Y0159704D02*
X0143406Y0160438D01*
X0145742Y0159704D02*
X0147943Y0159704D01*
X0148677Y0158970D01*
X0148677Y0157502D01*
X0147943Y0156768D01*
X0145742Y0156768D01*
X0145742Y0155300D02*
X0145742Y0159704D01*
X0150345Y0157502D02*
X0150345Y0156034D01*
X0151079Y0155300D01*
X0152547Y0155300D01*
X0153281Y0156034D01*
X0153281Y0157502D01*
X0152547Y0158236D01*
X0151079Y0158236D01*
X0150345Y0157502D01*
X0154949Y0158236D02*
X0156417Y0158236D01*
X0155683Y0158970D02*
X0155683Y0156034D01*
X0156417Y0155300D01*
X0173365Y0164784D02*
X0174099Y0164050D01*
X0176301Y0164050D01*
X0176301Y0168454D01*
X0176301Y0166986D02*
X0174099Y0166986D01*
X0173365Y0166252D01*
X0173365Y0164784D01*
X0177969Y0165518D02*
X0179437Y0166986D01*
X0180171Y0166986D01*
X0181806Y0166252D02*
X0182540Y0166986D01*
X0184007Y0166986D01*
X0184741Y0166252D01*
X0184741Y0165518D01*
X0181806Y0165518D01*
X0181806Y0164784D02*
X0181806Y0166252D01*
X0181806Y0164784D02*
X0182540Y0164050D01*
X0184007Y0164050D01*
X0186410Y0164050D02*
X0188611Y0164050D01*
X0189345Y0164784D01*
X0188611Y0165518D01*
X0187144Y0165518D01*
X0186410Y0166252D01*
X0187144Y0166986D01*
X0189345Y0166986D01*
X0191013Y0166252D02*
X0191747Y0166986D01*
X0193949Y0166986D01*
X0193215Y0165518D02*
X0191747Y0165518D01*
X0191013Y0166252D01*
X0191013Y0164050D02*
X0193215Y0164050D01*
X0193949Y0164784D01*
X0193215Y0165518D01*
X0195617Y0166252D02*
X0195617Y0166986D01*
X0196351Y0166986D01*
X0196351Y0166252D01*
X0195617Y0166252D01*
X0195617Y0164784D02*
X0195617Y0164050D01*
X0196351Y0164050D01*
X0196351Y0164784D01*
X0195617Y0164784D01*
X0200395Y0164784D02*
X0201129Y0164050D01*
X0202597Y0164050D01*
X0203331Y0164784D01*
X0203331Y0167720D01*
X0200395Y0164784D01*
X0200395Y0167720D01*
X0201129Y0168454D01*
X0202597Y0168454D01*
X0203331Y0167720D01*
X0204999Y0168454D02*
X0204999Y0164050D01*
X0207201Y0164050D01*
X0207935Y0164784D01*
X0207935Y0166252D01*
X0207201Y0166986D01*
X0204999Y0166986D01*
X0209603Y0167720D02*
X0209603Y0164784D01*
X0212539Y0167720D01*
X0212539Y0164784D01*
X0211805Y0164050D01*
X0210337Y0164050D01*
X0209603Y0164784D01*
X0209603Y0167720D02*
X0210337Y0168454D01*
X0211805Y0168454D01*
X0212539Y0167720D01*
X0214207Y0166986D02*
X0215675Y0168454D01*
X0215675Y0164050D01*
X0214207Y0164050D02*
X0217143Y0164050D01*
X0218811Y0164050D02*
X0221747Y0164050D01*
X0220279Y0164050D02*
X0220279Y0168454D01*
X0218811Y0166986D01*
X0223415Y0166986D02*
X0224883Y0168454D01*
X0224883Y0164050D01*
X0223415Y0164050D02*
X0226351Y0164050D01*
X0228019Y0164050D02*
X0230955Y0164050D01*
X0229487Y0164050D02*
X0229487Y0168454D01*
X0228019Y0166986D01*
X0232623Y0167720D02*
X0232623Y0164784D01*
X0235558Y0167720D01*
X0235558Y0164784D01*
X0234824Y0164050D01*
X0233357Y0164050D01*
X0232623Y0164784D01*
X0232623Y0167720D02*
X0233357Y0168454D01*
X0234824Y0168454D01*
X0235558Y0167720D01*
X0237227Y0167720D02*
X0237960Y0168454D01*
X0239428Y0168454D01*
X0240162Y0167720D01*
X0237227Y0164784D01*
X0237960Y0164050D01*
X0239428Y0164050D01*
X0240162Y0164784D01*
X0240162Y0167720D01*
X0237227Y0167720D02*
X0237227Y0164784D01*
X0228019Y0159704D02*
X0230955Y0155300D01*
X0177969Y0164050D02*
X0177969Y0166986D01*
X0135733Y0158236D02*
X0134999Y0158236D01*
X0133331Y0158970D02*
X0132597Y0159704D01*
X0130395Y0159704D01*
X0130395Y0155300D01*
X0132597Y0155300D01*
X0133331Y0156034D01*
X0133331Y0158970D01*
X0071289Y0130220D02*
X0071289Y0127284D01*
X0070555Y0126550D01*
X0068353Y0126550D01*
X0068353Y0130954D01*
X0070555Y0130954D01*
X0071289Y0130220D01*
X0066685Y0130954D02*
X0066685Y0126550D01*
X0063749Y0130954D01*
X0063749Y0126550D01*
X0062081Y0127284D02*
X0062081Y0128752D01*
X0060613Y0128752D01*
X0059145Y0130220D02*
X0059145Y0127284D01*
X0059879Y0126550D01*
X0061347Y0126550D01*
X0062081Y0127284D01*
X0062081Y0130220D02*
X0061347Y0130954D01*
X0059879Y0130954D01*
X0059145Y0130220D01*
X0059145Y0120954D02*
X0061347Y0120954D01*
X0062081Y0120220D01*
X0062081Y0118752D01*
X0061347Y0118018D01*
X0059145Y0118018D01*
X0059145Y0116550D02*
X0059145Y0120954D01*
X0063749Y0120954D02*
X0065951Y0120954D01*
X0066685Y0120220D01*
X0066685Y0119486D01*
X0065951Y0118752D01*
X0063749Y0118752D01*
X0063749Y0116550D02*
X0063749Y0120954D01*
X0065951Y0118752D02*
X0066685Y0118018D01*
X0066685Y0117284D01*
X0065951Y0116550D01*
X0063749Y0116550D01*
X0068353Y0117284D02*
X0071289Y0120220D01*
X0071289Y0117284D01*
X0070555Y0116550D01*
X0069087Y0116550D01*
X0068353Y0117284D01*
X0068353Y0120220D01*
X0069087Y0120954D01*
X0070555Y0120954D01*
X0071289Y0120220D01*
X0065951Y0110954D02*
X0066685Y0110220D01*
X0063749Y0107284D01*
X0064483Y0106550D01*
X0065951Y0106550D01*
X0066685Y0107284D01*
X0066685Y0110220D01*
X0065951Y0110954D02*
X0064483Y0110954D01*
X0063749Y0110220D01*
X0063749Y0107284D01*
X0062081Y0107284D02*
X0061347Y0106550D01*
X0059145Y0106550D01*
X0059145Y0110954D01*
X0061347Y0110954D01*
X0062081Y0110220D01*
X0062081Y0109486D01*
X0061347Y0108752D01*
X0059145Y0108752D01*
X0061347Y0108752D02*
X0062081Y0108018D01*
X0062081Y0107284D01*
X0060613Y0100954D02*
X0059145Y0099486D01*
X0059145Y0096550D01*
X0059145Y0098752D02*
X0062081Y0098752D01*
X0062081Y0099486D02*
X0062081Y0096550D01*
X0063749Y0097284D02*
X0066685Y0100220D01*
X0066685Y0097284D01*
X0065951Y0096550D01*
X0064483Y0096550D01*
X0063749Y0097284D01*
X0063749Y0100220D01*
X0064483Y0100954D01*
X0065951Y0100954D01*
X0066685Y0100220D01*
X0062081Y0099486D02*
X0060613Y0100954D01*
X0229141Y0091536D02*
X0229141Y0090069D01*
X0229875Y0089335D01*
X0229875Y0087667D02*
X0229141Y0086933D01*
X0229141Y0085465D01*
X0229875Y0084731D01*
X0232811Y0084731D01*
X0233545Y0085465D01*
X0233545Y0086933D01*
X0232811Y0087667D01*
X0233545Y0089335D02*
X0230609Y0092270D01*
X0229875Y0092270D01*
X0229141Y0091536D01*
X0233545Y0092270D02*
X0233545Y0089335D01*
X0233545Y0083129D02*
X0233545Y0081661D01*
X0233545Y0082395D02*
X0229141Y0082395D01*
X0229141Y0081661D02*
X0229141Y0083129D01*
D12*
X0387473Y0082330D02*
X0388440Y0082330D01*
X0388440Y0080395D02*
X0387473Y0080395D01*
X0390375Y0080395D02*
X0390375Y0082330D01*
X0391343Y0083297D01*
X0394245Y0083297D01*
X0394245Y0080395D01*
X0393278Y0079427D01*
X0392310Y0080395D01*
X0392310Y0083297D01*
X0391343Y0085505D02*
X0390375Y0086472D01*
X0390375Y0089375D01*
X0392310Y0088407D02*
X0392310Y0086472D01*
X0391343Y0085505D01*
X0394245Y0085505D02*
X0394245Y0088407D01*
X0393278Y0089375D01*
X0392310Y0088407D01*
X0391343Y0091582D02*
X0390375Y0092549D01*
X0390375Y0095452D01*
X0392310Y0094484D02*
X0392310Y0092549D01*
X0391343Y0091582D01*
X0394245Y0091582D02*
X0394245Y0094484D01*
X0393278Y0095452D01*
X0392310Y0094484D01*
X0398440Y0092413D02*
X0404245Y0092413D01*
X0404245Y0089511D01*
X0403278Y0088543D01*
X0401343Y0088543D01*
X0400375Y0089511D01*
X0400375Y0092413D01*
X0403278Y0094620D02*
X0403278Y0095588D01*
X0404245Y0095588D01*
X0404245Y0094620D01*
X0403278Y0094620D01*
X0403278Y0097659D02*
X0404245Y0098627D01*
X0404245Y0101529D01*
X0403278Y0103736D02*
X0404245Y0104704D01*
X0404245Y0106639D01*
X0403278Y0107606D01*
X0401343Y0107606D01*
X0400375Y0106639D01*
X0400375Y0104704D01*
X0401343Y0103736D01*
X0403278Y0103736D01*
X0400375Y0101529D02*
X0400375Y0098627D01*
X0401343Y0097659D01*
X0403278Y0097659D01*
X0408440Y0098627D02*
X0408440Y0100562D01*
X0409408Y0101529D01*
X0413278Y0097659D01*
X0414245Y0098627D01*
X0414245Y0100562D01*
X0413278Y0101529D01*
X0409408Y0101529D01*
X0410375Y0103736D02*
X0408440Y0105671D01*
X0414245Y0105671D01*
X0414245Y0103736D02*
X0414245Y0107606D01*
X0413278Y0109813D02*
X0414245Y0110781D01*
X0414245Y0112716D01*
X0413278Y0113683D01*
X0412310Y0113683D01*
X0411343Y0112716D01*
X0411343Y0109813D01*
X0413278Y0109813D01*
X0411343Y0109813D02*
X0409408Y0111748D01*
X0408440Y0113683D01*
X0404245Y0113683D02*
X0401343Y0113683D01*
X0400375Y0112716D01*
X0401343Y0111748D01*
X0404245Y0111748D01*
X0404245Y0109813D02*
X0400375Y0109813D01*
X0400375Y0110781D01*
X0401343Y0111748D01*
X0394245Y0107788D02*
X0390375Y0107788D01*
X0390375Y0109723D02*
X0390375Y0110690D01*
X0390375Y0109723D02*
X0392310Y0107788D01*
X0392310Y0105580D02*
X0391343Y0105580D01*
X0390375Y0104613D01*
X0390375Y0102678D01*
X0391343Y0101710D01*
X0393278Y0101710D01*
X0394245Y0102678D01*
X0394245Y0104613D01*
X0392310Y0105580D02*
X0392310Y0101710D01*
X0394245Y0099594D02*
X0394245Y0097659D01*
X0394245Y0098627D02*
X0388440Y0098627D01*
X0388440Y0097659D01*
X0408440Y0098627D02*
X0409408Y0097659D01*
X0413278Y0097659D01*
X0414245Y0095452D02*
X0414245Y0091582D01*
X0410375Y0095452D01*
X0409408Y0095452D01*
X0408440Y0094484D01*
X0408440Y0092549D01*
X0409408Y0091582D01*
X0410375Y0083343D02*
X0410375Y0082375D01*
X0412310Y0080440D01*
X0414245Y0080440D02*
X0410375Y0080440D01*
X0411343Y0078233D02*
X0412310Y0078233D01*
X0412310Y0074363D01*
X0411343Y0074363D02*
X0410375Y0075331D01*
X0410375Y0077266D01*
X0411343Y0078233D01*
X0414245Y0077266D02*
X0414245Y0075331D01*
X0413278Y0074363D01*
X0411343Y0074363D01*
X0411343Y0072156D02*
X0410375Y0071188D01*
X0410375Y0068286D01*
X0408440Y0068286D02*
X0414245Y0068286D01*
X0414245Y0071188D01*
X0413278Y0072156D01*
X0411343Y0072156D01*
X0404245Y0071325D02*
X0400375Y0071325D01*
X0400375Y0074227D01*
X0401343Y0075195D01*
X0404245Y0075195D01*
X0403278Y0077402D02*
X0401343Y0077402D01*
X0400375Y0078369D01*
X0400375Y0080304D01*
X0401343Y0081272D01*
X0402310Y0081272D01*
X0402310Y0077402D01*
X0403278Y0077402D02*
X0404245Y0078369D01*
X0404245Y0080304D01*
X0404245Y0083479D02*
X0400375Y0083479D01*
X0400375Y0085414D02*
X0400375Y0086381D01*
X0400375Y0085414D02*
X0402310Y0083479D01*
X0388440Y0077220D02*
X0388440Y0073350D01*
X0394245Y0073350D01*
X0391343Y0073350D02*
X0391343Y0075285D01*
X0400375Y0069163D02*
X0400375Y0068195D01*
X0402310Y0066260D01*
X0404245Y0066260D02*
X0400375Y0066260D01*
X0401343Y0064053D02*
X0400375Y0063085D01*
X0400375Y0061151D01*
X0401343Y0060183D01*
X0403278Y0060183D01*
X0404245Y0061151D01*
X0404245Y0063085D01*
X0402310Y0064053D02*
X0402310Y0060183D01*
X0400375Y0057976D02*
X0400375Y0055073D01*
X0401343Y0054106D01*
X0403278Y0054106D01*
X0404245Y0055073D01*
X0404245Y0057976D01*
X0398440Y0057976D01*
X0394245Y0058989D02*
X0394245Y0056086D01*
X0393278Y0055119D01*
X0392310Y0056086D01*
X0392310Y0058989D01*
X0391343Y0058989D02*
X0394245Y0058989D01*
X0394245Y0061196D02*
X0394245Y0064098D01*
X0393278Y0065066D01*
X0392310Y0064098D01*
X0392310Y0062163D01*
X0391343Y0061196D01*
X0390375Y0062163D01*
X0390375Y0065066D01*
X0391343Y0058989D02*
X0390375Y0058021D01*
X0390375Y0056086D01*
X0390375Y0052957D02*
X0392310Y0050054D01*
X0394245Y0052957D01*
X0394245Y0050054D02*
X0388440Y0050054D01*
X0390375Y0047847D02*
X0394245Y0047847D01*
X0394245Y0044945D01*
X0393278Y0043977D01*
X0390375Y0043977D01*
X0394245Y0041770D02*
X0394245Y0037900D01*
X0388440Y0037900D01*
X0400375Y0038867D02*
X0400375Y0041770D01*
X0402310Y0040802D02*
X0402310Y0038867D01*
X0401343Y0037900D01*
X0400375Y0038867D01*
X0402310Y0040802D02*
X0403278Y0041770D01*
X0404245Y0040802D01*
X0404245Y0037900D01*
X0408440Y0037900D02*
X0408440Y0040802D01*
X0409408Y0041770D01*
X0413278Y0041770D01*
X0414245Y0040802D01*
X0414245Y0037900D01*
X0408440Y0037900D01*
X0411343Y0043977D02*
X0410375Y0044945D01*
X0410375Y0046880D01*
X0411343Y0047847D01*
X0412310Y0047847D01*
X0412310Y0043977D01*
X0411343Y0043977D02*
X0413278Y0043977D01*
X0414245Y0044945D01*
X0414245Y0046880D01*
X0413278Y0050054D02*
X0414245Y0051022D01*
X0414245Y0053924D01*
X0413278Y0056132D02*
X0411343Y0056132D01*
X0410375Y0057099D01*
X0410375Y0059034D01*
X0411343Y0060002D01*
X0412310Y0060002D01*
X0412310Y0056132D01*
X0413278Y0056132D02*
X0414245Y0057099D01*
X0414245Y0059034D01*
X0414245Y0062209D02*
X0410375Y0062209D01*
X0410375Y0063176D01*
X0411343Y0064144D01*
X0410375Y0065111D01*
X0411343Y0066079D01*
X0414245Y0066079D01*
X0414245Y0064144D02*
X0411343Y0064144D01*
X0402310Y0064053D02*
X0401343Y0064053D01*
X0404245Y0051989D02*
X0404245Y0050054D01*
X0404245Y0051022D02*
X0398440Y0051022D01*
X0398440Y0050054D01*
X0401343Y0047847D02*
X0400375Y0046880D01*
X0400375Y0044945D01*
X0401343Y0043977D01*
X0403278Y0043977D01*
X0404245Y0044945D01*
X0404245Y0046880D01*
X0403278Y0047847D01*
X0401343Y0047847D01*
X0410375Y0051022D02*
X0410375Y0053924D01*
X0410375Y0051022D02*
X0411343Y0050054D01*
X0413278Y0050054D01*
X0411343Y0121968D02*
X0411343Y0125838D01*
X0412310Y0134122D02*
X0412310Y0137025D01*
X0411343Y0137992D01*
X0409408Y0137992D01*
X0408440Y0137025D01*
X0408440Y0134122D01*
X0414245Y0134122D01*
X0412310Y0136057D02*
X0414245Y0137992D01*
X0413278Y0140199D02*
X0411343Y0140199D01*
X0410375Y0141167D01*
X0410375Y0143102D01*
X0411343Y0144069D01*
X0412310Y0144069D01*
X0412310Y0140199D01*
X0413278Y0140199D02*
X0414245Y0141167D01*
X0414245Y0143102D01*
X0410375Y0146277D02*
X0414245Y0148212D01*
X0410375Y0150147D01*
X0409408Y0158431D02*
X0408440Y0159398D01*
X0408440Y0161333D01*
X0409408Y0162301D01*
X0413278Y0162301D02*
X0414245Y0161333D01*
X0414245Y0159398D01*
X0413278Y0158431D01*
X0409408Y0158431D01*
X0291007Y0185137D02*
X0287137Y0185137D01*
X0287137Y0184170D02*
X0287137Y0186105D01*
X0288104Y0187072D01*
X0290039Y0187072D01*
X0291007Y0186105D01*
X0291007Y0185137D01*
X0290039Y0183202D02*
X0288104Y0183202D01*
X0287137Y0184170D01*
X0284929Y0183202D02*
X0282027Y0183202D01*
X0281059Y0184170D01*
X0281059Y0186105D01*
X0282027Y0187072D01*
X0284929Y0187072D01*
X0278852Y0186105D02*
X0278852Y0183202D01*
X0275950Y0183202D01*
X0274982Y0184170D01*
X0275950Y0185137D01*
X0278852Y0185137D01*
X0278852Y0186105D02*
X0277885Y0187072D01*
X0275950Y0187072D01*
X0272866Y0186105D02*
X0270931Y0186105D01*
X0271898Y0188040D02*
X0271898Y0183202D01*
X0267801Y0187072D02*
X0265866Y0185137D01*
X0265866Y0183202D02*
X0265866Y0187072D01*
X0267801Y0187072D02*
X0268769Y0187072D01*
X0271898Y0188040D02*
X0272866Y0189007D01*
X0263659Y0186105D02*
X0263659Y0185137D01*
X0259789Y0185137D01*
X0259789Y0184170D02*
X0259789Y0186105D01*
X0260757Y0187072D01*
X0262692Y0187072D01*
X0263659Y0186105D01*
X0262692Y0183202D02*
X0260757Y0183202D01*
X0259789Y0184170D01*
X0257673Y0183202D02*
X0256705Y0184170D01*
X0256705Y0188040D01*
X0255738Y0187072D02*
X0257673Y0187072D01*
X0253531Y0186105D02*
X0253531Y0183202D01*
X0253531Y0186105D02*
X0252563Y0187072D01*
X0249661Y0187072D01*
X0249661Y0183202D01*
X0247544Y0183202D02*
X0245609Y0183202D01*
X0246577Y0183202D02*
X0246577Y0189007D01*
X0247544Y0189007D02*
X0245609Y0189007D01*
X0237370Y0187072D02*
X0236403Y0187072D01*
X0234468Y0185137D01*
X0234468Y0183202D02*
X0234468Y0187072D01*
X0232260Y0186105D02*
X0232260Y0185137D01*
X0228391Y0185137D01*
X0228391Y0184170D02*
X0228391Y0186105D01*
X0229358Y0187072D01*
X0231293Y0187072D01*
X0232260Y0186105D01*
X0231293Y0183202D02*
X0229358Y0183202D01*
X0228391Y0184170D01*
X0226183Y0184170D02*
X0225216Y0185137D01*
X0223281Y0185137D01*
X0222313Y0186105D01*
X0223281Y0187072D01*
X0226183Y0187072D01*
X0226183Y0184170D02*
X0225216Y0183202D01*
X0222313Y0183202D01*
X0220106Y0184170D02*
X0220106Y0189007D01*
X0216236Y0189007D02*
X0216236Y0184170D01*
X0217204Y0183202D01*
X0219139Y0183202D01*
X0220106Y0184170D01*
X0207997Y0187072D02*
X0207030Y0187072D01*
X0205095Y0185137D01*
X0205095Y0183202D02*
X0205095Y0187072D01*
X0202887Y0186105D02*
X0202887Y0185137D01*
X0199017Y0185137D01*
X0199017Y0184170D02*
X0199017Y0186105D01*
X0199985Y0187072D01*
X0201920Y0187072D01*
X0202887Y0186105D01*
X0201920Y0183202D02*
X0199985Y0183202D01*
X0199017Y0184170D01*
X0196810Y0184170D02*
X0196810Y0187072D01*
X0192940Y0187072D02*
X0192940Y0184170D01*
X0193908Y0183202D01*
X0194875Y0184170D01*
X0195843Y0183202D01*
X0196810Y0184170D01*
X0190733Y0184170D02*
X0190733Y0186105D01*
X0189766Y0187072D01*
X0187831Y0187072D01*
X0186863Y0186105D01*
X0186863Y0184170D01*
X0187831Y0183202D01*
X0189766Y0183202D01*
X0190733Y0184170D01*
X0184656Y0186105D02*
X0183688Y0185137D01*
X0180786Y0185137D01*
X0180786Y0183202D02*
X0180786Y0189007D01*
X0183688Y0189007D01*
X0184656Y0188040D01*
X0184656Y0186105D01*
X0172501Y0187072D02*
X0172501Y0184170D01*
X0171534Y0183202D01*
X0170566Y0184170D01*
X0169599Y0183202D01*
X0168631Y0184170D01*
X0168631Y0187072D01*
X0166424Y0186105D02*
X0165457Y0187072D01*
X0163522Y0187072D01*
X0162554Y0186105D01*
X0162554Y0184170D01*
X0163522Y0183202D01*
X0165457Y0183202D01*
X0166424Y0184170D01*
X0166424Y0186105D01*
X0160347Y0183202D02*
X0156477Y0183202D01*
X0156477Y0189007D01*
M02*
