G75*
%MOIN*%
%OFA0B0*%
%FSLAX25Y25*%
%IPPOS*%
%LPD*%
%AMOC8*
5,1,8,0,0,1.08239X$1,22.5*
%
%ADD10C,0.00394*%
%ADD11R,0.05118X0.04331*%
%ADD12R,0.04331X0.05118*%
%ADD13R,0.03937X0.03150*%
%ADD14R,0.04331X0.02362*%
%ADD15R,0.06890X0.02756*%
%ADD16R,0.05315X0.01575*%
D10*
X0027595Y0013833D02*
X0027595Y0183125D01*
X0027598Y0183410D01*
X0027609Y0183696D01*
X0027626Y0183981D01*
X0027650Y0184265D01*
X0027681Y0184549D01*
X0027719Y0184832D01*
X0027764Y0185113D01*
X0027815Y0185394D01*
X0027873Y0185674D01*
X0027938Y0185952D01*
X0028010Y0186228D01*
X0028088Y0186502D01*
X0028173Y0186775D01*
X0028265Y0187045D01*
X0028363Y0187313D01*
X0028467Y0187579D01*
X0028578Y0187842D01*
X0028695Y0188102D01*
X0028818Y0188360D01*
X0028948Y0188614D01*
X0029084Y0188865D01*
X0029225Y0189113D01*
X0029373Y0189357D01*
X0029526Y0189598D01*
X0029686Y0189834D01*
X0029851Y0190067D01*
X0030021Y0190296D01*
X0030197Y0190521D01*
X0030379Y0190741D01*
X0030565Y0190957D01*
X0030757Y0191168D01*
X0030954Y0191375D01*
X0031156Y0191577D01*
X0031363Y0191774D01*
X0031574Y0191966D01*
X0031790Y0192152D01*
X0032010Y0192334D01*
X0032235Y0192510D01*
X0032464Y0192680D01*
X0032697Y0192845D01*
X0032933Y0193005D01*
X0033174Y0193158D01*
X0033418Y0193306D01*
X0033666Y0193447D01*
X0033917Y0193583D01*
X0034171Y0193713D01*
X0034429Y0193836D01*
X0034689Y0193953D01*
X0034952Y0194064D01*
X0035218Y0194168D01*
X0035486Y0194266D01*
X0035756Y0194358D01*
X0036029Y0194443D01*
X0036303Y0194521D01*
X0036579Y0194593D01*
X0036857Y0194658D01*
X0037137Y0194716D01*
X0037418Y0194767D01*
X0037699Y0194812D01*
X0037982Y0194850D01*
X0038266Y0194881D01*
X0038550Y0194905D01*
X0038835Y0194922D01*
X0039121Y0194933D01*
X0039406Y0194936D01*
X0409485Y0194936D01*
X0409770Y0194933D01*
X0410056Y0194922D01*
X0410341Y0194905D01*
X0410625Y0194881D01*
X0410909Y0194850D01*
X0411192Y0194812D01*
X0411473Y0194767D01*
X0411754Y0194716D01*
X0412034Y0194658D01*
X0412312Y0194593D01*
X0412588Y0194521D01*
X0412862Y0194443D01*
X0413135Y0194358D01*
X0413405Y0194266D01*
X0413673Y0194168D01*
X0413939Y0194064D01*
X0414202Y0193953D01*
X0414462Y0193836D01*
X0414720Y0193713D01*
X0414974Y0193583D01*
X0415225Y0193447D01*
X0415473Y0193306D01*
X0415717Y0193158D01*
X0415958Y0193005D01*
X0416194Y0192845D01*
X0416427Y0192680D01*
X0416656Y0192510D01*
X0416881Y0192334D01*
X0417101Y0192152D01*
X0417317Y0191966D01*
X0417528Y0191774D01*
X0417735Y0191577D01*
X0417937Y0191375D01*
X0418134Y0191168D01*
X0418326Y0190957D01*
X0418512Y0190741D01*
X0418694Y0190521D01*
X0418870Y0190296D01*
X0419040Y0190067D01*
X0419205Y0189834D01*
X0419365Y0189598D01*
X0419518Y0189357D01*
X0419666Y0189113D01*
X0419807Y0188865D01*
X0419943Y0188614D01*
X0420073Y0188360D01*
X0420196Y0188102D01*
X0420313Y0187842D01*
X0420424Y0187579D01*
X0420528Y0187313D01*
X0420626Y0187045D01*
X0420718Y0186775D01*
X0420803Y0186502D01*
X0420881Y0186228D01*
X0420953Y0185952D01*
X0421018Y0185674D01*
X0421076Y0185394D01*
X0421127Y0185113D01*
X0421172Y0184832D01*
X0421210Y0184549D01*
X0421241Y0184265D01*
X0421265Y0183981D01*
X0421282Y0183696D01*
X0421293Y0183410D01*
X0421296Y0183125D01*
X0421296Y0013833D01*
X0421293Y0013548D01*
X0421282Y0013262D01*
X0421265Y0012977D01*
X0421241Y0012693D01*
X0421210Y0012409D01*
X0421172Y0012126D01*
X0421127Y0011845D01*
X0421076Y0011564D01*
X0421018Y0011284D01*
X0420953Y0011006D01*
X0420881Y0010730D01*
X0420803Y0010456D01*
X0420718Y0010183D01*
X0420626Y0009913D01*
X0420528Y0009645D01*
X0420424Y0009379D01*
X0420313Y0009116D01*
X0420196Y0008856D01*
X0420073Y0008598D01*
X0419943Y0008344D01*
X0419807Y0008093D01*
X0419666Y0007845D01*
X0419518Y0007601D01*
X0419365Y0007360D01*
X0419205Y0007124D01*
X0419040Y0006891D01*
X0418870Y0006662D01*
X0418694Y0006437D01*
X0418512Y0006217D01*
X0418326Y0006001D01*
X0418134Y0005790D01*
X0417937Y0005583D01*
X0417735Y0005381D01*
X0417528Y0005184D01*
X0417317Y0004992D01*
X0417101Y0004806D01*
X0416881Y0004624D01*
X0416656Y0004448D01*
X0416427Y0004278D01*
X0416194Y0004113D01*
X0415958Y0003953D01*
X0415717Y0003800D01*
X0415473Y0003652D01*
X0415225Y0003511D01*
X0414974Y0003375D01*
X0414720Y0003245D01*
X0414462Y0003122D01*
X0414202Y0003005D01*
X0413939Y0002894D01*
X0413673Y0002790D01*
X0413405Y0002692D01*
X0413135Y0002600D01*
X0412862Y0002515D01*
X0412588Y0002437D01*
X0412312Y0002365D01*
X0412034Y0002300D01*
X0411754Y0002242D01*
X0411473Y0002191D01*
X0411192Y0002146D01*
X0410909Y0002108D01*
X0410625Y0002077D01*
X0410341Y0002053D01*
X0410056Y0002036D01*
X0409770Y0002025D01*
X0409485Y0002022D01*
X0039406Y0002022D01*
X0039121Y0002025D01*
X0038835Y0002036D01*
X0038550Y0002053D01*
X0038266Y0002077D01*
X0037982Y0002108D01*
X0037699Y0002146D01*
X0037418Y0002191D01*
X0037137Y0002242D01*
X0036857Y0002300D01*
X0036579Y0002365D01*
X0036303Y0002437D01*
X0036029Y0002515D01*
X0035756Y0002600D01*
X0035486Y0002692D01*
X0035218Y0002790D01*
X0034952Y0002894D01*
X0034689Y0003005D01*
X0034429Y0003122D01*
X0034171Y0003245D01*
X0033917Y0003375D01*
X0033666Y0003511D01*
X0033418Y0003652D01*
X0033174Y0003800D01*
X0032933Y0003953D01*
X0032697Y0004113D01*
X0032464Y0004278D01*
X0032235Y0004448D01*
X0032010Y0004624D01*
X0031790Y0004806D01*
X0031574Y0004992D01*
X0031363Y0005184D01*
X0031156Y0005381D01*
X0030954Y0005583D01*
X0030757Y0005790D01*
X0030565Y0006001D01*
X0030379Y0006217D01*
X0030197Y0006437D01*
X0030021Y0006662D01*
X0029851Y0006891D01*
X0029686Y0007124D01*
X0029526Y0007360D01*
X0029373Y0007601D01*
X0029225Y0007845D01*
X0029084Y0008093D01*
X0028948Y0008344D01*
X0028818Y0008598D01*
X0028695Y0008856D01*
X0028578Y0009116D01*
X0028467Y0009379D01*
X0028363Y0009645D01*
X0028265Y0009913D01*
X0028173Y0010183D01*
X0028088Y0010456D01*
X0028010Y0010730D01*
X0027938Y0011006D01*
X0027873Y0011284D01*
X0027815Y0011564D01*
X0027764Y0011845D01*
X0027719Y0012126D01*
X0027681Y0012409D01*
X0027650Y0012693D01*
X0027626Y0012977D01*
X0027609Y0013262D01*
X0027598Y0013548D01*
X0027595Y0013833D01*
D11*
X0167595Y0073873D03*
X0167595Y0080172D03*
X0167595Y0088873D03*
X0167595Y0095172D03*
X0187595Y0095172D03*
X0187595Y0088873D03*
X0187595Y0080172D03*
X0187595Y0073873D03*
X0207595Y0073873D03*
X0207595Y0080172D03*
X0207595Y0088873D03*
X0207595Y0095172D03*
X0207595Y0103873D03*
X0207595Y0110172D03*
X0187595Y0110172D03*
X0187595Y0103873D03*
X0167595Y0111373D03*
X0167595Y0117672D03*
X0251345Y0106422D03*
X0251345Y0100123D03*
X0258845Y0100123D03*
X0258845Y0106422D03*
X0251345Y0092672D03*
X0251345Y0086373D03*
X0273845Y0061422D03*
X0273845Y0055123D03*
X0266345Y0055172D03*
X0258845Y0055172D03*
X0258845Y0048873D03*
X0266345Y0048873D03*
X0280095Y0047672D03*
X0290095Y0047672D03*
X0300095Y0047672D03*
X0300095Y0041373D03*
X0290095Y0041373D03*
X0280095Y0041373D03*
X0285095Y0055123D03*
X0295095Y0055123D03*
X0305095Y0055123D03*
X0305095Y0061422D03*
X0295095Y0061422D03*
X0285095Y0061422D03*
X0310095Y0047672D03*
X0310095Y0041373D03*
X0247595Y0045123D03*
X0240095Y0045123D03*
X0240095Y0051422D03*
X0247595Y0051422D03*
X0321345Y0080123D03*
X0321345Y0086422D03*
X0308845Y0102623D03*
X0308845Y0108922D03*
D12*
X0301995Y0117022D03*
X0295696Y0117022D03*
X0281995Y0130772D03*
X0275696Y0130772D03*
X0275696Y0138272D03*
X0281995Y0138272D03*
X0281995Y0145772D03*
X0275696Y0145772D03*
X0293196Y0138272D03*
X0299495Y0138272D03*
X0319446Y0102022D03*
X0325745Y0102022D03*
X0325745Y0094522D03*
X0319446Y0094522D03*
X0200745Y0095772D03*
X0194446Y0095772D03*
X0180745Y0095772D03*
X0174446Y0095772D03*
X0174446Y0110772D03*
X0180745Y0110772D03*
X0194446Y0110772D03*
X0200745Y0110772D03*
X0200745Y0080772D03*
X0194446Y0080772D03*
X0180745Y0080772D03*
X0174446Y0080772D03*
D13*
X0267782Y0130782D03*
X0259908Y0134522D03*
X0267782Y0138262D03*
D14*
X0293333Y0130762D03*
X0304357Y0130762D03*
X0304357Y0127022D03*
X0304357Y0123282D03*
X0293333Y0123282D03*
D15*
X0242467Y0099522D03*
X0242467Y0094522D03*
X0242467Y0089522D03*
X0242467Y0084522D03*
X0242467Y0079522D03*
X0242467Y0074522D03*
X0242467Y0069522D03*
X0220223Y0069522D03*
X0220223Y0074522D03*
X0220223Y0079522D03*
X0220223Y0084522D03*
X0220223Y0089522D03*
X0220223Y0094522D03*
X0220223Y0099522D03*
D16*
X0284829Y0097199D03*
X0284829Y0094640D03*
X0284829Y0092081D03*
X0284829Y0089522D03*
X0284829Y0086963D03*
X0284829Y0084404D03*
X0284829Y0081845D03*
X0307861Y0081845D03*
X0307861Y0084404D03*
X0307861Y0086963D03*
X0307861Y0089522D03*
X0307861Y0092081D03*
X0307861Y0094640D03*
X0307861Y0097199D03*
M02*
